<?xml version="1.0" encoding="utf-8"?>
<!-- Generator: Adobe Illustrator 18.1.1, SVG Export Plug-In . SVG Version: 6.00 Build 0)  -->
<svg version="1.1" id="Layer_1" xmlns="http://www.w3.org/2000/svg" xmlns:xlink="http://www.w3.org/1999/xlink" x="0px" y="0px"
	 viewBox="0 0 500 500" enable-background="new 0 0 500 500" xml:space="preserve">
<g>
	<circle fill="#D8D6EC" cx="250" cy="250" r="226.5"/>
</g>
<g>
	<g>
		<defs>
			<rect id="SVGID_1_" x="100.7" y="58.7" width="298.5" height="382.5"/>
		</defs>
		<clipPath id="SVGID_2_">
			<use xlink:href="#SVGID_1_"  overflow="visible"/>
		</clipPath>
		<g clip-path="url(#SVGID_2_)">
			<path fill="#F04D5D" d="M266.4,172.2c-2,0.9-4.1,1.7-6.1,2.4c-1.3,0.5-2.6,1-3.9,1.6c0.1-0.2,0.2-0.4,0.4-0.6
				c-12.8,3.1-26.3,1.2-37.4-7c-63.2-16.6-118.7,26.9-118.7,97.7c0,81.4,62.6,205.1,147.3,167.7c89.2,38.6,147.4-86.3,147.4-167.7
				C395.5,191,340.1,145.6,266.4,172.2z"/>
			<g>
				<path d="M265.7,171.2c-3.3,1.4-6.7,2.6-10,4c0.8,0.4,1.6,0.8,2.3,1.3c0.1-0.2,0.2-0.4,0.4-0.6c0.7-1.2-1.2-1.6-1.9-1.4
					c-6.1,1.4-12.3,1.8-18.4,0.7c-2.8-0.5-5.5-1.3-8.2-2.4c-3.3-1.3-6-3.7-9.2-5.1c-6.9-3.2-16.6-3.5-24.1-3.7
					c-15-0.5-30.1,2.4-43.6,8.8c-29,13.8-47.4,42.5-52.3,73.7c-5,31.7,1.9,65.6,12.7,95.4c10.5,28.9,26.2,57.4,49.5,77.9
					c20.8,18.3,47.8,27.3,74.9,19.4c2.9-0.8,7-3.4,9.9-3.6c1.5-0.1,3.8,1.4,5.2,1.9c1.9,0.7,3.8,1.3,5.7,1.8
					c6.7,1.9,13.5,3,20.4,3.2c13,0.3,25.8-3,37.2-9.1c25.6-13.6,43.5-38.7,56-64.2c13.7-27.9,22.3-59,24.5-90
					c2.2-31.2-3.7-64.6-25.2-88.4c-20.3-22.5-50.4-30.6-79.8-26.2c-8.7,1.3-17.2,3.6-25.5,6.5c-2,0.7-1.4,3.1,0.6,2.4
					c29.6-10.5,63.4-11.3,89.7,8c25.3,18.6,36.4,50.3,37.3,80.8c0.8,29.3-5.6,59.2-16,86.5c-10.3,27-25.3,53.9-47.9,72.5
					c-21.7,17.9-49,23.6-75.7,13.8c-2.7-1-4.7-2.5-7.4-1.7c-3.8,1.1-7.4,2.9-11.3,3.9c-6.8,1.8-13.9,2.7-21,2.4
					c-13.1-0.6-25.6-5.2-36.5-12.3c-24.8-16-42.1-42.4-54.1-68.8c-12.4-27.4-20.5-57.7-21.3-87.9c-0.9-32.4,10.1-65.7,36.4-86.2
					c12.2-9.5,26.8-15.4,42.1-17.3c7.8-1,15.7-0.9,23.5,0c3.9,0.5,8,1,11.8,2.1c5.5,1.7,10,5.6,15.6,7.2c8.3,2.5,16.9,2.3,25.3,0.4
					c-0.6-0.5-1.3-0.9-1.9-1.4c-0.1,0.2-0.2,0.4-0.4,0.6c-0.9,1.4,1.6,1.6,2.3,1.3c3.3-1.4,6.7-2.5,10-4
					C269.3,172.4,267.4,170.4,265.7,171.2z"/>
			</g>
		</g>
	</g>
	<g>
		<path fill="#82C670" d="M249.8,167.7c4.4-0.4,8.2-4.2,8.5-8.5c0,0,2.8-33.6-20.6-57c-23.5-23.5-57-20.7-57-20.7
			c-4.3,0.3-8.1,4.2-8.5,8.5c0,0-2.8,33.7,20.6,57.1C216.1,170.5,249.8,167.7,249.8,167.7L249.8,167.7z M249.8,167.7"/>
		<g>
			<path d="M249.5,168.6c7.1-1.2,10.5-6.2,10.5-12.9c0-9.1-1.5-18.4-4.4-27c-8.4-24.9-29.3-41.6-54.8-46.4
				c-9.6-1.8-29.6-5.4-30.4,9.5c-1.1,20.6,6.9,42.9,21.9,57.1c14.5,13.8,36.7,21.3,56.8,19.8c1.1-0.1,3.6-1.9,1.4-1.7
				c-14.6,1.1-30.5-3-43.1-10.4c-19.9-11.7-31-32.8-33.3-55.3c-0.4-4.2-1.4-9.9,0.3-14c2.7-6.7,11.1-5.2,16.8-4.6
				c22.9,2.3,44.2,13.9,55.7,34.4c5.3,9.5,8.3,20.2,9.4,31c0.6,6.1,2.4,17.4-6.2,18.9C248.5,167.2,247.2,168.9,249.5,168.6z"/>
			<path d="M249.1,168.6c1.1,0,3.6-1.7,1.4-1.7C249.3,166.9,246.9,168.6,249.1,168.6L249.1,168.6z"/>
		</g>
	</g>
	<g>
		<g>
			<path d="M256.3,171.9c8-15.4,16.6-33,29.4-45.1c11.1-10.4,25.8-15.7,38.8-23.3c2.3-1.4,1.7-2.6-0.7-2.8c-3.2-0.2-7.2,1.1-10,2.7
				c-13.6,8.1-29,13.7-40.7,24.7c-13.3,12.5-22.3,30.3-30.6,46.4c-1.1,2.1,4.9,1.2,5.6,1.1C250.2,175.2,255,174.2,256.3,171.9
				L256.3,171.9z"/>
		</g>
	</g>
</g>
</svg>
