<?xml version="1.0" encoding="utf-8"?>
<!-- Generator: Adobe Illustrator 18.1.1, SVG Export Plug-In . SVG Version: 6.00 Build 0)  -->
<svg version="1.1" id="Layer_1" xmlns="http://www.w3.org/2000/svg" xmlns:xlink="http://www.w3.org/1999/xlink" x="0px" y="0px"
	 viewBox="0 0 500 500" enable-background="new 0 0 500 500" xml:space="preserve">
<g>
	<circle fill="#E2EDC1" cx="250" cy="250" r="226.5"/>
</g>
<g>
	<g>
		<path fill="#935FA7" d="M386.6,376.4H113.4c-17.5,0-31.9-14.3-31.9-31.9V168.1c0-17.5,14.3-31.9,31.9-31.9h273.3
			c17.5,0,31.9,14.3,31.9,31.9v176.5C418.5,362,404.2,376.4,386.6,376.4z"/>
		<g>
			<path d="M386.8,375.2c-26,0-51.9,0-77.9,0c-46,0-92,0-138,0c-15.5,0-31.1,0-46.6,0c-3.3,0-6.6,0-10,0
				c-12.2-0.2-23.3-6.9-28.4-18.1c-2.6-5.8-2.8-11.7-2.8-17.8c0-6.7,0-13.4,0-20.1c0-21.9,0-43.7,0-65.6c0-21.5,0-42.9,0-64.4
				c0-13.6-2.2-29.5,6.9-40.8c9.7-11.9,23.1-11,36.6-11c16.3,0,32.7,0,49,0c46,0,92,0,137.9,0c17.8,0,35.6,0,53.4,0
				c8.8,0,19.4-1.3,28,1.3c13.3,4,21.7,16.5,21.8,30.1c0,4.4,0,8.8,0,13.2c0,19.8,0,39.7,0,59.5c0,34.3,0.6,68.7,0,103.1
				C416.5,361.3,403.7,374.8,386.8,375.2c-1.9,0-2.5,2.5-0.3,2.5c14.9-0.3,28.4-10,32.5-24.6c1.4-5.1,1.2-10.2,1.2-15.3
				c0-18.2,0-36.3,0-54.5c0-38.1,0.2-76.3,0-114.4c-0.1-20-15.7-33.8-35.2-33.9c-11.6,0-23.1,0-34.7,0c-45.9,0-91.8,0-137.7,0
				c-32.5,0-65-0.1-97.5,0c-19.5,0.1-35.1,14.5-35.2,34.4c-0.1,14.5,0,29,0,43.4c0,42,0,84,0,126c0,5.2-0.2,10.4,1.4,15.5
				c4.3,14.1,17.5,23.1,32,23.4c8.2,0.1,16.5,0,24.7,0c44,0,87.9,0,131.9,0c36.9,0,73.8,0,110.8,0c2,0,4,0,6,0
				C388.4,377.6,389,375.2,386.8,375.2z"/>
		</g>
	</g>
	<path stroke="#000000" stroke-width="1.137" stroke-miterlimit="10" d="M139.2,376.4c-8.4,0-15.3,6.8-15.3,15.3s6.8,15.3,15.3,15.3
		s15.3-6.8,15.3-15.3S147.6,376.4,139.2,376.4z M139.2,400c-4.6,0-8.3-3.7-8.3-8.3c0-4.6,3.7-8.3,8.3-8.3c4.6,0,8.3,3.7,8.3,8.3
		C147.5,396.2,143.8,400,139.2,400z"/>
	<path stroke="#000000" stroke-width="1.137" stroke-miterlimit="10" d="M360.8,376.4c-8.4,0-15.3,6.8-15.3,15.3s6.8,15.3,15.3,15.3
		s15.3-6.8,15.3-15.3S369.2,376.4,360.8,376.4z M360.8,400c-4.6,0-8.3-3.7-8.3-8.3c0-4.6,3.7-8.3,8.3-8.3c4.6,0,8.3,3.7,8.3,8.3
		C369.1,396.2,365.4,400,360.8,400z"/>
	<path stroke="#000000" stroke-width="0.8379" stroke-miterlimit="10" d="M203.8,129.7v-18.3c0-3.7,2.1-6.7,4.6-6.7h83.2
		c2.5,0,4.6,3,4.6,6.7v18.3H309V99c0-3.2-2.6-5.9-5.9-5.9H196.8c-3.2,0-5.9,2.6-5.9,5.9v30.7H203.8z"/>
	<g>
		<g>
			<path d="M195.7,136.6c0,27.1,0,54.2,0,81.3c0,43.1,0,86.3,0,129.4c0,9.8,0,19.6,0,29.5c0,0.9,3.3,0.3,3.3-0.9
				c0-27.1,0-54.2,0-81.3c0-43.1,0-86.3,0-129.4c0-9.8,0-19.6,0-29.5C199,134.9,195.7,135.4,195.7,136.6L195.7,136.6z"/>
		</g>
	</g>
	<g>
		<g>
			<path d="M299.3,136.6c0,27.1,0,54.2,0,81.3c0,43.1,0,86.3,0,129.4c0,9.8,0,19.6,0,29.5c0,0.9,3.3,0.3,3.3-0.9
				c0-27.1,0-54.2,0-81.3c0-43.1,0-86.3,0-129.4c0-9.8,0-19.6,0-29.5C302.6,134.8,299.3,135.4,299.3,136.6L299.3,136.6z"/>
		</g>
	</g>
	<path fill="#FBDA01" stroke="#000000" stroke-width="1.137" stroke-miterlimit="10" d="M81.5,295.5v48.4
		c0,17.5,14.3,31.9,31.9,31.9h39.3L81.5,295.5z"/>
	<path fill="#FBDA01" stroke="#000000" stroke-width="1.137" stroke-miterlimit="10" d="M418.5,296.1v48.4
		c0,17.5-14.3,31.9-31.9,31.9h-39.3L418.5,296.1z"/>
	<g>
		<rect x="202.5" y="239" fill="#FBDA01" width="93.6" height="56.5"/>
		<g>
			<path d="M296.7,294.6c-21.3,0-42.6,0-63.9,0c-6.1,0-12.1,0-18.2,0c-3.2,0-7.3-0.7-10.5,0c-1.8,0.4,0-0.4-0.1,0.4
				c0.1-1.3,0-2.7,0-4c0-5.8,0-11.5,0-17.3c0-11.7,0-23.5,0-35.2c-0.8,0.5-1.5,0.9-2.3,1.4c21.3,0,42.6,0,63.9,0
				c6.1,0,12.1,0,18.2,0c3.2,0,7.3,0.7,10.5,0c1.8-0.4,0,0.4,0.1-0.4c-0.1,1.3,0,2.7,0,4c0,5.8,0,11.5,0,17.3c0,11.7,0,23.5,0,35.2
				c0,1,3.3,0.4,3.3-0.9c0-18.8,0-37.7,0-56.5c0-0.4-0.8-0.5-1-0.5c-27.4,0-54.7,0-82.1,0c-3.9,0-7.7,0-11.6,0
				c-0.8,0-2.3,0.4-2.3,1.4c0,18.8,0,37.7,0,56.5c0,0.4,0.8,0.5,1,0.5c27.4,0,54.7,0,82.1,0c3.9,0,7.7,0,11.6,0
				C296.7,296.5,299,294.6,296.7,294.6z"/>
		</g>
	</g>
</g>
</svg>
