<?xml version="1.0" encoding="utf-8"?>
<!-- Generator: Adobe Illustrator 18.1.1, SVG Export Plug-In . SVG Version: 6.00 Build 0)  -->
<svg version="1.1" id="Layer_1" xmlns="http://www.w3.org/2000/svg" xmlns:xlink="http://www.w3.org/1999/xlink" x="0px" y="0px"
	 viewBox="0 0 500 500" enable-background="new 0 0 500 500" xml:space="preserve">
<g>
	<circle fill="#D8D6EC" cx="250" cy="250" r="226.5"/>
</g>
<g>
	<g>
		<path fill="#82C670" d="M294,299c-1.1,0-11.2-23.3-12.3-23.3c1.2,0.7-9.6,3.4-8.3,4l-0.5,45.1l-2.2-24.2
			c-19.2,0.1-23.8-16.5-43-16.3c3.2,1-8.1,18.1-4.8,18.1c1,0,1.9-0.1,2.8-0.1l-2,22.5l-15-22.7c-6.1-29.7,2-21,2.6-21.4
			c-3.3,0.1-7.4,20.4-10.8,20.5c-8.4,0.2-16.6,1.5-24.8,2.8c6.6,11.2,21.6,37.8,24.6,56.7c4.1,25.7,5.3,52,5.3,52.3
			c0.2,5,4.3,8.9,9.3,8.9h66.6c5,0,9-3.9,9.3-8.9c0-0.3,1.2-26.6,5.3-52.3c3.2-19.7,19.2-47.7,25.4-58c0.9-0.4,1.8-0.8,2.7-1.3
			C311.9,301,306.3,298.9,294,299z"/>
		<g>
			<path d="M295.4,298.1c-1.1-0.5-2.2-3.8-2.7-4.9c-1.4-2.7-2.7-5.5-4-8.2c-1.1-2.3-3.1-9.2-5.7-10.3c-0.8-0.4-3.8,0.2-2.9,1.6
				c-0.5-0.8-0.6-0.4-2.1,0.1c-1.1,0.4-2.2,0.7-3.3,1.2c-1.1,0.5-2.4,0.8-3.1,1.8c-0.2,0.2-0.2,0.6,0,0.8c-0.3-0.4,0,0.9-0.1,1.6
				c0,1.7,0,3.4-0.1,5.1c-0.1,5.2-0.1,10.3-0.2,15.5c-0.1,7.5-0.2,15-0.3,22.6c1.1-0.2,2.3-0.4,3.4-0.7c-0.7-8.1-1.5-16.1-2.2-24.2
				c0-0.4-0.7-0.6-1.1-0.6c-9-0.2-15.4-4.5-22.6-9.3c-6.3-4.2-12.7-6.9-20.4-7c-0.6,0-3.5,1.1-2,1.9c1.6,0.9-4.2,11.6-4.8,13.2
				c-1.8,4.5-0.7,5.2,4,4.9c-0.5-0.3-1-0.5-1.5-0.8c-0.7,7.5-1.4,15-2,22.5c1.1-0.3,2.2-0.6,3.3-0.9c-2.4-3.6-4.8-7.3-7.2-10.9
				c-2.6-3.9-6.5-8.2-7.9-12.6c-1.3-4.1-1.7-9.3-1.9-13.7c-0.1-2-0.3-4.4,0.7-6.2c-0.2,0.3-1.1,0,0.4,0.6c0.8,0.3,1.3,0.5,2.2,0.3
				c2.1-0.5,1.6-2.3-0.5-1.9c-4.6,0.9-6.2,9.7-7.5,13.3c-0.6,1.7-1.3,3.5-2.1,5.2c-0.8,1.6-0.9,1.7-2.5,2c-3.7,0.7-7.7,0.6-11.5,1
				c-3.8,0.5-7.6,1.1-11.4,1.7c-0.7,0.1-2.4,0.7-1.8,1.7c6.9,11.7,13.4,23.7,18.4,36.3c6.2,15.4,8,31.5,9.6,47.9
				c0.6,6.6,1.2,13.2,1.6,19.8c0.2,3.3,0,6.9,2,9.7c3.6,5.2,10,4.4,15.5,4.4c17.5,0,34.9,0,52.4,0c5.1,0,10.9,0.8,15.1-2.7
				c3-2.5,3.7-5.8,3.9-9.4c0.3-5.6,0.7-11.2,1.2-16.8c1.6-18,3.1-36.2,9.9-53.1c3.2-8,6.9-15.7,11-23.2c2.5-4.6,5.4-13,10.2-15.4
				c1-0.5,1.5-1.8,0-1.8c-10.1-0.3-20.1-2.3-30.2-2.3c-1.4,0-3.6,2.1-1.3,2.1c10.1,0,20.1,2,30.2,2.3c0-0.6,0-1.2,0-1.8
				c-2.2,1.1-3.1,1.3-4.4,3.3c-1.3,2.1-2.5,4.3-3.7,6.5c-3,5.4-5.9,10.8-8.6,16.4c-5.9,12.1-10.9,24.6-12.9,38
				c-2.2,14.8-3.6,29.7-4.5,44.6c-0.3,5-0.7,10.7-7.1,11.4c-1.4,0.2-2.9,0-4.3,0c-16.7,0-33.3,0-50,0c-4.4,0-11.2,1.2-15.4-0.6
				c-4.6-2-5-6.4-5.3-10.7c-0.3-5.8-0.8-11.6-1.3-17.4c-1.6-17.4-3.2-34.9-9.7-51.3c-5.2-13-11.8-25.5-19-37.5
				c-0.6,0.6-1.2,1.1-1.8,1.7c3.8-0.6,7.6-1.2,11.4-1.7c4.2-0.5,8.8-0.3,13-1.1c1.9-0.4,2.9-0.9,4-2.6c1.7-2.6,2.7-6,3.7-8.9
				c0.6-1.7,2.6-8.8,3.9-9.1c-0.2-0.6-0.3-1.2-0.5-1.9c1.6-0.4,1.1-0.4-0.5-0.8c-1.1-0.3-2.3-0.3-3.3,0.3c-4.1,2.1-2.5,9.7-2,13.1
				c0.5,3.7,0.7,8,2.4,11.2c1.3,2.5,3.2,4.9,4.8,7.3c3.2,4.9,6.4,9.8,9.7,14.6c0.6,0.9,3.2,0.1,3.3-0.9c0.7-7.5,1.4-15,2-22.5
				c0.1-0.8-0.9-0.9-1.5-0.8c-2.8,0.2-1.9,0.5-1.7-1.3c0.1-1,0.9-2.4,1.3-3.3c0.9-2.1,1.9-4.2,2.8-6.3c0.7-1.6,3-5.8,0.7-7
				c-0.7,0.6-1.3,1.3-2,1.9c8.5,0.1,14.9,3.8,21.7,8.5c6.2,4.2,11.8,6.6,19.1,7.7c1.7,0.2,0.5-0.8,1.2,0.3c0.3,0.6,0.2,1.8,0.2,2.5
				c0.3,2.8,0.5,5.6,0.8,8.4c0.4,4.2,0.8,8.4,1.1,12.6c0.1,1.2,3.4,0.5,3.4-0.7c0.1-10.4,0.2-20.9,0.4-31.3
				c0.1-4.4-0.1-8.9,0.2-13.4c0-0.1-0.1-0.8-0.1-0.8c-0.6,1.2,1.9-0.1,2.8-0.5c1.8-0.6,4.4-1.1,5.6-2.8c0.2-0.3,0.1-0.5,0-0.8
				c0,0-0.1-0.1-0.1-0.1c-1,0.5-2,1-2.9,1.6c1.1,0.5,2.2,3.8,2.7,4.9c1.4,2.7,2.7,5.5,4,8.2c1.1,2.3,3.1,9.2,5.7,10.3
				C293.7,300.3,296.8,298.8,295.4,298.1z"/>
		</g>
	</g>
	<g>
		<path fill="#82C670" d="M93.1,229.4c-4,4.8-6.8,10.6-8,17.3c-3.5,19.6,9,38.2,27.8,41.5c9.3,1.6,18.3-0.8,25.6-5.9
			c4.5,13.6,15.8,24.2,30.4,26.8c17.5,3.1,34.3-6.3,42.3-21.9c2.2,17.4,14.8,31.9,32.3,35c21.6,3.8,42.4-11.4,46.4-34
			c0.2-1.4,0.4-2.8,0.5-4.2c0.1,0,0.2,0,0.2,0c4.1,11.4,13.7,20.2,26.1,22.4c13.4,2.4,26.4-3.7,34-14.5c2.9,1.5,6.1,2.6,9.5,3.2
			c18.8,3.3,36.8-9.9,40.3-29.6c1.5-8.4,0-16.7-3.6-23.6c8.9-7.9,15.3-18.9,17.5-31.7c5.2-29.4-13.4-57.2-41.5-62.1
			c-2.4-0.4-4.8-0.6-7.2-0.7c2.9-17.3-8.7-33.8-26.1-36.9c-5.4-1-10.7-0.5-15.6,1.1c-3.6-10.8-12.9-19.4-24.9-21.6
			c-9-1.6-17.8,0.8-24.6,5.8c-4.4-8.7-12.7-15.3-23.1-17.2c-14-2.5-27.5,4.6-33.9,16.5c-0.7,0.1-1.3,0.1-2,0.2
			c-4.6-5-10.8-8.6-18-9.9c-16.5-2.9-32.2,7.3-36.5,23.1c-1.6-0.5-3.2-1-4.9-1.3c-17.5-3.1-34.1,8.6-37.2,26
			c-0.8,4.7-0.6,9.3,0.6,13.6c-10.8,3.6-19.3,12.9-21.4,24.9c-1.3,7.6,0.1,15.1,3.7,21.3C102,193.2,70.4,201.8,93.1,229.4z"/>
		<g>
			<path d="M91.9,228.1c-11.2,14.2-11.5,34.5-0.1,48.6c11.8,14.6,32.2,17.4,47.7,6.9c-0.7-0.6-1.5-1.1-2.2-1.7
				c5.3,15.1,18,27,34.3,28.9c17.1,2,32.9-7.6,40.9-22.5c-0.8-0.6-1.7-1.2-2.5-1.9c2.8,20.1,18.9,37.2,39.8,37.7
				c10.4,0.3,20.6-3.7,28.2-10.7c3.7-3.4,6.8-7.5,9.1-12.1c0.7-1.4,6.3-15.6,4.1-16c-0.6-0.6-1.1-1.2-1.7-1.8
				c7.9,20.5,31.6,31.6,51.5,19.7c2.6-1.5,4.9-3.4,7-5.5c2.5-2.5,3-4.4,6.8-3c5.3,1.9,10.9,2.6,16.5,1.9
				c10.4-1.4,19.7-7.6,25.3-16.4c7.5-11.7,7.6-26.4,1.6-38.6c0,0.5,0,1.1,0,1.6c17.1-15.7,23.3-40.7,15-62.5
				c-7.6-20.1-26.1-34.1-47.7-35c0.6,0.8,1.2,1.7,1.8,2.5c3.6-24.7-19.5-45.6-43.7-38.3c0.7,0.6,1.3,1.2,2,1.8
				c-7.6-21.3-32.7-30.8-51.7-17.5c0.7,0.4,1.4,0.9,2.1,1.3c-6.5-12.2-19-20.1-33-18.9c-7.2,0.6-14.1,3.6-19.4,8.5
				c-1.9,1.8-4.8,7.2-7,7.7c-2.2,0.6-6.4-4.2-8.7-5.4c-12.3-6.8-28.1-5-38.4,4.6c-2.3,2.2-4.4,4.7-6,7.5c-0.8,1.4-1.5,2.8-2.1,4.3
				c-1,2.6-0.8,2.4-3.6,2c-7-1-13.3-1.1-20,1.6c-15.4,6.4-22.8,23-19.1,38.9c0.2-0.4,0.3-0.9,0.5-1.3c-19.7,7.1-27.8,29.5-18,47.9
				c0.1-0.6,0.2-1.1,0.3-1.7c-5.3,1.5-10.7,4.5-14.1,8.9c-7.6,9.5-1.4,21.3,5.2,29.5c1.3,1.7,3,0.6,1.6-1.1
				c-6.6-8.2-11.7-19.3-2.7-27.7c3.1-3,7.3-5.2,11.5-6.4c0.8-0.2,0.6-1.2,0.3-1.7c-9.2-17.2-0.7-37.9,17.4-44.5
				c0.6-0.2,0.6-0.8,0.5-1.3c-5.6-24.3,17.5-44.5,40.8-37c0.5,0.1,0.7-0.2,0.8-0.6c3.2-10.9,11.8-19.5,22.9-22.1
				c6-1.4,12.5-1.1,18.3,1.1c2.7,1,5.2,2.4,7.4,4.1c1.5,1.1,3.1,3.7,5,4.2c2.5,0.7,2.8-0.8,3.8-2.4c1.6-2.5,3.5-4.9,5.8-6.8
				c4.2-3.7,9.3-6.3,14.8-7.4c13.3-2.6,26.6,3.8,33,15.7c0.3,0.5,1.3,1.8,2.1,1.3c16.6-11.6,40.3-5.6,47.2,14.1
				c0.2,0.6,1.1,2.1,2,1.8c21.7-6.5,42.9,10.4,39.6,33.2c-0.1,0.9,0.8,2.5,1.8,2.5c20.8,0.9,38.7,14.2,45.2,34
				c6.7,20.4,0.2,43.1-15.5,57.5c-0.5,0.4-0.3,1.1,0,1.6c7.1,14.3,4.1,32-7.7,42.8c-10.3,9.5-25,11.6-37.6,5.5
				c-0.4-0.2-0.8-0.2-1.1,0.2c-8.3,11.2-22.3,17.4-36.1,13.6c-6.6-1.8-12.5-5.7-16.7-11.1c-2.1-2.8-3.1-5.9-4.9-8.8
				c-0.5-0.9-0.8-1.6-1.9-1.8c-0.4-0.1-0.8,0.1-0.8,0.6c-1.7,18.6-15.2,35.1-34.2,37.8c-21.1,3.1-39.5-12.3-42.4-33
				c-0.1-0.7-1.8-3.3-2.5-1.9c-6.7,12.7-19.3,21.6-33.9,22.1c-16.6,0.5-30.9-10.1-36.4-25.6c-0.2-0.7-1.3-2.3-2.2-1.7
				c-14.3,9.7-34.1,8-44.8-6.2c-10-13.1-8.3-31.4,1.7-43.9C95.1,229.6,92.9,226.9,91.9,228.1z"/>
		</g>
	</g>
</g>
</svg>
