<?xml version="1.0" encoding="utf-8"?>
<!-- Generator: Adobe Illustrator 18.1.1, SVG Export Plug-In . SVG Version: 6.00 Build 0)  -->
<svg version="1.1" id="Layer_1" xmlns="http://www.w3.org/2000/svg" xmlns:xlink="http://www.w3.org/1999/xlink" x="0px" y="0px"
	 viewBox="0 0 500 500" enable-background="new 0 0 500 500" xml:space="preserve">
<g>
	<circle fill="#FCE3EE" cx="250" cy="250" r="226.5"/>
</g>
<g>
	<g>
		<path d="M318.8,195.2c-1.5,16.6-30.9,27.4-65.7,24.2c-34.7-3.2-61.6-19.2-60.1-35.8s29.6-52.8,64.4-49.6S320.3,178.7,318.8,195.2z
			"/>
		<g>
			<path d="M317.1,195.7c-1.3,10.3-11.7,16.1-20.6,19.1c-13.5,4.6-28.3,5.2-42.4,3.9c-13.6-1.3-27.5-4.5-39.7-10.8
				c-7.9-4.1-17.2-10.4-19.5-19.6c-1.7-7,1.9-14.3,5.4-20.1c5.2-8.7,12.2-16.3,20.4-22.3c10.3-7.6,22.6-12.3,35.5-11.1
				c10.9,1,21.1,6,29.8,12.5c9.2,6.9,17.1,15.6,23.1,25.4C313.3,179.2,317.7,187.5,317.1,195.7c0,0.5,3.2,0.1,3.3-0.9
				c0.6-8.5-4.1-17.2-8.5-24.1c-6.2-9.8-14.3-18.6-23.7-25.4c-19.3-14-42.7-15.8-63.5-3.8c-9.8,5.7-18.4,13.8-24.9,23.2
				c-4.4,6.4-9.7,15.1-8.3,23.3c1.7,10.2,12.1,17.2,20.5,21.5c13.2,6.7,28,9.9,42.7,11c15.1,1.1,31.2,0,45.4-5.6
				c8.9-3.5,19-9.5,20.2-19.9C320.5,194.4,317.3,194.7,317.1,195.7z"/>
		</g>
	</g>
	<path fill="none" stroke="#000000" stroke-width="2.3831" stroke-linecap="round" stroke-miterlimit="10" d="M202.6,86.9
		c3.7-6.3,7.4-9.5,11.1-9.5c9.7-0.1,19.5,21.1,29.4,63.5"/>
	<path fill="none" stroke="#000000" stroke-width="2.3831" stroke-linecap="round" stroke-miterlimit="10" d="M296.2,86.9
		c-3.7-6.3-7.4-9.5-11.1-9.5c-9.7-0.1-19.5,21.1-29.4,63.5"/>
	<path fill="none" stroke="#000000" stroke-width="4.7662" stroke-linecap="round" stroke-miterlimit="10" d="M134.4,178.9
		c1.2-0.9,3.7-2.6,6.6-2.2c3.1,0.4,5.1,3,6.3,4.6c8.2,11.3,10.2,16.2,13.4,19.4c3.5,3.4,10.2,6.4,24.6,3.9"/>
	<path fill="none" stroke="#000000" stroke-width="4.7662" stroke-linecap="round" stroke-miterlimit="10" d="M118.6,207.8
		c1.2-0.9,3.7-2.6,6.6-2.2c3.1,0.4,5.1,3,6.3,4.6c8.2,11.3,10.2,16.2,13.4,19.4c3.5,3.4,10.2,6.4,24.6,3.9"/>
	<path fill="none" stroke="#000000" stroke-width="4.7662" stroke-linecap="round" stroke-miterlimit="10" d="M363.2,173.6
		c-1.2-0.9-3.7-2.6-6.6-2.2c-3.1,0.4-5.1,3-6.3,4.6c-8.2,11.3-10.2,16.2-13.4,19.4c-3.5,3.4-10.2,6.4-24.6,3.9"/>
	<path fill="none" stroke="#000000" stroke-width="4.7662" stroke-linecap="round" stroke-miterlimit="10" d="M381.7,203.3
		c-1.2-0.9-3.7-2.6-6.6-2.2c-3.1,0.4-5.1,3-6.3,4.6c-8.2,11.3-10.2,16.2-13.4,19.4c-3.5,3.4-10.2,6.4-24.6,3.9"/>
	<g>
		<path d="M203.7,357.6c0,0-0.1,0-0.2,0c-0.1,0-0.4-0.1-0.6-0.1c-0.5-0.1-1.4-0.2-2.4-0.2c-2.1-0.1-5,0.1-8.3,1.2
			c-1.6,0.6-3.3,1.4-5,2.5c-1.6,1.1-3.2,2.5-4.5,4.1c-0.6,0.8-1.3,1.7-1.7,2.6l-0.1,0.2l0,0c-0.1,0.1,0.1-0.2,0.1-0.1l0,0l0,0.1
			l-0.2,0.4l-0.4,0.9c-0.2,0.3-0.2,0.5-0.2,0.7c-0.1,0.2-0.1,0.4-0.2,0.6c-0.5,1.9-0.5,4.1-0.1,6.5c0.4,2.4,1,5,1.3,7.8
			c0.4,2.8,0.3,5.7-0.2,8.5l-0.1,0.5l0,0.1l0,0.1l0,0.1l-0.1,0.2c-0.1,0.3-0.1,0.6-0.2,0.9c-0.2,0.7-0.4,1.4-0.7,2
			c-0.5,1.2-1,2.4-1.7,3.5c-1.2,2.2-2.7,4.1-4.1,5.6c-1.4,1.6-2.9,2.9-4.2,3.9c-1.3,1.1-2.5,1.9-3.5,2.6c-1,0.7-1.8,1.2-2.3,1.5
			c-0.5,0.3-0.8,0.5-0.8,0.5c-1.1,0.7-2.6,0.3-3.3-0.8c-0.6-1.1-0.4-2.4,0.6-3.1l0.1-0.1c0,0,0.3-0.2,0.7-0.5c0.5-0.4,1.2-0.9,2-1.6
			c0.9-0.7,1.9-1.5,3-2.6c0.6-0.5,1.1-1.1,1.7-1.7c0.6-0.6,1.2-1.2,1.7-1.9c1.2-1.4,2.3-3,3.2-4.7c0.5-0.9,0.8-1.8,1.2-2.8
			c0.2-0.5,0.3-1,0.4-1.4c0.1-0.2,0.1-0.5,0.2-0.8l0.1-0.2l0-0.1c0,0,0-0.1,0,0l0,0l0,0l0.1-0.4c0.4-2.1,0.3-4.2,0-6.6
			c-0.3-2.3-0.9-4.8-1.3-7.6c-0.4-2.8-0.5-6,0.4-9l0.4-1.2c0.1-0.4,0.3-0.8,0.4-1.1l0.4-0.9l0.2-0.4l0.1-0.1l0.1-0.2l0-0.1l0.1-0.2
			c0.7-1.3,1.6-2.5,2.5-3.6c1.8-2.2,4-3.8,6.1-5.2c2.1-1.3,4.3-2.3,6.5-2.9c2.1-0.6,4.1-0.9,5.9-1c1.8-0.1,3.3,0,4.6,0.1
			c1.3,0.1,2.2,0.4,2.9,0.5c0.3,0.1,0.6,0.1,0.7,0.2c0.2,0,0.2,0.1,0.2,0.1c1.3,0.3,2,1.7,1.7,2.9
			C206.1,357.1,204.9,357.8,203.7,357.6z"/>
	</g>
	<g>
		<path d="M311.9,353c0,0,0.1,0,0.2-0.1c0.2,0,0.4-0.1,0.7-0.2c0.7-0.1,1.6-0.3,2.9-0.5c2.5-0.3,6.2-0.4,10.4,0.9
			c2.1,0.6,4.3,1.6,6.4,2.9c2.1,1.3,4.2,3,6,5.2c0.9,1.1,1.7,2.3,2.4,3.5l0.1,0.2l0,0.1l0.1,0.2l0,0.1l0.2,0.4l0.4,0.9
			c0.1,0.2,0.3,0.7,0.4,1.1l0.4,1.2c0.9,3,0.7,6.2,0.3,8.9c-0.4,2.8-1,5.3-1.3,7.6c-0.3,2.4-0.3,4.6,0.1,6.7l0.1,0.4l0,0l0,0
			c0-0.1,0,0,0,0l0,0.1l0,0.2c0.1,0.3,0.1,0.6,0.2,0.8c0.1,0.5,0.3,1,0.4,1.5c0.4,1,0.7,1.9,1.2,2.8c0.9,1.8,2.1,3.4,3.2,4.7
			c1.2,1.4,2.4,2.6,3.5,3.6c1.1,1,2.1,1.8,3,2.5c0.9,0.7,1.6,1.2,2.1,1.5c0.5,0.3,0.7,0.5,0.7,0.5l0.1,0.1c1.1,0.8,1.3,2.3,0.6,3.3
			c-0.7,1-2.2,1.3-3.2,0.6c0,0-0.3-0.2-0.8-0.5c-0.5-0.3-1.3-0.8-2.3-1.5c-1-0.7-2.2-1.6-3.4-2.6c-1.3-1.1-2.7-2.4-4.1-3.9
			c-1.4-1.6-2.8-3.4-4-5.6c-0.6-1.1-1.2-2.3-1.6-3.5c-0.2-0.6-0.4-1.3-0.6-2c-0.1-0.4-0.2-0.6-0.2-0.9l-0.1-0.2l0-0.1l0-0.1l0-0.1
			l-0.1-0.5c-0.5-2.7-0.5-5.6-0.2-8.4c0.3-2.8,1-5.4,1.3-7.8c0.3-2.4,0.3-4.6-0.2-6.6l-0.2-0.7c-0.1-0.2-0.1-0.4-0.3-0.7l-0.4-0.9
			l-0.2-0.4l0-0.1l0,0c0,0,0.1,0.3,0.1,0.1l0,0l-0.1-0.2c-0.5-1-1.1-1.8-1.8-2.6c-1.3-1.7-3-3-4.6-4.1c-1.7-1.1-3.4-1.9-5-2.5
			c-3.3-1.1-6.3-1.2-8.4-1.1c-1,0.1-1.8,0.2-2.4,0.2c-0.3,0-0.5,0.1-0.6,0.1c-0.2,0-0.2,0-0.2,0c-1.3,0.2-2.5-0.6-2.8-1.9
			C309.9,354.5,310.7,353.3,311.9,353z"/>
	</g>
	
		<ellipse fill="none" stroke="#000000" stroke-width="4.7662" stroke-linecap="round" stroke-miterlimit="10" cx="242.1" cy="136.2" rx="2.8" ry="2.4"/>
	
		<ellipse fill="none" stroke="#000000" stroke-width="4.7662" stroke-linecap="round" stroke-miterlimit="10" cx="258" cy="134.9" rx="2.8" ry="2.4"/>
	<path d="M220.2,403.9c0,1.2,0.6,2.3,1.6,3l19.5,12.7c7.2,4.7,18.8,5.2,26.6,1.2l21.9-14.7c3.1-1.6-1.9-0.8-5.4-1l-63.8-18.9
		L220.2,403.9z"/>
	<g>
		<path fill="#176C82" d="M367.8,278.8c0,66.8-50.1,134.2-111.9,134.2S144,345.6,144,278.8s49.9-107.4,111.7-107.4
			S367.8,212,367.8,278.8z"/>
		<g>
			<path d="M366.3,278.9c-0.3,48.7-26.3,101.2-71,123.5c-21.7,10.9-46.7,12.4-69.5,3.8c-22.7-8.6-41.4-25.8-54.8-45.7
				c-26.6-39.5-36.2-96.1-10.8-138.6c23.9-40,73.3-55.5,117.6-47.8c21.5,3.7,42.1,13.2,57.9,28.5c15.7,15.2,25.6,35.3,29,56.8
				C365.8,266,366.3,272.4,366.3,278.9c0,1.4,3,0.8,3-0.3c-0.1-23.8-6.6-47.3-21.2-66.4c-13.5-17.7-32.9-30.1-54.2-36.5
				c-43-12.9-95.1-3.3-125.7,31.2c-34.2,38.6-31.4,97-8.6,140.5c22.5,42.9,68.5,76.7,118.7,63.3c49.4-13.2,82.3-63.5,89.5-112
				c1-6.7,1.5-13.5,1.5-20.3C369.3,277.2,366.3,277.8,366.3,278.9z"/>
		</g>
	</g>
</g>
</svg>
