<?xml version="1.0" encoding="utf-8"?>
<!-- Generator: Adobe Illustrator 18.1.1, SVG Export Plug-In . SVG Version: 6.00 Build 0)  -->
<svg version="1.1" id="Layer_1" xmlns="http://www.w3.org/2000/svg" xmlns:xlink="http://www.w3.org/1999/xlink" x="0px" y="0px"
	 viewBox="0 0 500 500" enable-background="new 0 0 500 500" xml:space="preserve">
<g>
	<circle fill="#D8D6EC" cx="250" cy="250" r="226.5"/>
</g>
<g>
	<g>
		<path fill="#F58457" d="M253.4,351.7c77,0,136,34.8,136-42.2H110.6C110.6,386.5,176.4,351.7,253.4,351.7z"/>
		<g>
			<path d="M253.3,353c27.6,0.1,54.6,5.4,82.1,7.4c16.8,1.2,37.2,0.9,47.6-14.6c7.1-10.5,8.1-24.1,8.2-36.4c0-0.9-0.8-1.2-1.6-1.2
				c-31.6,0-63.1,0-94.7,0c-49.9,0-99.8,0-149.7,0c-11.5,0-22.9,0-34.4,0c-0.7,0-1.9,0.6-1.9,1.4c0.1,19.9,4.9,41.6,26,48.4
				c9.5,3,19.8,3.1,29.6,2.7c12.8-0.6,25.6-2.4,38.3-3.9C219.6,354.7,236.4,353.1,253.3,353c2,0,2.6-2.7,0.3-2.7
				c-26.6,0.1-52.6,4.6-79,6.9c-17.3,1.6-40.8,3.5-52.9-11.9c-7.9-10-9.2-23.8-9.2-36.1c-0.6,0.5-1.2,1-1.9,1.4
				c31.6,0,63.1,0,94.7,0c49.9,0,99.8,0,149.7,0c11.5,0,22.9,0,34.4,0c-0.5-0.4-1.1-0.8-1.6-1.2c-0.1,19.1-3.6,41.5-25,46.9
				c-9.3,2.4-19.2,1.9-28.7,1.1c-11.6-1-23.2-2.7-34.8-4c-15.2-1.8-30.4-3.2-45.6-3.2C251.5,350.3,251,353,253.3,353z"/>
		</g>
	</g>
	<path d="M393.7,295c0,5.6-4.7,10.2-10.4,10.2H116.6c-5.7,0-10.4-4.6-10.4-10.2l0,0c0-5.6,4.7-10.2,10.4-10.2h266.7
		C389.1,284.8,393.7,289.3,393.7,295L393.7,295z"/>
	<path fill="#F04D5D" stroke="#000000" stroke-width="1.1826" stroke-miterlimit="10" d="M389.4,276.7c0,5.6-4.6,10.2-10.2,10.2
		H116.5c-5.6,0-10.2-4.6-10.2-10.2l0,0c0-5.6,4.6-10.2,10.2-10.2h262.7C384.8,266.5,389.4,271,389.4,276.7L389.4,276.7z"/>
	<path fill="#FFF200" stroke="#000000" stroke-width="1.1826" stroke-miterlimit="10" d="M391.6,306c0,1.9-4.6,3.5-10.2,3.5H118.7
		c-5.6,0-10.2-1.6-10.2-3.5l0,0c0-1.9,4.6-3.5,10.2-3.5h262.7C387,302.5,391.6,304.1,391.6,306L391.6,306z"/>
	<g>
		<g>
			<path fill="#82C670" d="M107.5,256.8v9.3c13.9,0,22,7.7,28.1,13.6c6.2,6,10.5,9.7,19.2,9.7c9.2,0,13.6-4.3,19.2-9.7
				c6.1-5.9,13-12.5,27-12.5c13.9,0,20.9,6.7,27,12.5c5.6,5.4,10.1,9.7,19.3,9.7c9.2,0,13.6-4.3,19.2-9.7c6.1-5.9,13-12.5,27-12.5
				c13.9,0,20.9,6.7,27,12.5c5.6,5.4,10.1,9.7,19.3,9.7s13.6-4.3,19.3-9.7c6.1-5.9,14.2-12.8,28.1-12.8v-10H107.5z"/>
			<g>
				<path d="M105.7,256.9c0,3.1,0,6.2,0,9.3c0,0.9,0.8,1.2,1.6,1.2c13.4,0.3,20.9,8.2,30.3,16.4c7.1,6.2,16.3,8.8,25.4,5.5
					c9.2-3.4,14.4-12.7,22.9-17.3c11.1-6,25.3-4.2,35.1,3.5c7.2,5.7,12.7,13.7,22.5,14.9c10.9,1.4,17.9-4,25.4-11.1
					c8.9-8.5,19.4-13,31.9-10.2c10.7,2.4,16.2,10.8,24.5,16.9c8.5,6.2,20.3,6,28.7-0.2c4.3-3.2,7.8-7.4,12.1-10.7
					c6.2-4.7,13.1-7,20.9-7.1c0.7,0,1.9-0.6,1.9-1.4c0-3.3,0-6.7,0-10c0-0.9-0.8-1.2-1.6-1.2c-31.5,0-63.1,0-94.6,0
					c-50.2,0-100.4,0-150.6,0c-11.5,0-22.9,0-34.4,0c-2,0-2.6,2.7-0.3,2.7c31.5,0,63.1,0,94.6,0c50.2,0,100.4,0,150.6,0
					c11.5,0,22.9,0,34.4,0c-0.5-0.4-1.1-0.8-1.6-1.2c0,3.3,0,6.7,0,10c0.6-0.5,1.2-1,1.9-1.4c-10.4,0.2-19.3,4.1-27,11.1
					c-3.7,3.3-7,7.3-11.5,9.5c-6.7,3.4-14.9,2.3-20.8-2c-7.7-5.6-12.9-13.3-22.3-16.4c-9.4-3.2-20.7-2.4-29.4,2.5
					c-8.3,4.7-13.8,14.7-23.3,17.3c-13.7,3.7-20.5-7-29.8-14.2c-8.1-6.3-18.3-8.5-28.4-6.8c-8.8,1.5-15.5,6.4-21.8,12.5
					c-5.2,5-10.3,9.3-18,9.2c-7.7,0-12.8-4.4-18.1-9.4c-8.5-8.1-17.2-13.6-29.3-13.9c0.5,0.4,1.1,0.8,1.6,1.2c0-3.1,0-6.2,0-9.3
					C109.2,254.8,105.7,255.2,105.7,256.9z"/>
			</g>
		</g>
	</g>
	<g>
		<path fill="#F58457" d="M247.8,140.5c-77,0-139.4,40.4-139.4,117.3h278.8C387.2,180.8,324.8,140.5,247.8,140.5z"/>
		<g>
			<path d="M248.5,139.5c-52.2,0.2-109.8,19.8-132.3,71c-6.6,15-9.4,31.2-9.5,47.6c0,0.6,0.5,0.8,1.1,0.8c31.6,0,63.1,0,94.7,0
				c49.9,0,99.8,0,149.7,0c11.5,0,22.9,0,34.4,0c0.6,0,2.4-0.3,2.4-1.2c-0.1-26.9-8-53.1-25.8-73.6C346,164.2,322,151.8,297,145.3
				C281.1,141.3,264.8,139.5,248.5,139.5c-1.3,0-3.6,2-1.3,2c51.8,0.2,108.6,20.2,129.8,71.4c5.9,14.3,8.4,29.7,8.5,45.1
				c0.8-0.4,1.6-0.8,2.4-1.2c-31.6,0-63.1,0-94.7,0c-49.9,0-99.8,0-149.7,0c-11.5,0-22.9,0-34.4,0c0.4,0.3,0.7,0.5,1.1,0.8
				c0.1-25.8,7.4-51.1,24.1-71.1c16.4-19.8,39.9-32.4,64.5-39c15.8-4.2,32.1-6,48.4-6C248.5,141.5,250.8,139.5,248.5,139.5z"/>
		</g>
	</g>
	<g>
		<g>
			<path d="M196.7,182c3.2,0,7.6-2.5,8-5.9c0.4-3.8-3.8-4.9-6.7-4.9c-3.2,0-7.6,2.5-8,5.9C189.6,181,193.8,182,196.7,182L196.7,182z
				"/>
		</g>
	</g>
	<g>
		<g>
			<path d="M240.1,165.3c2.9,0,8-1.1,9.6-3.8c1.7-2.8-1.5-3.6-3.7-3.6c-2.9,0-8,1.1-9.6,3.8C234.7,164.5,237.9,165.3,240.1,165.3
				L240.1,165.3z"/>
		</g>
	</g>
	<g>
		<g>
			<path d="M260.9,196.6c3.1,0,7.9-1,9.6-3.9c1.7-2.9-1.4-4.2-3.9-4.2c-3.1,0-7.9,1-9.6,3.9C255.3,195.3,258.4,196.6,260.9,196.6
				L260.9,196.6z"/>
		</g>
	</g>
	<g>
		<g>
			<path d="M268.6,160.9c2.2,0,7.9-3.3,3-3.3C269.4,157.6,263.8,160.9,268.6,160.9L268.6,160.9z"/>
		</g>
	</g>
	<g>
		<g>
			<path d="M193.6,157.4c1.5,0,4.2-0.4,4.8-2.1c0.5-1.5-0.5-2.5-2.1-2.5c-1.5,0-4.2,0.4-4.8,2.1C191,156.4,192,157.4,193.6,157.4
				L193.6,157.4z"/>
		</g>
	</g>
	<g>
		<g>
			<path d="M159.2,180.2c2.2,0,7.9-3.3,3-3.3C160,176.8,154.4,180.2,159.2,180.2L159.2,180.2z"/>
		</g>
	</g>
	<g>
		<g>
			<path d="M171.7,209.3c1.4,0,4.1-0.2,5.1-1.4c0.7-0.8,1.4-1.7-0.5-1.7c-1.4,0-4.1,0.2-5.1,1.4
				C170.6,208.4,169.9,209.3,171.7,209.3L171.7,209.3z"/>
		</g>
	</g>
	<g>
		<g>
			<path d="M235.3,224c1.4,0,4.2-0.5,4.8-2c0.5-1.5-0.5-2.2-2-2.2c-1.4,0-4.2,0.5-4.8,2C232.8,223.3,233.8,224,235.3,224L235.3,224z
				"/>
		</g>
	</g>
	<g>
		<g>
			<path d="M289.3,177c4,0,4-6.3,0-6.3C285.3,170.8,285.3,177,289.3,177L289.3,177z"/>
		</g>
	</g>
	<g>
		<g>
			<path d="M319.4,212.5c4,0,4-6.3,0-6.3C315.4,206.3,315.4,212.5,319.4,212.5L319.4,212.5z"/>
		</g>
	</g>
	<g>
		<g>
			<path d="M324.4,171.2c4,0,4-6.3,0-6.3C320.4,164.9,320.4,171.2,324.4,171.2L324.4,171.2z"/>
		</g>
	</g>
	<g>
		<g>
			<path d="M352.8,239.7c4,0,4-6.3,0-6.3C348.8,233.4,348.8,239.7,352.8,239.7L352.8,239.7z"/>
		</g>
	</g>
</g>
</svg>
