<?xml version="1.0" encoding="utf-8"?>
<!-- Generator: Adobe Illustrator 18.1.1, SVG Export Plug-In . SVG Version: 6.00 Build 0)  -->
<svg version="1.1" id="Layer_1" xmlns="http://www.w3.org/2000/svg" xmlns:xlink="http://www.w3.org/1999/xlink" x="0px" y="0px"
	 viewBox="0 0 500 500" enable-background="new 0 0 500 500" xml:space="preserve">
<circle fill="#F9C3D2" cx="250" cy="250" r="226.5"/>
<g>
	<g>
		<path fill="#FFFFFF" d="M362.3,268c0.7,0,4.5-15.8,5.2-15.7c-0.1-2.1,2.2-4.1,2.2-5c0-68.5-49.3-121.9-116.8-121.9
			c-67.5,0-122.2,55.6-122.2,124.1c0,4.7,4.1,10.1,6.3,15c31.7,4.8,61.3,4.6,83.1,32.5c10.1,12.9,18.1,28.7,19.7,45.1
			c0.5,5.6-0.9,13.4-0.6,19.7c1,0.5,3.2,1.5,7,1.5c26.9,0.3,36.4-42.6,46.7-62.2c12.2-23.3,41.5-3.6,62-7.7
			C357.1,283.3,349.1,268,362.3,268z"/>
		<g>
			<path d="M364.9,269.1c1.3-0.9,1.7-4.4,2.1-5.7c0.9-3,1.7-6.1,2.7-9.1c1-3.2,2.8-5.4,2.7-8.9c-0.1-4.7-0.4-9.4-1-14.1
				c-2.3-19.1-8.7-37.6-19.3-53.7c-19.5-29.8-52-48.8-87.3-52.6c-38.4-4.2-76.9,10-103.3,38.2c-13.2,14.2-23.1,31.4-28.5,50
				c-2.8,9.7-4.5,19.7-4.9,29.7c-0.2,4.6-0.1,8.4,1.9,12.6c1.6,3.4,3.2,8.7,7.1,9.9c5.3,1.7,11.7,1.7,17.2,2.5
				c5.7,0.8,11.3,1.5,17,2.6c12.5,2.3,24.5,6.3,34.6,14.2c10.9,8.6,19.3,20.9,24.9,33.6c2.8,6.3,4.8,12.9,5.9,19.7
				c1.1,7.6-0.4,15.2-0.2,22.9c0,0.7,1.2,1.2,1.7,1.4c20.4,9.7,35.4-11,43-26.9c4.6-9.5,8-19.5,12.4-29.1c2.3-4.9,4.9-9.8,9.7-12.7
				c4.9-2.9,10.7-3.1,16.2-2.6c12.5,1.1,25,5.9,37.6,3.7c0.2,0,0.4-0.1,0.5-0.2c1.3-7.7-5.4-24.7,6.8-25.2c1.3-0.1-3.1-2.4-4.4-2.4
				c-5.1,0.2-8,2.5-8.3,7.7c-0.2,2.8,0.3,5.6,0.5,8.3c0.2,2.2,1.4,7.3-0.2,9.1c-1.5,1.7-7,0.9-9.1,0.7c-3.7-0.3-7.4-0.9-11-1.6
				c-6.4-1.2-12.8-2.6-19.3-2.7c-5.3-0.1-10.8,0.6-15.3,3.6c-4.7,3.2-7.3,8.2-9.5,13.3c-5.1,11.3-9,23.1-15,34.1
				c-3.3,6-7.1,12-12.3,16.4c-4.9,4.2-13.8,8.7-20.3,5.6c0.6,0.5,1.2,0.9,1.7,1.4c-0.2-7.2,1.2-14.4,0.3-21.6c-1-8-3.4-15.7-6.8-23
				c-6.1-13.2-15.1-25.7-26.9-34.4c-21-15.5-47.9-16.7-72.7-20.4c1.3,0.6,2.6,1.2,3.8,1.8c-1.6-3.5-3.8-6.8-5.2-10.4
				c-1.5-3.9-1-8.1-0.8-12.2c0.4-7.1,1.5-14.2,3.1-21.1c3.1-13.4,8.5-26.3,15.9-37.9c14.6-23.3,37-41.3,63-50.4
				c27.1-9.5,58.2-9.2,84.5,2.7c24.6,11,44.1,31.5,55.3,55.9c6.7,14.5,10.4,30.2,11.4,46.1c0.2,3.7,0.7,7.2-0.9,10.5
				c-0.8,1.7-1.4,3.4-2,5.2c-0.9,2.6-1.5,5.3-2.3,7.9c-0.3,1.1-0.8,4.7-1.8,5.4C359.1,267.4,363.7,269.9,364.9,269.1z"/>
		</g>
	</g>
	<g>
		<circle fill="#F04D5D" cx="250.7" cy="121.3" r="20.6"/>
		<g>
			<path d="M269.9,121.5c-0.4,10.8-8.9,20.1-20.2,19.3c-10.2-0.7-18.2-9.5-18.3-19.7c0-10.4,8.5-19.3,19-19.3
				C261.4,101.8,269.6,110.9,269.9,121.5c0,1.5,2.9,1,2.8-0.3c-0.4-12-9.8-21.7-22-21.6c-11.9,0.1-22.1,9.9-22.1,21.9
				c0,12,10.1,21.7,22,21.6c12.1-0.1,21.7-9.9,22.1-21.9C272.8,119.6,270,120.1,269.9,121.5z"/>
		</g>
	</g>
	<g>
		<path fill="#F04D5D" d="M369.9,248.1l-32.7,146.1c-0.7,3-3.4,5.2-6.4,5.2H181c-2.9,0-5.5-1.9-6.3-4.7l-44.6-146.5l6.6,2.1
			c0.9,0.3,1.8,0.8,2.5,1.5l11.6,10.9c0.9,0.9,2.1,1.5,3.4,1.7l7.2,1.3c1.4,0.3,2.9,0,4.2-0.6l5.4-2.7c0.4-0.2,0.8-0.4,1.1-0.7
			l13.5-10.7c0.7-0.6,1.6-1,2.5-1.2l6-1.5c0,0,5.6,0.4,6.1,0.9c0.4,0.4,5.6,6.3,6.6,7.6c0.1,0.2,0.3,0.3,0.4,0.5l5.7,5.3
			c0.8,0.7,1.7,1.3,2.8,1.5l4.2,1.2l4-0.2c0,0,4.2-1.7,4.2-1.7c3.5-2.1,7-4.3,10.6-6.4c2.4-1.4,4.7-3.1,7.2-4.5
			c3.1-1.7,6.9-1.9,10.3-2.1c0.6,0,1.2-0.1,1.8,0c1.8,0.3,3.2,1.6,4.6,2.6c1.5,1,3.1,2.1,4.6,3.1c0.2,0.2,0.4,0.3,0.7,0.5
			c1.2,1.1,5.7,5,6.1,5.2c0.3,0.2,4.4,1.5,6.5,2.1c0.8,0.3,1.7,0.3,2.6,0.2c9.5-1,18.3-5.9,23.9-13.7c0.5-0.7,1.1-1.5,1.9-1.9
			c0.8-0.4,1.7-0.3,2.6-0.2c6,0.8,12.6,2.9,16.4,8c0.9,1.2,6.7,8.4,8.9,8.7c2.2,0.3,7.2,0.3,7.9,0.3c0.6,0,4.9-1.4,7-2.1
			c0.8-0.3,1.5-0.6,2.1-1.1l12.7-10.3l3.3-2.8"/>
		<g>
			<path d="M368.2,248.3c-7,31.1-13.9,62.2-20.9,93.2c-3.6,15.9-7.1,31.9-10.7,47.8c-0.3,1.4-0.4,3.1-1,4.5c-0.8,1.9-2.9,4-4.9,4.4
				c-3.9,0.9-9.1,0-13.1,0c-39.1,0-78.1,0-117.2,0c-5.5,0-11,0-16.5,0c-0.8,0-1.6,0.1-2.4,0c-3.5-0.4-4.7-2.7-5.7-5.5
				c-4.4-13-8-26.3-12-39.4c-10.5-34.5-21-69-31.5-103.5c-0.2-0.7-0.4-1.4-0.7-2.2c-0.9,0.5-1.8,1-2.7,1.5c3.4,1.1,6.9,1.8,9.6,4.3
				c3.2,2.9,6.3,6,9.5,8.9c4.7,4.3,13.4,5.7,19.2,2.9c6.8-3.3,12-8.5,18.1-12.9c1.3-1,2.5-1.6,4.1-2c1-0.3,2-0.5,3-0.7
				c1.6-0.4,1-0.3,1.5-0.3c2.1,0,3.9,0.3,5.5,1.6c2,1.7,3.5,4.1,5.2,6c4.7,5,9.6,9.6,16.9,9.2c13.3-0.6,24.9-21,38.5-13.1
				c4.7,2.7,8.3,7.4,13,9.8c4.9,2.6,10.2,2.7,15.3,1.3c6.4-1.7,12.4-5.1,17-9.9c1.4-1.4,2.3-3.2,4.1-4.2c2-1.1,4.3-0.2,6.5,0.4
				c4.4,1.3,7.6,3.4,10.5,6.8c2.9,3.4,5.8,8.2,10.5,8.9c5.5,0.7,10.8,0,15.8-2.4c3.6-1.7,6.7-5,9.8-7.5c2.7-2.2,5.4-4.4,8.1-6.7
				c1.8-1.5-1-2.3-2.2-1.3c-5.1,4.3-10.1,9.1-15.6,12.8c-3.8,2.6-10.8,4.3-15.3,2.7c-4.4-1.6-7-7.5-10.4-10.5
				c-4.1-3.7-11.4-6.6-17-6.1c-2.2,0.2-3.4,1.3-4.8,2.9c-2.8,3.2-5.3,6.1-8.9,8.4c-6.5,4.1-15.3,6.4-22.1,1.8
				c-4.8-3.2-8.5-8-14-10.4c-4.5-2-11.7-0.2-15.9,1.9c-6.8,3.6-12.8,8.7-19.9,11.7c-2.2,0.9-4.9,0.8-8-0.4c-3.4-1.3-6.4-4.8-8.8-7.4
				c-2.3-2.5-4.5-6.7-7.8-7.8c-3.2-1.1-6.3-0.6-9.4,0.1c-7.3,1.8-12.5,7.2-18.3,11.8c-2.8,2.2-6.8,5-10.5,4.8c-4-0.2-8.2-1.3-11.1-4
				c-3.3-3.1-6.4-6.3-9.9-9.2c-2.7-2.4-6.5-3.1-9.9-4.1c-0.8-0.3-3.1,0.3-2.7,1.5c9.6,31.6,19.3,63.3,28.9,94.9
				c4.8,15.8,9.6,31.5,14.4,47.3c1.4,4.7,2.7,9.1,8.7,9.6c3,0.2,6.2,0,9.2,0c39.9,0,79.7,0,119.6,0c6,0,12,0,18,0
				c5.1,0,10.1-0.8,11.8-6.5c3.3-11,5.1-22.8,7.6-34c8.2-36.5,16.4-73.1,24.5-109.6c0.2-0.8,0.4-1.6,0.5-2.4
				C372,246.5,368.5,246.9,368.2,248.3L368.2,248.3z"/>
		</g>
	</g>
	<path fill="#FFFFFF" d="M238.6,117.8c-0.3,0.1-0.6,0.1-0.9,0c-1.2-0.3-2-1.5-1.7-2.7c1.6-7.7,9-12.6,16.6-10.9
		c1.2,0.3,2,1.5,1.7,2.7c-0.3,1.2-1.4,2-2.6,1.7c-5.2-1.2-10.2,2.2-11.3,7.5C240.1,117,239.4,117.6,238.6,117.8L238.6,117.8z
		 M238.6,117.8"/>
</g>
</svg>
