<?xml version="1.0" encoding="utf-8"?>
<!-- Generator: Adobe Illustrator 18.1.1, SVG Export Plug-In . SVG Version: 6.00 Build 0)  -->
<svg version="1.1" id="Layer_1" xmlns="http://www.w3.org/2000/svg" xmlns:xlink="http://www.w3.org/1999/xlink" x="0px" y="0px"
	 viewBox="0 0 500 500" enable-background="new 0 0 500 500" xml:space="preserve">
<circle fill="#FFFAC0" cx="250" cy="250" r="226.5"/>
<g>
	<path stroke="#000000" stroke-width="0.9096" stroke-miterlimit="10" d="M393,325c0,10.2-7.7,18.5-17.2,18.5H124.7
		c-9.5,0-17.2-8.3-17.2-18.5V175c0-10.2,7.7-18.5,17.2-18.5h251.1c9.5,0,17.2,8.3,17.2,18.5V325z"/>
	<rect x="121.8" y="178.6" fill="#FFFFFF" width="256.8" height="134.2"/>
	<polygon points="129.5,183 120.8,189.9 120.4,180.5 120,171.2 129.1,173.6 138.2,176.1 	"/>
	<polygon points="371.6,183 380.2,189.9 380.6,180.5 381,171.2 371.9,173.6 362.9,176.1 	"/>
	<circle fill="#FFFFFF" cx="121.8" cy="333.1" r="6.7"/>
	<circle fill="#FFFFFF" cx="180.7" cy="333.1" r="6.7"/>
	<circle fill="#FFFFFF" cx="329.4" cy="333.1" r="6.7"/>
	<circle fill="#FFFFFF" cx="250.1" cy="319.9" r="2.8"/>
	<circle fill="#FFFFFF" cx="123.6" cy="165.9" r="6.7"/>
	<circle fill="#FFFFFF" cx="378.6" cy="169" r="6.7"/>
	<circle fill="#FFFFFF" cx="380.3" cy="333.1" r="6.7"/>
	<rect x="99.7" y="270.5" width="12" height="55.9"/>
	<rect x="388.3" y="270.5" width="12" height="55.9"/>
	<rect x="131.6" y="232.6" width="18.8" height="18.8"/>
	<text transform="matrix(1 0 0 1 136.4856 248.1138)" fill="#5ACAED" font-family="'Impact'" font-size="16.99">A</text>
	<path d="M339.8,247.9c0,10.8-9.4,19.6-21,19.6H183.8c-11.6,0-21-8.8-21-19.6l0,0c0-10.8,9.4-19.6,21-19.6h135.1
		C330.4,228.3,339.8,237,339.8,247.9L339.8,247.9z"/>
	<rect x="218.3" y="232.3" fill="#FFFFFF" width="66" height="21.1"/>
	<circle fill="#FFFFFF" cx="182.9" cy="247.9" r="15.3"/>
	<circle fill="#FFFFFF" cx="319.6" cy="247.9" r="15.3"/>
	<g>
		<rect x="121.8" y="298.5" fill="#5ACAED" width="256.8" height="14.4"/>
		<g>
			<path d="M379.1,312c-31.6,0-63.2,0-94.8,0c-47,0-93.9,0-140.9,0c-6.1,0-12.2,0-18.2,0c-0.7,0-2.2,0.3-2.8,0
				c1.5,0.6,0.6,0.2,0.8-1.2c0.2-1.4,0-2.9,0-4.3c0-2.7,0-5.5,0-8.2c-0.6,0.3-1.3,0.7-1.9,1c31.6,0,63.2,0,94.8,0
				c47,0,93.9,0,140.9,0c6.1,0,12.2,0,18.2,0c0.7,0,2.2-0.3,2.8,0c-1.5-0.6-0.6-0.2-0.8,1.2c-0.2,1.4,0,2.9,0,4.3c0,2.7,0,5.5,0,8.2
				c0,1.2,2.8,0.6,2.8-0.3c0-4.8,0-9.6,0-14.4c0-0.5-0.4-0.7-0.9-0.7c-29.1,0-58.1,0-87.2,0c-45.9,0-91.9,0-137.8,0
				c-10.6,0-21.2,0-31.9,0c-0.5,0-1.9,0.3-1.9,1c0,4.8,0,9.6,0,14.4c0,0.5,0.4,0.7,0.9,0.7c29.1,0,58.1,0,87.2,0
				c45.9,0,91.9,0,137.8,0c10.6,0,21.2,0,31.9,0C379.2,313.7,381,312,379.1,312z"/>
		</g>
	</g>
</g>
</svg>
