<?xml version="1.0" encoding="utf-8"?>
<!-- Generator: Adobe Illustrator 18.1.1, SVG Export Plug-In . SVG Version: 6.00 Build 0)  -->
<svg version="1.1" id="Layer_1" xmlns="http://www.w3.org/2000/svg" xmlns:xlink="http://www.w3.org/1999/xlink" x="0px" y="0px"
	 viewBox="0 0 500 500" enable-background="new 0 0 500 500" xml:space="preserve">
<g>
	<circle fill="#F9C3D2" cx="250" cy="250" r="226.5"/>
</g>
<g>
	<g>
		<path fill="#7D76B7" d="M447.4,285.5H52.6c-1.7,0-3.1-1.4-3.1-3.1v-59.8c0-1.7,1.4-3.1,3.1-3.1h394.9c1.7,0,3.1,1.4,3.1,3.1v59.8
			C450.5,284.1,449.1,285.5,447.4,285.5z"/>
		<g>
			<path d="M448.1,284.7c-17,0-34,0-51,0c-39,0-78,0-117,0c-43,0-86,0-129,0c-29,0-57.9,0-86.9,0c-2.9,0-5.8,0-8.7,0
				c-2.6,0-4-0.3-4.3-3.6c-0.8-7.9,0-16.2,0-24.1c0-9.8,0-19.5,0-29.3c0-2.6-0.9-6.7,1.9-7.4c2.1-0.5,5.1,0,7.2,0
				c10.8,0,21.6,0,32.4,0c37.2,0,74.4,0,111.7,0c43.5,0,86.9,0,130.4,0c31.6,0,63.2,0,94.8,0c3.9,0,7.9,0,11.8,0
				c1.5,0,3.9-0.5,5.3,0c3.9,1.2,2.3,10.1,2.3,13.2c0,10.5,0,21,0,31.6c0,4.2,0,8.3,0,12.5c0,1.1,0.7,6.8-1.2,7.2
				c-1.4,0.3-2.8,2.1-0.5,1.6c7-1.4,5-9,5-14.5c0-10.8,0-21.6,0-32.4c0-4.3,0-8.6,0-12.9c0-1.7,0.4-4.2-0.4-5.8
				c-1.2-2.5-4-2.1-6.3-2.1c-24.2,0-48.4,0-72.5,0c-42.8,0-85.5,0-128.3,0c-42,0-84.1,0-126.1,0c-21.4,0-43.1-1.1-64.4,0
				c-3.4,0.2-6.1,1.4-6.3,5.1c-0.5,8.2,0,16.5,0,24.7c0,10,0,20,0,30c0,3.8-0.5,7.6,4.5,7.9c6.3,0.4,12.7,0,19,0c14,0,28.1,0,42.1,0
				c41.5,0,83,0,124.4,0c43.3,0,86.5,0,129.8,0c25.2,0,50.3,0,75.5,0c1.2,0,2.4,0,3.6,0C447.9,286.4,450.3,284.7,448.1,284.7z"/>
		</g>
	</g>
	<g>
		<path fill="#176C82" d="M280.4,225.5c0,0,10-38.6,92.2-46.7c0,0.2,58.7,65.8,0,142.4c-0.4,0-63.3-8.5-91.4-42L280.4,225.5z"/>
		<g>
			<path d="M282,225.2c1.3-5,4.9-9.8,8.3-13.6c11.3-12.7,27.5-20.3,43.6-25.1c6.5-1.9,13.2-3.5,19.9-4.6c3.7-0.6,7.3-1.2,11-1.7
				c1.5-0.2,5.1-1.3,6.3-0.8c2.2,0.9,4.8,6.2,6,8.1c9.5,14.2,16.1,30.4,18.7,47.3c4.9,31.5-6,61.7-24.9,86.7c0.9-0.3,1.8-0.6,2.7-1
				c-5.9-0.5-12.6-2.2-18.5-3.7c-13.5-3.3-26.8-7.7-39.3-13.8c-6.8-3.3-13.4-7.1-19.5-11.7c-3-2.2-5.9-4.6-8.6-7.3
				c-1.5-1.5-4.3-3.6-4.9-5.7c-0.8-2.6-0.1-6.6-0.2-9.4c-0.1-5.5-0.2-11.1-0.3-16.6c-0.1-9.1-0.3-18.2-0.4-27.4
				c0-0.6-3.3-0.1-3.3,0.9c0.3,16.6,0.5,33.2,0.8,49.7c0,3-0.3,3.7,1.8,6c4.7,5.3,10.2,9.8,16.1,13.7c11.3,7.6,24,13.2,36.9,17.5
				c9.7,3.3,19.6,5.8,29.6,7.7c2.2,0.4,4.6,1.1,6.9,1.2c3.8,0.2,4.8-2.7,6.9-5.6c18.9-26.7,27.4-59.3,19.6-91.5
				c-2.9-11.9-7.7-23.3-14.1-33.7c-2.6-4.3-6.3-8.8-8.9-12.6c-0.2-0.3-0.6-0.3-0.9-0.2c-23,2.3-46.7,7.1-67,18.8
				c-9.9,5.7-19.5,13.4-25.1,23.5c-1,1.7-1.9,3.5-2.4,5.4C278.6,226.5,281.8,226.1,282,225.2z"/>
		</g>
	</g>
	<g>
		<path fill="#176C82" d="M262.4,291.6h-24.3c-9.6,0-17.4-7.8-17.4-17.4v-43.9c0-9.6,7.8-17.4,17.4-17.4h24.3
			c9.6,0,17.4,7.8,17.4,17.4v43.9C279.8,283.7,271.9,291.6,262.4,291.6z"/>
		<g>
			<path d="M263.9,291.1c-6.6,0-13.3,0-19.9,0c-9.3,0-18.3-2.7-21.1-12.8c-1.5-5.3-0.6-11.9-0.6-17.3c0-8.2,0-16.4,0-24.7
				c0-7.5-0.1-14.7,6.5-20c6.2-5,17.6-3,25.1-3c8.7,0,17.4,0.4,22.1,9.2c2.9,5.4,2.1,12.3,2.1,18.3c0,9.2,0,18.4,0,27.7
				c0,2,0.1,4.1,0,6.1c-0.3,8-5.8,16.2-14.4,16.5c-0.7,0-3.1,0.9-2.8,0.9c10.2-0.4,19.9-6.7,20.4-17.6c0.3-6.5,0-13.1,0-19.6
				c0-8,0.1-16,0-24c-0.1-10.4-7.6-18-17.9-18.3c-7.7-0.2-15.5-0.1-23.2,0c-8.2,0.1-16.8,3.8-20,11.9c-2.5,6.2-1.3,14.6-1.3,21
				c0,8.9,0,17.7,0,26.6c0,10.9,6.2,19.8,17.8,20.2c8,0.2,16,0,23.9,0C261.8,292,263.3,291.1,263.9,291.1z"/>
		</g>
	</g>
	<g>
		<path fill="#176C82" d="M221.2,225.3c0,0-10-38.4-92.7-46.5c0,0.2-59,65.4,0,141.7c0.4,0,63.7-8.4,91.9-41.8L221.2,225.3z"/>
		<g>
			<path d="M222.9,224.8c-1.3-5.1-5-9.8-8.4-13.6c-10.5-11.8-25.3-19.2-40.1-24.1c-14.5-4.9-29.6-7.4-44.8-9c-0.8-0.1-2.2,0.3-2.7,1
				c-2,2.8-5.3,6.8-7.5,10.2c-5.5,8.5-10,17.8-13.2,27.4c-9.8,29.6-5.9,61,9.6,87.9c2.5,4.3,5.2,8.4,8.1,12.4c1.2,1.7,2,3.8,4,4.1
				c1.5,0.3,3.8-0.6,5.3-0.8c9.4-1.6,18.7-3.9,27.8-6.7c12.3-3.8,24.4-8.5,35.6-14.9c5.9-3.3,11.5-7.1,16.7-11.5
				c2.7-2.3,8-6,8.8-9.5c0.8-3.2,0.1-7.4,0.2-10.7c0.1-5.8,0.2-11.6,0.3-17.4C222.6,241.3,222.8,233.1,222.9,224.8
				c0-0.5-3.3-0.1-3.3,0.9c-0.3,15.7-0.5,31.4-0.8,47c0,1.7,0.5,4.7-0.1,6.3c-0.8,2-4.1,4.4-5.7,5.9c-2.6,2.5-5.5,4.8-8.4,6.9
				c-11.1,8.1-23.8,13.9-36.8,18.4c-9.8,3.4-19.9,6.1-30.2,8.1c-2,0.4-5.6,1.7-7.6,1.3c-1.5-0.3,0.2,0.5-1.1-1.2
				c-2.9-4.1-5.9-8.2-8.5-12.5c-15.7-26.1-20.9-56.8-12.2-86.2c3.1-10.5,7.8-20.6,13.6-29.9c2.5-4,5.5-7.5,8.2-11.3
				c-0.9,0.3-1.8,0.6-2.7,1c23.1,2.3,47.2,7.2,67.3,19.4c9.1,5.5,17.8,12.8,22.9,22.2c0.8,1.5,1.6,3,2,4.7
				C219.8,226.5,223.1,225.6,222.9,224.8z"/>
		</g>
	</g>
	<g>
		<g>
			<path d="M166,225c17.7,3.4,35.5,6.9,53.2,10.3c3,0.6,4.3-4,1.3-4.6c-17.7-3.4-35.5-6.9-53.2-10.3C164.3,219.9,163,224.5,166,225
				L166,225z"/>
		</g>
	</g>
	<g>
		<g>
			<path d="M179.8,279.7c13.6-5.3,27.1-10.5,40.7-15.8c2.9-1.1,1.6-5.9-1.3-4.7c-13.6,5.3-27.1,10.5-40.7,15.8
				C175.6,276.2,176.9,280.9,179.8,279.7L179.8,279.7z"/>
		</g>
	</g>
	<g>
		<g>
			<path d="M282.2,234.3c12.2-4.6,24.4-9.2,36.6-13.8c2.9-1.1,1.6-5.7-1.3-4.6c-12.2,4.6-24.4,9.2-36.6,13.8
				C278.1,230.8,279.3,235.4,282.2,234.3L282.2,234.3z"/>
		</g>
	</g>
	<g>
		<g>
			<path d="M281.9,264.9c10.5,3.8,21,7.6,31.5,11.3c2.4,0.9,3.4-3,1.1-3.8c-10.5-3.8-21-7.6-31.5-11.3
				C280.6,260.2,279.5,264,281.9,264.9L281.9,264.9z"/>
		</g>
	</g>
</g>
</svg>
