<?xml version="1.0" encoding="utf-8"?>
<!-- Generator: Adobe Illustrator 18.1.1, SVG Export Plug-In . SVG Version: 6.00 Build 0)  -->
<svg version="1.1" id="Layer_1" xmlns="http://www.w3.org/2000/svg" xmlns:xlink="http://www.w3.org/1999/xlink" x="0px" y="0px"
	 viewBox="0 0 500 500" enable-background="new 0 0 500 500" xml:space="preserve">
<g>
	<circle fill="#FCE3EE" cx="250" cy="250" r="226.5"/>
</g>
<g>
	<g>
		<path fill="#5ACAED" d="M266.7,93.2c-3.8-4.5-127.9,122.2-133.4,186.7c-5.5,64.5,42.4,121.1,106.8,126.6
			c64.5,5.5,121.1-42.4,126.6-106.8c3.7-43.6-24.3-100.2-55.8-147.5C296,129.6,280.2,109.2,266.7,93.2z"/>
		<g>
			<path d="M268.3,92.6c-3.8-3.6-19.3,13.5-21.1,15.3c-15.8,15.4-30.6,31.9-44.7,48.9c-16.6,19.9-32.4,40.7-45.9,62.8
				c-10.9,17.8-22.2,37.9-24.6,59.1c-6.9,61.7,39.5,118.9,100.3,127.7c60,8.7,119.5-30.5,133.5-89.8c8-34-2-68.1-16-99.1
				c-16.7-37-39.4-71.4-64.1-103.4C279.9,106.8,274.2,99.6,268.3,92.6c-0.6-0.7-3.7,0.5-3.1,1.2c24.5,29.1,46.8,60.3,65.4,93.4
				c16.8,30,32.6,63.6,34.7,98.5c3.7,61.8-46.9,117.2-108.4,120.4c-61,3.1-115.4-43.7-121.7-104.4c-1.2-11.7-0.9-23.7,2.2-35
				c2.6-9.6,6.6-18.7,11.1-27.6c10.9-21.6,24.9-41.6,39.6-60.8c14.1-18.4,29.2-36.1,45-53.1c9.7-10.3,19.6-21.6,31.1-30.1
				c0.4-0.3,1.6-0.8,1.8-1.3c0.5-1-0.1,0.7-0.9-0.1C265.8,94.4,268.9,93.2,268.3,92.6z"/>
		</g>
	</g>
	<path fill="#FFFFFF" d="M334.2,315.9c1.2-0.7,2.5-1.2,3.9-1.5c5.6-1.2,10,1.5,10,6c-0.3,28.8-29.1,58.5-64.1,66.3
		c-5.6,1.2-10-1.5-10-6c0.1-4.6,4.6-9.3,10.2-10.5c23.9-5.3,43.5-25.6,43.7-45.2C328,321.5,330.5,318,334.2,315.9L334.2,315.9z
		 M334.2,315.9"/>
</g>
</svg>
