<?xml version="1.0" encoding="utf-8"?>
<!-- Generator: Adobe Illustrator 18.1.1, SVG Export Plug-In . SVG Version: 6.00 Build 0)  -->
<svg version="1.1" id="Layer_1" xmlns="http://www.w3.org/2000/svg" xmlns:xlink="http://www.w3.org/1999/xlink" x="0px" y="0px"
	 viewBox="0 0 500 500" enable-background="new 0 0 500 500" xml:space="preserve">
<g>
	<circle fill="#C8EAF5" cx="250" cy="250" r="226.5"/>
</g>
<g>
	<g>
		<g>
			<g>
				<path fill="#FFFFFF" d="M215.8,235.5c0.1,1.2-0.8,2.9-1.4,3.8c-0.8,1.1-1.8,1.9-3,2.3c-1.8,0.7-3.9,1.3-5.1-0.5
					c-1-1.4-1.9-2.8-2.7-4.3c-1.3-2.2-4.5-6.9-2.9-9.6c0.2-0.4,3.3-6.2,6.9-5.2C207.8,221.9,215.5,232.6,215.8,235.5z"/>
			</g>
			<path fill="#FFFFFF" d="M194.5,234.9c-2.8-0.8-1.3,3.9-1,4.9c0.3,0.8,0.7,1.2,1.3,1.8c1,1,1.9,1.9,2.9,2.9l2.3,2.3
				c0.4-0.3,1.5-0.7,1.6-1.2c0.2-0.5-0.2-0.8-0.6-1.3c-0.9-1.2-1.8-2.5-2.6-3.8c-0.9-1.3-1.8-2.6-2.7-3.9
				C195.5,236.4,194.9,235,194.5,234.9z"/>
			<g>
				<path fill="#FFFFFF" d="M170.6,95.6c0,0,5.5-12.8,16.3-6.8c0.2,0.1,12.4,10,15.8,15.8c-0.1-0.3,13.1,19.4,13.4,19.8
					c0.2,0.2,11.9,24.1,15.3,29.5c0.1,0.1,11.7,17.8,13.2,19.3l2.9,20.3c0,0-20.5-12.4-31.5-2.2l-1-1c-0.9-5.1,4-11.3,4-11.3
					l-12.6,30.3c2.6-12.3-12.2-25.8-12.2-25.8l-2.5,0.2l3.6-0.3l2.3-1c0,0,9.1,10.3,16.8,9.3c0.6,0.1,0.1,1.8,0.1,1.8
					s-8.7,6.9-2.6,24.1l-5.3,29c0,0-2.1,5.1-7.3,4.5c-0.6,0-22.4-9.4-24.1-13.7c-0.4-0.1-11.9-1-15.6-6.9l9.6,12.9c1.7-2.6,6-6,6-6
					l3,3c0,0-6.9,5.4-6.6,11.8c0,0.1-0.7,0.7-0.7,0.7l2.7,4.1c4.1-10.2,11.8-12.4,11.8-12.4L171,209c0,0-9.6-17-1-26.2
					c0,0.2,11.8,2.5,16,1c0,0,2,1.8,2.5,2.5c0.6,0.7,5.8,6.1,7.7,8.7s11.5,17.9,11.6,17.9c2.6,3.3,5.9,15.1,5.9,14.9
					c7.9,12.8,4.1,15.8,4.1,15.8c-1.3,1.3-2.8,1.3-5.3,2.8c-2.5,1.5-3.3,1-7.9-0.4c-4.6-1.3-14.5-17.5-14.5-17.5l-5.8-8.7
					c-2.4-0.9-12.5-9.8-12.5-9.8s-0.8-0.6-1-1c-10.6-2.9-13.5,3.9-13.7,3.9c-5,5.4,0.8,17.5,1,17.5c2.6,7.8,16,27.4,15.7,27.1
					c-0.6,0.8,1.7,6.7,1.8,6.5c1,1.3,3.4,3.6,4,4c1.4,4.1,4.2,10,4.5,10.1c11.6,13.9,23.4,20.7,23.6,20.7
					c12.9,11.4,23.2,25.5,23.3,25.2c2.1,2.5,7.9,10.8,8,11.1c3.2,9.3,33.8,74.4,33.8,74.4l-0.6-0.6c8.3-12.8,18.3-24.6,30.4-34
					c9.1-7,19.4-12.6,30.4-15.7c2.8-0.8,5.8-1.3,8.7-1.6c1.4-0.2,2.8-0.2,4.2-0.3c1.1-0.1,1.2,0.5,2.1-0.1c-0.9-1.3-0.5-3-1.6-4.1
					c-1.1-1.2-2.1-2.4-3.1-3.7c-6.6-9.4-12.2-19.5-17.8-29.6c-2.3-4.3-4.7-8.5-6.9-12.8c-0.7-1.3-2.7-3.8-2.8-5.4
					c-3.3-6.7-16.3-23.1-16.4-23.1c-6.4-5.7-14.4-20.7-14.3-20.7c-1.1-4.3-6.5-15.5-6.4-15.4c-5.6-8.3-6.8-23.7-6.7-24.1
					c-2.7-21.9-9.5-24.4-9.5-24.7c-3.1-1.2-11.5-12.8-11.6-12.8c-3.8-6.3-9.1-9.5-9.3-9.3c-4.3-1.3-38.2-20.2-38-20.1
					c-3.7-2.6-8.8,0.1-9.6,0.4c-3.7,3.5-19.7,11.3-20.2,11.3c-3.5,0.4-13,2.2-14.3,2.9c-1.3,0.7-0.5,7.7-0.7,7.6
					c0.2,4.7,10.9,9.2,10.9,9.2l16,1l2.4-0.7c0,0,3.1,0.3,2.9,0.4c0.9,0.4,4,2.3,1.6,3.9c-2.5,1.6-5-1.7-5-1.7l9.7-3.4
					c-2.8-5.7,0.8-18.9,0.8-18.9l1.7-13.3c0,0-3.2-7.8-3-8c-0.6-2.6-4-7.4-4.1-7.6c-3.2-2.5-12.8-21.5-12.6-21.6
					c-0.2-1.2-10.5-17.9-10.6-18c-3.8-5.7-12-4.1-12.3-4.1c-8.7,2.5-7.9,11.8-7.7,12.3c1.2,2,10.6,18,10.6,18.1
					c-1.1,3.5,11.3,27.6,11.2,27c0.4,1.1,5,12.9,5,12.9"/>
			</g>
			
				<ellipse transform="matrix(0.5807 0.8141 -0.8141 0.5807 441.7465 -92.1112)" fill="#FFFFFF" cx="310.3" cy="382.8" rx="16" ry="47.7"/>
			
				<ellipse transform="matrix(0.5807 0.8141 -0.8141 0.5807 441.7465 -92.1112)" fill="#FFFFFF" cx="310.3" cy="382.8" rx="14.7" ry="43.6"/>
			
				<ellipse transform="matrix(0.5807 0.8141 -0.8141 0.5807 443.2624 -92.5964)" fill="#FFFFFF" cx="311.5" cy="384.1" rx="12.1" ry="36"/>
		</g>
		
			<rect x="173.6" y="96.5" transform="matrix(0.9295 -0.3688 0.3688 0.9295 -36.4486 76.9917)" fill="#FFFFFF" width="19.2" height="74.7"/>
		
			<rect x="194.5" y="146.2" transform="matrix(0.9295 -0.3688 0.3688 0.9295 -53.3326 88.1997)" fill="#FFFFFF" width="19.2" height="74.7"/>
		
			<rect x="210.4" y="141.2" transform="matrix(0.9295 -0.3688 0.3688 0.9295 -50.362 93.7204)" fill="#FFFFFF" width="19.2" height="74.7"/>
		
			<rect x="222.8" y="153" transform="matrix(0.9295 -0.3688 0.3688 0.9295 -53.8181 99.134)" fill="#FFFFFF" width="19.2" height="74.7"/>
		
			<rect x="198.4" y="197.4" transform="matrix(0.9295 -0.3688 0.3688 0.9295 -71.9393 93.254)" fill="#FFFFFF" width="19.2" height="74.7"/>
		
			<rect x="177.4" y="207.1" transform="matrix(0.9295 -0.3688 0.3688 0.9295 -76.9597 86.1951)" fill="#FFFFFF" width="19.2" height="74.7"/>
		
			<rect x="190.5" y="173" transform="matrix(0.9295 -0.3688 0.3688 0.9295 -63.4884 88.6387)" fill="#FFFFFF" width="19.2" height="74.7"/>
		
			<rect x="177.4" y="122.9" transform="matrix(0.9295 -0.3688 0.3688 0.9295 -45.9344 80.2652)" fill="#FFFFFF" width="19.2" height="74.7"/>
		
			<rect x="183.6" y="103.3" transform="matrix(0.9295 -0.3688 0.3688 0.9295 -38.2537 81.1804)" fill="#FFFFFF" width="19.2" height="74.7"/>
		
			<rect x="179.7" y="203.5" transform="matrix(0.9295 -0.3688 0.3688 0.9295 -75.4759 86.7852)" fill="#FFFFFF" width="19.2" height="74.7"/>
		
			<rect x="235" y="162.8" transform="matrix(0.8594 -0.5113 0.5113 0.8594 -57.6349 148.2992)" fill="#FFFFFF" width="11.6" height="32.3"/>
	</g>
	<g>
		<g>
			<g>
				<path d="M205.4,246.2c-2.5,5.6-7,2.8-10.9,1.1c-4.4-2-8.7-4.1-12.8-6.7c-2.3-1.4-4-3.9-6.4-4.7c-5.3-1.8-10.7-1.5-14.3-6.6
					c-0.5-0.8-3.3,0.2-2.7,1.1c2,2.8,5,4.4,8.2,5.5c2.2,0.7,5.4,0.6,7.4,1.6c0.4,0.2,2.3,2.4,3.3,3.1c2.5,1.8,5.2,3.2,7.9,4.6
					c6.6,3.4,18.3,11,23,0.6C208.6,245,205.8,245.3,205.4,246.2L205.4,246.2z"/>
			</g>
		</g>
		<g>
			<g>
				<path d="M175,236.6c-2.3,1.8-4.5,3.8-6.2,6.2c-0.3,0.5,0.8,0.4,1.1,0.1c1.5-2.2,3.7-4.1,5.8-5.8
					C176.3,236.5,175.4,236.3,175,236.6L175,236.6z"/>
			</g>
		</g>
		<g>
			<g>
				<path d="M172.7,207.9c-4.2-7.5-7.3-18.5-1.1-25.8c-1,0.3-2,0.5-3,0.8c4.4,2.2,12.9,2.3,17.6,1c-0.6,0-1.2-0.1-1.8-0.1
					c9,8.4,15.4,18.8,21.9,29.1c2.1,3.4,3.4,7.3,4.6,11.1c1.1,3.4,2.8,6.2,4.3,9.5c1,2.3,2.6,5.9,1.6,8.5c-0.9,2.6-6.6,3.7-9.2,3.1
					c-6.5-1.6-10.9-10.3-14.3-15.5c-2.3-3.5-4.3-8.1-7.2-11c-1.6-1.6-4.2-2.8-6-4.3c-2.2-1.8-4.3-3.9-6.6-5.6
					c-4.3-3.1-11.4-2.5-15.6,0.9c-9.7,8-1.1,22.7,3.8,31.1c2,3.3,4,6.6,6.1,9.9c1.3,2.1,3.3,4.2,4.2,6.5c0.8,1.9,0.6,4.5,1.8,6.5
					c0.7,1.2,1.9,2,2.8,3.1c1.9,2.2,2.7,4.9,3.9,7.6c3.9,8.4,12.5,15.2,19.8,20.7c1.8,1.3,3.7,2.4,5.5,3.7c4.6,3.3,8.6,8,12.3,12.2
					c7.5,8.2,16.2,17.4,20.5,27.8c9.9,23.9,21.3,47.3,32.3,70.7c0.5,1.1,3.8-0.1,3.4-0.9c-10.5-22.2-21-44.4-30.7-66.9
					c-1.6-3.7-2.8-7.3-5.2-10.6c-3.7-5.3-7.5-10-11.6-14.9c-5.9-7-12.1-14.8-19.9-19.8c-3.3-2.2-6.5-4.6-9.5-7.2
					c-4.4-3.8-9.8-8.3-12.7-13.5c-1.3-2.3-2-5-3.2-7.4c-0.8-1.6-1.6-2.2-2.9-3.6c-2.6-2.7-2.2-5.1-3.4-8.2c-0.6-1.6-2.1-3.2-3-4.6
					c-2.6-3.9-5.1-7.9-7.4-12c-3.2-5.5-6.6-11.6-7.8-17.8c-0.8-3.8-0.6-7.1,1.8-10.3c2.8-3.6,7.7-4.3,11.4-1.6
					c2.5,1.9,4.7,4.1,7.1,6c2.1,1.7,4.4,2.9,6,4.9c3.2,3.9,5.5,8.4,8.3,12.6c4,5.9,7.9,12.3,15.4,13.6c3.3,0.6,5.4-0.9,8.3-2.3
					c1.5-0.7,3.3-1.3,4.1-2.8c3.1-5.5-3.8-13.3-5.3-18.3c-2.3-7.2-5.4-12.7-9.4-18.9c-4.6-7.1-9.1-13.5-14.9-19.8
					c-2.9-3.1-3-2.8-7.2-2.6c-3.3,0.2-8.8,0.1-11.8-1.4c-0.8-0.4-2.4,0.1-3,0.8c-6.4,7.5-3.6,18.8,0.8,26.6
					C169.9,209.9,173.2,208.7,172.7,207.9L172.7,207.9z"/>
			</g>
		</g>
		<g>
			<path fill="#FFF200" d="M215.8,234.9c0.1,1.2-0.8,2.9-1.4,3.8c-0.8,1.1-1.8,1.9-3,2.3c-1.8,0.7-3.9,1.3-5.1-0.5
				c-1-1.4-1.9-2.8-2.7-4.3c-1.3-2.2-4.5-6.9-2.9-9.6c0.2-0.4,3.3-6.2,6.9-5.2C207.8,221.3,215.5,232,215.8,234.9z"/>
			<g>
				<path d="M215.5,235c-0.3,3.5-2,4.4-5.1,5.2c-2.1,1.6-3.6,1.3-4.5-0.9c-0.4-0.5-0.7-1.1-1-1.6c-1.1-1.7-2.2-3.5-3.1-5.4
					c-1.7-3.5-1.3-6.6,1.6-9.2c4.3-3.8,5.8,0.8,7.9,3.9C212.8,229.5,214.9,232.2,215.5,235c0,0.1,0.8,0,0.7-0.2
					c-0.5-2.6-2.3-5-3.7-7.2c-1.1-1.8-2.4-4.5-4.1-5.8c-2.6-2.1-5.9,1.4-7.3,3.5c-1.6,2.3-1.4,4.2-0.3,6.8c1.2,2.6,3.4,7.7,5.8,9.2
					c4,2.5,9.3-2.8,9.6-6.5C216.2,234.7,215.5,234.8,215.5,235z"/>
			</g>
		</g>
		<path fill="none" stroke="#000000" stroke-width="0.9895" stroke-miterlimit="10" d="M194.5,234.3c-2.8-0.8-1.3,3.9-1,4.9
			c0.3,0.8,0.7,1.2,1.3,1.8c1,1,1.9,1.9,2.9,2.9l2.3,2.3c0.4-0.3,1.5-0.7,1.6-1.2c0.2-0.5-0.2-0.8-0.6-1.3c-0.9-1.2-1.8-2.5-2.6-3.8
			c-0.9-1.3-1.8-2.6-2.7-3.9C195.5,235.8,194.9,234.4,194.5,234.3z"/>
		<g>
			<g>
				<path d="M187.4,185.5c1.2,1.5,3.3,3.5,5.4,3.1c3.2-0.5,2.4-3.4,0.9-5.1c-3.2-3.6-6.9-1.8-10.9-2c-5.2-0.3-11.5,0.3-15.9-2
					c-1.6-0.9-3.6-1.9-4.9-3.2c-1.9-1.9-1.7-3-1.7-5.4c0-1.8-0.2-3.4,1.3-4.4c1.4-1,4.3-1,6-1.3c2.7-0.5,5.7-0.6,8.3-1.6
					c3.3-1.2,6.6-3.2,9.7-4.9c5.9-3.2,11.9-9.7,19-6.5c11.4,5.2,21.9,12.3,33.2,17.9c1.5,0.8,3.2,1.4,4.7,2.1
					c3.2,1.6,6.3,5.9,8.3,8.6c1.7,2.2,3.4,4.4,5.2,6.5c1.6,1.9,4.2,5.9,6.7,6.6c0.9,0.3-2.3-2-0.5-0.6c0.1,0.1,0.5,0.5,0.7,0.7
					c0.2,0.2,0.5,0.3,0.7,0.5c1.7,1.7,2.8,3.6,3.7,5.9c3.2,7.6,3.3,15.8,4.7,23.8c1.4,7.8,4.6,14.1,7.8,21.2
					c2.6,5.7,4.5,11.5,7.7,16.9c7.7,13,19.6,23,26.6,36.4c6.1,11.6,12.2,23.3,18.9,34.6c3.7,6.3,8,12.1,12,18.2
					c0.6,1,1.9,0.6,1.5,2.8c-0.2,1.3-0.1,0.3-1.2,0.7c-2.6,1-6.7,0.5-9.4,1.1c-27.8,5.6-49.6,28-64.6,50.8c-0.5,0.8,1.8,3.4,2.4,2.4
					c9.1-13.9,20.1-26.7,33.7-36.4c7-4.9,14.6-9,22.7-11.8c3.9-1.3,7.9-2.3,11.9-2.8c2.3-0.3,5.2,0.3,7.3-0.6c0.3-0.1,0-0.9,0-1.1
					c-2-4.9-4.9-8.2-7.9-12.8c-3.3-5.1-6.4-10.3-9.4-15.5c-5.3-9.4-10.3-18.9-15.3-28.4c-5.8-11-14.9-19.5-22.1-29.5
					c-3.5-4.9-6.8-10.1-8.9-15.7c-2.2-6-5.5-11.5-8-17.4c-5.6-12.9-2.9-28.2-10.3-40.4c-0.8-1.4-1.8-2.7-2.9-3.8
					c-1.2-1.1-2.7-1.5-0.6,0c-4.4-3-8.1-8.3-11.3-12.5c-3.1-4.1-6.2-8.8-10.9-11.2c-3.7-1.9-7.6-3.6-11.4-5.5
					c-9-4.7-17.7-10.1-26.7-14.6c-6.2-3.1-10.1,0.7-15.2,3.7c-4.8,2.9-10.4,6.6-15.9,8c-3.9,1-8,1-11.9,2.2
					c-2.5,0.9-2.7,1.9-2.7,4.6c-0.1,6,2.1,9.4,7.2,12.6c4.5,2.9,7.2,3.1,12.5,3.4c2.9,0.2,6.1,0.7,9,0.6c0.9-0.1,1.6-0.4,2.5-0.5
					c0.3,0,0.4-0.1,0.7-0.1c4.2-0.2,1.4,3.6-1.1,0.7C187.3,183,186.1,183.9,187.4,185.5L187.4,185.5z"/>
			</g>
		</g>
		<g>
			<g>
				<path d="M178.2,160.7c-1.7-4.3-3.4-8.6-5-12.9c-0.3-0.9-1.3-1.8-2.4-1.5c0,0,0,0,0,0c0.6,0.3,1.3,0.5,1.9,0.8
					c-1.7-2.4-3.6-7-5.1-10.2c-2.1-4.6-4.8-9.5-5.7-14.5c-0.6-3.2-2.3-5.6-4-8.5c-2-3.3-5.9-8.1-6.7-11.6c-1.2-5.4,4-10.6,9-10.7
					c6.8-0.1,8.7,4.1,11.7,9.1c4.3,7,7.8,14.2,11.7,21.4c2.3,4.3,5.7,9.4,8.1,12.6c3.3,4.3,4.7,9.7,6.7,14.7
					c0.6,1.5,3.9,2.1,3.1,0.1c-2-4.9-3.4-10-6.3-14.5c-3-4.7-6.3-9.1-9.1-14.1c-4.6-8.5-8.9-16.9-14.1-25.2
					c-2.8-4.4-6.5-7.1-11.9-7.2c-5.3-0.2-10,2.6-11.6,7.8c-3,9.2,7.1,16.4,10.1,24.4c-0.3-0.7-0.2-0.2-0.1,1c0.1,1,0.4,2,0.7,3
					c1,3.1,2.3,6.1,3.6,9c2.1,4.8,4.2,10.4,7.3,14.6c0.4,0.5,1.3,0.9,1.9,0.8c0,0,0,0,0,0c-0.8-0.5-1.6-1-2.4-1.5
					c1.5,4.4,3.3,8.6,5,12.9C175.7,162.1,179,162.7,178.2,160.7L178.2,160.7z"/>
			</g>
		</g>
		<g>
			<g>
				<path d="M172.2,95.6c1.2-2.7,3.2-5.3,5.7-6.8c5.9-3.5,10.3,1.3,14.4,5c6.2,5.7,10.4,12.2,15.1,19c3.4,5.1,6.9,9.9,9.7,15.4
					c4.1,8.1,7.8,16.5,12.6,24.2c4.1,6.6,8.3,14,13.5,19.7c0.6,0.6,3.8,1.4,3.1,0.6c-5.2-5.7-9.5-13.1-13.5-19.7
					c-5.4-8.8-9.4-18.4-14.3-27.5c-3.3-6.2-7.9-12-11.8-17.8c-4.9-7.3-10.8-14.2-18.1-19.3c-7.4-5.2-16-2.3-19.6,5.8
					C168.6,95.1,171.9,96.5,172.2,95.6L172.2,95.6z"/>
			</g>
		</g>
		<g>
			<g>
				<path d="M191.7,184.2c2.6-0.2,4.3-0.5,6.7-1.6c-0.7-0.1-1.3-0.2-2-0.2c2.6,2.9,5.8,5.6,9.2,7.5c1.9,1.1,4,1.9,6.2,2.2
					c1.9,0.3,1.5-0.1,1.3,0.5c-0.2,0.7-1.5,1.8-1.9,2.4c-0.9,1.4-1.6,2.9-2,4.5c-1.7,5.9-0.6,12.1,1.3,17.8c0.4,1.3,3.3,0.6,2.9-0.8
					c-2.2-6.6-3.6-14.5,0.3-20.8c1.1-1.8,3.3-3.1,2.1-5.4c-0.2-0.4-0.8-0.5-1.2-0.4c-6,0.3-11.8-4.6-15.6-8.9
					c-0.5-0.6-1.3-0.5-2-0.2c-1.9,0.8-3,0.9-5.2,1.1C190.3,182.1,189.7,184.3,191.7,184.2L191.7,184.2z"/>
			</g>
		</g>
		<g>
			<g>
				<path d="M248.7,192c-9.8-5.9-24.2-10-33.8-1.7c-1.3,1.1,1.5,1.4,2.4,0.7c8.1-7,21.1-2.3,29.2,2.6
					C247.4,194.1,250,192.8,248.7,192L248.7,192z"/>
			</g>
		</g>
		<g>
			<g>
				<path d="M217.7,178.3c-2.6,3.2-4.7,7.5-4.1,11.7c0.2,1.1,3,0.4,2.9-0.8c-0.5-3.9,1.6-7.9,4-10.8
					C221.3,177.3,218.4,177.5,217.7,178.3L217.7,178.3z"/>
			</g>
		</g>
		<g>
			<g>
				<path d="M197.1,163.1c-1.5,5.7-3.3,13.4-0.8,19c0.4,0.8,3.2-0.1,2.9-0.8c-2.4-5.6-0.8-13,0.8-18.7
					C200.2,161.9,197.3,162.3,197.1,163.1L197.1,163.1z"/>
			</g>
		</g>
		<g>
			<g>
				<path d="M177.9,239.7c-1.4,1.1-2.7,2.5-3.8,4c-0.9,1.2-1.6,2.4-2.1,3.8c-0.5,1.2-0.3,3.8-1.3,4.7c-0.5,0.4,0.6,0.4,0.9,0.2
					c1.1-0.9,0.7-1.4,1-2.9c0.3-1.8,1.1-3.6,2.1-5.1c1.1-1.7,2.6-3.3,4.2-4.6C179.3,239.5,178.2,239.5,177.9,239.7L177.9,239.7z"/>
			</g>
		</g>
		<path fill="none" stroke="#000000" stroke-width="0.9895" stroke-miterlimit="10" d="M185.6,244.1c0,0-7.6,2.2-11.8,12.4"/>
		<g>
			<g>
				<path d="M192.9,183.3c6.8,6.3,13.7,15.9,12.1,25.7c0,0.3,2.7,0.1,2.9-0.8c1.6-9.8-5.4-19.5-12.3-25.9
					C195.1,181.9,192.5,183,192.9,183.3L192.9,183.3z"/>
			</g>
		</g>
		
			<ellipse transform="matrix(0.5807 0.8141 -0.8141 0.5807 441.2475 -92.3681)" fill="#3D2B75" cx="310.3" cy="382.2" rx="16" ry="47.7"/>
		
			<ellipse transform="matrix(0.5807 0.8141 -0.8141 0.5807 441.2475 -92.3681)" fill="#7F2571" stroke="#000000" stroke-width="1.1826" stroke-miterlimit="10" cx="310.3" cy="382.2" rx="14.7" ry="43.6"/>
		
			<ellipse transform="matrix(0.5807 0.8141 -0.8141 0.5807 442.7635 -92.8534)" fill="#5ACAED" stroke="#000000" stroke-width="1.1826" stroke-miterlimit="10" cx="311.5" cy="383.4" rx="12.1" ry="36"/>
	</g>
</g>
</svg>
