<?xml version="1.0" encoding="utf-8"?>
<!-- Generator: Adobe Illustrator 18.1.1, SVG Export Plug-In . SVG Version: 6.00 Build 0)  -->
<svg version="1.1" id="Layer_1" xmlns="http://www.w3.org/2000/svg" xmlns:xlink="http://www.w3.org/1999/xlink" x="0px" y="0px"
	 viewBox="0 0 500 500" enable-background="new 0 0 500 500" xml:space="preserve">
<g>
	<circle fill="#C8EAF5" cx="250" cy="250" r="226.5"/>
</g>
<g>
	<g>
		<path fill="#176C82" d="M328,418.5c0,0-64.2,28.3-116.7-64.2c0,0-86.3-120.2,9.7-188.5c0,0,66.3-44.9,103.6,21.4
			c0,0,11.1,29.7-2.8,55.2c0,0-37.3,50.4,6.2,71.1c0,0,33.8,20,28.3,62.8C356.3,376.4,354.3,404,328,418.5z"/>
		<g>
			<path d="M327,418.4c-10.5,4.6-25.2,4.4-36.7,2c-33.2-6.8-57.8-33.8-74.5-61.8c-7.4-12.4-15.2-24.5-21.3-37.7
				c-11-23.9-18.5-50.4-17-76.9c1.8-31.6,19-61.4,45-78.5c15.5-10.2,35.7-16.2,54.2-13.3c16.2,2.5,29.8,12.1,39.5,25.1
				c3.3,4.4,6.4,8.9,7.8,14.2c2,7.2,3,14.7,3,22.2c0,9.7-1.8,20.6-7,29c-1.3,2.1-2.7,4-4,6.1c-5.5,9.4-10,20.1-10.8,31.1
				c-1,14.3,6.1,26,18.6,32.8c6.9,3.7,12.6,8.9,17.5,15.1c15.9,20,18.7,49.5,5.3,71.5c-4.9,8.1-11.8,14.5-20,19.1
				c-1.4,0.8,2,0.3,2.6,0c25.6-14.6,35.5-45.9,25.7-73.3c-4-11.3-11.5-21.5-20.8-29c-2.3-1.8-4.5-3.2-7.1-4.5
				c-7.2-3.9-13.4-9.8-16.4-17.6c-4.8-12.6-0.8-26.8,4.8-38.5c4.3-9,10.2-16.2,12.8-26c2.4-9.3,2.6-19.1,1.3-28.6
				c-0.7-4.7-1.4-10-3.3-14.3c-3.5-7.9-10.2-15.5-16.5-21.3c-5.9-5.3-12.7-9.5-20.1-12c-21.1-7.2-44.7-1.4-63.8,8.7
				c-22.6,12-40.6,34.8-47.7,59.2c-13.4,45.6,6.3,94.6,31,132.7c9.2,14.1,17.6,28,29.7,39.9c10.9,10.8,23.9,19.8,38.5,24.8
				c15.5,5.3,33.1,6.1,48.8,0.9c1-0.3,1.9-0.7,2.8-1.1C331,417.8,327.8,418,327,418.4z"/>
		</g>
	</g>
	<g>
		<path fill="#176C82" d="M261.7,111.4c0,18.8,15.2,34,34,34c18.8,0,34-15.2,34-34c0-18.8-15.2-34-34-34
			C276.9,77.4,261.7,92.6,261.7,111.4z"/>
		<g>
			<path d="M260,111.8c0.3,15.6,10.8,29.4,26.1,33.2c13.2,3.3,28-1.3,36.9-11.7c10-11.6,11-28.9,2.5-41.6
				c-8.2-12.2-23.4-17.5-37.5-14.3C271.8,81.3,260.3,95.2,260,111.8c0,0.7,3.4,0.2,3.4-0.9c0.3-13.7,8.6-26.7,21.9-31.2
				c13.2-4.4,28,1.1,36.1,12.2c7.6,10.4,8.5,24.6,2.4,35.9c-7.3,13.4-23,19.9-37.5,15.1c-13.8-4.6-22.6-17.7-22.9-32
				C263.4,110.1,260,110.7,260,111.8z"/>
		</g>
	</g>
	<g>
		<path fill="#176C82" d="M217.5,124.2c0,11.9,8.4,21.6,18.7,21.6c10.3,0,18.7-9.7,18.7-21.6c0-11.9-8.4-21.6-18.7-21.6
			C225.9,102.5,217.5,112.2,217.5,124.2z"/>
		<g>
			<path d="M215.8,124.3c0.3,11.4,7.8,22.9,20.3,22.8c12.1-0.1,20.5-11.6,20.5-23c0-11.4-8.1-22.9-20.3-22.8
				C224,101.3,216.1,112.8,215.8,124.3c-0.1,1.9,3.4,1.4,3.5-0.2c0.3-9.6,6.5-21,17.6-20.1c10,0.8,16.2,11,16.2,20.4
				c0,9.5-6.2,20-16.6,20.1c-10.8,0.2-17-10.8-17.3-20.4C219.2,122.2,215.7,122.6,215.8,124.3z"/>
		</g>
	</g>
	<g>
		<path fill="#176C82" d="M182.1,146.3c1.5,10.8,10.3,18.6,19.6,17.3c9.4-1.3,15.8-11.1,14.3-21.9c-1.5-10.8-10.3-18.6-19.6-17.3
			C187,125.6,180.6,135.4,182.1,146.3z"/>
		<g>
			<path d="M180.4,146.7c1.8,10.8,10.9,19.9,22.4,17.6c10.5-2.2,16.4-12.8,15-23.1c-1.5-10.8-11.1-19.9-22.4-17.6
				C184.6,125.9,179.3,136.4,180.4,146.7c0.1,1.1,3.6,0.3,3.4-0.9c-0.9-8.9,3.6-21.1,14.4-20.7c8.8,0.3,15,8.9,16.1,17
				c1.2,8.9-3.9,21.1-14.4,20.7c-9-0.3-14.7-8.9-16.1-17C183.6,144.7,180.1,145.5,180.4,146.7z"/>
		</g>
	</g>
	<g>
		<path fill="#176C82" d="M159.3,181.8c3.3,8.8,12.7,13.3,21.1,10.2c8.4-3.1,12.5-12.8,9.2-21.5c-3.3-8.8-12.7-13.3-21.1-10.2
			C160.2,163.4,156.1,173.1,159.3,181.8z"/>
		<g>
			<path d="M157.6,182.3c3.7,8.9,12.9,13.3,22.1,10.5c9.6-2.9,15.3-13.1,11.6-22.7c-3.4-9-13.1-13.2-22.1-10.5
				C159.3,162.5,154.4,172.5,157.6,182.3c0.3,0.8,3.7-0.2,3.4-0.9c-2.2-6.5-1-14.1,4.6-18.6c8.1-6.6,19.1-0.3,22.3,8.2
				c2.4,6.4,0.8,14.2-4.6,18.6c-8.3,6.8-18.8,0.1-22.3-8.2C160.7,180.6,157.4,181.7,157.6,182.3z"/>
		</g>
	</g>
	<g>
		<path fill="#176C82" d="M143.2,215.8c1.1,6.8,8.7,11.3,17,9.9c8.3-1.3,14.1-8,13-14.8c-1.1-6.8-8.7-11.3-17-9.9
			C147.9,202.4,142.1,209,143.2,215.8z"/>
		<g>
			<path d="M141.5,216.3c3.8,17.2,36.3,11.5,33.5-5.8C172.1,193,139.7,199,141.5,216.3c0.1,0.7,3.5,0.1,3.4-0.9
				c-1.6-15.3,24.2-19.1,26.6-3.9c2.4,15.3-23.3,18.8-26.6,3.9C144.7,214.6,141.3,215.4,141.5,216.3z"/>
		</g>
	</g>
</g>
</svg>
