<?xml version="1.0" encoding="utf-8"?>
<!-- Generator: Adobe Illustrator 18.1.1, SVG Export Plug-In . SVG Version: 6.00 Build 0)  -->
<svg version="1.1" id="Layer_1" xmlns="http://www.w3.org/2000/svg" xmlns:xlink="http://www.w3.org/1999/xlink" x="0px" y="0px"
	 viewBox="0 0 332.4 733.1" enable-background="new 0 0 332.4 733.1" xml:space="preserve">
<g>
	<path fill="#F04D5D" d="M172.4,341.1c-10.4,3.1-14.2,16.6-2.6,25.5l-56.2-11.4c14.7-3,18.9-17.7,11.2-24.9L172.4,341.1"/>
	<path fill="#F04D5D" d="M240.4,249.5c-10-4.2-21.5,3.8-18.2,18.1l-35-44.9c13.3,7,25.9-4.8,24.5-15.2L240.4,249.5"/>
	<path fill="#F58457" d="M201.8,144.2c-3.5,23.6,17.1,35.2,34.1,26.3l-23.2,34.2c1.9-19.1-16.5-34-37.1-21.9L201.8,144.2"/>
	<path fill="#D24D9C" d="M175.4,407c-10.4,21.5,6.2,39,25.1,35.6L168.3,469c7.5-17.7-6.1-38.2-29.4-32.9L175.4,407"/>
	<path fill="#935FA7" d="M236.6,515.3c-17.9,15.8-9.6,38,9.2,42.1l-39.8,11.3c13.8-13.4,9-38.1-14.5-42.2L236.6,515.3"/>
	<path fill="#176C82" d="M95.3,722.8c-7.1-17.8-39.3-17-48-3.5l5.7-33.7c6.5,14,27.2,16.5,37.3-0.7L97,722"/>
	<path fill="#935FA7" d="M167.3,600.2c12.2,13.6,29.1,7,32.1-7.3l8.9,30.3c-10.4-10.4-29.2-6.6-32.1,11.4L167.3,600.2"/>
	<path fill="#5ACAED" d="M109.5,670.7c18.2-1.3,23.4-18.6,14-29.8l29.4,11.6c-14.6,1.8-23.2,18.9-10.8,32.3L109.5,670.7"/>
	<path fill="#FFF200" d="M237.3,119.9c-19.3-11.1-35.4-0.6-36.3,17.5l-31.2-47.5c16.2,8.1,36-2.1,35.8-24.3L237.3,119.9"/>
	<circle fill="#FFF200" cx="267.3" cy="64.7" r="63"/>
	<circle fill="#FFF200" cx="148.6" cy="138.4" r="53.9"/>
	<circle fill="#F04D5D" cx="160.5" cy="279.6" r="63"/>
	<circle fill="#F04D5D" cx="135.4" cy="392.9" r="43.6"/>
	<circle fill="#F58457" cx="255" cy="208.6" r="44.2"/>
	<circle fill="#FFFFFF" cx="255" cy="208.6" r="30.2"/>
	<circle fill="#D24D9C" cx="208.7" cy="485.9" r="44.2"/>
	<circle fill="#935FA7" cx="234.4" cy="594.2" r="39.6"/>
	<circle fill="#FFFFFF" cx="208.7" cy="485.9" r="30.2"/>
	<circle fill="#FFFFFF" cx="234.4" cy="594.2" r="30.2"/>
	<circle fill="#FFFFFF" cx="160.5" cy="279.6" r="40.1"/>
	<circle fill="#FFFFFF" cx="135.4" cy="392.9" r="28.5"/>
	<circle fill="#A594C7" cx="146.6" cy="624.7" r="32.3"/>
	<circle fill="#FFFFFF" cx="146.6" cy="624.7" r="18.3"/>
	<circle fill="#5ACAED" cx="116.7" cy="700.8" r="32.3"/>
	<circle fill="#FFFFFF" cx="116.7" cy="700.8" r="18.3"/>
	<circle fill="#176C82" cx="28.3" cy="698.2" r="28.3"/>
	<circle fill="#FFFFFF" cx="28.3" cy="698.2" r="16"/>
	<circle fill="#FFFFFF" cx="148.6" cy="138.4" r="37.7"/>
	<circle fill="#FFFFFF" cx="267.3" cy="64.7" r="46.2"/>
</g>
</svg>
