<?xml version="1.0" encoding="utf-8"?>
<!-- Generator: Adobe Illustrator 18.1.1, SVG Export Plug-In . SVG Version: 6.00 Build 0)  -->
<svg version="1.1" id="Layer_1" xmlns="http://www.w3.org/2000/svg" xmlns:xlink="http://www.w3.org/1999/xlink" x="0px" y="0px"
	 viewBox="0 0 500 500" enable-background="new 0 0 500 500" xml:space="preserve">
<g>
	<circle fill="#E2EDC1" cx="250" cy="250" r="226.5"/>
</g>
<g>
	<g>
		<path fill="#FFFFFF" d="M350.5,171.7c0-57.1-45-103.3-100.5-103.3s-100.5,46.3-100.5,103.3c0,28.6,11.3,54.5,29.6,73.2h0
			c0,0,29.5,31.6,30.2,104.8c0,0.3,81.4,4.1,81.4,4.1s1.3-73.9,30.2-108.9h0C339.1,226.2,350.5,200.4,350.5,171.7z"/>
		<g>
			<path d="M352.2,171.3c-0.3-53.1-41-100.1-94.9-103.5c-51.6-3.2-98.3,34-107.7,84.7c-6.2,33.6,4.2,68.4,27.9,93
				c0.8-0.5,1.5-1,2.3-1.5c0,0,0,0,0,0c-0.5,0-3.1,0.6-2.3,1.5c4.5,4.8,7.8,10.8,10.8,16.6c8.1,15.6,13.1,32.8,16,50.2
				c1,6.2,1.8,12.4,2.3,18.6c0.3,3.1,0.5,6.2,0.6,9.4c0.1,1.9-0.8,8.7,0.4,10c1,1.1,6.2,0.6,7.4,0.7c13.7,0.8,27.5,1.4,41.2,2.1
				c11.1,0.5,22.2,1.1,33.3,1.6c0.8,0,2.8-0.2,2.8-1.3c0.3-13.7,1.9-27.6,4.3-41.1c4-23.4,10.5-48.5,25.8-67.4
				c0.5-0.6-0.4-0.8-0.9-0.8c0,0,0,0,0,0c0.3,0.3,0.6,0.5,0.9,0.8C341.6,225,352,198.8,352.2,171.3c0-0.8-3.4-0.2-3.4,0.9
				c-0.2,27.2-10.6,53.1-29.4,72.8c-0.6,0.6,0.5,0.8,0.9,0.8c0,0,0,0,0,0c-0.3-0.3-0.6-0.5-0.9-0.8c-15.4,19-22,44.2-26.1,67.8
				c-2.4,13.7-4,27.6-4.3,41.5c0.9-0.4,1.9-0.8,2.8-1.3c-23.3-1.1-46.6-2.2-70-3.4c-2.2-0.1-4.5-0.2-6.7-0.4c-1-0.1-3.5,0.3-4.3-0.3
				c-0.4-0.3,0.1-2.6,0.2-3.4c0.2-3.4-0.2-7.1-0.5-10.5c-0.4-6.4-1.1-12.8-2-19.2c-2.7-18.1-7.5-36-15.6-52.4
				c-3.3-6.6-7.1-13.6-12.1-19.1c-0.8,0.5-1.5,1-2.3,1.5c0,0,0,0,0,0c0.4,0,3.1-0.7,2.3-1.5c-38.7-40.2-39-106.2,0.3-146.1
				c18.2-18.4,43.1-29.1,69-28.9c25.2,0.2,49.6,10.6,67.6,28.2c20.1,19.6,31,46.8,31.2,74.7C348.7,173,352.2,172.4,352.2,171.3z"/>
		</g>
	</g>
	<g>
		<path d="M302.7,352.7c0,6.6-5.4,12-12,12h-82.4c-6.6,0-12-5.4-12-12l0,0c0-6.6,5.4-12,12-12h82.4
			C297.3,340.8,302.7,346.1,302.7,352.7L302.7,352.7z"/>
		<path d="M302.7,370.9c0,6.6-5.4,12-12,12h-82.4c-6.6,0-12-5.4-12-12l0,0c0-6.6,5.4-12,12-12h82.4
			C297.3,358.9,302.7,364.3,302.7,370.9L302.7,370.9z"/>
		<path d="M302.7,389c0,6.6-5.4,12-12,12h-82.4c-6.6,0-12-5.4-12-12l0,0c0-6.6,5.4-12,12-12h82.4C297.3,377.1,302.7,382.4,302.7,389
			L302.7,389z"/>
		<polygon points="204.3,397.5 211.9,429.4 284.5,431.6 295.1,397.5 		"/>
	</g>
	<path d="M265.3,287.2c0,5.7-4,10.3-8.8,10.3h-10.9c-4.9,0-8.8-4.6-8.8-10.3l0,0c0-5.7,4-10.3,8.8-10.3h10.9
		C261.4,276.9,265.3,281.5,265.3,287.2L265.3,287.2z"/>
	<rect x="244.3" y="293.2" width="13.4" height="52.8"/>
	<path d="M211.6,163.8c0,0,23.3,109.7,29.1,117.9"/>
	<path d="M289.4,163.8c0,0-23.5,108.5-27.9,115.1"/>
	<rect x="249.3" y="224.7" width="3.4" height="58.5"/>
	<rect x="247" y="218.3" width="8.1" height="5.9"/>
	<g>
		<polyline fill="#5ACAED" points="211.6,157.4 216.7,170.1 221.9,157.4 227.1,170.1 232.3,157.4 237.5,170.1 242.7,157.4 
			247.9,170.1 253.1,157.4 258.3,170.1 263.5,157.4 268.7,170.1 273.8,157.4 279,170.1 284.2,157.4 289.4,170.1 		"/>
	</g>
</g>
</svg>
