<?xml version="1.0" encoding="utf-8"?>
<!-- Generator: Adobe Illustrator 18.1.1, SVG Export Plug-In . SVG Version: 6.00 Build 0)  -->
<svg version="1.1" id="Layer_1" xmlns="http://www.w3.org/2000/svg" xmlns:xlink="http://www.w3.org/1999/xlink" x="0px" y="0px"
	 viewBox="0 0 500 500" enable-background="new 0 0 500 500" xml:space="preserve">
<circle fill="#F9C3D2" cx="250" cy="250" r="226.5"/>
<g>
	<g>
		<path fill="#FFFFFF" d="M403.9,404.4L341.7,303c-1.3-2.1-0.9-4.7,0.8-6.4c46-44.5,57.2-114.7,23.1-168.7
			c-39.3-62.4-124-79.7-189.1-38.6s-86,124.9-46.7,187.3c34.4,54.5,103.4,74.6,163.7,51.4c2.3-0.9,5,0,6.3,2.1l61.7,100.6
			c1.5,2.4,4.5,3.2,7,1.8l19-10.8c0.1-0.1,0.2-0.1,0.3-0.2l14.8-9.9C404.7,409.9,405.4,406.8,403.9,404.4z"/>
		<g>
			<path d="M405.5,403.7c-12.4-20.3-24.9-40.6-37.3-60.9c-7-11.5-14-22.9-21.1-34.4c-1.2-1.9-3.1-4.1-3.8-6.2
				c-1.8-5.3,7.7-12.4,10.9-16.2c3.9-4.7,7.5-9.6,10.8-14.7c26.1-40.7,29.7-93.5,6.7-136.4c-21.5-40-63.2-65.6-108.2-68.9
				c-45.7-3.3-91.4,16.1-121.2,50.9c-28.6,33.3-40.9,79.6-30.3,122.5c11.2,45.2,46.8,81.1,91.5,93.9c21.8,6.2,45,7,67.2,2.5
				c6.1-1.2,12.2-2.9,18.1-4.9c3.2-1.1,6.9-2.3,9.6,0.6c2.2,2.3,3.8,6.1,5.4,8.8c15.6,25.5,31.3,51,46.9,76.5c2.5,4,4.9,8,7.4,12
				c1.9,3.1,3.8,6,8,5.5c2.3-0.3,4.3-1.7,6.3-2.8c3.5-2,7.1-4,10.6-6c4.1-2.3,7.9-4.8,11.8-7.4c4.7-3.1,13.9-6.9,10.7-14
				c-0.7-1.5-4-0.5-3.4,0.9c2.2,4.8-2.5,6.8-5.6,8.9c-3.1,2.1-6.2,4.2-9.3,6.3c-4.3,2.7-8.9,5.1-13.3,7.7c-3.9,2.2-8,5.9-11.8,1.2
				c-2.1-2.6-3.6-5.9-5.4-8.8c-15.1-24.7-30.3-49.3-45.4-74c-2.6-4.3-5.3-8.6-7.9-12.9c-1.2-1.9-2.3-4.6-4.3-5.8
				c-3.8-2.4-8,0.1-11.7,1.4c-5.5,1.9-11.1,3.4-16.7,4.6c-11.7,2.4-23.8,3.3-35.7,2.7c-47.1-2.6-90.5-30.2-111-73
				c-19-39.6-15.7-86.8,6.3-124.4c23.6-40.5,67.4-67.4,114.2-70.1c44.9-2.6,89.4,17.5,115.5,54.4c28.4,40.1,30.6,93.4,8.2,136.7
				c-5.9,11.3-13.3,21.8-22,31.2c-4.1,4.4-9.2,7.7-5.7,14c4.6,8.2,9.9,16.1,14.8,24.1c14.6,23.8,29.2,47.6,43.8,71.4
				c1,1.7,2,3.3,3.1,5C403.2,406.5,406.4,405.2,405.5,403.7z"/>
		</g>
	</g>
	<g>
		<circle fill="#5ACAED" cx="250.8" cy="207.2" r="87.9"/>
		<g>
			<path d="M296.8,281c-31.4,19.4-72.5,16.8-100.9-7c-27.1-22.7-38-60.4-27.2-94c11.3-35.2,45.1-60.1,82.2-59.8
				C287,120.4,320,144,332.2,178C345.8,216.2,330.7,259.2,296.8,281c-1.7,1.1,0.8,1.7,1.9,1.1c31.3-20.1,47.6-57.9,39.5-94.4
				c-8.2-36.7-39.7-64.6-77-68.7c-36.7-4.1-73.4,15.5-90.1,48.5c-17.1,33.7-10.6,75.6,16.1,102.5c29.5,29.7,76.3,34.1,111.5,12.3
				C300.4,281,297.8,280.3,296.8,281z"/>
		</g>
	</g>
	<path fill="#FFFFFF" d="M188.8,213.6c-1.7,0.3-3.6,0.2-5.4-0.3c-7.3-1.9-11.7-9.3-9.8-16.5c11.7-45.7,58.4-73.3,104-61.6
		c7.3,1.9,11.7,9.3,9.8,16.5c-1.9,7.3-9.3,11.6-16.5,9.8c-31.2-8-63,10.9-71,42C198.5,208.9,194,212.8,188.8,213.6L188.8,213.6z
		 M188.8,213.6"/>
</g>
</svg>
