<?xml version="1.0" encoding="utf-8"?>
<!-- Generator: Adobe Illustrator 18.1.1, SVG Export Plug-In . SVG Version: 6.00 Build 0)  -->
<svg version="1.1" id="Layer_1" xmlns="http://www.w3.org/2000/svg" xmlns:xlink="http://www.w3.org/1999/xlink" x="0px" y="0px"
	 viewBox="0 0 500 500" enable-background="new 0 0 500 500" xml:space="preserve">
<g>
	<circle fill="#FFFAC0" cx="250" cy="250" r="226.5"/>
	<g>
		<path fill="#FFFAC0" d="M475.1,250.1c-0.1,46.5-14.4,92.2-41.2,130.2c-26.1,36.9-63.2,65.6-105.6,81.3
			c-44.7,16.6-94.6,18.4-140.5,5.1c-43.6-12.6-82.8-38.6-111.6-73.6c-29-35.3-46.8-79.1-50.5-124.6c-3.8-46.6,7-94,31-134.2
			c23.3-39,58.4-70.6,99.7-89.5c43-19.7,92-25.2,138.4-15.7c44.9,9.1,86.6,32.4,118.2,65.6c31.2,32.9,52.1,75,59.3,119.8
			C474.1,226.2,475,238.2,475.1,250.1c0,1.5,2.9,1.1,2.9-0.2c-0.1-47.1-14.7-93.4-42-131.8c-26.7-37.5-64.8-66.5-108.1-82.2
			C283.2,19.8,233.7,18.1,188,31c-44.2,12.5-84.1,38.5-113.5,73.9c-29.8,35.9-48.1,80.6-51.8,127.1C19,279.2,30.1,327,54.6,367.6
			c23.8,39.4,59.6,71.1,101.5,90c43.2,19.5,92.3,24.8,138.8,15.5c45.2-9,87.2-32.1,119.2-65.3c32.2-33.3,53.7-76.3,61-122
			c1.9-11.9,2.8-23.9,2.8-35.9C478,248.4,475.1,248.8,475.1,250.1z"/>
	</g>
</g>
<g>
	<g>
		<path fill="#935FA7" d="M287.4,257.6c-3.8,0-6.9-3-6.9-6.8c0-3.8,3.1-6.8,6.9-6.8h39.3v-32.7h-39.3c-3.8,0-6.9-3-6.9-6.8
			c0-3.8,3.1-6.8,6.9-6.8h39.3v-32.7h-39.3c-3.8,0-6.9-3-6.9-6.8c0-3.8,3.1-6.8,6.9-6.8h38.5c-4.4-36.5-29.8-64.5-60.6-64.5h-30.7
			c-30.8,0-56.2,28-60.6,64.5h38.5c3.8,0,6.9,3,6.9,6.8c0,3.8-3.1,6.8-6.9,6.8h-39.3v32.7h39.3c3.8,0,6.9,3,6.9,6.8
			c0,3.8-3.1,6.8-6.9,6.8h-39.3V244h39.3c3.8,0,6.9,3,6.9,6.8c0,3.8-3.1,6.8-6.9,6.8h-38.9c3.3,38,29.3,67.5,61,67.5h30.7
			c31.6,0,57.7-29.6,61-67.5H287.4z"/>
		<g>
			<path d="M288.1,256.6c-6.6-0.6-8-9.7-1.2-11.7c0.8-0.2,2,0,2.9,0c4.6,0,9.1,0,13.7,0c7.5,0,15.1,0,22.6,0c0.8,0,2.4-0.4,2.4-1.4
				c0-10.9,0-21.8,0-32.7c0-0.4-0.8-0.5-1-0.5c-7,0-14.1,0-21.1,0c-4.6,0-9.3,0-13.9,0c-3.7,0-7.9,0.4-9.6-3.9
				c-2.4-6.3,3.8-7.8,8.3-7.8c4.6,0,9.3,0,13.9,0c7,0,14.1,0,21.1,0c0.8,0,2.4-0.4,2.4-1.4c0-10.9,0-21.8,0-32.7
				c0-0.4-0.8-0.5-1-0.5c-7,0-14.1,0-21.1,0c-4.4,0-8.8,0-13.3,0c-3.5,0-7.6,0.6-9.7-3c-2.1-3.6-0.5-7.8,4-8.7c1.2-0.2,2.6,0,3.7,0
				c4.3,0,8.7,0,13,0c7.1,0,14.2,0,21.3,0c0.7,0,2.5-0.4,2.4-1.4c-4.1-32.3-26.7-64.7-62-65c-9.8-0.1-19.6,0-29.3,0
				c-13.7,0-26.5,4.7-37.1,13.5c-15.6,12.9-24.3,32.4-26.9,52.3c-0.1,0.6,0.6,0.7,1,0.7c7.1,0,14.2,0,21.3,0c4.3,0,8.7,0,13,0
				c3.9,0,8.5-0.3,9.8,4.5c1.9,6.7-4.7,7.2-9.1,7.2c-4.4,0-8.8,0-13.3,0c-7,0-14.1,0-21.1,0c-0.8,0-2.4,0.4-2.4,1.4
				c0,10.9,0,21.8,0,32.7c0,0.4,0.8,0.5,1,0.5c7,0,14.1,0,21.1,0c4.6,0,9.3,0,13.9,0c3.7,0,7.9-0.4,9.6,3.9c2.4,6.3-3.8,7.8-8.3,7.8
				c-4.6,0-9.3,0-13.9,0c-7,0-14.1,0-21.1,0c-0.8,0-2.4,0.4-2.4,1.4c0,10.9,0,21.8,0,32.7c0,0.4,0.8,0.5,1,0.5c7,0,14.1,0,21.1,0
				c4.6,0,9.3,0,13.9,0c3.7,0,7.9-0.4,9.6,3.9c2.4,6.3-3.8,7.8-8.2,7.8c-4.6,0-9.2,0-13.8,0c-7,0-14,0-20.9,0
				c-0.7,0-2.5,0.4-2.4,1.4c3.2,33.2,25.8,67.6,62.2,68c10,0.1,19.9,0.1,29.9,0c14-0.1,27.2-5.2,37.8-14.3
				c15.8-13.6,24.2-33.9,26.2-54.3c0.1-0.6-0.6-0.7-1-0.7C314,256.6,301,256.6,288.1,256.6c-1.3,0-3.6,1.9-1.3,1.9
				c13,0,25.9,0,38.9,0c-0.3-0.2-0.7-0.5-1-0.7c-3,31.7-24.1,66.2-59.4,66.3c-9.5,0-19,0-28.5,0c-14.2,0-27.1-5.4-37.5-15.1
				c-14.4-13.5-22-32.6-23.8-51.9c-0.8,0.5-1.6,0.9-2.4,1.4c9.4,0,18.7,0,28.1,0c6.4,0,22.1,1.7,20-9.4c-1.7-9-17.7-6.1-24-6.1
				c-6,0-11.9,0-17.9,0c-1.5,0-3.1-0.2-4.6,0c-1.4,0.1,0.4-0.1,0.4,0.5c0-0.5-0.1-1,0-1.5c0.9-5.6,0-12.1,0-17.8c0-4.5,0-9,0-13.4
				c-0.8,0.5-1.6,0.9-2.4,1.4c9.4,0,18.9,0,28.3,0c6.4,0,22.2,1.8,20.1-9.4c-1.7-9-17.7-6.1-24-6.1c-6,0-11.9,0-17.9,0
				c-1.5,0-3.1-0.2-4.6,0c-1.4,0.1,0.4-0.1,0.4,0.5c0-0.5-0.1-1,0-1.5c0.9-5.6,0-12.1,0-17.8c0-4.5,0-9,0-13.4
				c-0.8,0.5-1.6,0.9-2.4,1.4c13,0,26.2,0.6,39.1,0c3.3-0.2,6.6-1.4,8.4-4.4c2.4-4.1,0.2-9.1-4.1-10.6c-2-0.7-4.3-0.5-6.4-0.5
				c-4.1,0-8.1,0-12.2,0c-7.6,0-15.2,0-22.7,0c0.3,0.2,0.7,0.5,1,0.7c4-30.9,25-63.2,59.2-63.4c9.3,0,18.6,0,27.9,0
				c13.7,0,26.2,4.7,36.5,13.7c14.5,12.8,22.5,31.4,24.9,50.3c0.8-0.5,1.6-0.9,2.4-1.4c-9.5,0-18.9,0-28.4,0
				c-6.4,0-22.3-1.4-19.1,10c1.2,4.5,5.4,5.4,9.4,5.5c5.1,0.1,10.3,0,15.4,0c5.8,0,11.5,0,17.3,0c1.4,0,2.9-0.1,4.4,0
				c1.1,0.1-0.5-0.3-0.5-0.4c0,0.5,0.1,1.2,0,1.6c-1,5.4,0,12.1,0,17.6c0,4.5,0,9,0,13.4c0.8-0.5,1.6-0.9,2.4-1.4
				c-9.4,0-18.9,0-28.3,0c-6.4,0-22.2-1.8-20.1,9.4c1.7,9,17.7,6.1,24,6.1c6,0,11.9,0,17.9,0c1.5,0,3.1,0.2,4.6,0
				c1.4-0.1-0.4,0.1-0.4-0.5c0,0.5,0.1,1,0,1.5c-0.9,5.6,0,12.1,0,17.8c0,4.5,0,9,0,13.4c0.8-0.5,1.6-0.9,2.4-1.4
				c-11.1,0-22.2,0-33.3,0c-3.9,0-8.3-0.6-11.6,1.7c-6.7,4.6-3,13.1,4.3,13.8C288,258.7,290.4,256.9,288.1,256.6z"/>
		</g>
	</g>
	<g>
		<g>
			<path fill="#935FA7" d="M361.2,209h-13.8c-4.4,0-8,3.6-8,8v28.2c0,49.3-40.1,89.4-89.4,89.4c-49.3,0-89.4-40.1-89.4-89.4V217
				c0-4.4-3.6-8-8-8h-13.8c-4.4,0-8,3.6-8,8v28.2c0,59,45.8,110.9,104.3,118.3v20h-61.5c-4.4,0-8,3.6-8,8v13.8c0,4.4,3.6,8,8,8
				h152.9c4.4,0,8-3.6,8-8v-13.8c0-4.4-3.6-8-8-8h-61.5v-20c58.5-7.4,104.3-59.3,104.3-118.3V217C369.2,212.5,365.7,209,361.2,209
				L361.2,209z M361.2,209"/>
		</g>
		<g>
			<path d="M362.3,208.2c-5.7,0-13-1.2-18.4,0.9c-7.5,2.9-6.2,10.6-6.2,17.1c0,7.2,0.1,14.3,0,21.5c-0.3,13-3.5,25.9-9.3,37.6
				c-11.9,23.8-34.6,41.8-60.8,46.9c-26.5,5.2-54.5-2.7-74.8-20.5c-19.3-16.9-30.2-41.5-30.4-67.1c0-6.8,0-13.5,0-20.3
				c0-7,0.7-15.5-8.6-16.2c-5.6-0.4-13.7-1.2-19,1.1c-7.1,3.1-5.6,11-5.6,17.3c0,20.2,0.1,39.7,7.2,59c8.8,23.7,25.1,44.5,46,58.8
				c10.3,7,21.6,12.4,33.6,15.9c2.9,0.8,5.8,1.6,8.8,2.2c1.3,0.3,8.1,0.7,8.7,1.5c0.4,0.6,0,2.9,0,3.7c0,2.4,0,4.7,0,7.1
				c0,3,0,6,0,9c0.9-0.4,1.9-0.8,2.8-1.2c-12.7,0-25.4,0-38.1,0c-6.8,0-13.6,0-20.3,0c-4.7,0-9.9,0.3-12.6,4.8
				c-1.7,2.9-1.2,6.6-1.2,9.8c0,3.2-0.5,7.1,0.3,10.3c1.3,5.1,5.8,6.3,10.3,6.3c10.3,0.1,20.7,0,31,0c33,0,65.9,0,98.9,0
				c7,0,14.1,0.3,21.2,0c3.4-0.2,7-1.4,9.1-4.3c2-2.7,1.6-6.2,1.6-9.4c0-7.2,1.2-16.9-8.6-17.6c-12.9-0.9-26.2,0-39.1,0
				c-6.6,0-13.2,0-19.8,0c-0.5,0-1.6,0.2-2.1,0c-1-0.4,0.3,0.7,0.1-0.3c-0.6-3.4,0-7.5,0-10.9c0-2.8,0-5.7,0-8.5
				c-0.7,0.4-1.4,0.7-2,1.1c31.8-4.2,61.1-21.1,80.8-46.4c10.1-13,17.6-27.9,21.8-43.9c3.1-12.1,3.7-24.2,3.7-36.6
				c0-6.1,0-12.1,0-18.2C370.9,213.3,368.7,208.8,362.3,208.2c-0.8-0.1-3.9,1.3-2.2,1.4c6.6,0.5,7.4,6.1,7.4,11.3c0,5,0,10,0,14.9
				c0,10.9-0.1,21.7-2.3,32.5c-6.1,30-24.2,57.2-49.3,74.7c-15.1,10.6-32.4,17.3-50.7,19.7c-0.5,0.1-2,0.4-2,1.1c0,6.7,0,13.3,0,20
				c0,0.2,0.5,0.3,0.6,0.3c10.4,0,20.8,0,31.3,0c6.9,0,13.9,0,20.8,0c3.6,0,9.2-0.9,12.6,0.8c6.1,3,4.4,13.8,4.2,19.5
				c-0.2,4.8-2.5,8.1-7.3,8.1c-8.7,0-17.3,0-26,0c-29.2,0-58.3,0-87.5,0c-10.5,0-21,0-31.5,0c-1.9,0-3.8,0.2-5.7,0
				c-8.8-0.8-7.5-9.7-7.5-16.1c0-4.5-0.8-11.1,5.2-12.3c1.1-0.2,2.6,0,3.7,0c6.9,0,13.7,0,20.6,0c12.4,0,24.8,0,37.2,0
				c0.6,0,2.8-0.2,2.8-1.2c0-6.7,0-13.3,0-20c-0.1-0.1-0.2-0.2-0.3-0.2c-48.2-6.4-88.9-43.3-100.6-90.4c-4.2-16.8-3.4-34-3.4-51.2
				c0-2.6-0.3-5.7,0.9-8.1c2.2-4.5,8.1-3.3,12.2-3.3c4.2,0,9-0.7,11.7,3.2c1.8,2.5,1.6,5.2,1.6,8.1c0,16.4-1.1,33.1,3.4,49.1
				c6.1,21.5,20.4,40.2,39.4,51.9c37.9,23.4,89.3,14.8,118-19c13.9-16.4,21.4-37.1,21.5-58.5c0-6.8,0-13.6,0-20.4
				c0-2.4-0.2-4.9,0-7.3c0.4-6.1,4.7-7,9.7-7c3.1,0,6.2,0,9.3,0C360.9,209.7,364,208.2,362.3,208.2z"/>
			<path d="M360.1,209.7c0.7,0,3.9-1.4,2.2-1.4C361.6,208.2,358.5,209.7,360.1,209.7L360.1,209.7z"/>
		</g>
	</g>
</g>
</svg>
