<?xml version="1.0" encoding="utf-8"?>
<!-- Generator: Adobe Illustrator 18.1.1, SVG Export Plug-In . SVG Version: 6.00 Build 0)  -->
<svg version="1.1" id="Layer_1" xmlns="http://www.w3.org/2000/svg" xmlns:xlink="http://www.w3.org/1999/xlink" x="0px" y="0px"
	 viewBox="0 0 500 500" enable-background="new 0 0 500 500" xml:space="preserve">
<g>
	<circle fill="#E2EDC1" cx="250" cy="250" r="226.5"/>
</g>
<g>
	<g>
		<path d="M254.4,161.9c0,0,0.1,1.8,0.1,4.9c0.1,3.1,0.2,7.6,0.3,13c0.1,2.7,0.1,5.6,0.2,8.7c0,3.1,0.1,6.3,0.1,9.7
			c0.1,6.7,0.2,13.9,0.3,21.1c0,7.2,0.1,14.3,0.1,21.1c0,6.7,0.1,13,0,18.4c0,2.7-0.1,5.2-0.2,7.3c-0.1,2.2-0.2,4.1-0.4,5.7
			c-0.3,3.1-0.5,4.9-0.5,4.9h-0.9c0,0-0.3-1.8-0.5-4.9c-0.1-1.6-0.3-3.5-0.4-5.7c-0.1-2.2-0.2-4.6-0.2-7.3c-0.1-5.4,0-11.6,0-18.4
			c0-6.7,0.1-13.9,0.1-21.1c0-7.2,0.2-14.3,0.3-21.1c0-3.4,0.1-6.6,0.1-9.7c0-3.1,0.1-6,0.2-8.7c0.1-5.4,0.2-9.9,0.3-13
			c0.1-3.1,0.1-4.9,0.1-4.9H254.4z"/>
	</g>
	<g>
		<polygon points="255,278.7 113.7,345.1 113.3,344.3 253,274.5 		"/>
	</g>
	<g>
		<path d="M254.3,276.3c0,0,0.5,0.3,1.4,0.9c0.9,0.6,2.3,1.5,4,2.6c1.7,1.1,3.8,2.5,6.2,4.1c2.4,1.6,5,3.5,7.9,5.5
			c2.9,2.1,5.9,4.3,9.2,6.7c3.2,2.4,6.7,4.9,10.2,7.6c7.1,5.3,14.6,10.9,22.1,16.5c7.6,5.6,15,11.3,22.1,16.6
			c7,5.3,13.6,10.2,19.2,14.5c5.6,4.3,10.3,7.8,13.5,10.3c3.3,2.5,5.1,4,5.1,4l-0.5,0.7c0,0-1.9-1.4-5.3-3.7
			c-3.3-2.4-8.1-5.8-13.9-9.9c-5.8-4.1-12.4-8.9-19.5-14.1c-7.1-5.2-14.8-10.6-22.3-16.2c-7.6-5.6-15.2-11.1-22.3-16.3
			c-3.6-2.6-7-5.1-10.2-7.5c-3.3-2.4-6.3-4.7-9.1-6.8c-2.8-2.1-5.4-4.1-7.6-5.9c-2.2-1.8-4.2-3.4-5.8-4.7c-1.6-1.3-2.8-2.4-3.6-3.1
			c-0.8-0.7-1.3-1.1-1.3-1.1L254.3,276.3z"/>
	</g>
	<g>
		<circle fill="#935FA7" cx="257.4" cy="271.9" r="44.6"/>
		<g>
			<path d="M299.4,272.6c-0.3,17.9-10.9,34.3-27.6,41.3c-15.9,6.6-36.5-1.9-46.8-15c-11.2-14.2-12.7-34.4-3.6-50
				c4.3-7.5,10.9-13.7,18.6-17.6c7.8-3.9,16.9-4.2,25.6-2C285.5,234.2,299.1,252.4,299.4,272.6c0-0.4,5.2-0.9,5.2-1.4
				c-0.3-20.8-14.6-39.2-35.2-43.6c-15.9-3.5-35.4,2.3-46.7,13.9c-14.6,15-16.7,38.9-4.9,56.2c11.3,16.6,31.4,22.6,50.3,17.6
				c9.1-2.4,17.2-6.1,23.9-12.9c8.1-8.4,12.4-19.5,12.6-31.1C304.6,271.7,299.4,272.1,299.4,272.6z"/>
		</g>
	</g>
	<g>
		<circle fill="#5ACAED" cx="376.1" cy="360.5" r="28.1"/>
		<g>
			<path d="M402.6,361c-0.4,16-13.9,29.7-30.6,26.5c-12.9-2.5-22.3-14.4-22.3-27.4c0-16,14.3-29.7,30.6-26.5
				C393.4,336.2,402.2,347.9,402.6,361c0,0.5,3.3,0,3.3-0.9c-0.3-13.2-9.2-24.7-22.2-27.6c-10.8-2.4-22.9,1.4-30.2,9.7
				c-8.6,9.8-9.4,24.5-1.8,35.1c7.1,9.9,19.6,13.8,31.2,10.9c13.3-3.3,22.7-14.5,23-28.2C405.9,359.7,402.6,360.1,402.6,361z"/>
		</g>
	</g>
	<g>
		<circle fill="#5ACAED" cx="254" cy="139.5" r="28.1"/>
		<g>
			<path d="M280.4,139.6c-0.4,14.7-11.9,27.6-27.2,26.8c-14.2-0.7-25.6-13-25.7-27.2c0-14.8,12.2-27.6,27.2-26.8
				C269.2,113.1,280.1,125.5,280.4,139.6c0,1.6,3.3,0.9,3.3-0.3c-0.3-12.5-8-23.6-20-27.5c-11.4-3.7-24.4-0.1-32.3,8.9
				c-8.1,9.3-9.5,23-3.2,33.7c6.3,10.8,19.2,16.1,31.3,13.7c13.9-2.7,23.9-14.7,24.2-28.7C283.8,137.7,280.5,138.3,280.4,139.6z"/>
		</g>
	</g>
	<g>
		<circle fill="#5ACAED" cx="123.9" cy="344.7" r="28.1"/>
		<g>
			<path d="M150.3,344.9c-0.4,14.8-11.9,27.5-27.2,26.9c-14.2-0.6-25.6-13.2-25.7-27.2c-0.1-14.8,12.2-27.6,27.2-26.9
				C139.2,318.3,150,330.7,150.3,344.9c0,1.5,3.3,0.8,3.3-0.4c-0.3-12.5-8-23.5-20-27.5c-11.4-3.7-24.4-0.1-32.3,8.9
				c-8.1,9.3-9.5,23-3.2,33.6c6.3,10.8,19.2,16.1,31.3,13.7c13.8-2.7,23.9-14.6,24.2-28.7C153.7,343,150.4,343.6,150.3,344.9z"/>
		</g>
	</g>
</g>
</svg>
