<?xml version="1.0" encoding="utf-8"?>
<!-- Generator: Adobe Illustrator 18.1.1, SVG Export Plug-In . SVG Version: 6.00 Build 0)  -->
<svg version="1.1" id="Layer_1" xmlns="http://www.w3.org/2000/svg" xmlns:xlink="http://www.w3.org/1999/xlink" x="0px" y="0px"
	 viewBox="0 0 500 500" enable-background="new 0 0 500 500" xml:space="preserve">
<g>
	<circle fill="#E2EDC1" cx="250" cy="250" r="226.5"/>
</g>
<g>
	<path stroke="#000000" stroke-width="1.1162" stroke-miterlimit="10" d="M161.3,427.1c-12.1,0-21.9-9.8-21.9-21.9V85.4
		c0-12.1,9.8-21.9,21.9-21.9h177.5c12.1,0,21.9,9.8,21.9,21.9v319.8c0,12.1-9.8,21.9-21.9,21.9H161.3z"/>
	<g>
		<ellipse fill="#FFFFFF" cx="250" cy="326.5" rx="88.8" ry="87.1"/>
		<g>
			<path d="M336.3,326c-0.3,35.3-22.2,67.3-55,80.4c-34.5,13.7-74.3,3.6-98-25c-22.5-27.2-25.8-66.5-8.3-97.1
				c18.1-31.5,55.5-49.1,91.3-42.6C306.6,249.1,336,285.4,336.3,326c0,1.5,5,2.1,5,1c-0.3-37.4-24.6-70.3-59.6-83
				c-35.2-12.7-76.3-3.5-101.3,24.8c-25.3,28.7-28.7,71.8-7.9,103.9c19.9,30.8,57.7,46.5,93.7,40.7c42.3-6.8,74.8-43.4,75.1-86.5
				C341.3,325.5,336.3,324.9,336.3,326z"/>
		</g>
	</g>
	<g>
		<ellipse fill="#FFFFFF" cx="250.1" cy="323.3" rx="76.9" ry="75.4"/>
		<g>
			<path d="M324.9,322.9c-0.3,30.4-19.3,57.9-47.6,69.1c-29.6,11.6-64.6,3.2-85-21.4c-19.5-23.5-22.3-57.6-6.8-84
				c15.8-26.9,47.8-41.5,78.6-36C298.9,256.8,324.5,287.6,324.9,322.9c0,1.8,4.2,2.9,4.2,0.8c-0.3-32.4-21.3-61.4-51.7-72.5
				c-30.7-11.2-66.5-2.6-88,22.3c-21.4,24.9-24.2,61.4-6.9,89.3c17.1,27.6,50.6,41.8,82.4,36.1c36.4-6.5,63.7-38.3,64.1-75.3
				C329.1,321.9,324.9,320.8,324.9,322.9z"/>
		</g>
	</g>
	<g>
		<g>
			<ellipse fill="#FFFFFF" cx="250.1" cy="323.3" rx="47.7" ry="43.1"/>
			
				<ellipse fill="none" stroke="#000000" stroke-width="0.9607" stroke-miterlimit="10" cx="250.1" cy="323.3" rx="47.7" ry="43.1"/>
		</g>
		<g>
			<ellipse fill="#FFFFFF" cx="250.1" cy="323.3" rx="48.1" ry="43.4"/>
			
				<ellipse fill="none" stroke="#000000" stroke-width="0.9681" stroke-miterlimit="10" cx="250.1" cy="323.3" rx="48.1" ry="43.4"/>
		</g>
		<g>
			<ellipse fill="#FFFFFF" cx="250.1" cy="323.3" rx="48.5" ry="43.7"/>
			
				<ellipse fill="none" stroke="#000000" stroke-width="0.9755" stroke-miterlimit="10" cx="250.1" cy="323.3" rx="48.5" ry="43.7"/>
		</g>
		<g>
			<ellipse fill="#FFFFFF" cx="250.1" cy="323.3" rx="48.8" ry="44.1"/>
			
				<ellipse fill="none" stroke="#000000" stroke-width="0.9831" stroke-miterlimit="10" cx="250.1" cy="323.3" rx="48.8" ry="44.1"/>
		</g>
		<g>
			<ellipse fill="#FFFFFF" cx="250.1" cy="323.3" rx="49.2" ry="44.4"/>
			
				<ellipse fill="none" stroke="#000000" stroke-width="0.9906" stroke-miterlimit="10" cx="250.1" cy="323.3" rx="49.2" ry="44.4"/>
		</g>
		<g>
			<ellipse fill="#FFFFFF" cx="250.1" cy="323.3" rx="49.6" ry="44.7"/>
			
				<ellipse fill="none" stroke="#000000" stroke-width="0.9983" stroke-miterlimit="10" cx="250.1" cy="323.3" rx="49.6" ry="44.7"/>
		</g>
		<g>
			<ellipse fill="#FFFFFF" cx="250.1" cy="323.3" rx="50" ry="45"/>
			<ellipse fill="none" stroke="#000000" stroke-width="1.006" stroke-miterlimit="10" cx="250.1" cy="323.3" rx="50" ry="45"/>
		</g>
		<g>
			<ellipse fill="#FFFFFF" cx="250.1" cy="323.3" rx="50.5" ry="45.4"/>
			
				<ellipse fill="none" stroke="#000000" stroke-width="1.0137" stroke-miterlimit="10" cx="250.1" cy="323.3" rx="50.5" ry="45.4"/>
		</g>
		<g>
			<ellipse fill="#FFFFFF" cx="250.1" cy="323.3" rx="50.9" ry="45.7"/>
			
				<ellipse fill="none" stroke="#000000" stroke-width="1.0216" stroke-miterlimit="10" cx="250.1" cy="323.3" rx="50.9" ry="45.7"/>
		</g>
		<g>
			<ellipse fill="#FFFFFF" cx="250.1" cy="323.3" rx="51.3" ry="46"/>
			<ellipse fill="none" stroke="#000000" stroke-width="1.0294" stroke-miterlimit="10" cx="250.1" cy="323.3" rx="51.3" ry="46"/>
		</g>
		<g>
			<ellipse fill="#FFFFFF" cx="250.1" cy="323.3" rx="51.7" ry="46.4"/>
			
				<ellipse fill="none" stroke="#000000" stroke-width="1.0374" stroke-miterlimit="10" cx="250.1" cy="323.3" rx="51.7" ry="46.4"/>
		</g>
		<g>
			<ellipse fill="#FFFFFF" cx="250.1" cy="323.3" rx="52.1" ry="46.7"/>
			
				<ellipse fill="none" stroke="#000000" stroke-width="1.0454" stroke-miterlimit="10" cx="250.1" cy="323.3" rx="52.1" ry="46.7"/>
		</g>
		<g>
			<ellipse fill="#FFFFFF" cx="250.1" cy="323.3" rx="52.5" ry="47"/>
			<ellipse fill="none" stroke="#000000" stroke-width="1.0534" stroke-miterlimit="10" cx="250.1" cy="323.3" rx="52.5" ry="47"/>
		</g>
		<g>
			<ellipse fill="#FFFFFF" cx="250.1" cy="323.3" rx="53" ry="47.4"/>
			<ellipse fill="none" stroke="#000000" stroke-width="1.0616" stroke-miterlimit="10" cx="250.1" cy="323.3" rx="53" ry="47.4"/>
		</g>
		<g>
			<ellipse fill="#FFFFFF" cx="250.1" cy="323.3" rx="53.4" ry="47.7"/>
			
				<ellipse fill="none" stroke="#000000" stroke-width="1.0697" stroke-miterlimit="10" cx="250.1" cy="323.3" rx="53.4" ry="47.7"/>
		</g>
		<g>
			<ellipse fill="#FFFFFF" cx="250.1" cy="323.3" rx="53.8" ry="48.1"/>
			<ellipse fill="none" stroke="#000000" stroke-width="1.078" stroke-miterlimit="10" cx="250.1" cy="323.3" rx="53.8" ry="48.1"/>
		</g>
	</g>
	<g>
		<g>
			<ellipse fill="#FFFFFF" cx="250.1" cy="323.3" rx="17.8" ry="17.7"/>
			
				<ellipse fill="none" stroke="#000000" stroke-width="0.3763" stroke-miterlimit="10" cx="250.1" cy="323.3" rx="17.8" ry="17.7"/>
		</g>
		<g>
			<ellipse fill="#FFFFFF" cx="250.1" cy="323.3" rx="19.1" ry="18.9"/>
			
				<ellipse fill="none" stroke="#000000" stroke-width="0.4025" stroke-miterlimit="10" cx="250.1" cy="323.3" rx="19.1" ry="18.9"/>
		</g>
		<g>
			<ellipse fill="#FFFFFF" cx="250.1" cy="323.3" rx="20.5" ry="20.1"/>
			
				<ellipse fill="none" stroke="#000000" stroke-width="0.4306" stroke-miterlimit="10" cx="250.1" cy="323.3" rx="20.5" ry="20.1"/>
		</g>
		<g>
			<ellipse fill="#FFFFFF" cx="250.1" cy="323.3" rx="22" ry="21.4"/>
			<ellipse fill="none" stroke="#000000" stroke-width="0.4607" stroke-miterlimit="10" cx="250.1" cy="323.3" rx="22" ry="21.4"/>
		</g>
		<g>
			<ellipse fill="#FFFFFF" cx="250.1" cy="323.3" rx="23.7" ry="22.9"/>
			
				<ellipse fill="none" stroke="#000000" stroke-width="0.4928" stroke-miterlimit="10" cx="250.1" cy="323.3" rx="23.7" ry="22.9"/>
		</g>
		<g>
			<ellipse fill="#FFFFFF" cx="250.1" cy="323.3" rx="25.4" ry="24.4"/>
			
				<ellipse fill="none" stroke="#000000" stroke-width="0.5272" stroke-miterlimit="10" cx="250.1" cy="323.3" rx="25.4" ry="24.4"/>
		</g>
		<g>
			<ellipse fill="#FFFFFF" cx="250.1" cy="323.3" rx="27.3" ry="26"/>
			<ellipse fill="none" stroke="#000000" stroke-width="0.564" stroke-miterlimit="10" cx="250.1" cy="323.3" rx="27.3" ry="26"/>
		</g>
		<g>
			<ellipse fill="#FFFFFF" cx="250.1" cy="323.3" rx="29.3" ry="27.7"/>
			
				<ellipse fill="none" stroke="#000000" stroke-width="0.6033" stroke-miterlimit="10" cx="250.1" cy="323.3" rx="29.3" ry="27.7"/>
		</g>
		<g>
			<ellipse fill="#FFFFFF" cx="250.1" cy="323.3" rx="31.4" ry="29.5"/>
			
				<ellipse fill="none" stroke="#000000" stroke-width="0.6454" stroke-miterlimit="10" cx="250.1" cy="323.3" rx="31.4" ry="29.5"/>
		</g>
		<g>
			<ellipse fill="#FFFFFF" cx="250.1" cy="323.3" rx="33.7" ry="31.5"/>
			
				<ellipse fill="none" stroke="#000000" stroke-width="0.6905" stroke-miterlimit="10" cx="250.1" cy="323.3" rx="33.7" ry="31.5"/>
		</g>
		<g>
			<ellipse fill="#FFFFFF" cx="250.1" cy="323.3" rx="36.2" ry="33.5"/>
			
				<ellipse fill="none" stroke="#000000" stroke-width="0.7386" stroke-miterlimit="10" cx="250.1" cy="323.3" rx="36.2" ry="33.5"/>
		</g>
		<g>
			<ellipse fill="#FFFFFF" cx="250.1" cy="323.3" rx="38.9" ry="35.8"/>
			
				<ellipse fill="none" stroke="#000000" stroke-width="0.7902" stroke-miterlimit="10" cx="250.1" cy="323.3" rx="38.9" ry="35.8"/>
		</g>
		<g>
			<ellipse fill="#FFFFFF" cx="250.1" cy="323.3" rx="41.8" ry="38.1"/>
			
				<ellipse fill="none" stroke="#000000" stroke-width="0.8453" stroke-miterlimit="10" cx="250.1" cy="323.3" rx="41.8" ry="38.1"/>
		</g>
		<g>
			<ellipse fill="#FFFFFF" cx="250.1" cy="323.3" rx="44.8" ry="40.6"/>
			
				<ellipse fill="none" stroke="#000000" stroke-width="0.9043" stroke-miterlimit="10" cx="250.1" cy="323.3" rx="44.8" ry="40.6"/>
		</g>
		<g>
			<ellipse fill="#FFFFFF" cx="250.1" cy="323.3" rx="48.1" ry="43.3"/>
			
				<ellipse fill="none" stroke="#000000" stroke-width="0.9674" stroke-miterlimit="10" cx="250.1" cy="323.3" rx="48.1" ry="43.3"/>
		</g>
		<g>
			<ellipse fill="#FFFFFF" cx="250.1" cy="323.3" rx="51.7" ry="46.2"/>
			
				<ellipse fill="none" stroke="#000000" stroke-width="1.0349" stroke-miterlimit="10" cx="250.1" cy="323.3" rx="51.7" ry="46.2"/>
		</g>
	</g>
	<g>
		<g>
			<ellipse fill="#FFFFFF" cx="250.1" cy="323.3" rx="9.1" ry="9.6"/>
			<ellipse fill="none" stroke="#000000" stroke-width="0.1978" stroke-miterlimit="10" cx="250.1" cy="323.3" rx="9.1" ry="9.6"/>
		</g>
		<g>
			<ellipse fill="#FFFFFF" cx="250.1" cy="323.3" rx="10.1" ry="10.7"/>
			
				<ellipse fill="none" stroke="#000000" stroke-width="0.2203" stroke-miterlimit="10" cx="250.1" cy="323.3" rx="10.1" ry="10.7"/>
		</g>
		<g>
			<ellipse fill="#FFFFFF" cx="250.1" cy="323.3" rx="11.4" ry="11.8"/>
			
				<ellipse fill="none" stroke="#000000" stroke-width="0.2453" stroke-miterlimit="10" cx="250.1" cy="323.3" rx="11.4" ry="11.8"/>
		</g>
		<g>
			<ellipse fill="#FFFFFF" cx="250.1" cy="323.3" rx="12.7" ry="13.1"/>
			
				<ellipse fill="none" stroke="#000000" stroke-width="0.2732" stroke-miterlimit="10" cx="250.1" cy="323.3" rx="12.7" ry="13.1"/>
		</g>
		<g>
			<ellipse fill="#FFFFFF" cx="250.1" cy="323.3" rx="14.3" ry="14.5"/>
			
				<ellipse fill="none" stroke="#000000" stroke-width="0.3042" stroke-miterlimit="10" cx="250.1" cy="323.3" rx="14.3" ry="14.5"/>
		</g>
		<g>
			<ellipse fill="#FFFFFF" cx="250.1" cy="323.3" rx="16" ry="16"/>
			<ellipse fill="none" stroke="#000000" stroke-width="0.3388" stroke-miterlimit="10" cx="250.1" cy="323.3" rx="16" ry="16"/>
		</g>
		<g>
			<ellipse fill="#FFFFFF" cx="250.1" cy="323.3" rx="17.9" ry="17.7"/>
			
				<ellipse fill="none" stroke="#000000" stroke-width="0.3773" stroke-miterlimit="10" cx="250.1" cy="323.3" rx="17.9" ry="17.7"/>
		</g>
		<g>
			<ellipse fill="#FFFFFF" cx="250.1" cy="323.3" rx="20" ry="19.6"/>
			<ellipse fill="none" stroke="#000000" stroke-width="0.4201" stroke-miterlimit="10" cx="250.1" cy="323.3" rx="20" ry="19.6"/>
		</g>
		<g>
			<ellipse fill="#FFFFFF" cx="250.1" cy="323.3" rx="22.4" ry="21.7"/>
			
				<ellipse fill="none" stroke="#000000" stroke-width="0.4678" stroke-miterlimit="10" cx="250.1" cy="323.3" rx="22.4" ry="21.7"/>
		</g>
		<g>
			<ellipse fill="#FFFFFF" cx="250.1" cy="323.3" rx="25.1" ry="24.1"/>
			<ellipse fill="none" stroke="#000000" stroke-width="0.521" stroke-miterlimit="10" cx="250.1" cy="323.3" rx="25.1" ry="24.1"/>
		</g>
		<g>
			<ellipse fill="#FFFFFF" cx="250.1" cy="323.3" rx="28.1" ry="26.6"/>
			
				<ellipse fill="none" stroke="#000000" stroke-width="0.5801" stroke-miterlimit="10" cx="250.1" cy="323.3" rx="28.1" ry="26.6"/>
		</g>
		<g>
			<ellipse fill="#FFFFFF" cx="250.1" cy="323.3" rx="31.5" ry="29.5"/>
			<ellipse fill="none" stroke="#000000" stroke-width="0.646" stroke-miterlimit="10" cx="250.1" cy="323.3" rx="31.5" ry="29.5"/>
		</g>
		<g>
			<ellipse fill="#FFFFFF" cx="250.1" cy="323.3" rx="35.3" ry="32.7"/>
			
				<ellipse fill="none" stroke="#000000" stroke-width="0.7194" stroke-miterlimit="10" cx="250.1" cy="323.3" rx="35.3" ry="32.7"/>
		</g>
		<g>
			<ellipse fill="#FFFFFF" cx="250.1" cy="323.3" rx="39.5" ry="36.2"/>
			
				<ellipse fill="none" stroke="#000000" stroke-width="0.8011" stroke-miterlimit="10" cx="250.1" cy="323.3" rx="39.5" ry="36.2"/>
		</g>
		<g>
			<ellipse fill="#FFFFFF" cx="250.1" cy="323.3" rx="44.3" ry="40"/>
			<ellipse fill="none" stroke="#000000" stroke-width="0.8921" stroke-miterlimit="10" cx="250.1" cy="323.3" rx="44.3" ry="40"/>
		</g>
		<g>
			<ellipse fill="#FFFFFF" cx="250.1" cy="323.3" rx="49.6" ry="44.3"/>
			
				<ellipse fill="none" stroke="#000000" stroke-width="0.9935" stroke-miterlimit="10" cx="250.1" cy="323.3" rx="49.6" ry="44.3"/>
		</g>
	</g>
	<g>
		<g>
			<ellipse fill="#FFFFFF" cx="250.1" cy="323.3" rx="1.2" ry="1.6"/>
			
				<ellipse fill="none" stroke="#000000" stroke-width="3.019191e-002" stroke-miterlimit="10" cx="250.1" cy="323.3" rx="1.2" ry="1.6"/>
		</g>
		<g>
			<ellipse fill="#FFFFFF" cx="250.1" cy="323.3" rx="1.6" ry="2"/>
			
				<ellipse fill="none" stroke="#000000" stroke-width="3.800666e-002" stroke-miterlimit="10" cx="250.1" cy="323.3" rx="1.6" ry="2"/>
		</g>
		<g>
			<ellipse fill="#FFFFFF" cx="250.1" cy="323.3" rx="2" ry="2.5"/>
			
				<ellipse fill="none" stroke="#000000" stroke-width="4.784416e-002" stroke-miterlimit="10" cx="250.1" cy="323.3" rx="2" ry="2.5"/>
		</g>
		<g>
			<ellipse fill="#FFFFFF" cx="250.1" cy="323.3" rx="2.6" ry="3.1"/>
			
				<ellipse fill="none" stroke="#000000" stroke-width="6.022795e-002" stroke-miterlimit="10" cx="250.1" cy="323.3" rx="2.6" ry="3.1"/>
		</g>
		<g>
			<ellipse fill="#FFFFFF" cx="250.1" cy="323.3" rx="3.3" ry="3.9"/>
			
				<ellipse fill="none" stroke="#000000" stroke-width="7.581711e-002" stroke-miterlimit="10" cx="250.1" cy="323.3" rx="3.3" ry="3.9"/>
		</g>
		<g>
			<ellipse fill="#FFFFFF" cx="250.1" cy="323.3" rx="4.2" ry="4.9"/>
			
				<ellipse fill="none" stroke="#000000" stroke-width="9.544130e-002" stroke-miterlimit="10" cx="250.1" cy="323.3" rx="4.2" ry="4.9"/>
		</g>
		<g>
			<ellipse fill="#FFFFFF" cx="250.1" cy="323.3" rx="5.3" ry="6"/>
			<ellipse fill="none" stroke="#000000" stroke-width="0.1201" stroke-miterlimit="10" cx="250.1" cy="323.3" rx="5.3" ry="6"/>
		</g>
		<g>
			<ellipse fill="#FFFFFF" cx="250.1" cy="323.3" rx="6.8" ry="7.5"/>
			<ellipse fill="none" stroke="#000000" stroke-width="0.1512" stroke-miterlimit="10" cx="250.1" cy="323.3" rx="6.8" ry="7.5"/>
		</g>
		<g>
			<ellipse fill="#FFFFFF" cx="250.1" cy="323.3" rx="8.7" ry="9.3"/>
			<ellipse fill="none" stroke="#000000" stroke-width="0.1904" stroke-miterlimit="10" cx="250.1" cy="323.3" rx="8.7" ry="9.3"/>
		</g>
		<g>
			<ellipse fill="#FFFFFF" cx="250.1" cy="323.3" rx="11.1" ry="11.6"/>
			
				<ellipse fill="none" stroke="#000000" stroke-width="0.2397" stroke-miterlimit="10" cx="250.1" cy="323.3" rx="11.1" ry="11.6"/>
		</g>
		<g>
			<ellipse fill="#FFFFFF" cx="250.1" cy="323.3" rx="14.1" ry="14.4"/>
			
				<ellipse fill="none" stroke="#000000" stroke-width="0.3017" stroke-miterlimit="10" cx="250.1" cy="323.3" rx="14.1" ry="14.4"/>
		</g>
		<g>
			<ellipse fill="#FFFFFF" cx="250.1" cy="323.3" rx="18" ry="17.9"/>
			<ellipse fill="none" stroke="#000000" stroke-width="0.3798" stroke-miterlimit="10" cx="250.1" cy="323.3" rx="18" ry="17.9"/>
		</g>
		<g>
			<ellipse fill="#FFFFFF" cx="250.1" cy="323.3" rx="22.9" ry="22.2"/>
			
				<ellipse fill="none" stroke="#000000" stroke-width="0.4781" stroke-miterlimit="10" cx="250.1" cy="323.3" rx="22.9" ry="22.2"/>
		</g>
		<g>
			<ellipse fill="#FFFFFF" cx="250.1" cy="323.3" rx="29.3" ry="27.6"/>
			
				<ellipse fill="none" stroke="#000000" stroke-width="0.6019" stroke-miterlimit="10" cx="250.1" cy="323.3" rx="29.3" ry="27.6"/>
		</g>
		<g>
			<ellipse fill="#FFFFFF" cx="250.1" cy="323.3" rx="37.3" ry="34.2"/>
			
				<ellipse fill="none" stroke="#000000" stroke-width="0.7576" stroke-miterlimit="10" cx="250.1" cy="323.3" rx="37.3" ry="34.2"/>
		</g>
		<g>
			<ellipse fill="#FFFFFF" cx="250.1" cy="323.3" rx="47.6" ry="42.5"/>
			
				<ellipse fill="none" stroke="#000000" stroke-width="0.9537" stroke-miterlimit="10" cx="250.1" cy="323.3" rx="47.6" ry="42.5"/>
		</g>
	</g>
	<g>
		<g>
			<ellipse cx="250.1" cy="323.3" rx="8" ry="8.5"/>
			<ellipse fill="none" stroke="#000000" stroke-width="0.1748" stroke-miterlimit="10" cx="250.1" cy="323.3" rx="8" ry="8.5"/>
		</g>
		<g>
			<ellipse cx="250.1" cy="323.3" rx="9" ry="9.5"/>
			<ellipse fill="none" stroke="#000000" stroke-width="0.1952" stroke-miterlimit="10" cx="250.1" cy="323.3" rx="9" ry="9.5"/>
		</g>
		<g>
			<ellipse cx="250.1" cy="323.3" rx="10.1" ry="10.5"/>
			<ellipse fill="none" stroke="#000000" stroke-width="0.218" stroke-miterlimit="10" cx="250.1" cy="323.3" rx="10.1" ry="10.5"/>
		</g>
		<g>
			<ellipse cx="250.1" cy="323.3" rx="11.3" ry="11.7"/>
			
				<ellipse fill="none" stroke="#000000" stroke-width="0.2435" stroke-miterlimit="10" cx="250.1" cy="323.3" rx="11.3" ry="11.7"/>
		</g>
		<g>
			<ellipse cx="250.1" cy="323.3" rx="12.7" ry="12.9"/>
			
				<ellipse fill="none" stroke="#000000" stroke-width="0.2719" stroke-miterlimit="10" cx="250.1" cy="323.3" rx="12.7" ry="12.9"/>
		</g>
		<g>
			<ellipse cx="250.1" cy="323.3" rx="14.3" ry="14.4"/>
			
				<ellipse fill="none" stroke="#000000" stroke-width="0.3036" stroke-miterlimit="10" cx="250.1" cy="323.3" rx="14.3" ry="14.4"/>
		</g>
		<g>
			<ellipse cx="250.1" cy="323.3" rx="16" ry="16"/>
			<ellipse fill="none" stroke="#000000" stroke-width="0.339" stroke-miterlimit="10" cx="250.1" cy="323.3" rx="16" ry="16"/>
		</g>
		<g>
			<ellipse cx="250.1" cy="323.3" rx="18" ry="17.7"/>
			<ellipse fill="none" stroke="#000000" stroke-width="0.3786" stroke-miterlimit="10" cx="250.1" cy="323.3" rx="18" ry="17.7"/>
		</g>
		<g>
			<ellipse cx="250.1" cy="323.3" rx="20.2" ry="19.7"/>
			
				<ellipse fill="none" stroke="#000000" stroke-width="0.4228" stroke-miterlimit="10" cx="250.1" cy="323.3" rx="20.2" ry="19.7"/>
		</g>
		<g>
			<ellipse cx="250.1" cy="323.3" rx="22.7" ry="21.8"/>
			
				<ellipse fill="none" stroke="#000000" stroke-width="0.4721" stroke-miterlimit="10" cx="250.1" cy="323.3" rx="22.7" ry="21.8"/>
		</g>
		<g>
			<ellipse cx="250.1" cy="323.3" rx="25.6" ry="24.2"/>
			
				<ellipse fill="none" stroke="#000000" stroke-width="0.5272" stroke-miterlimit="10" cx="250.1" cy="323.3" rx="25.6" ry="24.2"/>
		</g>
		<g>
			<ellipse cx="250.1" cy="323.3" rx="28.7" ry="26.9"/>
			
				<ellipse fill="none" stroke="#000000" stroke-width="0.5888" stroke-miterlimit="10" cx="250.1" cy="323.3" rx="28.7" ry="26.9"/>
		</g>
		<g>
			<ellipse cx="250.1" cy="323.3" rx="32.2" ry="29.9"/>
			
				<ellipse fill="none" stroke="#000000" stroke-width="0.6575" stroke-miterlimit="10" cx="250.1" cy="323.3" rx="32.2" ry="29.9"/>
		</g>
		<g>
			<ellipse cx="250.1" cy="323.3" rx="36.2" ry="33.1"/>
			
				<ellipse fill="none" stroke="#000000" stroke-width="0.7342" stroke-miterlimit="10" cx="250.1" cy="323.3" rx="36.2" ry="33.1"/>
		</g>
		<g>
			<ellipse cx="250.1" cy="323.3" rx="40.7" ry="36.8"/>
			
				<ellipse fill="none" stroke="#000000" stroke-width="0.8199" stroke-miterlimit="10" cx="250.1" cy="323.3" rx="40.7" ry="36.8"/>
		</g>
		<g>
			<ellipse cx="250.1" cy="323.3" rx="45.7" ry="40.8"/>
			
				<ellipse fill="none" stroke="#000000" stroke-width="0.9156" stroke-miterlimit="10" cx="250.1" cy="323.3" rx="45.7" ry="40.8"/>
		</g>
	</g>
	<ellipse fill="none" stroke="#000000" stroke-width="1.1984" stroke-miterlimit="10" cx="250.1" cy="323.3" rx="53.8" ry="49.6"/>
	
		<ellipse fill="#FFFFFF" stroke="#000000" stroke-width="1.1984" stroke-miterlimit="10" cx="250.1" cy="179.5" rx="53.8" ry="49.6"/>
	<g>
		<g>
			<g>
				<ellipse fill="#FFFFFF" cx="250" cy="179.5" rx="0.8" ry="1.1"/>
				
					<ellipse fill="none" stroke="#000000" stroke-width="1.898772e-002" stroke-miterlimit="10" cx="250" cy="179.5" rx="0.8" ry="1.1"/>
			</g>
			<g>
				<ellipse fill="#FFFFFF" cx="250" cy="179.5" rx="1" ry="1.4"/>
				
					<ellipse fill="none" stroke="#000000" stroke-width="2.460544e-002" stroke-miterlimit="10" cx="250" cy="179.5" rx="1" ry="1.4"/>
			</g>
			<g>
				<ellipse fill="#FFFFFF" cx="250" cy="179.5" rx="1.3" ry="1.7"/>
				
					<ellipse fill="none" stroke="#000000" stroke-width="3.188523e-002" stroke-miterlimit="10" cx="250" cy="179.5" rx="1.3" ry="1.7"/>
			</g>
			<g>
				<ellipse fill="#FFFFFF" cx="250" cy="179.5" rx="1.7" ry="2.2"/>
				
					<ellipse fill="none" stroke="#000000" stroke-width="4.131883e-002" stroke-miterlimit="10" cx="250" cy="179.5" rx="1.7" ry="2.2"/>
			</g>
			<g>
				<ellipse fill="#FFFFFF" cx="250" cy="179.5" rx="2.3" ry="2.8"/>
				
					<ellipse fill="none" stroke="#000000" stroke-width="5.354346e-002" stroke-miterlimit="10" cx="250" cy="179.5" rx="2.3" ry="2.8"/>
			</g>
			<g>
				<ellipse fill="#FFFFFF" cx="250" cy="179.5" rx="3" ry="3.6"/>
				
					<ellipse fill="none" stroke="#000000" stroke-width="6.938488e-002" stroke-miterlimit="10" cx="250" cy="179.5" rx="3" ry="3.6"/>
			</g>
			<g>
				<ellipse fill="#FFFFFF" cx="250" cy="179.5" rx="3.9" ry="4.6"/>
				
					<ellipse fill="none" stroke="#000000" stroke-width="8.991315e-002" stroke-miterlimit="10" cx="250" cy="179.5" rx="3.9" ry="4.6"/>
			</g>
			<g>
				<ellipse fill="#FFFFFF" cx="250" cy="179.5" rx="5.2" ry="5.9"/>
				<ellipse fill="none" stroke="#000000" stroke-width="0.1165" stroke-miterlimit="10" cx="250" cy="179.5" rx="5.2" ry="5.9"/>
			</g>
			<g>
				<ellipse fill="#FFFFFF" cx="250" cy="179.5" rx="6.8" ry="7.5"/>
				<ellipse fill="none" stroke="#000000" stroke-width="0.151" stroke-miterlimit="10" cx="250" cy="179.5" rx="6.8" ry="7.5"/>
			</g>
			<g>
				<ellipse fill="#FFFFFF" cx="250" cy="179.5" rx="8.9" ry="9.6"/>
				<ellipse fill="none" stroke="#000000" stroke-width="0.1957" stroke-miterlimit="10" cx="250" cy="179.5" rx="8.9" ry="9.6"/>
			</g>
			<g>
				<ellipse fill="#FFFFFF" cx="250" cy="179.5" rx="11.7" ry="12.2"/>
				<ellipse fill="none" stroke="#000000" stroke-width="0.2535" stroke-miterlimit="10" cx="250" cy="179.5" rx="11.7" ry="12.2"/>
			</g>
			<g>
				<ellipse fill="#FFFFFF" cx="250" cy="179.5" rx="15.4" ry="15.6"/>
				<ellipse fill="none" stroke="#000000" stroke-width="0.3286" stroke-miterlimit="10" cx="250" cy="179.5" rx="15.4" ry="15.6"/>
			</g>
			<g>
				<ellipse fill="#FFFFFF" cx="250" cy="179.5" rx="20.3" ry="19.9"/>
				<ellipse fill="none" stroke="#000000" stroke-width="0.4258" stroke-miterlimit="10" cx="250" cy="179.5" rx="20.3" ry="19.9"/>
			</g>
			<g>
				<ellipse fill="#FFFFFF" cx="250" cy="179.5" rx="26.7" ry="25.4"/>
				<ellipse fill="none" stroke="#000000" stroke-width="0.5517" stroke-miterlimit="10" cx="250" cy="179.5" rx="26.7" ry="25.4"/>
			</g>
			<g>
				<ellipse fill="#FFFFFF" cx="250" cy="179.5" rx="35.2" ry="32.4"/>
				<ellipse fill="none" stroke="#000000" stroke-width="0.715" stroke-miterlimit="10" cx="250" cy="179.5" rx="35.2" ry="32.4"/>
			</g>
			<g>
				<ellipse fill="#FFFFFF" cx="250" cy="179.5" rx="46.3" ry="41.3"/>
				<ellipse fill="none" stroke="#000000" stroke-width="0.9265" stroke-miterlimit="10" cx="250" cy="179.5" rx="46.3" ry="41.3"/>
			</g>
		</g>
		<g>
			<g>
				<ellipse fill="#FFFFFF" cx="250" cy="179.5" rx="0.4" ry="0.7"/>
				
					<ellipse fill="none" stroke="#000000" stroke-width="1.129952e-002" stroke-miterlimit="10" cx="250" cy="179.5" rx="0.4" ry="0.7"/>
			</g>
			<g>
				<ellipse fill="#FFFFFF" cx="250" cy="179.5" rx="0.6" ry="0.9"/>
				
					<ellipse fill="none" stroke="#000000" stroke-width="1.511695e-002" stroke-miterlimit="10" cx="250" cy="179.5" rx="0.6" ry="0.9"/>
			</g>
			<g>
				<ellipse fill="#FFFFFF" cx="250" cy="179.5" rx="0.8" ry="1.1"/>
				
					<ellipse fill="none" stroke="#000000" stroke-width="2.022405e-002" stroke-miterlimit="10" cx="250" cy="179.5" rx="0.8" ry="1.1"/>
			</g>
			<g>
				<ellipse fill="#FFFFFF" cx="250" cy="179.5" rx="1.1" ry="1.5"/>
				
					<ellipse fill="none" stroke="#000000" stroke-width="2.705653e-002" stroke-miterlimit="10" cx="250" cy="179.5" rx="1.1" ry="1.5"/>
			</g>
			<g>
				<ellipse fill="#FFFFFF" cx="250" cy="179.5" rx="1.5" ry="2"/>
				
					<ellipse fill="none" stroke="#000000" stroke-width="3.619729e-002" stroke-miterlimit="10" cx="250" cy="179.5" rx="1.5" ry="2"/>
			</g>
			<g>
				<ellipse fill="#FFFFFF" cx="250" cy="179.5" rx="2" ry="2.6"/>
				
					<ellipse fill="none" stroke="#000000" stroke-width="4.842617e-002" stroke-miterlimit="10" cx="250" cy="179.5" rx="2" ry="2.6"/>
			</g>
			<g>
				<ellipse fill="#FFFFFF" cx="250" cy="179.5" rx="2.8" ry="3.4"/>
				
					<ellipse fill="none" stroke="#000000" stroke-width="6.478644e-002" stroke-miterlimit="10" cx="250" cy="179.5" rx="2.8" ry="3.4"/>
			</g>
			<g>
				<ellipse fill="#FFFFFF" cx="250" cy="179.5" rx="3.8" ry="4.4"/>
				
					<ellipse fill="none" stroke="#000000" stroke-width="8.667386e-002" stroke-miterlimit="10" cx="250" cy="179.5" rx="3.8" ry="4.4"/>
			</g>
			<g>
				<ellipse fill="#FFFFFF" cx="250" cy="179.5" rx="5.1" ry="5.8"/>
				<ellipse fill="none" stroke="#000000" stroke-width="0.116" stroke-miterlimit="10" cx="250" cy="179.5" rx="5.1" ry="5.8"/>
			</g>
			<g>
				<ellipse fill="#FFFFFF" cx="250" cy="179.5" rx="7" ry="7.7"/>
				<ellipse fill="none" stroke="#000000" stroke-width="0.1551" stroke-miterlimit="10" cx="250" cy="179.5" rx="7" ry="7.7"/>
			</g>
			<g>
				<ellipse fill="#FFFFFF" cx="250" cy="179.5" rx="9.5" ry="10.1"/>
				<ellipse fill="none" stroke="#000000" stroke-width="0.2075" stroke-miterlimit="10" cx="250" cy="179.5" rx="9.5" ry="10.1"/>
			</g>
			<g>
				<ellipse fill="#FFFFFF" cx="250" cy="179.5" rx="12.9" ry="13.3"/>
				<ellipse fill="none" stroke="#000000" stroke-width="0.2777" stroke-miterlimit="10" cx="250" cy="179.5" rx="12.9" ry="13.3"/>
			</g>
			<g>
				<ellipse fill="#FFFFFF" cx="250" cy="179.5" rx="17.6" ry="17.4"/>
				<ellipse fill="none" stroke="#000000" stroke-width="0.3715" stroke-miterlimit="10" cx="250" cy="179.5" rx="17.6" ry="17.4"/>
			</g>
			<g>
				<ellipse fill="#FFFFFF" cx="250" cy="179.5" rx="24" ry="22.9"/>
				<ellipse fill="none" stroke="#000000" stroke-width="0.4969" stroke-miterlimit="10" cx="250" cy="179.5" rx="24" ry="22.9"/>
			</g>
			<g>
				<ellipse fill="#FFFFFF" cx="250" cy="179.5" rx="32.6" ry="30.2"/>
				<ellipse fill="none" stroke="#000000" stroke-width="0.6648" stroke-miterlimit="10" cx="250" cy="179.5" rx="32.6" ry="30.2"/>
			</g>
			<g>
				<ellipse fill="#FFFFFF" cx="250" cy="179.5" rx="44.4" ry="39.7"/>
				<ellipse fill="none" stroke="#000000" stroke-width="0.8894" stroke-miterlimit="10" cx="250" cy="179.5" rx="44.4" ry="39.7"/>
			</g>
		</g>
		<g>
			<g>
				<ellipse fill="#FFFFFF" cx="250" cy="179.5" rx="9" ry="9.4"/>
				<ellipse fill="none" stroke="#000000" stroke-width="0.1944" stroke-miterlimit="10" cx="250" cy="179.5" rx="9" ry="9.4"/>
			</g>
			<g>
				<ellipse fill="#FFFFFF" cx="250" cy="179.5" rx="9.9" ry="10.3"/>
				<ellipse fill="none" stroke="#000000" stroke-width="0.2145" stroke-miterlimit="10" cx="250" cy="179.5" rx="9.9" ry="10.3"/>
			</g>
			<g>
				<ellipse fill="#FFFFFF" cx="250" cy="179.5" rx="11" ry="11.3"/>
				<ellipse fill="none" stroke="#000000" stroke-width="0.2368" stroke-miterlimit="10" cx="250" cy="179.5" rx="11" ry="11.3"/>
			</g>
			<g>
				<ellipse fill="#FFFFFF" cx="250" cy="179.5" rx="12.2" ry="12.4"/>
				<ellipse fill="none" stroke="#000000" stroke-width="0.2613" stroke-miterlimit="10" cx="250" cy="179.5" rx="12.2" ry="12.4"/>
			</g>
			<g>
				<ellipse fill="#FFFFFF" cx="250" cy="179.5" rx="13.6" ry="13.6"/>
				<ellipse fill="none" stroke="#000000" stroke-width="0.2884" stroke-miterlimit="10" cx="250" cy="179.5" rx="13.6" ry="13.6"/>
			</g>
			<g>
				<ellipse fill="#FFFFFF" cx="250" cy="179.5" rx="15.1" ry="15"/>
				<ellipse fill="none" stroke="#000000" stroke-width="0.3183" stroke-miterlimit="10" cx="250" cy="179.5" rx="15.1" ry="15"/>
			</g>
			<g>
				<ellipse fill="#FFFFFF" cx="250" cy="179.5" rx="16.7" ry="16.4"/>
				<ellipse fill="none" stroke="#000000" stroke-width="0.3513" stroke-miterlimit="10" cx="250" cy="179.5" rx="16.7" ry="16.4"/>
			</g>
			<g>
				<ellipse fill="#FFFFFF" cx="250" cy="179.5" rx="18.6" ry="18"/>
				<ellipse fill="none" stroke="#000000" stroke-width="0.3878" stroke-miterlimit="10" cx="250" cy="179.5" rx="18.6" ry="18"/>
			</g>
			<g>
				<ellipse fill="#FFFFFF" cx="250" cy="179.5" rx="20.6" ry="19.8"/>
				<ellipse fill="none" stroke="#000000" stroke-width="0.428" stroke-miterlimit="10" cx="250" cy="179.5" rx="20.6" ry="19.8"/>
			</g>
			<g>
				<ellipse fill="#FFFFFF" cx="250" cy="179.5" rx="22.8" ry="21.7"/>
				<ellipse fill="none" stroke="#000000" stroke-width="0.4724" stroke-miterlimit="10" cx="250" cy="179.5" rx="22.8" ry="21.7"/>
			</g>
			<g>
				<ellipse fill="#FFFFFF" cx="250" cy="179.5" rx="25.4" ry="23.9"/>
				<ellipse fill="none" stroke="#000000" stroke-width="0.5214" stroke-miterlimit="10" cx="250" cy="179.5" rx="25.4" ry="23.9"/>
			</g>
			<g>
				<ellipse fill="#FFFFFF" cx="250" cy="179.5" rx="28.1" ry="26.2"/>
				<ellipse fill="none" stroke="#000000" stroke-width="0.5754" stroke-miterlimit="10" cx="250" cy="179.5" rx="28.1" ry="26.2"/>
			</g>
			<g>
				<ellipse fill="#FFFFFF" cx="250" cy="179.5" rx="31.2" ry="28.8"/>
				<ellipse fill="none" stroke="#000000" stroke-width="0.6351" stroke-miterlimit="10" cx="250" cy="179.5" rx="31.2" ry="28.8"/>
			</g>
			<g>
				<ellipse fill="#FFFFFF" cx="250" cy="179.5" rx="34.6" ry="31.6"/>
				<ellipse fill="none" stroke="#000000" stroke-width="0.701" stroke-miterlimit="10" cx="250" cy="179.5" rx="34.6" ry="31.6"/>
			</g>
			<g>
				<ellipse fill="#FFFFFF" cx="250" cy="179.5" rx="38.4" ry="34.7"/>
				<ellipse fill="none" stroke="#000000" stroke-width="0.7736" stroke-miterlimit="10" cx="250" cy="179.5" rx="38.4" ry="34.7"/>
			</g>
			<g>
				<ellipse fill="#FFFFFF" cx="250" cy="179.5" rx="42.6" ry="38.1"/>
				<ellipse fill="none" stroke="#000000" stroke-width="0.8539" stroke-miterlimit="10" cx="250" cy="179.5" rx="42.6" ry="38.1"/>
			</g>
		</g>
		<g>
			<g>
				<ellipse cx="250" cy="179.5" rx="6.6" ry="7.1"/>
				<ellipse fill="none" stroke="#000000" stroke-width="0.1442" stroke-miterlimit="10" cx="250" cy="179.5" rx="6.6" ry="7.1"/>
			</g>
			<g>
				<ellipse cx="250" cy="179.5" rx="7.4" ry="7.9"/>
				<ellipse fill="none" stroke="#000000" stroke-width="0.1619" stroke-miterlimit="10" cx="250" cy="179.5" rx="7.4" ry="7.9"/>
			</g>
			<g>
				<ellipse cx="250" cy="179.5" rx="8.4" ry="8.8"/>
				<ellipse fill="none" stroke="#000000" stroke-width="0.1818" stroke-miterlimit="10" cx="250" cy="179.5" rx="8.4" ry="8.8"/>
			</g>
			<g>
				<ellipse cx="250" cy="179.5" rx="9.5" ry="9.8"/>
				<ellipse fill="none" stroke="#000000" stroke-width="0.2041" stroke-miterlimit="10" cx="250" cy="179.5" rx="9.5" ry="9.8"/>
			</g>
			<g>
				<ellipse cx="250" cy="179.5" rx="10.7" ry="11"/>
				<ellipse fill="none" stroke="#000000" stroke-width="0.2292" stroke-miterlimit="10" cx="250" cy="179.5" rx="10.7" ry="11"/>
			</g>
			<g>
				<ellipse cx="250" cy="179.5" rx="12.1" ry="12.2"/>
				<ellipse fill="none" stroke="#000000" stroke-width="0.2573" stroke-miterlimit="10" cx="250" cy="179.5" rx="12.1" ry="12.2"/>
			</g>
			<g>
				<circle cx="250" cy="179.5" r="13.6"/>
				<circle fill="none" stroke="#000000" stroke-width="0.289" stroke-miterlimit="10" cx="250" cy="179.5" r="13.6"/>
			</g>
			<g>
				<ellipse cx="250" cy="179.5" rx="15.4" ry="15.2"/>
				<ellipse fill="none" stroke="#000000" stroke-width="0.3244" stroke-miterlimit="10" cx="250" cy="179.5" rx="15.4" ry="15.2"/>
			</g>
			<g>
				<ellipse cx="250" cy="179.5" rx="17.4" ry="17"/>
				<ellipse fill="none" stroke="#000000" stroke-width="0.3643" stroke-miterlimit="10" cx="250" cy="179.5" rx="17.4" ry="17"/>
			</g>
			<g>
				<ellipse cx="250" cy="179.5" rx="19.7" ry="18.9"/>
				<ellipse fill="none" stroke="#000000" stroke-width="0.409" stroke-miterlimit="10" cx="250" cy="179.5" rx="19.7" ry="18.9"/>
			</g>
			<g>
				<ellipse cx="250" cy="179.5" rx="22.2" ry="21.1"/>
				<ellipse fill="none" stroke="#000000" stroke-width="0.4593" stroke-miterlimit="10" cx="250" cy="179.5" rx="22.2" ry="21.1"/>
			</g>
			<g>
				<ellipse cx="250" cy="179.5" rx="25.1" ry="23.6"/>
				<ellipse fill="none" stroke="#000000" stroke-width="0.5157" stroke-miterlimit="10" cx="250" cy="179.5" rx="25.1" ry="23.6"/>
			</g>
			<g>
				<ellipse cx="250" cy="179.5" rx="28.4" ry="26.3"/>
				<ellipse fill="none" stroke="#000000" stroke-width="0.5791" stroke-miterlimit="10" cx="250" cy="179.5" rx="28.4" ry="26.3"/>
			</g>
			<g>
				<ellipse cx="250" cy="179.5" rx="32.1" ry="29.4"/>
				<ellipse fill="none" stroke="#000000" stroke-width="0.6502" stroke-miterlimit="10" cx="250" cy="179.5" rx="32.1" ry="29.4"/>
			</g>
			<g>
				<ellipse cx="250" cy="179.5" rx="36.2" ry="32.8"/>
				<ellipse fill="none" stroke="#000000" stroke-width="0.73" stroke-miterlimit="10" cx="250" cy="179.5" rx="36.2" ry="32.8"/>
			</g>
			<g>
				<ellipse cx="250" cy="179.5" rx="40.9" ry="36.6"/>
				<ellipse fill="none" stroke="#000000" stroke-width="0.8197" stroke-miterlimit="10" cx="250" cy="179.5" rx="40.9" ry="36.6"/>
			</g>
		</g>
		<ellipse fill="none" stroke="#000000" stroke-width="1.0729" stroke-miterlimit="10" cx="250" cy="179.5" rx="48.2" ry="44.4"/>
	</g>
	<path stroke="#000000" stroke-width="0.6002" stroke-miterlimit="10" d="M179.6,436.5H157c-3.5,0-6.3-2.8-6.3-6.3v-10.4
		c0-3.5,2.8-6.3,6.3-6.3h22.6c3.5,0,6.3,2.8,6.3,6.3v10.4C185.9,433.7,183.1,436.5,179.6,436.5z"/>
	<path stroke="#000000" stroke-width="0.6002" stroke-miterlimit="10" d="M343.7,436.5h-22.6c-3.5,0-6.3-2.8-6.3-6.3v-10.4
		c0-3.5,2.8-6.3,6.3-6.3h22.6c3.5,0,6.3,2.8,6.3,6.3v10.4C350,433.7,347.2,436.5,343.7,436.5z"/>
	<circle fill="#FFFFFF" stroke="#000000" stroke-width="0.9656" stroke-miterlimit="10" cx="327" cy="105" r="7.5"/>
</g>
</svg>
