<?xml version="1.0" encoding="utf-8"?>
<!-- Generator: Adobe Illustrator 18.1.1, SVG Export Plug-In . SVG Version: 6.00 Build 0)  -->
<svg version="1.1" id="Layer_1" xmlns="http://www.w3.org/2000/svg" xmlns:xlink="http://www.w3.org/1999/xlink" x="0px" y="0px"
	 viewBox="0 0 500 500" enable-background="new 0 0 500 500" xml:space="preserve">
<g>
	<circle fill="#C8EAF5" cx="250" cy="250" r="226.5"/>
</g>
<g>
	<g>
		<g>
			<circle fill="#F58457" cx="250" cy="250" r="149.1"/>
			<g>
				<path d="M397.4,250.1c-0.3,61.1-38.5,117.2-95.9,138.6c-58.5,21.8-126,3-165.4-45.2c-38.9-47.6-44.1-116.5-12.7-169.4
					c31.9-53.7,96.1-81.9,157.2-68.8c59.1,12.7,105.5,62,115,121.6C396.8,234.6,397.3,242.4,397.4,250.1c0,1.7,3.4,1.1,3.4-0.3
					c-0.3-62.8-40.2-120.1-99.5-141.3c-59.1-21.2-127.2-2.5-167.3,45.8c-40.4,48.6-45.9,119.4-13.1,173.6
					c32.6,53.7,96.8,81.6,158.3,69.5c60.9-12,109.7-62,119.7-123.3c1.3-8,1.9-16.1,2-24.2C400.8,248.2,397.4,248.7,397.4,250.1z"/>
			</g>
		</g>
		<g>
			<circle fill="#FFFFFF" cx="250" cy="250.5" r="141.7"/>
		</g>
		<path fill="#FBDA01" d="M119.2,258.6c2.2,28.6,13.5,54.6,31.1,75.1c1.8,2.1,5.1,2.2,7.1,0.2l72.2-72.2c3.1-3.1,0.9-8.3-3.4-8.3
			h-102C121.3,253.4,119,255.8,119.2,258.6z M118.9,253.4"/>
		<path fill="#FBDA01" d="M255,117.3v106.5c0,4.6,5.5,6.9,8.8,3.6l71.5-71.5c2.1-2.1,2-5.6-0.2-7.5C313.3,130,285.5,118.4,255,117.3
			L255,117.3z M255,117.3"/>
		<path fill="#FBDA01" d="M149.9,163.6c-17.3,20.3-28.4,46-30.7,74.1c-0.2,3.1,2.3,5.7,5.4,5.7h100.2c4.8,0,7.2-5.8,3.8-9.2
			l-70.9-70.9C155.6,161.1,152,161.2,149.9,163.6z M153.8,159.3"/>
		<path fill="#FBDA01" d="M245,223.7V122.9c0-3-2.6-5.5-5.6-5.2c-28.3,2.2-54.1,13.4-74.4,30.8c-2.3,2-2.4,5.5-0.2,7.6l71.3,71.3
			C239.4,230.7,245,228.3,245,223.7z M245,236.3"/>
		<path fill="#FBDA01" d="M245,379.5V274.8c0-5.3-6.4-7.9-10.1-4.2l-69.6,69.6c-2.4,2.4-2.3,6.4,0.3,8.6
			C187.2,367,214.8,378.3,245,379.5L245,379.5z M245,379.5"/>
		<path fill="#FBDA01" d="M380.7,237.6c-2.3-28.1-13.4-53.7-30.6-74c-2-2.4-5.7-2.5-7.9-0.2l-70.8,70.8c-3.4,3.4-1,9.3,3.8,9.3
			h100.1C378.4,243.4,381,240.7,380.7,237.6z M381.1,243.4"/>
		<path fill="#FBDA01" d="M260.5,379.2c28.4-2.3,54.2-13.5,74.5-30.9c2.3-1.9,2.3-5.4,0.2-7.5l-71.5-71.5c-3.2-3.2-8.8-0.9-8.8,3.6
			V374C255,377,257.5,379.4,260.5,379.2z M255,379.5"/>
		<path fill="#FBDA01" d="M269.2,260.5l73.9,73.9c1.7,1.7,4.5,1.6,6.1-0.2c18-20.8,29.5-47.3,31.6-76.4c0.2-2.4-1.8-4.4-4.2-4.4
			H272.2C268.5,253.4,266.6,257.9,269.2,260.5z M262.1,253.4"/>
	</g>
	<path fill="#FFFFFF" d="M261.1,207.8c0.5-2,2.6-3.3,4.7-2.7c2,0.5,3.3,2.6,2.7,4.7c-0.5,2-4.5,10.5-6.6,9.9
		S260.6,209.8,261.1,207.8z"/>
	<path fill="#FFFFFF" d="M287.9,228.6c2.1-0.5,4.1,0.8,4.6,2.8c0.5,2.1-0.8,4.1-2.8,4.6c-2.1,0.5-11.4,0.9-11.8-1.1
		C277.3,232.9,285.8,229.1,287.9,228.6z"/>
	<path fill="#FFFFFF" d="M283.9,257.2c2,0.6,3.2,2.7,2.7,4.7c-0.6,2-2.7,3.2-4.7,2.7c-2-0.6-10.4-4.6-9.9-6.7
		S281.9,256.6,283.9,257.2z"/>
	<path fill="#FFFFFF" d="M229.9,209.6c-1.1-1.8-0.5-4.2,1.3-5.3s4.2-0.5,5.3,1.3s4.4,10.5,2.6,11.6S231,211.4,229.9,209.6z"/>
	<path fill="#FFFFFF" d="M209.2,236c-2.1-0.5-3.3-2.6-2.8-4.6s2.6-3.3,4.6-2.8c2.1,0.5,10.5,4.3,10,6.4
		C220.6,237.1,211.3,236.5,209.2,236z"/>
	<path fill="#FFFFFF" d="M215.6,267.3c-1.9,1-4.2,0.3-5.2-1.5c-1-1.9-0.3-4.2,1.5-5.2c1.9-1,10.7-3.9,11.7-2
		C224.7,260.4,217.5,266.3,215.6,267.3z"/>
	<path fill="#FFFFFF" d="M239.5,285.6c-0.7,2-2.9,3-4.9,2.3s-3-2.9-2.3-4.9s5.4-10,7.4-9.3S240.2,283.6,239.5,285.6z"/>
	<path fill="#FFFFFF" d="M267.4,282.4c0.5,2-0.7,4.1-2.7,4.7s-4.1-0.7-4.7-2.7c-0.5-2-1.3-11.3,0.8-11.9S266.9,280.4,267.4,282.4z"
		/>
</g>
</svg>
