<?xml version="1.0" encoding="utf-8"?>
<!-- Generator: Adobe Illustrator 18.1.1, SVG Export Plug-In . SVG Version: 6.00 Build 0)  -->
<svg version="1.1" id="Layer_1" xmlns="http://www.w3.org/2000/svg" xmlns:xlink="http://www.w3.org/1999/xlink" x="0px" y="0px"
	 viewBox="0 0 500 500" enable-background="new 0 0 500 500" xml:space="preserve">
<g>
	<circle fill="#E2EDC1" cx="250" cy="250" r="226.5"/>
</g>
<g>
	<g>
		<path fill="#FFFFFF" d="M254.5,122v53.9c0,19.5-8,35.8-18.5,39.5V301c0,2.7-2.2,4.9-4.9,4.9c-2.7,0-4.9-2.2-4.9-4.9v-85.6
			c-10.6-3.7-18.5-20-18.5-39.5V122c-46.1,6.2-81.4,41.7-81.4,84.5V331c0,47.3,42.9,85.6,95.9,85.6H240c53,0,95.9-38.3,95.9-85.6
			V206.6C336,163.7,300.6,128.3,254.5,122z"/>
		<g>
			<path d="M252.8,122.5c0,13.6,0,27.2,0,40.8c0,4.9,0.1,9.9,0,14.8c-0.3,12.4-4.2,31.7-17.4,36.8c-0.4,0.2-1.1,0.4-1.1,1
				c0,25.3,0,50.6,0,75.9c0,2.9,0.7,6.8,0,9.6c-0.6,2.5-3.9,3.8-5.5,1.4c-0.6-0.9-0.6-1.3-0.7-2.3c0-0.3,0-0.6,0-0.9
				c-0.1-1.6,0-3.2,0-4.9c0-14.6,0-29.3,0-43.9c0-12,0-23.9,0-35.9c-0.1-0.1-0.2-0.2-0.3-0.3c-12.2-4.8-16.7-20.7-17.9-32.5
				c-0.6-6.1-0.3-12.4-0.3-18.5c0-14,0-28,0-42.1c0-0.5-1.2-0.3-1.4-0.3c-34.3,4.9-67,26.1-78.9,59.7c-6.3,17.8-4.5,37.7-4.5,56.3
				c0,24.9,0,49.7,0,74.6c0,6.4,0,12.8,0,19.3c0.1,14.8,4.1,29.2,12,41.8c18.3,29.5,52.1,44.5,86,44.5c13.5,0,26.9,0.4,40.1-2.5
				c16.7-3.6,32.5-11.2,45.5-22.4c12.6-10.9,22.2-25.2,26.7-41.3c2.3-8.5,2.8-17.1,2.8-25.9c0-22.5,0-45,0-67.5
				c0-17.2,0.1-34.5,0-51.7c-0.2-35.1-24-64.5-55.6-77.8c-8.5-3.5-17.4-5.8-26.5-7.1c-0.9-0.1-4,1.3-2.2,1.6
				c35.5,5.1,68.8,28.8,78.3,64.5c4.3,16.1,2.5,34.2,2.5,50.7c0,23.9,0,47.9,0,71.8c0,19.4,0.7,38.1-8.2,56.1
				c-16.1,32.3-51.2,49.7-86.3,49.8c-13.8,0-27.5,0.4-41.1-2.9c-17-4.1-32.9-12.5-45.4-24.7c-12.1-11.7-20.7-26.9-23.8-43.4
				c-1.3-7.1-1.3-14.1-1.3-21.3c0-21.7,0-43.4,0-65.1c0-17.3-0.1-34.5,0-51.8c0.2-33.1,21.2-61.7,50.7-75.5
				c9.1-4.2,18.8-6.9,28.7-8.3c-0.5-0.1-1-0.2-1.4-0.3c0,17.9-0.1,35.8,0,53.7c0.1,8.4,1.3,16.9,4.7,24.6c1.5,3.4,3.4,6.6,5.8,9.4
				c1.1,1.3,2.3,2.4,3.7,3.4c0.6,0.4,4.1,1.8,4.4,2.3c0.6,1,0,4.4,0,5.5c0,4.5,0,9.1,0,13.6c0,21.5,0,42.9,0,64.4
				c0,3.1,0.5,6.1,4,7.1c4.3,1.2,8.6-1.7,9.1-6c0.7-6.7,0-14,0-20.7c0-21.6,0-43.2,0-64.7c-0.4,0.3-0.7,0.6-1.1,1
				c19-7.4,19.6-32.2,19.6-49.4c0-15,0-29.9,0-44.9C256.2,120.8,252.8,121.4,252.8,122.5z"/>
		</g>
	</g>
	<ellipse stroke="#000000" stroke-width="1.2266" stroke-miterlimit="10" cx="230.8" cy="165.2" rx="14.2" ry="35.5"/>
	<g>
		<g>
			<path d="M231.9,129.3c-5.2-6.6-10.8-16.3-3.9-23.8c6.4-6.9,17.9-8.5,26.7-9.7c28.4-3.9,57-1.4,85.5,0.3
				c14.2,0.8,24.4-3.6,35-12.8c0.7-0.6-2.5-0.2-3.1,0.3c-6.4,5.6-13,10.6-21.8,11.3c-9.1,0.7-18.5-1.1-27.6-1.7
				c-15.7-1-31.4-0.9-47.1-0.2c-9.4,0.4-18.9,1.2-28.2,3.1c-7.6,1.6-16.5,3.8-22.2,9.4c-7.8,7.6-2.5,17.7,3.1,24.8
				C229.1,131,232.1,129.5,231.9,129.3L231.9,129.3z"/>
		</g>
	</g>
</g>
</svg>
