<?xml version="1.0" encoding="utf-8"?>
<!-- Generator: Adobe Illustrator 18.1.1, SVG Export Plug-In . SVG Version: 6.00 Build 0)  -->
<svg version="1.1" id="Layer_1" xmlns="http://www.w3.org/2000/svg" xmlns:xlink="http://www.w3.org/1999/xlink" x="0px" y="0px"
	 viewBox="0 0 500 500" enable-background="new 0 0 500 500" xml:space="preserve">
<g>
	<circle fill="#D8D6EC" cx="250" cy="250" r="226.5"/>
</g>
<g>
	<g>
		<path d="M362.3,179.2c0,9.5-13.9,0-23.3,0h-54.8c-9.5,0-21.4,11-21.4,1.5l-15.1,1.4c0-9.5,27.1-42.6,36.5-42.6h54.8
			c9.5,0,31.5,33.1,31.5,42.6L362.3,179.2z"/>
		<path stroke="#000000" stroke-width="0.9226" stroke-miterlimit="10" d="M405.3,342.4c0,10-8.1,18.1-18.1,18.1H122.8
			c-10,0-18.1-8.1-18.1-18.1V195.8c0-10,8.1-18.1,18.1-18.1h264.3c10,0,18.1,8.1,18.1,18.1V342.4z"/>
		<g>
			<ellipse fill="#FFFFFF" cx="316.5" cy="272.2" rx="88.8" ry="87.1"/>
			<g>
				<path d="M403,273.4c-0.3,36.9-24.6,71.5-60.6,81.6c-34.3,9.6-72.3-2.9-94.3-31c-21.5-27.6-24.1-66.4-6.3-96.6
					c19.6-33,58.8-47.9,95.6-38.1C375.5,199.4,402.7,234.1,403,273.4c0-0.1,4.5-1.1,4.5-2.3c-0.3-38.5-26.3-72.5-63.2-83.5
					c-34.6-10.3-73.7,1.7-97.4,28.7c-25.4,29-28.6,72.5-7.1,104.7c21.2,31.8,61.4,46.2,98.1,36.5c39.4-10.5,69.2-45,69.5-86.4
					C407.5,271.2,403,272.2,403,273.4z"/>
			</g>
		</g>
		<g>
			<ellipse fill="#FFFFFF" cx="316.5" cy="269.1" rx="76.9" ry="75.4"/>
			<g>
				<path d="M391.5,270.1c-0.3,32.2-21.5,62.3-53.1,70.8c-29.7,8-62.4-2.8-81.2-27.2c-18.4-23.7-20.7-57.1-5.5-83
					c16.9-28.9,51.3-42,83.4-33.3C367.9,206.3,391.2,236.2,391.5,270.1c0-0.1,3.9-0.9,3.9-2c-0.3-33.5-23.1-63.1-55.3-72.4
					c-29.7-8.6-63,1.7-83.4,24.7c-22.3,25.2-25.1,63.1-6.4,91.1c18.5,27.6,53.6,40,85.4,31.3c33.9-9.2,59.3-39.1,59.7-74.7
					C395.4,268.2,391.5,269,391.5,270.1z"/>
			</g>
		</g>
		<g>
			<g>
				<ellipse fill="#FFFFFF" cx="316.5" cy="269.1" rx="0.5" ry="0.7"/>
				
					<ellipse fill="none" stroke="#000000" stroke-width="1.247546e-002" stroke-miterlimit="10" cx="316.5" cy="269.1" rx="0.5" ry="0.7"/>
			</g>
			<g>
				<ellipse fill="#FFFFFF" cx="316.5" cy="269.1" rx="0.7" ry="1"/>
				
					<ellipse fill="none" stroke="#000000" stroke-width="1.679424e-002" stroke-miterlimit="10" cx="316.5" cy="269.1" rx="0.7" ry="1"/>
			</g>
			<g>
				<ellipse fill="#FFFFFF" cx="316.5" cy="269.1" rx="0.9" ry="1.3"/>
				
					<ellipse fill="none" stroke="#000000" stroke-width="2.260811e-002" stroke-miterlimit="10" cx="316.5" cy="269.1" rx="0.9" ry="1.3"/>
			</g>
			<g>
				<ellipse fill="#FFFFFF" cx="316.5" cy="269.1" rx="1.2" ry="1.7"/>
				
					<ellipse fill="none" stroke="#000000" stroke-width="3.043464e-002" stroke-miterlimit="10" cx="316.5" cy="269.1" rx="1.2" ry="1.7"/>
			</g>
			<g>
				<ellipse fill="#FFFFFF" cx="316.5" cy="269.1" rx="1.7" ry="2.2"/>
				
					<ellipse fill="none" stroke="#000000" stroke-width="4.097057e-002" stroke-miterlimit="10" cx="316.5" cy="269.1" rx="1.7" ry="2.2"/>
			</g>
			<g>
				<ellipse fill="#FFFFFF" cx="316.5" cy="269.1" rx="2.3" ry="2.9"/>
				
					<ellipse fill="none" stroke="#000000" stroke-width="5.515385e-002" stroke-miterlimit="10" cx="316.5" cy="269.1" rx="2.3" ry="2.9"/>
			</g>
			<g>
				<ellipse fill="#FFFFFF" cx="316.5" cy="269.1" rx="3.2" ry="3.9"/>
				
					<ellipse fill="none" stroke="#000000" stroke-width="7.424713e-002" stroke-miterlimit="10" cx="316.5" cy="269.1" rx="3.2" ry="3.9"/>
			</g>
			<g>
				<ellipse fill="#FFFFFF" cx="316.5" cy="269.1" rx="4.3" ry="5.1"/>
				
					<ellipse fill="none" stroke="#000000" stroke-width="9.995016e-002" stroke-miterlimit="10" cx="316.5" cy="269.1" rx="4.3" ry="5.1"/>
			</g>
			<g>
				<ellipse fill="#FFFFFF" cx="316.5" cy="269.1" rx="5.9" ry="6.8"/>
				<ellipse fill="none" stroke="#000000" stroke-width="0.1346" stroke-miterlimit="10" cx="316.5" cy="269.1" rx="5.9" ry="6.8"/>
			</g>
			<g>
				<ellipse fill="#FFFFFF" cx="316.5" cy="269.1" rx="8.1" ry="9"/>
				<ellipse fill="none" stroke="#000000" stroke-width="0.1811" stroke-miterlimit="10" cx="316.5" cy="269.1" rx="8.1" ry="9"/>
			</g>
			<g>
				<ellipse fill="#FFFFFF" cx="316.5" cy="269.1" rx="11.1" ry="11.9"/>
				
					<ellipse fill="none" stroke="#000000" stroke-width="0.2438" stroke-miterlimit="10" cx="316.5" cy="269.1" rx="11.1" ry="11.9"/>
			</g>
			<g>
				<ellipse fill="#FFFFFF" cx="316.5" cy="269.1" rx="15.3" ry="15.7"/>
				
					<ellipse fill="none" stroke="#000000" stroke-width="0.3282" stroke-miterlimit="10" cx="316.5" cy="269.1" rx="15.3" ry="15.7"/>
			</g>
			<g>
				<ellipse fill="#FFFFFF" cx="316.5" cy="269.1" rx="20.9" ry="20.8"/>
				
					<ellipse fill="none" stroke="#000000" stroke-width="0.4419" stroke-miterlimit="10" cx="316.5" cy="269.1" rx="20.9" ry="20.8"/>
			</g>
			<g>
				<ellipse fill="#FFFFFF" cx="316.5" cy="269.1" rx="28.7" ry="27.5"/>
				
					<ellipse fill="none" stroke="#000000" stroke-width="0.5948" stroke-miterlimit="10" cx="316.5" cy="269.1" rx="28.7" ry="27.5"/>
			</g>
			<g>
				<ellipse fill="#FFFFFF" cx="316.5" cy="269.1" rx="39.3" ry="36.4"/>
				
					<ellipse fill="none" stroke="#000000" stroke-width="0.8008" stroke-miterlimit="10" cx="316.5" cy="269.1" rx="39.3" ry="36.4"/>
			</g>
			<g>
				<ellipse fill="#FFFFFF" cx="316.5" cy="269.1" rx="53.8" ry="48.1"/>
				
					<ellipse fill="none" stroke="#000000" stroke-width="1.078" stroke-miterlimit="10" cx="316.5" cy="269.1" rx="53.8" ry="48.1"/>
			</g>
		</g>
		<g>
			<g>
				<ellipse fill="#FFFFFF" cx="316.5" cy="269.1" rx="7.3" ry="8"/>
				<ellipse fill="none" stroke="#000000" stroke-width="0.162" stroke-miterlimit="10" cx="316.5" cy="269.1" rx="7.3" ry="8"/>
			</g>
			<g>
				<ellipse fill="#FFFFFF" cx="316.5" cy="269.1" rx="8.3" ry="9"/>
				<ellipse fill="none" stroke="#000000" stroke-width="0.1834" stroke-miterlimit="10" cx="316.5" cy="269.1" rx="8.3" ry="9"/>
			</g>
			<g>
				<ellipse fill="#FFFFFF" cx="316.5" cy="269.1" rx="9.5" ry="10.1"/>
				
					<ellipse fill="none" stroke="#000000" stroke-width="0.2075" stroke-miterlimit="10" cx="316.5" cy="269.1" rx="9.5" ry="10.1"/>
			</g>
			<g>
				<ellipse fill="#FFFFFF" cx="316.5" cy="269.1" rx="10.8" ry="11.3"/>
				
					<ellipse fill="none" stroke="#000000" stroke-width="0.2348" stroke-miterlimit="10" cx="316.5" cy="269.1" rx="10.8" ry="11.3"/>
			</g>
			<g>
				<ellipse fill="#FFFFFF" cx="316.5" cy="269.1" rx="12.3" ry="12.8"/>
				
					<ellipse fill="none" stroke="#000000" stroke-width="0.2657" stroke-miterlimit="10" cx="316.5" cy="269.1" rx="12.3" ry="12.8"/>
			</g>
			<g>
				<ellipse fill="#FFFFFF" cx="316.5" cy="269.1" rx="14" ry="14.3"/>
				<ellipse fill="none" stroke="#000000" stroke-width="0.3006" stroke-miterlimit="10" cx="316.5" cy="269.1" rx="14" ry="14.3"/>
			</g>
			<g>
				<ellipse fill="#FFFFFF" cx="316.5" cy="269.1" rx="16" ry="16.1"/>
				<ellipse fill="none" stroke="#000000" stroke-width="0.3402" stroke-miterlimit="10" cx="316.5" cy="269.1" rx="16" ry="16.1"/>
			</g>
			<g>
				<ellipse fill="#FFFFFF" cx="316.5" cy="269.1" rx="18.2" ry="18.1"/>
				
					<ellipse fill="none" stroke="#000000" stroke-width="0.385" stroke-miterlimit="10" cx="316.5" cy="269.1" rx="18.2" ry="18.1"/>
			</g>
			<g>
				<ellipse fill="#FFFFFF" cx="316.5" cy="269.1" rx="20.8" ry="20.4"/>
				
					<ellipse fill="none" stroke="#000000" stroke-width="0.4356" stroke-miterlimit="10" cx="316.5" cy="269.1" rx="20.8" ry="20.4"/>
			</g>
			<g>
				<ellipse fill="#FFFFFF" cx="316.5" cy="269.1" rx="23.6" ry="22.9"/>
				
					<ellipse fill="none" stroke="#000000" stroke-width="0.4929" stroke-miterlimit="10" cx="316.5" cy="269.1" rx="23.6" ry="22.9"/>
			</g>
			<g>
				<ellipse fill="#FFFFFF" cx="316.5" cy="269.1" rx="26.9" ry="25.7"/>
				
					<ellipse fill="none" stroke="#000000" stroke-width="0.5578" stroke-miterlimit="10" cx="316.5" cy="269.1" rx="26.9" ry="25.7"/>
			</g>
			<g>
				<ellipse fill="#FFFFFF" cx="316.5" cy="269.1" rx="30.7" ry="28.9"/>
				
					<ellipse fill="none" stroke="#000000" stroke-width="0.6312" stroke-miterlimit="10" cx="316.5" cy="269.1" rx="30.7" ry="28.9"/>
			</g>
			<g>
				<ellipse fill="#FFFFFF" cx="316.5" cy="269.1" rx="34.9" ry="32.5"/>
				
					<ellipse fill="none" stroke="#000000" stroke-width="0.7142" stroke-miterlimit="10" cx="316.5" cy="269.1" rx="34.9" ry="32.5"/>
			</g>
			<g>
				<ellipse fill="#FFFFFF" cx="316.5" cy="269.1" rx="39.8" ry="36.5"/>
				
					<ellipse fill="none" stroke="#000000" stroke-width="0.8082" stroke-miterlimit="10" cx="316.5" cy="269.1" rx="39.8" ry="36.5"/>
			</g>
			<g>
				<ellipse fill="#FFFFFF" cx="316.5" cy="269.1" rx="45.4" ry="41.1"/>
				
					<ellipse fill="none" stroke="#000000" stroke-width="0.9145" stroke-miterlimit="10" cx="316.5" cy="269.1" rx="45.4" ry="41.1"/>
			</g>
			<g>
				<ellipse fill="#FFFFFF" cx="316.5" cy="269.1" rx="51.7" ry="46.2"/>
				
					<ellipse fill="none" stroke="#000000" stroke-width="1.0349" stroke-miterlimit="10" cx="316.5" cy="269.1" rx="51.7" ry="46.2"/>
			</g>
		</g>
		<g>
			<g>
				<ellipse fill="#FFFFFF" cx="316.5" cy="269.1" rx="20.6" ry="20.1"/>
				
					<ellipse fill="none" stroke="#000000" stroke-width="0.4318" stroke-miterlimit="10" cx="316.5" cy="269.1" rx="20.6" ry="20.1"/>
			</g>
			<g>
				<ellipse fill="#FFFFFF" cx="316.5" cy="269.1" rx="21.9" ry="21.2"/>
				
					<ellipse fill="none" stroke="#000000" stroke-width="0.4565" stroke-miterlimit="10" cx="316.5" cy="269.1" rx="21.9" ry="21.2"/>
			</g>
			<g>
				<ellipse fill="#FFFFFF" cx="316.5" cy="269.1" rx="23.2" ry="22.4"/>
				
					<ellipse fill="none" stroke="#000000" stroke-width="0.4826" stroke-miterlimit="10" cx="316.5" cy="269.1" rx="23.2" ry="22.4"/>
			</g>
			<g>
				<ellipse fill="#FFFFFF" cx="316.5" cy="269.1" rx="24.6" ry="23.6"/>
				
					<ellipse fill="none" stroke="#000000" stroke-width="0.5101" stroke-miterlimit="10" cx="316.5" cy="269.1" rx="24.6" ry="23.6"/>
			</g>
			<g>
				<ellipse fill="#FFFFFF" cx="316.5" cy="269.1" rx="26.1" ry="24.8"/>
				
					<ellipse fill="none" stroke="#000000" stroke-width="0.5393" stroke-miterlimit="10" cx="316.5" cy="269.1" rx="26.1" ry="24.8"/>
			</g>
			<g>
				<ellipse fill="#FFFFFF" cx="316.5" cy="269.1" rx="27.6" ry="26.2"/>
				
					<ellipse fill="none" stroke="#000000" stroke-width="0.5701" stroke-miterlimit="10" cx="316.5" cy="269.1" rx="27.6" ry="26.2"/>
			</g>
			<g>
				<ellipse fill="#FFFFFF" cx="316.5" cy="269.1" rx="29.3" ry="27.6"/>
				
					<ellipse fill="none" stroke="#000000" stroke-width="0.6026" stroke-miterlimit="10" cx="316.5" cy="269.1" rx="29.3" ry="27.6"/>
			</g>
			<g>
				<ellipse fill="#FFFFFF" cx="316.5" cy="269.1" rx="31.1" ry="29.1"/>
				
					<ellipse fill="none" stroke="#000000" stroke-width="0.637" stroke-miterlimit="10" cx="316.5" cy="269.1" rx="31.1" ry="29.1"/>
			</g>
			<g>
				<ellipse fill="#FFFFFF" cx="316.5" cy="269.1" rx="32.9" ry="30.7"/>
				
					<ellipse fill="none" stroke="#000000" stroke-width="0.6734" stroke-miterlimit="10" cx="316.5" cy="269.1" rx="32.9" ry="30.7"/>
			</g>
			<g>
				<ellipse fill="#FFFFFF" cx="316.5" cy="269.1" rx="34.9" ry="32.3"/>
				
					<ellipse fill="none" stroke="#000000" stroke-width="0.7119" stroke-miterlimit="10" cx="316.5" cy="269.1" rx="34.9" ry="32.3"/>
			</g>
			<g>
				<ellipse fill="#FFFFFF" cx="316.5" cy="269.1" rx="37" ry="34.1"/>
				<ellipse fill="none" stroke="#000000" stroke-width="0.7526" stroke-miterlimit="10" cx="316.5" cy="269.1" rx="37" ry="34.1"/>
			</g>
			<g>
				<ellipse fill="#FFFFFF" cx="316.5" cy="269.1" rx="39.3" ry="35.9"/>
				
					<ellipse fill="none" stroke="#000000" stroke-width="0.7955" stroke-miterlimit="10" cx="316.5" cy="269.1" rx="39.3" ry="35.9"/>
			</g>
			<g>
				<ellipse fill="#FFFFFF" cx="316.5" cy="269.1" rx="41.6" ry="37.8"/>
				
					<ellipse fill="none" stroke="#000000" stroke-width="0.841" stroke-miterlimit="10" cx="316.5" cy="269.1" rx="41.6" ry="37.8"/>
			</g>
			<g>
				<ellipse fill="#FFFFFF" cx="316.5" cy="269.1" rx="44.1" ry="39.9"/>
				
					<ellipse fill="none" stroke="#000000" stroke-width="0.889" stroke-miterlimit="10" cx="316.5" cy="269.1" rx="44.1" ry="39.9"/>
			</g>
			<g>
				<ellipse fill="#FFFFFF" cx="316.5" cy="269.1" rx="46.8" ry="42"/>
				<ellipse fill="none" stroke="#000000" stroke-width="0.9398" stroke-miterlimit="10" cx="316.5" cy="269.1" rx="46.8" ry="42"/>
			</g>
			<g>
				<ellipse fill="#FFFFFF" cx="316.5" cy="269.1" rx="49.6" ry="44.3"/>
				
					<ellipse fill="none" stroke="#000000" stroke-width="0.9935" stroke-miterlimit="10" cx="316.5" cy="269.1" rx="49.6" ry="44.3"/>
			</g>
		</g>
		<g>
			<g>
				<ellipse fill="#FFFFFF" cx="316.5" cy="269.1" rx="0.3" ry="0.4"/>
				
					<ellipse fill="none" stroke="#000000" stroke-width="7.021772e-003" stroke-miterlimit="10" cx="316.5" cy="269.1" rx="0.3" ry="0.4"/>
			</g>
			<g>
				<ellipse fill="#FFFFFF" cx="316.5" cy="269.1" rx="0.4" ry="0.6"/>
				
					<ellipse fill="none" stroke="#000000" stroke-width="9.741941e-003" stroke-miterlimit="10" cx="316.5" cy="269.1" rx="0.4" ry="0.6"/>
			</g>
			<g>
				<ellipse fill="#FFFFFF" cx="316.5" cy="269.1" rx="0.5" ry="0.8"/>
				
					<ellipse fill="none" stroke="#000000" stroke-width="1.351588e-002" stroke-miterlimit="10" cx="316.5" cy="269.1" rx="0.5" ry="0.8"/>
			</g>
			<g>
				<ellipse fill="#FFFFFF" cx="316.5" cy="269.1" rx="0.7" ry="1.1"/>
				
					<ellipse fill="none" stroke="#000000" stroke-width="1.875180e-002" stroke-miterlimit="10" cx="316.5" cy="269.1" rx="0.7" ry="1.1"/>
			</g>
			<g>
				<ellipse fill="#FFFFFF" cx="316.5" cy="269.1" rx="1" ry="1.4"/>
				
					<ellipse fill="none" stroke="#000000" stroke-width="2.601607e-002" stroke-miterlimit="10" cx="316.5" cy="269.1" rx="1" ry="1.4"/>
			</g>
			<g>
				<ellipse fill="#FFFFFF" cx="316.5" cy="269.1" rx="1.5" ry="2"/>
				
					<ellipse fill="none" stroke="#000000" stroke-width="3.609445e-002" stroke-miterlimit="10" cx="316.5" cy="269.1" rx="1.5" ry="2"/>
			</g>
			<g>
				<ellipse fill="#FFFFFF" cx="316.5" cy="269.1" rx="2.1" ry="2.7"/>
				
					<ellipse fill="none" stroke="#000000" stroke-width="5.007710e-002" stroke-miterlimit="10" cx="316.5" cy="269.1" rx="2.1" ry="2.7"/>
			</g>
			<g>
				<ellipse fill="#FFFFFF" cx="316.5" cy="269.1" rx="3" ry="3.6"/>
				
					<ellipse fill="none" stroke="#000000" stroke-width="6.947650e-002" stroke-miterlimit="10" cx="316.5" cy="269.1" rx="3" ry="3.6"/>
			</g>
			<g>
				<ellipse fill="#FFFFFF" cx="316.5" cy="269.1" rx="4.2" ry="4.9"/>
				
					<ellipse fill="none" stroke="#000000" stroke-width="9.639104e-002" stroke-miterlimit="10" cx="316.5" cy="269.1" rx="4.2" ry="4.9"/>
			</g>
			<g>
				<ellipse fill="#FFFFFF" cx="316.5" cy="269.1" rx="5.9" ry="6.7"/>
				<ellipse fill="none" stroke="#000000" stroke-width="0.1337" stroke-miterlimit="10" cx="316.5" cy="269.1" rx="5.9" ry="6.7"/>
			</g>
			<g>
				<ellipse fill="#FFFFFF" cx="316.5" cy="269.1" rx="8.4" ry="9.1"/>
				<ellipse fill="none" stroke="#000000" stroke-width="0.1855" stroke-miterlimit="10" cx="316.5" cy="269.1" rx="8.4" ry="9.1"/>
			</g>
			<g>
				<ellipse fill="#FFFFFF" cx="316.5" cy="269.1" rx="11.9" ry="12.4"/>
				
					<ellipse fill="none" stroke="#000000" stroke-width="0.2574" stroke-miterlimit="10" cx="316.5" cy="269.1" rx="11.9" ry="12.4"/>
			</g>
			<g>
				<ellipse fill="#FFFFFF" cx="316.5" cy="269.1" rx="16.8" ry="16.9"/>
				
					<ellipse fill="none" stroke="#000000" stroke-width="0.3571" stroke-miterlimit="10" cx="316.5" cy="269.1" rx="16.8" ry="16.9"/>
			</g>
			<g>
				<ellipse fill="#FFFFFF" cx="316.5" cy="269.1" rx="23.8" ry="23"/>
				<ellipse fill="none" stroke="#000000" stroke-width="0.4955" stroke-miterlimit="10" cx="316.5" cy="269.1" rx="23.8" ry="23"/>
			</g>
			<g>
				<ellipse fill="#FFFFFF" cx="316.5" cy="269.1" rx="33.7" ry="31.3"/>
				
					<ellipse fill="none" stroke="#000000" stroke-width="0.6874" stroke-miterlimit="10" cx="316.5" cy="269.1" rx="33.7" ry="31.3"/>
			</g>
			<g>
				<ellipse fill="#FFFFFF" cx="316.5" cy="269.1" rx="47.6" ry="42.5"/>
				
					<ellipse fill="none" stroke="#000000" stroke-width="0.9537" stroke-miterlimit="10" cx="316.5" cy="269.1" rx="47.6" ry="42.5"/>
			</g>
		</g>
		<g>
			<g>
				<ellipse cx="316.5" cy="269.1" rx="0.3" ry="0.5"/>
				
					<ellipse fill="none" stroke="#000000" stroke-width="8.601415e-003" stroke-miterlimit="10" cx="316.5" cy="269.1" rx="0.3" ry="0.5"/>
			</g>
			<g>
				<ellipse cx="316.5" cy="269.1" rx="0.5" ry="0.7"/>
				
					<ellipse fill="none" stroke="#000000" stroke-width="1.174118e-002" stroke-miterlimit="10" cx="316.5" cy="269.1" rx="0.5" ry="0.7"/>
			</g>
			<g>
				<ellipse cx="316.5" cy="269.1" rx="0.6" ry="0.9"/>
				
					<ellipse fill="none" stroke="#000000" stroke-width="1.602706e-002" stroke-miterlimit="10" cx="316.5" cy="269.1" rx="0.6" ry="0.9"/>
			</g>
			<g>
				<ellipse cx="316.5" cy="269.1" rx="0.9" ry="1.2"/>
				
					<ellipse fill="none" stroke="#000000" stroke-width="2.187740e-002" stroke-miterlimit="10" cx="316.5" cy="269.1" rx="0.9" ry="1.2"/>
			</g>
			<g>
				<ellipse cx="316.5" cy="269.1" rx="1.2" ry="1.6"/>
				
					<ellipse fill="none" stroke="#000000" stroke-width="2.986329e-002" stroke-miterlimit="10" cx="316.5" cy="269.1" rx="1.2" ry="1.6"/>
			</g>
			<g>
				<ellipse cx="316.5" cy="269.1" rx="1.7" ry="2.2"/>
				
					<ellipse fill="none" stroke="#000000" stroke-width="4.076426e-002" stroke-miterlimit="10" cx="316.5" cy="269.1" rx="1.7" ry="2.2"/>
			</g>
			<g>
				<ellipse cx="316.5" cy="269.1" rx="2.4" ry="2.9"/>
				
					<ellipse fill="none" stroke="#000000" stroke-width="5.564442e-002" stroke-miterlimit="10" cx="316.5" cy="269.1" rx="2.4" ry="2.9"/>
			</g>
			<g>
				<ellipse cx="316.5" cy="269.1" rx="3.3" ry="3.9"/>
				
					<ellipse fill="none" stroke="#000000" stroke-width="7.595625e-002" stroke-miterlimit="10" cx="316.5" cy="269.1" rx="3.3" ry="3.9"/>
			</g>
			<g>
				<ellipse cx="316.5" cy="269.1" rx="4.5" ry="5.3"/>
				<ellipse fill="none" stroke="#000000" stroke-width="0.1037" stroke-miterlimit="10" cx="316.5" cy="269.1" rx="4.5" ry="5.3"/>
			</g>
			<g>
				<ellipse cx="316.5" cy="269.1" rx="6.3" ry="7.1"/>
				<ellipse fill="none" stroke="#000000" stroke-width="0.1415" stroke-miterlimit="10" cx="316.5" cy="269.1" rx="6.3" ry="7.1"/>
			</g>
			<g>
				<ellipse cx="316.5" cy="269.1" rx="8.8" ry="9.5"/>
				<ellipse fill="none" stroke="#000000" stroke-width="0.1932" stroke-miterlimit="10" cx="316.5" cy="269.1" rx="8.8" ry="9.5"/>
			</g>
			<g>
				<ellipse cx="316.5" cy="269.1" rx="12.2" ry="12.7"/>
				
					<ellipse fill="none" stroke="#000000" stroke-width="0.2637" stroke-miterlimit="10" cx="316.5" cy="269.1" rx="12.2" ry="12.7"/>
			</g>
			<g>
				<ellipse cx="316.5" cy="269.1" rx="17" ry="17"/>
				<ellipse fill="none" stroke="#000000" stroke-width="0.36" stroke-miterlimit="10" cx="316.5" cy="269.1" rx="17" ry="17"/>
			</g>
			<g>
				<ellipse cx="316.5" cy="269.1" rx="23.6" ry="22.7"/>
				
					<ellipse fill="none" stroke="#000000" stroke-width="0.4914" stroke-miterlimit="10" cx="316.5" cy="269.1" rx="23.6" ry="22.7"/>
			</g>
			<g>
				<ellipse cx="316.5" cy="269.1" rx="32.9" ry="30.5"/>
				
					<ellipse fill="none" stroke="#000000" stroke-width="0.6707" stroke-miterlimit="10" cx="316.5" cy="269.1" rx="32.9" ry="30.5"/>
			</g>
			<g>
				<ellipse cx="316.5" cy="269.1" rx="45.7" ry="40.8"/>
				
					<ellipse fill="none" stroke="#000000" stroke-width="0.9156" stroke-miterlimit="10" cx="316.5" cy="269.1" rx="45.7" ry="40.8"/>
			</g>
		</g>
		<ellipse fill="none" stroke="#000000" stroke-width="1.1984" stroke-miterlimit="10" cx="316.6" cy="269.1" rx="53.8" ry="49.6"/>
		<circle stroke="#FFFFFF" stroke-width="1.0115" stroke-miterlimit="10" cx="314.6" cy="269.1" r="9.2"/>
		<g>
			<path fill="#FFFFFF" d="M135.2,329.8c0,9.5-7.7,17.2-17.2,17.2h-6.1c-9.5,0-17.2-7.7-17.2-17.2V214.7c0-9.5,7.7-17.2,17.2-17.2
				h6.1c9.5,0,17.2,7.7,17.2,17.2V329.8z"/>
			<g>
				<path d="M133.8,330c-0.2,5.4-2.4,10.4-6.9,13.6c-4,2.8-8.5,2.7-13.1,2.6c-9.7-0.1-17.3-6.7-17.6-16.6c-0.2-5.9,0-11.9,0-17.8
					c0-25.5,0-51,0-76.4c0-6.9-0.2-13.7,0-20.6c0.2-9.1,6.5-16.2,15.9-16.5c8.8-0.3,17.4,1.7,20.8,11c2.1,5.9,1,13.7,1,19.8
					c0,12.1,0,24.2,0,36.4C133.8,286.9,133.8,308.5,133.8,330c0,1.2,2.8,0.6,2.8-0.3c0-21.3,0-42.7,0-64c0-13.2,0-26.3,0-39.5
					c0-8.1,1.3-17.3-4.7-23.7c-9.3-10-30.8-7.6-36.8,4.9c-3.2,6.7-1.7,16.7-1.7,23.9c0,27.7,0,55.4,0,83.2c0,8.9-1.9,20.6,4.7,27.7
					c5.4,5.8,13.6,6.3,21.1,5.7c9.6-0.8,17.1-8.4,17.4-18.1C136.6,328.4,133.8,329,133.8,330z"/>
			</g>
		</g>
		<g>
			<path fill="#5ACAED" d="M172.5,177.7c0,2.8-13.4,0-24.1,0s-25.1,2.8-25.1,0c0-2.8,14.4-10.3,25.1-10.3S172.5,174.8,172.5,177.7z"
				/>
			<g>
				<path d="M171.1,177.9c-0.3,1.3-21.8-0.9-24.4-0.9c-4.5,0.1-9.1,0.6-13.6,1c-2,0.1-9.8,1.4-7.5-1.9c1.8-2.7,7-4.3,9.9-5.4
					c5.1-1.9,10.6-3.1,16.1-2.3c4.2,0.6,8.4,2.1,12.3,4c2,1,6.7,3,7.2,5.7c0.1,0.8,3,0.1,2.8-0.7c-0.6-3.4-6.9-5.8-9.5-7
					c-5.2-2.3-11-3.8-16.7-3.6c-5.4,0.2-10.8,1.9-15.7,4c-2.5,1.1-8.6,3.3-9.7,6.3c-0.9,2.6,2.4,2.6,4.3,2.6
					c6.6,0.1,13.2-1.1,19.8-1.2c6.9-0.1,13.7,1.1,20.6,1.2c1.8,0,6.3,0.3,6.9-2.1C174.1,176.6,171.3,177,171.1,177.9z"/>
			</g>
		</g>
	</g>
	<circle fill="#FFFFFF" stroke="#000000" stroke-width="0.9656" stroke-miterlimit="10" cx="235.1" cy="198.4" r="7.5"/>
</g>
</svg>
