<?xml version="1.0" encoding="utf-8"?>
<!-- Generator: Adobe Illustrator 18.1.1, SVG Export Plug-In . SVG Version: 6.00 Build 0)  -->
<svg version="1.1" id="Layer_1" xmlns="http://www.w3.org/2000/svg" xmlns:xlink="http://www.w3.org/1999/xlink" x="0px" y="0px"
	 viewBox="0 0 500 500" enable-background="new 0 0 500 500" xml:space="preserve">
<g>
	<circle fill="#C8EAF5" cx="250" cy="250" r="226.5"/>
</g>
<g>
	<g>
		<g>
			<path fill="#FFFFFF" d="M396.2,377.8c2.5-53.3-10-107.9-39.4-157.2c-26.7-44.7-63.8-79.3-106.4-102.6L103,382L396.2,377.8z"/>
			<g>
				<path d="M397.3,376.5c3.7-83.4-30.2-165.7-92.1-221.8c-16.4-14.9-34.5-27.7-53.9-38.4c-0.6-0.3-1.4,1.2-1.5,1.5
					c-16.6,29.7-33.2,59.4-49.8,89.1c-26.5,47.4-52.9,94.7-79.4,142.1c-6.1,10.9-12.2,21.8-18.3,32.8c-0.2,0.3-1,2.1-0.1,2.1
					c33.1-0.5,66.3-0.9,99.4-1.4c52.6-0.7,105.1-1.5,157.7-2.2c12-0.2,24.1-0.3,36.1-0.5c1,0,2.4-3.6,1.4-3.6
					c-33.1,0.5-66.3,0.9-99.4,1.4c-52.6,0.7-105.1,1.5-157.7,2.2c-12,0.2-24.1,0.3-36.1,0.5c0,0.7-0.1,1.4-0.1,2.1
					c16.6-29.7,33.2-59.4,49.8-89.1c26.5-47.4,52.9-94.7,79.4-142.1c6.1-10.9,12.2-21.8,18.3-32.8c-0.5,0.5-1,1-1.5,1.5
					c71.6,39.4,123.7,109.3,140.2,189.4c4.7,23,6.5,46.5,5.4,70C395.1,380.3,397.3,377.4,397.3,376.5z"/>
			</g>
		</g>
	</g>
	<g>
		<g>
			<path d="M255.4,123.3c-3-6.4-10.8,1.9-13,4.8c-2.8,3.7-5.3,8.6-3.9,13.3c1.3,4.7,6.2,8.4,10.6,9.9c1.7,0.6,3.6,0.9,5.4,1.1
				c2.8,0.3,4.9,0.7,3.7,3.9c-1.6,4.5-2.1,8.2,1.4,12c7.2,8,19.6,12.1,29.3,7c-1-0.3-2.1-0.7-3.1-1c-3.1,2.8-5.5,6.5-6.7,10.6
				c-1.4,4.9,0.3,8.3,3.5,12c2.8,3.3,5.3,7.5,8.9,10.1c4.5,3.2,11,4.9,16.5,5.5c0.7,0.1,6.4-0.2,6.7,0.4c0.8,1.5-2.6,5.5-3.3,6.6
				c-3,4.4-3.7,8.9-1.4,14c3.8,8.1,10.7,11.6,18.6,14.1c1.9,0.6,3.9,1.2,5.7,2c2,0.9,2.7,1.1,2.1,3.1c-0.4,1.4-1.7,2.7-2.1,4.1
				c-0.9,2.6-0.8,6.1-0.3,8.8c1.7,10.3,11.8,13.7,18.9,19.5c2.1,1.8,4,3.8,3.1,6.8c-0.6,2.2-2.3,4.1-3.1,6.3
				c-1.6,4.7-1.7,11.2,0.5,15.9c1.4,2.9,3.8,5,6.5,6.6c2.7,1.7,9.9,4.1,11,7.3c0.7,2-2.5,4.9-3.6,6.6c-1.6,2.4-2.8,4.8-3.3,7.6
				c-1,5.7,0.8,11.8,3.5,16.8c1.1,2,2.6,3.8,3.8,5.8c2.2,3.3,3.2,7,5.1,10.5c1.6,3,4.2,5.7,7.7,6.3c9.1,1.4,8.6-8.1,10.8-13.9
				c1-2.6,2.2-5.1,2.9-7.8c0.7-2.8,0.5-5.8,0.7-8.7c0.4-5.6,1.2-11.1-0.3-16.6c-1.6-6.1-4.8-11.9-3.9-18.4c0.8-5.7,3.3-10,1.2-15.9
				c-2-5.8-4.9-11.3-6.1-17.4c-1.2-6.2-1.2-12.4-3-18.6c-1.7-5.7-4.7-10.8-7.2-16.2c-2.6-5.6-4.5-12-8.2-17
				c-2.9-3.9-7.2-6.4-10.8-9.7c-4.8-4.5-8.8-10.1-12.3-15.6c-6.4-10-6.7-22.7-17-30c-5.2-3.6-11-5.9-16.5-8.8
				c-6.1-3.2-9.3-7.9-12.2-13.9c-2.5-5-4.8-10.1-9.4-13.4c-5.6-4.1-12.5-5.8-18.1-10c-9.2-6.8-17-14.4-28.8-8.5
				c-2.7,1.4-0.2,2.7,1.7,1.8c8.2-4.1,14.2,1.5,20.3,6.3c4.9,3.9,10.1,6.5,15.7,9.2c6.2,3,9.8,6.9,12.9,13
				c2.5,4.9,4.5,10.2,8.8,13.9c8.1,7.1,20.2,8.3,27.2,17.1c3.8,4.7,4.6,11,6.7,16.4c2.2,5.6,5.9,10.8,9.4,15.6
				c3.5,4.7,7.4,8.7,11.9,12.3c5.6,4.4,8.4,9.3,11.3,15.8c5.4,12.2,11.3,22.8,12.6,36.3c0.6,6.4,2.5,12.2,4.9,18.1
				c1,2.5,2.3,4.9,2.7,7.5c0.6,3.8-1,7-1.8,10.6c-1.2,5.6,0.3,10.7,2.1,15.9c2.4,7.1,2.4,13.2,1.8,20.7c-0.3,3.7-0.2,7.3-1.4,10.9
				c-1,2.9-2.5,5.6-3.2,8.6c-0.7,3,0,9.2-4.9,7.3c-3.4-1.3-4.7-6.1-6-9c-2.9-6.8-8.2-12.1-10-19.4c-0.9-3.7-1-7.8,0.5-11.4
				c1.5-3.8,4.5-6.8,6.5-10.3c0.2-0.3,0.2-0.6,0-0.9c-4.1-4.7-9.9-6.3-14.6-10.2c-6.8-5.6-5.7-15.9-2.2-22.9c1.3-2.5,2.3-4.6,1-7.4
				c-1.4-2.8-4.5-4.6-7.1-6.2c-6.6-4.1-13.9-9.1-14.6-17.6c-0.2-2.5-0.1-5.2,0.9-7.5c0.5-1.2,1.5-2.2,1.9-3.4c0.5-1.6,0.6-2-0.8-3.2
				c-4-3.4-10.4-3.5-15-5.7c-6.7-3.2-14.7-12.6-11.5-20.5c1.1-2.6,9.2-10.8,3.4-12.2c-1.1-0.3-2.5,0-3.6-0.1
				c-3.3-0.1-6.6-0.6-9.7-1.6c-5.5-1.6-9.4-4.1-12.9-8.6c-2.5-3.3-7.1-6.9-7.7-11.2c-0.8-5,2.9-10.7,6.4-13.9c1.9-1.8-2.3-1.4-3.1-1
				c-6.5,3.4-13.4-0.7-18.6-4.2c-3.3-2.2-6.9-5.3-6.6-9.7c0.3-3.7,4.9-8.4-0.5-9.8c-2.3-0.6-4.8-0.3-7.2-0.9
				c-4.3-1.1-9.4-4.7-10.6-9.2c-1.1-3.9,0.7-8,2.9-11.1c0.9-1.3,4.6-6.2,5.3-4.6C251.8,125.9,256,124.5,255.4,123.3L255.4,123.3z"/>
		</g>
	</g>
	<g>
		<circle fill="#F04D5D" cx="240.3" cy="233.2" r="25.8"/>
		<g>
			<path d="M263.8,233.8c-0.4,14.2-12.2,26.8-27.1,23.8c-11.6-2.4-20.1-13.2-20-25c0-14.2,12.5-26.8,27.1-23.8
				C255.7,211.4,263.5,222,263.8,233.8c0,0.7,4.5,0.1,4.4-1.2c-0.7-25.4-32.8-34.4-49.1-16.5c-8.3,9.1-9.2,23.1-1.8,33
				c6.6,8.9,17.9,12.4,28.5,10c12.8-2.9,22.1-13.2,22.5-26.5C268.3,232,263.9,232.5,263.8,233.8z"/>
		</g>
	</g>
	<g>
		<circle fill="#F04D5D" cx="165" cy="342" r="16.6"/>
		<g>
			<path d="M180.2,342.4c-0.4,10.2-9.8,18.8-20.3,14.4c-6-2.5-10-8.6-10-15.2c0-10.3,10-18.7,20.3-14.4
				C176.4,329.9,179.9,335.8,180.2,342.4c0,0.4,2.9,0,2.9-0.8c-0.4-10.6-9.6-18.1-20.1-16.5c-8.6,1.3-16,8.2-15.9,17.3
				c0.1,22.8,35.1,21,36-0.8C183.1,341.3,180.2,341.6,180.2,342.4z"/>
		</g>
	</g>
	<g>
		<circle fill="#82C670" cx="268.8" cy="283.4" r="6.4"/>
		<g>
			<path d="M273.2,283.6c-0.1,2.4-1.6,5.1-4.4,4.8c-2.5-0.3-4.4-2.7-4.4-5.2c0-2.3,1.5-4.8,4-4.8C271.2,278.4,273.1,281,273.2,283.6
				c0.1,2,4,1.3,3.9-0.3c-0.5-10.2-16.5-9.6-16.6,0.3c-0.2,10.3,16.1,9.5,16.6-0.3C277.2,281.3,273.3,281.9,273.2,283.6z"/>
		</g>
	</g>
	<g>
		<circle fill="#82C670" cx="290.3" cy="247.5" r="6.4"/>
		<g>
			<path d="M294.7,247.7c-0.1,2.5-1.6,5.5-4.6,5c-2.5-0.5-4.2-3.1-4.2-5.6c0-2.7,2-5.6,5.1-4.7c2.4,0.8,3.7,3.1,3.8,5.6
				c0.1,1.2,3.9,0.4,3.8-1c-0.5-9.9-16.6-8.5-16.6,0.9c0,10,16.1,8.6,16.6-0.6C298.7,245.7,294.8,246.5,294.7,247.7z"/>
		</g>
	</g>
	<g>
		<circle fill="#82C670" cx="317.5" cy="268.5" r="6.4"/>
		<g>
			<path d="M322,269.1c-0.2,2.9-2,6.1-5.3,4.7c-2.2-1-3.7-3.3-3.6-5.7c0-2.6,1.8-5.8,4.7-4.8C320.4,264,321.8,266.4,322,269.1
				c0,0.5,3.9-0.1,3.8-1c-0.5-9.7-16.6-7.9-16.6,1c0,9.8,16.1,7.8,16.6-1C325.8,267.6,322,268,322,269.1z"/>
		</g>
	</g>
	<g>
		<circle fill="#F04D5D" cx="329.3" cy="302.6" r="16.6"/>
		<g>
			<path d="M344.5,303c-0.4,9.7-8.9,18.3-19.2,14.8c-6.6-2.2-11.1-8.6-11.1-15.6c0-9.8,9.2-18.2,19.2-14.8
				C340.2,289.7,344.2,296,344.5,303c0,0.5,2.9,0,2.9-0.8c-0.4-10.6-9.6-18.1-20.1-16.6c-8.7,1.2-16,8.3-15.9,17.3
				c0.1,22.8,35.1,21.1,36-0.8C347.3,301.8,344.5,302.1,344.5,303z"/>
		</g>
	</g>
	<g>
		<g>
			<path fill="#F58457" d="M213.5,304.7c-1.8-1.5-3.7-2.8-5.6-3.9l-7,7.1c-0.7,0.7-1.1,1.7-1,2.7c0,1,0.5,2,1.3,2.6l5.8,4.9
				c0.8,0.7,1.8,1,2.8,0.8c1-0.1,1.9-0.7,2.5-1.5l5.8-8.1C216.7,307.8,215.2,306.2,213.5,304.7L213.5,304.7z M213.5,304.7"/>
			<g>
				<path d="M215.2,304c-1.9-1.5-3.8-2.8-5.8-4.1c-0.8-0.5-2.5,0-3.1,0.6c-2.3,2.3-4.8,4.6-7,7.1c-3.7,4.4,1.1,7.3,4.2,9.9
					c3.3,2.7,7.3,3.6,10.5,0c2.1-2.5,3.9-5.4,5.8-8.1c0.2-0.2,0.2-0.5,0-0.8C218.4,307,216.9,305.4,215.2,304
					c-1-0.9-4.6,0.6-3.6,1.5c1.2,1,3.1,2.4,3.8,3.7c0.8,1.5,0.8-0.6,0.3,1c-0.4,1.4-2.1,3-3,4.1c-0.5,0.7-1.5,2.7-2.3,3.1
					c-1.7,0.8-3.3-1.3-4.4-2.2c-2.8-2.3-5.8-4.5-2.7-8c1.9-2.1,4-4.1,6-6.1c-1,0.2-2,0.4-3.1,0.6c1.9,1.1,3.6,2.3,5.3,3.7
					C212.7,306.3,216.3,304.8,215.2,304z"/>
				<path d="M212.7,305.8c1.4,0,4.1-2.1,1.5-2.1C212.8,303.6,210.1,305.8,212.7,305.8L212.7,305.8z"/>
			</g>
		</g>
		<g>
			<path fill="#F58457" d="M227.5,288.3c-9.1-7.7-23.3-5.7-29.1,1.1c-2.4,2.8-1.8,4.7,0.3,6.5c3,2.5,9.1,4.9,14.4,9.3
				c5.3,4.5,8.6,10.1,11.6,12.6c2.1,1.8,4.1,2,6.5-0.8C237.1,310.3,236.6,296,227.5,288.3L227.5,288.3z M220.3,292.1"/>
			<g>
				<path d="M229.4,287.6c-7.9-6.2-19.3-6.7-28-1.8c-3.3,1.8-8.4,5.9-5.3,9.9c1.6,2.1,4.5,3.3,6.6,4.5c3.3,1.9,6.5,3.8,9.3,6.3
					c5.7,5,13.6,20.5,21.7,9.7C240.2,307.5,236.9,294.4,229.4,287.6c-0.8-0.7-4.3,0.7-3.6,1.4c5.8,5.2,8.6,13.3,7,21
					c-0.7,3.5-2.6,9.4-6.9,6.6c-3-2-5.3-6.4-7.8-9c-3.1-3.2-6.6-5.7-10.5-7.9c-2.6-1.5-8.3-3.6-8.7-7c-0.3-2.3,2.8-4.8,4.5-5.9
					c2.4-1.6,5.4-2.3,8.3-2.4c5.2-0.2,10.1,1.6,14.1,4.7C226.6,289.7,230,288.2,229.4,287.6z"/>
				<path d="M219.5,292.9c1.1,0,4.2-1.7,1.6-1.7C220,291.2,216.9,292.9,219.5,292.9L219.5,292.9z"/>
			</g>
		</g>
	</g>
	<g>
		<g>
			<path fill="#F58457" d="M318.6,348.4c-1.1,0.8-2.1,1.7-3,2.6l3,4.9c0.3,0.5,0.8,0.9,1.4,1c0.6,0.1,1.2,0,1.7-0.4l3.5-2.5
				c0.5-0.3,0.8-0.9,0.9-1.5c0.1-0.6-0.1-1.2-0.5-1.6l-3.7-4.4C320.8,347,319.7,347.6,318.6,348.4L318.6,348.4z M318.6,348.4"/>
			<g>
				<path d="M317.9,348c-1.1,0.8-2.2,1.7-3.2,2.7c-0.2,0.2-0.3,0.4-0.1,0.7c1,1.6,1.8,3.4,3,4.9c1.8,2.3,4.4,0.9,6.2-0.5
					c1.8-1.3,4.5-2.8,2.8-5.4c-1-1.6-2.5-3-3.7-4.4c-0.3-0.4-1.1-0.2-1.5,0C320.2,346.6,319,347.3,317.9,348
					c-1.2,0.8,0.7,1.2,1.4,0.7c1-0.7,2-1.3,3.1-1.8c-0.5,0-1,0-1.5,0c1,1.2,2,2.4,3,3.5c0.5,0.6,1.2,1.3,1.1,2.2
					c-0.1,1-1.3,1.6-2.1,2.1c-0.5,0.3-1.3,1.3-1.9,1.4c-1,0.2-1.6-1-1.9-1.7c-0.8-1.3-1.6-2.6-2.4-3.9c0,0.2-0.1,0.4-0.1,0.7
					c0.9-0.9,1.8-1.7,2.8-2.4C320.5,347.9,318.6,347.5,317.9,348z"/>
				<path d="M318.2,349.1c0.9,0,2.3-1.3,0.8-1.3C318.1,347.7,316.7,349.1,318.2,349.1L318.2,349.1z"/>
			</g>
		</g>
		<g>
			<path fill="#F58457" d="M311.4,338.2c-5.6,4-6.5,12.2-3.5,16.5c1.3,1.7,2.4,1.7,3.7,0.8c1.8-1.3,4-4.4,7.3-6.8
				c3.3-2.3,6.9-3.4,8.7-4.7c1.3-0.9,1.7-2,0.5-3.8C325.1,335.9,317,334.2,311.4,338.2L311.4,338.2z M312.5,342.8"/>
			<g>
				<path d="M310.5,338.1c-4.6,3.6-7.8,11.6-3.8,16.8c3.6,4.7,8.6-2.5,11.1-4.7c3.2-2.9,7.6-3.7,10.8-6.4c2.5-2.1,0.6-4.5-1.5-6.1
					C322.2,334.2,315.4,335,310.5,338.1c-0.9,0.6,1.3,0.4,1.7,0.1c3.9-2.5,9-2.3,12.8,0.3c0.8,0.6,1.5,1.2,2,2.1
					c1.1,2,0.3,2.8-1.5,4c-3.5,2.1-7,3.3-10.1,6.2c-1,0.9-3.3,4.3-4.7,4.6c-1.9,0.4-2.9-3.1-3.2-4.6c-0.9-4.7,1-9.6,4.7-12.5
					C313.1,337.5,310.9,337.8,310.5,338.1z"/>
				<path d="M312,343.3c0.7,0,2.4-1,0.9-1C312.3,342.3,310.5,343.3,312,343.3L312,343.3z"/>
			</g>
		</g>
	</g>
	<ellipse fill="#FFFFFF" cx="222.7" cy="223.4" rx="2.8" ry="2.8"/>
	<ellipse fill="#FFFFFF" cx="226.8" cy="240.5" rx="2.8" ry="2.8"/>
	<ellipse fill="#FFFFFF" cx="237.5" cy="253.8" rx="2.8" ry="2.8"/>
	<ellipse fill="#FFFFFF" cx="165" cy="331.5" rx="2.8" ry="2.8"/>
	<ellipse fill="#FFFFFF" cx="175.4" cy="338.1" rx="2.8" ry="2.8"/>
	<ellipse fill="#FFFFFF" cx="172.6" cy="349.2" rx="2.8" ry="2.8"/>
	<ellipse fill="#FFFFFF" cx="159.9" cy="352" rx="2.8" ry="2.8"/>
	<ellipse fill="#FFFFFF" cx="154.3" cy="340.8" rx="2.8" ry="2.8"/>
	<ellipse fill="#FFFFFF" cx="164" cy="340.8" rx="2.8" ry="2.8"/>
	<ellipse fill="#FFFFFF" cx="324.2" cy="301.3" rx="2.8" ry="2.8"/>
	<ellipse fill="#FFFFFF" cx="320.3" cy="309.9" rx="2.8" ry="2.8"/>
	<ellipse fill="#FFFFFF" cx="333.9" cy="292.2" rx="2.8" ry="2.8"/>
	<ellipse fill="#FFFFFF" cx="339.4" cy="301.9" rx="2.8" ry="2.8"/>
	<ellipse fill="#FFFFFF" cx="330.2" cy="311.9" rx="2.8" ry="2.8"/>
	<ellipse fill="#FFFFFF" cx="324.2" cy="291" rx="2.8" ry="2.8"/>
	<ellipse fill="#FFFFFF" cx="247.6" cy="247.2" rx="2.8" ry="2.8"/>
	<ellipse fill="#FFFFFF" cx="242.9" cy="233.7" rx="2.8" ry="2.8"/>
	<ellipse fill="#FFFFFF" cx="254.5" cy="228.2" rx="2.8" ry="2.8"/>
	<ellipse fill="#FFFFFF" cx="239.5" cy="215.5" rx="2.8" ry="2.8"/>
	<ellipse fill="#FFFFFF" cx="257.3" cy="237.7" rx="2.8" ry="2.8"/>
	<g>
		<path fill="#82C670" d="M181,290.3c-0.7,1-3.1,0.5-5.3-1.1l0,0c-2.3-1.6-3.6-3.6-2.9-4.6l17.3-25.1c0.7-1,3.1-0.5,5.3,1.1l0,0
			c2.3,1.6,3.6,3.6,2.9,4.6L181,290.3z"/>
		<g>
			<path d="M179.8,289.5c-1.5,1.1-5.2-3.9-5-5.1c0.1-0.7,1.1-1.6,1.5-2.2c1.9-2.8,3.9-5.6,5.8-8.4c2.1-3.1,4.3-6.2,6.4-9.3
				c0.8-1.1,1.5-2.2,2.3-3.3c0.2-0.3,0.4-0.8,0.7-1c0.8-0.5,0-0.1,0.2-0.1c0.4-0.1,4.3,2.9,4.4,4.2c0.2,2,0.3,0.2,0,1.2
				c-0.2,0.7-1.2,1.8-1.6,2.4c-2,2.8-3.9,5.7-5.9,8.5c-3.2,4.6-6.3,9.2-9.5,13.8c-1.1,1.6,2.8,1.5,3.6,0.3c3.5-5,6.9-10,10.4-15
				c2.2-3.2,9.1-9.5,6.2-13.6c-1.9-2.7-6.8-5.3-10-3.4c-1.5,0.8-2.4,2.7-3.3,4.1c-4.4,6.4-8.9,12.8-13.3,19.3
				c-1.2,1.8-2.7,3.1-1.8,5.3c1.5,3.8,7.7,6.4,11.2,4C184.4,289.5,181.2,288.6,179.8,289.5z"/>
		</g>
	</g>
	<g>
		<path fill="#82C670" d="M262.4,357.2c0,1.2-2.2,2.2-5,2.2l0,0c-2.8,0-5-0.9-5-2.1l-0.3-30.5c0-1.2,2.2-2.2,5-2.2l0,0
			c2.8,0,5,0.9,5,2.1L262.4,357.2z"/>
		<g>
			<path d="M260.6,357.1c-1.6,4.4-5.8,0.8-6.3-0.9c-0.3-1,0-2.4,0-3.4c0-3.3-0.1-6.6-0.1-9.8c0-3.7-0.1-7.4-0.1-11.1
				c0-1.1-0.2-2.4,0-3.5c0.3-2.1-1.1-1.5,2.4-1.9c4.6-0.4,3.7,1.4,3.7,4.9c0,3.4,0.1,6.9,0.1,10.3c0,5.2,0.1,10.5,0.1,15.7
				c0,1.9,3.9,1.2,3.9-0.4c-0.1-6.2-0.1-12.5-0.2-18.7c0-3.7,1.8-12.4-2.4-14.3c-2.8-1.2-9.1-1.3-11.1,1.8c-1,1.5-0.5,3.9-0.4,5.6
				c0.1,7.7,0.1,15.4,0.2,23c0,2.3-0.4,4.1,1.8,5.3c3.1,1.8,10.6,1.5,12-2.4C265,355.4,261.1,355.6,260.6,357.1z"/>
		</g>
	</g>
</g>
</svg>
