<?xml version="1.0" encoding="utf-8"?>
<!-- Generator: Adobe Illustrator 18.1.1, SVG Export Plug-In . SVG Version: 6.00 Build 0)  -->
<svg version="1.1" id="Layer_1" xmlns="http://www.w3.org/2000/svg" xmlns:xlink="http://www.w3.org/1999/xlink" x="0px" y="0px"
	 viewBox="0 0 500 500" enable-background="new 0 0 500 500" xml:space="preserve">
<circle fill="#F9C3D2" cx="250" cy="250" r="226.5"/>
<g>
	<g>
		<circle fill="#176C82" cx="246" cy="250" r="139.4"/>
		<g>
			<path d="M383.7,250.2c-0.3,57.1-35.9,109.6-89.7,129.7c-54.7,20.4-117.9,2.5-154.6-42.6c-36.1-44.4-41-108.5-11.9-157.9
				c29.7-50.4,89.6-77,146.9-64.6c55.2,11.9,98.7,57.9,107.6,113.7C383.1,235.6,383.6,242.9,383.7,250.2c0,1.5,3.4,0.9,3.4-0.4
				c-0.3-58.8-37.7-112.3-93.2-132.1c-55.1-19.7-118.6-2.2-156.2,42.6c-38,45.3-43.3,111.6-12.7,162.3c30.5,50.6,91,76.7,148.7,65.1
				c56.7-11.4,102.2-57.9,111.6-115.1c1.2-7.5,1.8-15.1,1.8-22.7C387.1,248.3,383.7,249,383.7,250.2z"/>
		</g>
	</g>
	<g>
		<path fill="#5ACAED" d="M263.6,119.4c-34.8,45.7-72.6,70.4-99.6,83.2c-16.3,7.8-30.5,12.2-40.7,14.7c-0.7,3-1.2,6.1-1.7,9.1
			c10.7-2.4,26.6-7,45.6-16c28.6-13.6,69.1-39.9,105.7-89.4C269.9,120.4,266.8,119.8,263.6,119.4z"/>
		<path fill="#5ACAED" d="M177.8,249.8c37.8-16.7,91.1-49,139.1-110.2c-3.1-2.1-6.4-4.1-9.7-5.9C261,192.2,210,223.2,173.8,239.3
			c-20.9,9.3-39.2,14.6-52.7,17.7c0.4,3.8,0.9,7.6,1.6,11.3C136.7,265.1,155.8,259.5,177.8,249.8z"/>
		<path fill="#5ACAED" d="M334,153.4c-47.4,64.3-101.1,97.6-138.6,114.3c-30.3,13.5-55.1,18.6-67.1,20.5c3.1,8.3,7,16.3,11.8,23.8
			c14.8-2.8,37.5-8.6,64.5-20.5c39.8-17.5,96.2-52,146.3-118.1C346,166.2,340.3,159.5,334,153.4z"/>
		<path fill="#5ACAED" d="M371,222.8c-0.9-5.4-2.2-10.8-3.9-16c-48.3,65.4-103.1,99.2-141.5,116.2c-24.3,10.8-45.1,16.3-58.9,19
			c4.4,3.6,9.1,6.9,14,9.9c13.3-3.3,30.3-8.6,49.5-17.1C268.5,318.1,322.4,285.2,371,222.8z"/>
		<path fill="#5ACAED" d="M265.9,349.7c-22.4,9.9-41.2,14.4-52.6,16.4c1.4,0.4,2.9,0.8,4.4,1.1c5.6,1.3,11.1,2.2,16.6,2.8
			c9.9-2.8,21.6-6.7,34.6-12.4c26.2-11.5,61.4-32,95.5-67.9c2-5.2,3.7-10.7,5-16.3c0.2-0.9,0.4-1.7,0.6-2.6
			C333.4,313.7,294.3,337.2,265.9,349.7z"/>
	</g>
	<g>
		<path fill="#FBDA01" d="M385.4,238c0,1.3-0.3,2.8-0.3,4.1c0,0.8,0.9,2.7,0.7,3.3c24,5.9,35.5,11.9,35.5,20.2
			c0,19-76.5,34.4-171,34.4s-171-15.4-171-34.4c0-6.8,9.9-13.1,26.7-18.4c0-0.3-0.1-0.6-0.1-0.9c-0.1-1.9,0-4.1,0.2-6.2
			c-38.5,7.5-62.5,18.1-62.5,29.8c0,23,92.5,41.6,206.7,41.6s206.7-18.6,206.7-41.6C457.1,257,430.6,245.6,385.4,238z"/>
		<g>
			<path d="M383.4,238.5c-0.1,2.8,0.2,4.8,0.4,7.5c0.1,0.1,0.2,0.2,0.4,0.3c8.3,2.1,16.9,4.3,24.6,8.1c4,2,8.8,4.8,10.2,9.3
				c2,6.6-5,11.2-10,13.9c-10.2,5.4-21.8,8.2-32.9,10.6c-16,3.5-32.3,5.7-48.7,7.3c-40.7,4.1-81.8,4.6-122.6,2.3
				c-32-1.8-65.1-4.8-95.9-14.2c-8.4-2.6-19.1-5.8-25-12.7c-10.4-12.3,15.3-20.7,22.9-23.2c0.4-0.1,1.4-0.5,1.3-1
				c-0.3-2.4-0.1-4.8,0.1-7.1c0-0.5-1.5-0.3-1.7-0.2c-12.8,2.5-25.6,5.5-38,10c-7.6,2.8-15.6,6-21.7,11.5
				c-8.1,7.3-5.4,15.4,2.7,21.1c11.8,8.5,27.4,12.3,41.3,15.6c22.6,5.4,45.8,8.5,68.9,10.7c58.8,5.7,118.5,5.7,177.3,0.2
				c23.1-2.2,46.3-5.3,68.9-10.4c14.5-3.3,29.9-7.2,42.7-15.2c8.6-5.4,14.5-13.9,5.9-22.5c-6.2-6.1-15.2-9.5-23.2-12.4
				c-14.3-5-29.3-8.1-44.3-10.6c-1-0.2-4.5,1.4-3.3,1.6c9.4,1.6,91.8,16.5,66.9,40c-9.3,8.7-23.8,12.4-35.8,15.5
				c-20.6,5.5-41.8,8.6-63,11c-54.8,6.2-110.5,6.8-165.5,3.1c-24.1-1.6-48.1-4.1-71.9-8.4c-16.7-3-33.8-6.6-49.4-13.3
				c-7-3-21.6-9.5-19-19.5c1.9-7.3,11.1-11.5,17.3-14.2c13.5-5.9,28.1-9.3,42.5-12.1c-0.6-0.1-1.1-0.2-1.7-0.2
				c-0.2,2.4-0.4,4.8-0.1,7.1c0.4-0.3,0.9-0.7,1.3-1c-7.6,2.5-30.7,9.1-27.8,21.2c1.7,7,11.1,10.9,16.9,13.4
				c12.5,5.2,25.9,8.1,39.2,10.6c18.5,3.4,37.3,5.5,56.1,6.9c45.1,3.4,90.8,3,135.8-1.5c17.3-1.7,34.5-4.1,51.4-7.9
				c11.6-2.6,23.6-5.6,34.2-11.2c5.6-3,14.4-8.5,11.5-16.2c-2.1-5.6-8.9-8.6-14-10.7c-4.1-1.7-8.4-3.1-12.7-4.3
				c-2.2-0.6-6.9-0.9-8.3-2.7c-1.3-1.7-0.5-4.9-0.4-6.8C387.5,236.8,383.4,237.3,383.4,238.5z"/>
		</g>
	</g>
	<g>
		<path fill="#5ACAED" d="M383.8,226.3c0.2,2,1,4.9,1.1,6.9c24,5.9,35.6,12.8,35.6,21c0,19-76.5,34.4-171,34.4s-171-15.4-171-34.4
			c0-6.9,10.7-13.5,27.9-18.8c0.4-2.5-0.9-4.5-0.2-6.9c-39.8,7.6-63.5,18-63.5,29.9c0,23,92.5,41.6,206.7,41.6
			s206.7-18.6,206.7-41.6C456.3,245.6,429.4,233.9,383.8,226.3z"/>
		<g>
			<path d="M381.8,226.8c0.3,2.3,0.9,4.6,1.1,6.9c0,0.3,0.6,0.4,0.8,0.5c8.3,2.1,16.9,4.4,24.5,8.5c4.1,2.1,9.1,5.3,10.1,10.2
				c1.4,6.5-5.7,10.8-10.5,13.3c-10.1,5.2-21.5,8-32.5,10.4c-15.7,3.4-31.6,5.6-47.6,7.3c-40.3,4.1-81.1,4.7-121.5,2.6
				c-32.4-1.7-65.9-4.6-97.1-14c-8.6-2.6-19.6-5.8-25.8-12.8c-10.8-12.3,15.9-20.9,23.5-23.3c0.4-0.1,1.7-0.5,1.8-1.2
				c0.1-2.3-0.6-4.6-0.2-6.9c0.1-0.8-1.2-0.8-1.7-0.7c-12.8,2.5-25.6,5.3-37.9,9.7c-7.8,2.7-16.2,6.1-22.5,11.7
				c-7.7,6.9-6.2,15,1.5,20.9c11.4,8.7,26.7,12.6,40.4,15.9c22.7,5.6,46,8.8,69.2,11.1c58.9,5.8,118.8,5.9,177.8,0.5
				c23.5-2.2,47-5.2,70.1-10.5c14.7-3.4,30.6-7.3,43.4-15.7c8.7-5.7,13.4-14.4,4.6-22.7c-6.7-6.3-16.2-9.9-24.8-12.8
				c-14.1-4.7-28.7-7.8-43.3-10.2c-1.2-0.2-4.7,1.7-2.5,2.1c13,2.2,26,4.8,38.7,8.8c8.3,2.6,16.9,5.6,24.1,10.5
				c8.2,5.5,12.2,13.8,3.8,21.1c-9.7,8.5-24.2,12.1-36.3,15.2c-20.4,5.3-41.4,8.4-62.4,10.8c-54.8,6.2-110.5,6.8-165.4,3.1
				c-24-1.6-48.1-4.1-71.8-8.4c-16.7-3-33.7-6.6-49.3-13.3c-7.1-3.1-22.3-10-18.4-20.3c2.7-7.2,12.2-11.2,18.7-13.9
				c13.3-5.5,27.7-8.7,41.8-11.4c-0.6-0.2-1.1-0.5-1.7-0.7c-0.4,2.4,0.3,4.5,0.2,6.9c0.6-0.4,1.2-0.8,1.8-1.2
				c-8.2,2.6-16.8,5.5-23.7,10.9c-3.3,2.5-6.7,6.3-5.8,10.8C78,263,86.8,267,92.5,269.5c12.1,5.3,25.3,8.3,38.2,10.7
				c18.7,3.6,37.7,5.7,56.6,7.2c44.8,3.4,90.1,3.2,134.8-1c17.8-1.7,35.5-4.1,53-7.8c11.8-2.6,24-5.6,34.8-11.2
				c5.7-2.9,14.6-8.4,12.3-16.2c-1.6-5.5-7.5-8.8-12.3-11.1c-4.2-2-8.7-3.6-13.1-5c-2.3-0.7-4.7-1.2-7-2c-3.6-1.3-3.4-3.7-3.9-7.4
				C385.7,224.5,381.6,225.4,381.8,226.8z"/>
		</g>
	</g>
	<g>
		<path fill="#7F2571" d="M383.5,223.6c0.3,2.2,0.5,4.4,0.6,6.5c18.5,5.3,29.3,11.8,29.3,18.8c0,18.3-73.6,33.1-164.4,33.1
			S84.8,267.2,84.8,248.9c0-6.3,6.6-11.9,21.8-16.9c0.6-2.6,0.5-5.4,1.5-7.8c-37.5,7.3-57.7,17.5-57.7,28.8c0,22.1,89,40,198.7,40
			s198.7-17.9,198.7-40C447.8,241.4,423.1,230.9,383.5,223.6z"/>
		<g>
			<path d="M381.8,224.3c0.3,2.2,0.5,4.4,0.6,6.5c0,0.3,0.2,0.8,0.6,0.9c7.7,2.3,15.7,4.8,22.4,9.3c3.1,2.1,7.3,5.7,6.1,9.9
				c-1.6,5.8-10.3,9-15.1,11c-24.7,10.1-52.9,13-79.2,15.4c-37.7,3.4-75.7,3.8-113.4,1.6c-29.9-1.8-60.6-4.5-89.4-13
				c-8.3-2.5-18.4-5.4-24.8-11.7c-10.5-10.4,9.5-18,17.1-20.6c0.8-0.3,1.5-1.1,1.6-1.9c0.5-2.5,0.6-5,1.4-7.4c0.3-0.9,0-2.1-1.2-1.9
				c-12.3,2.4-24.6,5.3-36.2,9.9c-6.7,2.6-13.9,5.9-18.9,11.2c-6.6,6.9-5.4,14.9,1.8,20.7c10.4,8.2,24.5,11.9,37.1,15.1
				c21.5,5.5,43.5,8.6,65.5,10.9c55.8,5.8,112.5,6,168.4,1.2c23.3-2,46.6-4.9,69.4-9.9c14.4-3.2,29.7-6.9,42.5-14.5
				c7.5-4.5,15.7-12.8,9-21.6c-4.9-6.5-13.8-10.1-21.1-12.9c-13.4-5.1-27.5-8.2-41.6-10.8c-1.7-0.3-3.7,3-1.5,3.4
				c12.3,2.3,24.5,5,36.3,9c7.5,2.6,15.7,5.6,21.9,10.8c8,6.9,4.8,13.6-2.9,18.6c-11.3,7.2-25.3,10.7-38.2,13.7
				c-19.9,4.6-40.2,7.5-60.6,9.5c-51.9,5.3-104.5,5.7-156.4,2c-22.2-1.6-44.4-4-66.3-8c-15.7-2.9-31.7-6.3-46.5-12.6
				c-6.5-2.8-20.8-9.1-17.6-18.5c2.3-6.8,11.5-10.7,17.5-13.3c12-5.1,24.9-8,37.7-10.6c-0.4-0.6-0.8-1.2-1.2-1.9
				c-0.9,2.7-1.2,5.5-1.7,8.3c0.5-0.6,1.1-1.2,1.6-1.9c-8.1,2.8-25.7,8.9-23.3,20.7c1.3,6.4,8.9,10.2,14.2,12.6
				c10.9,5,22.9,7.8,34.7,10.2c17.4,3.5,35,5.6,52.7,7.1c42.1,3.5,84.6,3.6,126.7,0.1c17.7-1.5,35.4-3.6,52.9-7.1
				c11.9-2.4,24-5.2,35-10.2c5.9-2.7,14.6-7,15.7-14.3c0.8-5-3.2-8.9-6.9-11.5c-3.5-2.4-7.3-4.2-11.2-5.7c-2.4-0.9-4.8-1.8-7.2-2.6
				c-4.4-1.4-4-2.8-4.5-7C385,220.6,381.6,222.5,381.8,224.3z"/>
		</g>
	</g>
</g>
</svg>
