<?xml version="1.0" encoding="utf-8"?>
<!-- Generator: Adobe Illustrator 18.1.1, SVG Export Plug-In . SVG Version: 6.00 Build 0)  -->
<svg version="1.1" id="Layer_1" xmlns="http://www.w3.org/2000/svg" xmlns:xlink="http://www.w3.org/1999/xlink" x="0px" y="0px"
	 viewBox="0 0 500 500" enable-background="new 0 0 500 500" xml:space="preserve">
<g>
	<circle fill="#FFFAC0" cx="250" cy="250" r="226.5"/>
</g>
<g>
	<g>
		<path fill="#A594C7" d="M354.5,326.3l-28.2,28.2c-8,8-21.1,8-29,0L145.5,202.8c-8-8-8-21.1,0-29l28.2-28.2c8-8,21.1-8,29,0
			l151.8,151.8C362.5,305.2,362.5,318.3,354.5,326.3z"/>
		<g>
			<path d="M352.9,326.7c-7.2,7.2-14.4,14.4-21.5,21.5c-3.1,3.1-6.3,7-10,9.4c-7.5,4.8-16.7,1.9-22.6-3.7
				c-9.6-9.1-18.8-18.8-28.2-28.2c-35.2-35.2-70.3-70.3-105.5-105.5c-4.9-4.9-9.8-9.8-14.7-14.7c-5.5-5.5-10-11.4-9.1-19.8
				c1.1-11.2,13.3-19.9,20.7-27.3c4-4,8-8,12-12c1.2-1.1,2.3-2.2,3.6-3.2c5.6-4.2,12.9-4,19-0.7c3.9,2.1,7,5.9,10.1,9
				c5.6,5.6,11.2,11.2,16.8,16.8c17.7,17.7,35.4,35.4,53.1,53.1c17.8,17.8,35.5,35.5,53.3,53.3c5.7,5.7,11.4,11.4,17.1,17.1
				c2.9,2.9,6.4,5.8,8.6,9.2C360.9,309.3,359.4,319.7,352.9,326.7c0.6-0.6,2.6-0.1,3.3-0.9c8.8-9.5,7-22.1-1.7-30.7
				c-4.5-4.5-9-9-13.5-13.5c-17.4-17.4-34.8-34.8-52.3-52.3c-19-19-38.1-38.1-57.1-57.1c-9.1-9.1-17.9-18.5-27.2-27.2
				c-9.7-9.1-24.4-6.9-33.4,1.9c-8.4,8.3-16.7,16.7-25.1,25.1c-9,9-11.2,21.8-1.7,31.5c3.4,3.5,6.9,6.9,10.4,10.4
				c35.8,35.8,71.6,71.6,107.4,107.4c11,11,21.9,22.1,33,33c7.9,7.8,20.3,8.5,29.5,2.5c3.5-2.3,6.3-5.7,9.2-8.6
				c4.8-4.8,9.6-9.6,14.5-14.5c2.7-2.7,5.3-5.3,8-8C355.5,326.5,353.6,326,352.9,326.7z"/>
		</g>
	</g>
	<g>
		<path fill="#7D76B7" d="M145.5,326.3l28.2,28.2c8,8,21.1,8,29,0l151.8-151.8c8-8,8-21.1,0-29l-28.2-28.2c-8-8-21.1-8-29,0
			L145.5,297.2C137.5,305.2,137.5,318.3,145.5,326.3z"/>
		<g>
			<path d="M143.8,326.7c7.6,7.6,15.1,15.1,22.7,22.7c3.5,3.5,6.8,7.5,11.3,9.6c5.8,2.7,12,2.2,17.9,0.2c5.7-1.9,9.3-5.8,13.3-9.9
				c5.7-5.7,11.4-11.4,17.2-17.2c36.7-36.7,73.3-73.3,110-110c5.4-5.4,10.8-10.8,16.2-16.2c5.6-5.6,10.5-11.5,9.6-20.3
				c-0.6-6.3-4.1-10.7-8.4-15c-4.5-4.5-8.9-8.9-13.4-13.4c-8.5-8.5-16.9-20.2-30.4-18.1c-13.1,2.1-21.9,14.2-30.8,23.1
				c-17.7,17.7-35.3,35.3-53,53c-18.9,18.9-37.8,37.8-56.6,56.6c-6.3,6.3-12.6,12.6-18.8,18.8c-2.9,2.9-6.2,5.7-8.7,8.9
				C135.7,308.1,137,319.3,143.8,326.7c0.4,0.5,3-1.2,3.3-0.9c-8.7-9.3-7.1-21.9,1.4-30.5c4.1-4.1,8.3-8.3,12.4-12.4
				c16.2-16.2,32.4-32.4,48.7-48.7c29.4-29.4,58.7-59.1,88.3-88.3c9-8.9,20.1-6.7,28.4,1.6c8.1,8.1,16.3,16.3,24.4,24.4
				c9,9,11.2,21.6,1.8,31.4c-3,3.1-6.1,6.1-9.2,9.2C309.2,246.8,275,281,240.9,315.2c-12.3,12.3-24.6,24.6-37,37
				c-0.9,0.9-1.8,1.8-2.7,2.7c-7,6.5-16.8,6.7-24.2,0.7c-8.1-6.6-15.2-15-22.5-22.4c-2.4-2.4-4.9-4.9-7.3-7.3
				C146.7,325.4,144.2,327,143.8,326.7z"/>
		</g>
	</g>
	<circle stroke="#000000" stroke-width="1.137" stroke-miterlimit="10" cx="154.3" cy="189.8" r="4.4"/>
	<circle stroke="#000000" stroke-width="1.137" stroke-miterlimit="10" cx="190.2" cy="225.5" r="4.4"/>
	<circle stroke="#000000" stroke-width="1.137" stroke-miterlimit="10" cx="223.4" cy="192.6" r="4.4"/>
	<circle stroke="#000000" stroke-width="1.137" stroke-miterlimit="10" cx="190.2" cy="191.6" r="4.4"/>
	<circle stroke="#000000" stroke-width="1.137" stroke-miterlimit="10" cx="188" cy="156.4" r="4.4"/>
	<circle stroke="#000000" stroke-width="1.137" stroke-miterlimit="10" cx="276.7" cy="307.6" r="4.4"/>
	<circle stroke="#000000" stroke-width="1.137" stroke-miterlimit="10" cx="312.6" cy="343.4" r="4.4"/>
	<circle stroke="#000000" stroke-width="1.137" stroke-miterlimit="10" cx="345.8" cy="310.5" r="4.4"/>
	<circle stroke="#000000" stroke-width="1.137" stroke-miterlimit="10" cx="312.6" cy="309.4" r="4.4"/>
	<circle stroke="#000000" stroke-width="1.137" stroke-miterlimit="10" cx="310.5" cy="274.3" r="4.4"/>
	<circle stroke="#000000" stroke-width="1.137" stroke-miterlimit="10" cx="155.7" cy="306.9" r="4.4"/>
	<circle stroke="#000000" stroke-width="1.137" stroke-miterlimit="10" cx="191.6" cy="342.6" r="4.4"/>
	<circle stroke="#000000" stroke-width="1.137" stroke-miterlimit="10" cx="224.8" cy="309.7" r="4.4"/>
	<circle stroke="#000000" stroke-width="1.137" stroke-miterlimit="10" cx="191.6" cy="308.7" r="4.4"/>
	<circle stroke="#000000" stroke-width="1.137" stroke-miterlimit="10" cx="189.4" cy="273.5" r="4.4"/>
	<circle stroke="#000000" stroke-width="1.137" stroke-miterlimit="10" cx="280.4" cy="187" r="4.4"/>
	<circle stroke="#000000" stroke-width="1.137" stroke-miterlimit="10" cx="316.3" cy="222.7" r="4.4"/>
	<circle stroke="#000000" stroke-width="1.137" stroke-miterlimit="10" cx="349.5" cy="189.9" r="4.4"/>
	<circle stroke="#000000" stroke-width="1.137" stroke-miterlimit="10" cx="316.3" cy="188.8" r="4.4"/>
	<circle stroke="#000000" stroke-width="1.137" stroke-miterlimit="10" cx="314.1" cy="153.7" r="4.4"/>
	<path fill="#7D76B7" stroke="#000000" stroke-width="1.2313" stroke-miterlimit="10" d="M308.2,249.1l-57.4,57.4
		c-1.6,1.6-4.1,1.6-5.7,0l-51.6-51.6c-1.6-1.6-1.6-4.1,0-5.7l57.4-57.4c1.6-1.6,4.1-1.6,5.7,0l51.6,51.6
		C309.8,244.9,309.8,247.5,308.2,249.1z"/>
</g>
</svg>
