<?xml version="1.0" encoding="utf-8"?>
<!-- Generator: Adobe Illustrator 18.1.1, SVG Export Plug-In . SVG Version: 6.00 Build 0)  -->
<svg version="1.1" id="Layer_1" xmlns="http://www.w3.org/2000/svg" xmlns:xlink="http://www.w3.org/1999/xlink" x="0px" y="0px"
	 viewBox="0 0 500 500" enable-background="new 0 0 500 500" xml:space="preserve">
<circle fill="#FFFAC0" cx="250" cy="250" r="226.5"/>
<g>
	<g>
		<path fill="#FFFFFF" d="M356.5,171.7c-0.5-20-16.4-35.8-35.5-35.4c-1.6,0-3.2,0.2-4.8,0.5c-0.4-11.8-10.2-21.1-22-20.8
			c-3.7,0.1-7.1,1.1-10.1,2.8c-3.8-6.7-11-11.1-19.2-10.9c-6.1,0.1-11.6,2.8-15.4,7c-4-5.2-10.4-8.4-17.4-8.2
			c-9.5,0.2-17.5,6.6-20.1,15.3c-0.4,0.1-0.8,0.3-1.3,0.4c-3.7-2.7-8.2-4.2-13.1-4.1c-11.2,0.3-20.2,9-21,20
			c-1.1-0.2-2.3-0.2-3.4-0.2c-11.9,0.3-21.3,10.1-21,22c0.1,3.2,0.9,6.2,2.2,8.9c-6.6,3.8-11,11-10.8,19.2c0.1,5.2,2.1,9.9,5.2,13.6
			c-3,3.8-4.7,8.6-4.6,13.8c0.1,4.1,1.4,8,3.5,11.2c-2,3.7-3.1,7.9-3,12.4c0.3,13.4,11,24,23.8,23.7c6.3-0.1,11.9-2.9,16-7.3
			c4.8,8.3,13.6,13.9,23.6,13.6c11.9-0.3,21.8-8.7,24.9-20c3.7,11.1,14,19,25.9,18.7c14.7-0.4,26.4-13.1,26-28.5
			c0-1-0.1-1.9-0.2-2.9c0.1,0,0.1,0,0.2,0c4.2,6.9,11.7,11.5,20.1,11.3c9.1-0.2,16.9-5.9,20.5-14c2.1,0.6,4.4,0.9,6.7,0.9
			c12.8-0.3,22.9-11.4,22.6-24.8c-0.1-5.7-2.2-11-5.5-15C354,188.5,356.7,180.4,356.5,171.7z"/>
		<g>
			<path d="M357.7,170.4c-0.5-12.6-6.9-24.4-17.9-30.8c-5.3-3.1-11.5-4.7-17.6-4.5c-1.7,0-4.2,0.9-4.9-0.2c-0.6-0.9-0.4-3.4-0.8-4.6
				c-0.8-2.9-2.3-5.6-4.2-7.9c-3.9-4.6-9.6-7.5-15.7-7.7c-3.2-0.1-5.8,0.9-8.9,1.5c-2.4,0.5-2.4,0.5-4.2-1.1c-1.4-1.3-2.5-2.8-4-4
				c-10-7.6-22.2-4.6-30.3,3.8c0.4-0.4,0.9-0.8,1.3-1.2c-12.5-14.9-34.3-7.3-40,9.6c0.8-0.9,1.6-1.7,2.5-2.6
				c-2.4,0.7-5.6-2.2-8.1-2.9c-2.7-0.8-5.6-1-8.4-0.6c-4.3,0.5-8.3,2.3-11.6,5.1c-5.3,4.5-9.1,10.3-9.8,17.3
				c0.8-0.9,1.6-1.7,2.5-2.6c-17.6-1.8-32,16.8-24.7,33.2c0.8-0.8,1.6-1.7,2.4-2.5c-7.5,4.6-13.4,12.6-13.2,21.7
				c0.1,3.3,0.9,6.5,2.4,9.4c0.9,1.8,2.5,3,2,5.3c-0.2,0.8-1.4,2.3-1.7,3c-1.4,3-2.2,6.4-2.1,9.7c0.1,4,2.6,7.4,2.8,11.1
				c0.1,2.9-1.7,6.1-2.1,9.1c-0.4,3.4,0,6.9,1,10.2c1.7,5.5,5.3,10.3,10.1,13.3c10,6.3,21.6,3.3,29.5-4.7c-0.3,0.3-0.7,0.6-1,0.9
				c7,11.5,21,17,33.6,11.3c8.2-3.7,14.7-11.7,17.3-20.2c-0.8,0.9-1.6,1.7-2.5,2.6c5.5,15.4,23.1,23.8,38,15.4
				c10.8-6.1,17.3-18.2,16.1-30.5c-0.8,0.9-1.6,1.7-2.5,2.6c0.6,0,3.9,4.8,4.7,5.4c2.1,1.9,4.5,3.4,7.1,4.4
				c4.9,1.9,10.4,1.9,15.4,0.2c7-2.5,12.8-8.7,16-15.2c-0.8,0.8-1.6,1.7-2.4,2.5c12.3,3,24.6-4.3,29.6-15.7c3.5-8,2-15.6-1.5-23.2
				c-1.3-2.8-1.1-3.4,0.4-5.8c1.2-2.1,2.3-4.3,3.1-6.6C357.2,179.4,357.8,175,357.7,170.4c0,0.7-2.5,1.6-2.5,2.6
				c0,8.4-2.3,16.1-7.2,23c-0.1,0.1-0.1,0.1-0.1,0.2c5.6,7.4,7.1,17,3.4,25.7c-4.2,9.8-15,13.1-24.7,10.7c-0.4-0.1-2.3,2.1-2.4,2.5
				c-4.1,8.6-13.2,12.8-22.4,11.2c-3.2-0.6-6.4-1.9-9.1-3.8c-1.5-1.1-2.9-2.3-4.2-3.7c-0.4-0.5-2.3-3.4-2.7-3.4
				c-0.4,0-2.5,2.2-2.5,2.6c1.4,14.5-7.3,28-22.6,28.8c-12.2,0.6-22.5-7.5-26.5-18.7c0.1,0.2-2.3,2.1-2.5,2.6
				c-6.8,22.3-35,22-46,3.8c0-0.1-1,0.9-1,0.9c-11.5,11.5-30.6,6.4-36.8-7.9c-1.3-3-2-6.2-2-9.4c-0.1-2.2,0.2-4.4,0.7-6.5
				c0.4-1.6,2.3-4.3,2.2-5.8c0-1-1.8-3.4-2.2-4.5c-0.6-1.6-1-3.3-1.2-5c-0.6-5.6,1.1-10.8,4.3-15.3c0.1-0.1,0.1-0.1,0.1-0.2
				c-7.2-8.9-7.5-23.6,3.1-30.2c0.3-0.2,2.6-2.2,2.4-2.5c-2.8-6.3-3-13.4,0.4-19.5c3.9-6.9,11.9-9.4,19.4-8.6c0.4,0,2.4-2.1,2.5-2.6
				c1-10,8.3-17.2,18.5-17.5c4.7-0.1,7.7,1.8,11.9,3.3c2.2,0.8,2.3,0.7,3.8-0.7c1.5-1.4,1.7-3.2,2.7-5c2.8-5.1,7.7-8,13.3-8.8
				c7.8-1.2,15.2,2,20.2,8c0.1,0.1,1.3-1.2,1.3-1.2c9.9-10.2,26.4-6.2,33.3,5c0,0,0,0,0.1,0c8.3-4.4,18.4-3.5,25.3,3.1
				c3.1,2.9,5.3,6.8,6.2,11c0.2,0.8,0.1,1.9,0.4,2.6c0.7,1.8,0.4,1.2,2.5,1c2.4-0.3,4.8-0.2,7.1,0c17.8,2.1,30.1,17.8,30.8,35.1
				C355.3,172.3,357.8,171.3,357.7,170.4z"/>
		</g>
	</g>
	<g>
		<path fill="#FFFFFF" d="M314.4,411.4l-128.7,0.9c-5.1,0-9.6-3.5-10.6-8.6L137,220.6c-1.4-6.7,3.7-12.9,10.5-12.9h204.9
			c6.8,0,11.9,6.3,10.5,13l-38.1,182.2C323.8,407.8,319.5,411.4,314.4,411.4z"/>
		<g>
			<path d="M315,410.3c-24.6,0.2-49.2,0.4-73.8,0.5c-14.8,0.1-29.6,0.2-44.4,0.3c-8.2,0.1-17.8,1.7-20.2-8.8
				c-5.2-23.2-9.7-46.5-14.5-69.7c-6.5-31.3-13-62.5-19.5-93.8c-1.3-6.2-2.9-12.3-3.9-18.6c-2-13.1,11.3-11.4,19.5-11.4
				c29.2,0,58.4,0,87.6,0c30.3,0,60.6,0,90.9,0c5.4,0,14.8-1.6,19.8,1.4c8,4.8,3.4,16.6,1.9,23.8c-6.3,30-12.6,60.1-18.9,90.1
				c-5.3,25.3-10.6,50.7-15.9,76c-1.1,5-2.8,9.8-9.1,10.2c-1.8,0.1-2.8,2.3-0.4,2.2c11.4-0.8,12.5-10.4,14.3-19.2
				c2.7-12.8,5.4-25.6,8-38.4c7.1-34.1,14.2-68.1,21.4-102.2c2.1-9.9,4.2-19.9,6.2-29.8c1.9-9.2-3.1-16.2-12.8-16.3
				c-24.8-0.2-49.7,0-74.6,0c-34,0-68,0-102,0c-8.5,0-16.9-0.1-25.4,0c-10,0.1-15.6,7.2-13.6,16.8c5.4,26.2,10.9,52.4,16.3,78.6
				c6.4,30.7,12.8,61.3,19.1,92c1.8,8.5,2.5,19,13.8,19.5c8.6,0.4,17.4-0.1,26-0.2c32-0.2,63.9-0.5,95.9-0.7c2.3,0,4.5,0,6.8,0
				C315.2,412.5,317.4,410.3,315,410.3z"/>
		</g>
	</g>
	<g>
		<defs>
			<path id="SVGID_5_" d="M314.4,411.4l-128.7,0.9c-5.1,0-9.6-3.5-10.6-8.6L137,220.6c-1.4-6.7,3.7-12.9,10.5-12.9h204.9
				c6.8,0,11.9,6.3,10.5,13l-38.1,182.2C323.8,407.8,319.5,411.4,314.4,411.4z"/>
		</defs>
		<clipPath id="SVGID_2_">
			<use xlink:href="#SVGID_5_"  overflow="visible"/>
		</clipPath>
		<polygon clip-path="url(#SVGID_2_)" fill="#F04D5D" stroke="#000000" stroke-width="1.12" stroke-miterlimit="10" points="
			192.3,412.3 141.6,209.5 162.3,207.7 200.5,408 200.5,412.3 		"/>
		<polygon clip-path="url(#SVGID_2_)" fill="#F04D5D" stroke="#000000" stroke-width="1.12" stroke-miterlimit="10" points="
			208.1,413.3 184.2,205.7 204.9,206.5 216.7,410.1 216.2,414.3 		"/>
		<polygon clip-path="url(#SVGID_2_)" fill="#F04D5D" stroke="#000000" stroke-width="1.12" stroke-miterlimit="10" points="
			226.1,411.3 234.7,202.4 255,206.5 235.2,409.4 234,413.5 		"/>
		<polygon clip-path="url(#SVGID_2_)" fill="#F04D5D" stroke="#000000" stroke-width="1.1432" stroke-miterlimit="10" points="
			255,411.6 278.3,195.6 298.4,200.8 264.2,410.2 262.7,414.3 		"/>
		<polygon clip-path="url(#SVGID_2_)" fill="#F04D5D" stroke="#000000" stroke-width="1.12" stroke-miterlimit="10" points="
			288.4,410.6 308.8,202.6 328.9,207.8 297.5,409.3 296.1,413.3 		"/>
		<path clip-path="url(#SVGID_2_)" fill="#F04D5D" stroke="#000000" stroke-width="1.12" stroke-miterlimit="10" d="M314.7,408.3
			L363,215.1c0.7-3-1.4-6-4.4-6.2l-10.2-0.9c-2.6-0.2-4.9,1.5-5.4,4.1l-37.4,195.9v4.2l4.2,0C312.1,412.1,314.2,410.6,314.7,408.3z"
			/>
	</g>
	<g>
		<g>
			<path fill="#FFFFFF" d="M183.5,200.5c0.8,2.4,2.7,3.9,5,4.6c1.2,2.1,3.6,3.2,5.9,2.4c1-0.3,1.8-1,2.4-1.8c0.7,0,1.5,0,2.2-0.3
				c3.4-1.1,5.3-4.8,4.1-8.3c-0.4-1.2-1.2-2.1-2.1-2.9c0.8-0.9,1.2-2.3,0.8-3.5c-0.6-1.9-2.7-2.9-4.6-2.3c-1,0.3-1.7,1-2.1,1.9
				c-1.7-1.9-4.4-2.8-7-1.9c-3.1,1.1-4.9,4.2-4.3,7.4C183.1,197.1,182.9,198.8,183.5,200.5L183.5,200.5z M183.5,200.5"/>
		</g>
		<g>
			<path d="M182.3,200.8c0.7,1.8,1.8,3,3.4,4c1.5,1,3.1,2.7,4.9,3.2c2.7,0.8,5.4-0.4,7.2-2.4c-0.5,0.2-1,0.4-1.5,0.6
				c2.7-0.1,5.4-1,7-3.3c0.8-1.2,1.3-2.6,1.3-4.1c0-2.2-1.8-3.5-2-5.4c-0.2-1.8,1.1-2.1-0.1-4c-0.6-1-1.6-1.6-2.7-1.8
				c-2.3-0.5-4.6,0.7-5.8,2.6c0.7-0.1,1.4-0.3,2.1-0.4c-2.8-2.7-6.9-3.2-10.2-1.1C182,191,181.4,196.8,182.3,200.8
				c0.2,0.7,2.5,0.2,2.3-0.6c-0.4-1.9-0.1-4.8,0.1-6.8c0.6-4.5,6-5.8,9.1-2.8c0.5,0.5,1.8,0.1,2.1-0.4c2.5-4,5.7,1.3,3.8,3.9
				c-0.1,0.1-0.1,0.3,0,0.4c2.1,2,3.1,4.8,1.7,7.5c-1.1,2-3.4,2.6-5.5,3.2c-1.5,0.4,2.5,0-2.8,0.6c-3.4,0.4-1.9,0.2-3.7-1.2
				c-2.2-1.8-3.6-1.5-4.9-4.5C184.3,199.4,182,200.1,182.3,200.8z"/>
			<path d="M183,201.1c0.8,0,2.5-1.2,0.9-1.2C183.1,199.9,181.5,201.1,183,201.1L183,201.1z"/>
		</g>
	</g>
	<g>
		<g>
			<path fill="#FFFFFF" d="M140.1,200.5c0.8,2.4,2.7,3.9,5,4.6c1.2,2.1,3.6,3.2,5.9,2.4c1-0.3,1.8-1,2.4-1.8c0.7,0,1.5,0,2.2-0.3
				c3.4-1.1,5.3-4.8,4.1-8.3c-0.4-1.2-1.2-2.1-2.1-2.9c0.8-0.9,1.2-2.3,0.8-3.5c-0.6-1.9-2.7-2.9-4.6-2.3c-1,0.3-1.7,1-2.1,1.9
				c-1.7-1.9-4.4-2.8-7-1.9c-3.1,1.1-4.9,4.2-4.3,7.4C139.7,197.1,139.5,198.8,140.1,200.5L140.1,200.5z M140.1,200.5"/>
		</g>
		<g>
			<path d="M138.9,200.8c0.7,1.8,1.8,3,3.4,4c1.5,1,3.1,2.7,4.9,3.2c2.7,0.8,5.4-0.4,7.2-2.4c-0.5,0.2-1,0.4-1.5,0.6
				c2.7-0.1,5.4-1,7-3.3c0.8-1.2,1.3-2.6,1.3-4.1c0-2.2-1.8-3.5-2-5.4c-0.2-1.8,1.1-2.1-0.1-4c-0.6-1-1.6-1.6-2.7-1.8
				c-2.3-0.5-4.6,0.7-5.8,2.6c0.7-0.1,1.4-0.3,2.1-0.4c-2.8-2.7-6.9-3.2-10.2-1.1C138.7,191,138,196.8,138.9,200.8
				c0.2,0.7,2.5,0.2,2.3-0.6c-0.4-1.9-0.1-4.8,0.1-6.8c0.6-4.5,6-5.8,9.1-2.8c0.5,0.5,1.8,0.1,2.1-0.4c2.5-4,5.7,1.3,3.8,3.9
				c-0.1,0.1-0.1,0.3,0,0.4c2.1,2,3.1,4.8,1.7,7.5c-1.1,2-3.4,2.6-5.5,3.2c-1.5,0.4,2.5,0-2.8,0.6c-3.4,0.4-1.9,0.2-3.7-1.2
				c-2.2-1.8-3.6-1.5-4.9-4.5C140.9,199.4,138.7,200.1,138.9,200.8z"/>
			<path d="M139.6,201.1c0.8,0,2.5-1.2,0.9-1.2C139.7,199.9,138.1,201.1,139.6,201.1L139.6,201.1z"/>
		</g>
	</g>
	<g>
		<g>
			<path fill="#FFFFFF" d="M148.8,180.7c0.8,2.4,2.7,3.9,5,4.6c1.2,2.1,3.6,3.2,5.9,2.4c1-0.3,1.8-1,2.4-1.8c0.7,0,1.5,0,2.2-0.3
				c3.4-1.1,5.3-4.8,4.1-8.3c-0.4-1.2-1.2-2.1-2.1-2.9c0.8-0.9,1.2-2.3,0.8-3.5c-0.6-1.9-2.7-2.9-4.6-2.3c-1,0.3-1.7,1-2.1,1.9
				c-1.7-1.9-4.4-2.8-7-1.9c-3.1,1.1-4.9,4.2-4.3,7.4C148.4,177.3,148.2,179,148.8,180.7L148.8,180.7z M148.8,180.7"/>
		</g>
		<g>
			<path d="M147.7,181c0.7,1.8,1.8,3,3.4,4c1.5,1,3.1,2.7,4.9,3.2c2.7,0.8,5.4-0.4,7.2-2.4c-0.5,0.2-1,0.4-1.5,0.6
				c2.7-0.1,5.4-1,7-3.3c0.8-1.2,1.3-2.6,1.3-4.1c0-2.2-1.8-3.5-2-5.4c-0.2-1.8,1.1-2.1-0.1-4c-0.6-1-1.6-1.6-2.7-1.8
				c-2.3-0.5-4.6,0.7-5.8,2.6c0.7-0.1,1.4-0.3,2.1-0.4c-2.8-2.7-6.9-3.2-10.2-1.1C147.4,171.2,146.7,177,147.7,181
				c0.2,0.7,2.5,0.2,2.3-0.6c-0.4-1.9-0.1-4.8,0.1-6.8c0.6-4.5,6-5.8,9.1-2.8c0.5,0.5,1.8,0.1,2.1-0.4c2.5-4,5.7,1.3,3.8,3.9
				c-0.1,0.1-0.1,0.3,0,0.4c2.1,2,3.1,4.8,1.7,7.5c-1.1,2-3.4,2.6-5.5,3.2c-1.5,0.4,2.5,0-2.8,0.6c-3.4,0.4-1.9,0.2-3.7-1.2
				c-2.2-1.8-3.6-1.5-4.9-4.5C149.6,179.6,147.4,180.3,147.7,181z"/>
			<path d="M148.3,181.3c0.8,0,2.5-1.2,0.9-1.2C148.4,180.1,146.8,181.3,148.3,181.3L148.3,181.3z"/>
		</g>
	</g>
	<g>
		<g>
			<path fill="#FFFFFF" d="M199.5,117.4c-2.5,0-4.6,1.4-5.9,3.3c-2.3,0.5-4.1,2.4-4,4.9c0,1.1,0.4,2,1,2.8c-0.2,0.7-0.4,1.4-0.4,2.2
				c0,3.6,3,6.5,6.6,6.4c1.3,0,2.4-0.5,3.4-1.2c0.6,1.1,1.8,1.8,3.1,1.8c2,0,3.6-1.7,3.6-3.7c0-1-0.4-2-1.1-2.6c2.4-1,4-3.4,4-6.1
				c-0.1-3.3-2.6-5.9-5.7-6.3C202.8,118,201.2,117.3,199.5,117.4L199.5,117.4z M199.5,117.4"/>
		</g>
		<g>
			<path d="M199.6,116.8c-3.3,0.3-5,2-7.6,3.9c-3,2.2-3.9,3.5-3.2,7.3c0.6,3.3-0.1,6.3,3.1,8.5c2.8,2,6.1,1.4,8.9-0.2
				c-0.6,0-1.2,0.1-1.8,0.1c1.6,2.1,4.4,2.6,6.7,1.2c1.3-0.8,2.2-2.1,2.2-3.6c0-0.6-0.6-1.6-0.5-2c0.1-1,0-0.3,0.5-1.1
				c1-1.7,2.3-2.3,2.7-4.4c0.3-1.7-0.1-3.4-1.1-4.9c-1.9-2.8-6.6-4.4-9.8-4.7c-0.8-0.1-2.5,1.1-0.9,1.2c1.9,0.2,7.1,2.3,8.3,3.9
				c2.5,3.1,1.1,7.4-2.2,9.2c-0.2,0.1-0.6,0.5-0.4,0.7c0.9,0.9,1.2,2,1,3.3c-2,1.8-3.5,1.9-4.4,0.3c-0.3-0.5-1.4-0.1-1.8,0.1
				c-1.9,1-5.3,0.3-6.7-1.2c-0.6-0.7-1.1-1.6-1.3-2.5c-0.4-1.6,0-3.2-0.3-4.7c-0.3-1.4-0.7-2.1-0.1-3.5c0.5-1.4,1.8-1.6,2.9-2.5
				c1.8-1.4,2.4-2.9,5.3-3.2C200.4,117.8,201.2,116.6,199.6,116.8z"/>
			<path d="M199,118c0.8,0,2.5-1.2,0.9-1.2C199.1,116.7,197.5,118,199,118L199,118z"/>
		</g>
	</g>
	<g>
		<g>
			<path fill="#FFFFFF" d="M248.7,89.3c-2-1.5-4.5-1.8-6.7-1.1c-2.1-1-4.7-0.7-6.2,1.3c-0.7,0.8-0.9,1.8-1,2.8
				c-0.6,0.4-1.2,0.8-1.7,1.5c-2.2,2.8-1.7,7,1.2,9.2c1,0.8,2.2,1.1,3.4,1.2c-0.2,1.2,0.3,2.6,1.3,3.4c1.6,1.2,3.9,0.9,5.1-0.7
				c0.6-0.8,0.9-1.8,0.7-2.7c2.5,0.7,5.2-0.2,6.9-2.3c2-2.6,1.7-6.2-0.6-8.5C250.9,91.8,250.1,90.3,248.7,89.3L248.7,89.3z
				 M248.7,89.3"/>
		</g>
		<g>
			<path d="M249.7,88.8c-2.2-1.4-3.9-1.4-6.4-1.5c-1.8,0-3.6-0.6-5.4,0c-2,0.6-3,1.9-3.9,3.7c-1.2,2.3-3.3,4.1-3.3,6.9
				c-0.1,2.8,1.5,4.8,3.8,6.2c1.2,0.7,1.5,0.5,2.2,1.8c0.5,0.9,0.6,1.6,1.5,2.2c3.3,2.5,8-0.4,7.9-4.3c-0.6,0.3-1.2,0.6-1.9,0.9
				c3.5,0.7,7.5-0.5,9.3-3.9C255.5,97,252.7,91.5,249.7,88.8c-0.6-0.5-2.7,0.4-2.1,0.9c1.6,1.4,2.7,3.8,3.7,5.7
				c1.9,3.7-0.4,9.2-5.7,8.2c-0.6-0.1-1.9,0.2-1.9,0.9c-3.5,2.6-5.1,2.5-4.8-0.4c0-0.3-0.2-0.4-0.4-0.4c-2.7-0.5-4.8-2.1-5.4-4.8
				c-0.7-3.2,1-4.1,2.7-6.4c0.2-0.3,0-0.4,0.2-0.7c0-0.8,0.3-1.5,0.8-2.2c1.4-0.3,2.8-0.5,4.2-0.8c1.8-0.1,6.9,1.2,6.5,1
				C248.3,90.1,250.3,89.2,249.7,88.8z"/>
			<path d="M248.2,89.9c0.8,0,2.5-1.2,0.9-1.2C248.3,88.7,246.7,89.9,248.2,89.9L248.2,89.9z"/>
		</g>
	</g>
	<g>
		<g>
			<path fill="#FFFFFF" d="M288.6,124.7c-0.8-2.4-2.7-3.9-5-4.6c-1.2-2-3.6-3.2-5.9-2.3c-1,0.3-1.8,1-2.4,1.8c-0.7,0-1.5,0-2.2,0.3
				c-3.4,1.1-5.3,4.9-4.1,8.3c0.4,1.2,1.2,2.1,2.2,2.9c-0.8,0.9-1.2,2.3-0.8,3.5c0.7,1.9,2.7,2.9,4.6,2.2c1-0.3,1.7-1,2.1-1.9
				c1.7,1.9,4.5,2.8,7,1.9c3.1-1.1,4.8-4.3,4.2-7.4C289,128,289.1,126.3,288.6,124.7L288.6,124.7z M288.6,124.7"/>
		</g>
		<g>
			<path d="M289.7,124.4c-0.8-1.8-1.8-2.9-3.4-4c-1.5-1-3.1-2.6-4.9-3.2c-2.7-0.8-5.4,0.4-7.2,2.5c0.5-0.2,1-0.4,1.5-0.6
				c-2.7,0.1-5.3,1-7,3.4c-0.8,1.2-1.3,2.7-1.3,4.1c0.1,2.2,1.9,3.5,2.1,5.4c0.2,1.8-1.1,2.1,0.1,4c0.6,1,1.6,1.6,2.7,1.8
				c2.3,0.5,4.6-0.7,5.8-2.6c-0.7,0.1-1.4,0.3-2.1,0.4c2.8,2.7,6.9,3.2,10.2,1C290,134.1,290.6,128.4,289.7,124.4
				c-0.2-0.7-2.5-0.1-2.3,0.6c0.4,1.9,0.2,4.8-0.1,6.8c-0.1,0.9-0.4,2-1,2.7c-2.5,3.5-5.9,2.3-8.1,0.2c-0.5-0.5-1.8-0.1-2.1,0.4
				c-2.5,4-5.7-1.3-3.9-3.9c0.1-0.1,0.1-0.3,0-0.4c-2.1-2-3.1-4.8-1.7-7.5c1-2,3.4-2.7,5.5-3.3c1.5-0.4-2.4,0,2.8-0.6
				c3.4-0.4,1.9-0.2,3.7,1.2c2.2,1.8,3.7,1.5,4.9,4.4C287.7,125.7,290,125,289.7,124.4z"/>
			<path d="M288.1,125.3c0.8,0,2.5-1.2,0.9-1.2C288.2,124.1,286.6,125.3,288.1,125.3L288.1,125.3z"/>
		</g>
	</g>
	<g>
		<g>
			<path fill="#FFFFFF" d="M308.1,179.9c1.1-1.1,1.3-2.6,1-4.1c0.8-1.2,0.7-2.9-0.4-3.9c-0.5-0.5-1.1-0.7-1.7-0.8
				c-0.2-0.4-0.4-0.8-0.8-1.1c-1.6-1.5-4.2-1.5-5.7,0.2c-0.5,0.6-0.8,1.3-1,2c-0.8-0.2-1.6,0-2.2,0.6c-0.9,0.9-0.8,2.3,0.1,3.2
				c0.5,0.4,1.1,0.7,1.7,0.6c-0.6,1.5-0.2,3.2,1,4.4c1.5,1.4,3.7,1.4,5.3,0.2C306.3,181.1,307.3,180.7,308.1,179.9L308.1,179.9z
				 M308.1,179.9"/>
		</g>
		<g>
			<path d="M308.7,179.9c0.7-0.9,1-1.7,1.2-2.8c0.2-1.1,0.5-2.4,0.4-3.5c-0.2-1.9-2.2-2.8-3.5-3.8c-2.9-2.3-7.1-1-8.1,2.6
				c0.4-0.2,0.8-0.3,1.2-0.5c-1.4-0.2-3,0.2-3.7,1.6c-0.9,2,0.7,3.5,2.5,3.6c-0.1-0.1-0.3-0.2-0.4-0.3c-0.8,2.9,1,5.7,4.1,5.7
				C304.4,182.5,307.2,181.3,308.7,179.9c0.5-0.4-0.9-0.4-1.2-0.1c-1.2,1.1-5.1,2.1-6.3,1.3c-1.6-1-2-2.8-1.5-4.6
				c0.1-0.2-0.3-0.3-0.4-0.3c-2.1-0.1-2.8-4-0.3-3.7c0.3,0,1-0.1,1.2-0.5c0.1-0.2,0.1-0.5,0.2-0.7c1.4-0.6,2.8-1.2,4.1-1.8
				c1.1,0.3,1,1.2,1.8,1.7c0.9,0.7,1.9,0.5,2.4,1.7c0.5,1.1-0.1,1.8-0.3,2.8c-0.3,1.6,0.1,2.5-1,4
				C307,180.3,308.4,180.2,308.7,179.9z"/>
			<path d="M307.8,180.3c0.5,0,1.5-0.8,0.6-0.8C307.8,179.5,306.8,180.3,307.8,180.3L307.8,180.3z"/>
		</g>
	</g>
	<g>
		<g>
			<path fill="#FFFFFF" d="M228.1,161.4c-1.2-0.9-2.7-1.1-4-0.6c-1.3-0.6-2.9-0.4-3.8,0.8c-0.4,0.5-0.6,1.1-0.6,1.7
				c-0.4,0.2-0.7,0.5-1,0.9c-1.3,1.7-1,4.2,0.7,5.5c0.6,0.5,1.3,0.7,2.1,0.7c-0.1,0.7,0.2,1.5,0.8,2c1,0.7,2.3,0.6,3.1-0.4
				c0.4-0.5,0.5-1.1,0.4-1.7c1.5,0.4,3.2-0.1,4.2-1.4c1.2-1.6,1-3.8-0.3-5.1C229.4,162.9,228.9,162,228.1,161.4L228.1,161.4z
				 M228.1,161.4"/>
		</g>
		<g>
			<path d="M228.7,161.1c-1.3-0.9-2.4-0.9-3.9-0.9c-1.1,0-2.2-0.3-3.3,0c-1.2,0.4-1.8,1.1-2.4,2.2c-0.7,1.4-2,2.5-2,4.2
				c0,1.7,0.9,2.9,2.3,3.8c0.7,0.4,0.9,0.3,1.3,1.1c0.3,0.5,0.4,1,0.9,1.3c2,1.5,4.8-0.3,4.8-2.6c-0.4,0.2-0.7,0.4-1.1,0.5
				c2.1,0.4,4.5-0.3,5.6-2.3C232.2,166.1,230.5,162.7,228.7,161.1c-0.3-0.3-1.6,0.2-1.3,0.5c0.9,0.9,1.6,2.3,2.2,3.4
				c1.1,2.2-0.2,5.5-3.4,4.9c-0.3-0.1-1.1,0.1-1.1,0.5c-2.1,1.6-3.1,1.5-2.9-0.3c0-0.2-0.1-0.2-0.3-0.3c-1.6-0.3-2.9-1.3-3.2-2.9
				c-0.4-2,0.6-2.5,1.6-3.9c0.1-0.2,0-0.2,0.1-0.4c0-0.5,0.2-0.9,0.5-1.3c0.9-0.2,1.7-0.3,2.6-0.5c1.1-0.1,4.2,0.7,3.9,0.6
				C227.8,161.9,229.1,161.3,228.7,161.1z"/>
			<path d="M227.8,161.7c0.5,0,1.5-0.7,0.6-0.7C227.9,161,226.9,161.7,227.8,161.7L227.8,161.7z"/>
		</g>
	</g>
	<g>
		<g>
			<path fill="#FFFFFF" d="M186.9,176.4c-1.2-0.9-2.7-1.1-4-0.6c-1.3-0.6-2.9-0.4-3.8,0.8c-0.4,0.5-0.6,1.1-0.6,1.7
				c-0.4,0.2-0.7,0.5-1,0.9c-1.3,1.7-1,4.2,0.7,5.5c0.6,0.5,1.3,0.7,2.1,0.7c-0.1,0.7,0.2,1.5,0.8,2c1,0.7,2.3,0.6,3.1-0.4
				c0.4-0.5,0.5-1.1,0.4-1.7c1.5,0.4,3.2-0.1,4.2-1.4c1.2-1.6,1-3.8-0.3-5.1C188.2,177.9,187.7,177,186.9,176.4L186.9,176.4z
				 M186.9,176.4"/>
		</g>
		<g>
			<path d="M187.5,176.1c-1.3-0.9-2.4-0.9-3.9-0.9c-1.1,0-2.2-0.3-3.3,0c-1.2,0.4-1.8,1.1-2.4,2.2c-0.7,1.4-2,2.5-2,4.2
				c0,1.7,0.9,2.9,2.3,3.8c0.7,0.4,0.9,0.3,1.3,1.1c0.3,0.5,0.4,1,0.9,1.3c2,1.5,4.8-0.3,4.8-2.6c-0.4,0.2-0.7,0.4-1.1,0.5
				c2.1,0.4,4.5-0.3,5.6-2.3C191,181.1,189.3,177.7,187.5,176.1c-0.3-0.3-1.6,0.2-1.3,0.5c0.9,0.9,1.6,2.3,2.2,3.4
				c1.1,2.2-0.2,5.5-3.4,4.9c-0.3-0.1-1.1,0.1-1.1,0.5c-2.1,1.6-3.1,1.5-2.9-0.3c0-0.2-0.1-0.2-0.3-0.3c-1.6-0.3-2.9-1.3-3.2-2.9
				c-0.4-2,0.6-2.5,1.6-3.9c0.1-0.2,0-0.2,0.1-0.4c0-0.5,0.2-0.9,0.5-1.3c0.9-0.2,1.7-0.3,2.6-0.5c1.1-0.1,4.2,0.7,3.9,0.6
				C186.6,176.9,187.9,176.3,187.5,176.1z"/>
			<path d="M186.6,176.7c0.5,0,1.5-0.7,0.6-0.7C186.7,176,185.7,176.7,186.6,176.7L186.6,176.7z"/>
		</g>
	</g>
	<g>
		<g>
			<path fill="#FFFFFF" d="M163.2,198.6c0.8,2.4,2.7,3.9,5,4.6c1.2,2.1,3.6,3.2,5.9,2.4c1-0.3,1.8-1,2.4-1.8c0.7,0,1.5,0,2.2-0.3
				c3.4-1.1,5.3-4.8,4.1-8.3c-0.4-1.2-1.2-2.1-2.1-2.9c0.8-0.9,1.2-2.3,0.8-3.5c-0.6-1.9-2.7-2.9-4.6-2.3c-1,0.3-1.7,1-2.1,1.9
				c-1.7-1.9-4.4-2.8-7-1.9c-3.1,1.1-4.9,4.2-4.3,7.4C162.8,195.2,162.6,196.9,163.2,198.6L163.2,198.6z M163.2,198.6"/>
		</g>
		<g>
			<path d="M162.1,198.9c0.7,1.8,1.8,3,3.4,4c1.5,1,3.1,2.7,4.9,3.2c2.7,0.8,5.4-0.4,7.2-2.4c-0.5,0.2-1,0.4-1.5,0.6
				c2.7-0.1,5.4-1,7-3.3c0.8-1.2,1.3-2.6,1.3-4.1c0-2.2-1.8-3.5-2-5.4c-0.2-1.8,1.1-2.1-0.1-4c-0.6-1-1.6-1.6-2.7-1.8
				c-2.3-0.5-4.6,0.7-5.8,2.6c0.7-0.1,1.4-0.3,2.1-0.4c-2.8-2.7-6.9-3.2-10.2-1.1C161.8,189.1,161.1,194.9,162.1,198.9
				c0.2,0.7,2.5,0.2,2.3-0.6c-0.4-1.9-0.1-4.8,0.1-6.8c0.6-4.5,6-5.8,9.1-2.8c0.5,0.5,1.8,0.1,2.1-0.4c2.5-4,5.7,1.3,3.8,3.9
				c-0.1,0.1-0.1,0.3,0,0.4c2.1,2,3.1,4.8,1.7,7.5c-1.1,2-3.4,2.6-5.5,3.2c-1.5,0.4,2.5,0-2.8,0.6c-3.4,0.4-1.9,0.2-3.7-1.2
				c-2.2-1.8-3.6-1.5-4.9-4.5C164,197.5,161.8,198.2,162.1,198.9z"/>
			<path d="M162.7,199.2c0.8,0,2.5-1.2,0.9-1.2C162.8,198,161.2,199.2,162.7,199.2L162.7,199.2z"/>
		</g>
	</g>
</g>
</svg>
