<?xml version="1.0" encoding="utf-8"?>
<!-- Generator: Adobe Illustrator 18.1.1, SVG Export Plug-In . SVG Version: 6.00 Build 0)  -->
<svg version="1.1" id="Layer_1" xmlns="http://www.w3.org/2000/svg" xmlns:xlink="http://www.w3.org/1999/xlink" x="0px" y="0px"
	 viewBox="0 0 500 500" enable-background="new 0 0 500 500" xml:space="preserve">
<circle fill="#FFFAC0" cx="250" cy="250" r="226.5"/>
<g>
	<defs>
		<rect id="SVGID_1_" x="-14.5" y="116.1" width="499" height="203.8"/>
	</defs>
	<clipPath id="SVGID_2_">
		<use xlink:href="#SVGID_1_"  overflow="visible"/>
	</clipPath>
	<g clip-path="url(#SVGID_2_)">
		<g>
			<path fill="#F04D5D" d="M251.4,140.4c-89.7,0-162.3,72.7-162.3,162.3c0,89.7,72.7,162.3,162.3,162.3
				c89.7,0,162.3-72.7,162.3-162.3C413.8,213.1,341.1,140.4,251.4,140.4z M248,365.9c-35.2,0-63.6-28.5-63.6-63.6
				s28.5-63.6,63.6-63.6c35.2,0,63.6,28.5,63.6,63.6S283.2,365.9,248,365.9z"/>
			<g>
				<path d="M252.2,139.5c-67.3,0.3-129.6,41.9-154,104.9c-25.1,64.9-5,140.7,48.9,184.7c52.6,43,128.6,48.5,187.2,14.3
					c59.1-34.5,91.2-104,78.5-171.4c-12.6-67-68-120.3-135.3-130.6C269.1,140.1,260.6,139.6,252.2,139.5c-1.2,0-3.8,1.8-1.5,1.8
					c66.7,0.3,127.7,42.7,151.1,105.2c23.4,62.8,4.8,135.6-46.1,179.3c-52.2,44.8-129.2,50.7-187.7,14.6
					c-56.6-34.9-86.6-102.7-74.3-168.1C106,207,159.2,154,225,143.4c8.5-1.4,17.1-2,25.7-2.1C251.9,141.3,254.6,139.5,252.2,139.5z"
					/>
				<path d="M248.7,365c-25.8-0.3-49.3-16.5-58.5-40.6c-9-23.6-2.8-51.1,15.7-68.4c20.1-18.9,50.9-21.6,74.2-7
					c21.2,13.3,32.8,38.5,29,63.2C304.6,342,278.9,364.7,248.7,365c-1.2,0-3.8,1.8-1.5,1.8c26.1-0.3,50.6-15.4,61-39.7
					c11.1-26,3.4-57-18.5-74.8c-20.6-16.8-50.1-18.9-73.3-6.3c-24.1,13.2-37.7,40.6-33,67.8c5.4,30.9,32.8,52.7,63.8,53.1
					C248.5,366.8,251.1,365.1,248.7,365z"/>
			</g>
		</g>
		<g>
			<path fill="#F58457" d="M251.4,164.8c-76.2,0-138,61.8-138,138c0,76.2,61.8,138,138,138c76.2,0,138-61.8,138-138
				C389.4,226.5,327.6,164.8,251.4,164.8z M248.5,356.4c-29.9,0-54.1-24.2-54.1-54.1s24.2-54.1,54.1-54.1
				c29.9,0,54.1,24.2,54.1,54.1S278.4,356.4,248.5,356.4z"/>
			<g>
				<path d="M252.2,163.9c-57,0.3-109.9,35.2-130.9,88.5c-21.8,55.3-4.8,120.2,41.1,157.8c44.7,36.6,109.3,41.3,159.2,12.4
					c50.5-29.3,78-88.3,67.3-145.8c-10.7-57.3-58-102.6-115.5-111.3C266.3,164.4,259.2,163.9,252.2,163.9c-1.2,0-3.8,1.8-1.5,1.8
					c56.6,0.3,108.5,36.3,128.3,89.4c19.7,53.1,4.2,114.6-38.6,151.7c-44.3,38.4-109.9,43.5-159.8,12.7
					c-47.8-29.5-73.2-86.6-63.2-141.9c10.1-55.8,55.4-101.2,111.6-110.3c7.2-1.2,14.4-1.7,21.7-1.7
					C251.9,165.6,254.6,163.9,252.2,163.9z"/>
				<path d="M249.2,355.6c-21.9-0.3-41.7-14-49.5-34.5c-7.7-20.3-2.2-43.9,13.8-58.6c17.1-15.6,43-17.5,62.5-5.1
					c17.7,11.4,27.4,32.6,24.2,53.4C296.4,336,274.8,355.2,249.2,355.6c-1.2,0-3.8,1.8-1.5,1.8c22.2-0.3,43.1-13,52.1-33.6
					c9.6-22,3.2-48.5-15.3-63.8c-17.6-14.5-43-16.4-62.9-5.6c-20.5,11.1-32.1,34.3-28.3,57.4c4.4,26.6,27.9,45.3,54.4,45.6
					C249,357.3,251.6,355.6,249.2,355.6z"/>
			</g>
		</g>
		<g>
			<path fill="#FBDA01" d="M251.4,185.5c-64.8,0-117.3,52.5-117.3,117.3c0,64.8,52.5,117.3,117.3,117.3
				c64.8,0,117.3-52.5,117.3-117.3C368.7,238,316.2,185.5,251.4,185.5z M249,348.4c-25.4,0-46-20.6-46-46s20.6-46,46-46
				c25.4,0,46,20.6,46,46S274.4,348.4,249,348.4z"/>
			<g>
				<path d="M252,184.8c-48.3,0.3-93,29.8-110.9,74.9C122.4,306.8,136.8,362,176,394c37.7,30.8,92.1,35,134.3,10.9
					c43.2-24.6,66.8-74.9,57.8-123.9c-8.9-48.7-49-87.4-97.9-94.9C264.2,185.3,258.1,184.9,252,184.8c-0.9,0-2.8,1.3-1.1,1.3
					c48.1,0.3,92.1,30.6,109,75.7c17,45.1,3.9,97.4-32.3,129.1c-37.7,33-93.8,37.6-136.4,11.3c-40.6-25-62.3-73.3-54-120.3
					c8.4-47.5,46.9-86.4,94.7-94.3c6.3-1,12.6-1.5,19-1.6C251.8,186.1,253.7,184.8,252,184.8z"/>
				<path d="M249.5,347.7c-18.5-0.3-35.4-11.7-42.1-29c-6.5-16.7-2.5-36.2,10.2-48.9c14.4-14.4,37.2-16.8,54.5-6
					c15.3,9.6,23.8,27.8,21.1,45.7C289.9,331.1,271.3,347.4,249.5,347.7c-0.8,0-2.8,1.3-1.1,1.3c18.8-0.3,36.3-10.9,43.9-28.3
					c8.4-19,2.6-41.9-13.6-54.8c-14.7-11.7-35.5-13.2-52.1-4.5c-17.4,9.2-27.4,28.7-24.5,48.2c3.4,22.8,23.5,39,46.2,39.4
					C249.3,349,251.2,347.8,249.5,347.7z"/>
			</g>
		</g>
		<g>
			<path fill="#82C670" d="M251.4,203c-55.1,0-99.7,44.6-99.7,99.7c0,55.1,44.6,99.7,99.7,99.7c55.1,0,99.7-44.6,99.7-99.7
				C351.1,247.7,306.5,203,251.4,203z M249.3,341.5c-21.6,0-39.1-17.5-39.1-39.1c0-21.6,17.5-39.1,39.1-39.1
				c21.6,0,39.1,17.5,39.1,39.1C288.4,324,270.9,341.5,249.3,341.5z"/>
			<g>
				<path d="M252.2,202.2c-41.2,0.3-79.5,25.1-95,63.6c-16.2,40.1-4,87.3,29.4,114.7c32.3,26.5,78.9,30,115.1,9.4
					c36.9-20.9,57.2-63.7,49.6-105.5C342.7,236.8,300.1,202.5,252.2,202.2c-1.2,0-3.8,1.8-1.5,1.8c40.8,0.3,78.1,26.2,92.4,64.5
					c14.2,38.1,3.2,82.3-27.4,109.1c-31.8,27.9-79.3,31.6-115.2,9.3c-34.1-21.2-52.4-62-45.5-101.6c8.1-46.3,48.7-81,95.7-81.3
					C251.9,203.9,254.6,202.1,252.2,202.2z"/>
				<path d="M250.1,340.7c-15.4-0.3-29.4-9.7-35.2-24.1c-5.6-14-2.5-30.5,8-41.3c12-12.4,31.3-14.3,45.8-5.1
					c12.5,8,19.5,22.7,17.6,37.4C284.1,326,268.7,340.3,250.1,340.7c-1.2,0-3.8,1.8-1.5,1.8c16.3-0.3,31.6-9.3,38.3-24.4
					c7.1-16,2.4-35.4-11.1-46.5c-12.8-10.5-31.2-11.7-45.7-4.1c-14.8,7.9-23.6,24.3-21.2,41c2.8,19.8,20.2,33.6,39.8,34
					C249.8,342.4,252.4,340.7,250.1,340.7z"/>
			</g>
		</g>
		<g>
			<path fill="#5ACAED" d="M251.4,218c-46.8,0-84.7,37.9-84.7,84.7c0,46.8,37.9,84.7,84.7,84.7c46.8,0,84.7-37.9,84.7-84.7
				C336.2,255.9,298.2,218,251.4,218z M249.6,335.7c-18.3,0-33.2-14.9-33.2-33.2c0-18.3,14.9-33.2,33.2-33.2
				c18.3,0,33.2,14.9,33.2,33.2C282.9,320.8,268,335.7,249.6,335.7z"/>
			<g>
				<path d="M252.2,217.1c-35.1,0.3-67.8,21.3-81.1,54.1c-13.9,34.4-3.3,74.9,25.5,98.2c27.4,22.1,66.6,24.8,97.1,7.8
					c31.7-17.7,49.3-54.2,42.9-90C329.3,246.6,293.1,217.4,252.2,217.1c-1.2,0-3.8,1.7-1.5,1.8c34.5,0.3,66,22.1,78.2,54.4
					c12.2,32.3,3.1,69.8-22.8,92.7c-26.9,23.9-67.2,27-97.7,8.1c-28.9-18-44.5-52.5-38.8-86.1c6.7-39.3,41.1-68.9,81-69.2
					C251.9,218.9,254.6,217.1,252.2,217.1z"/>
				<path d="M250.4,334.8c-27.6-0.6-42.4-34.5-23.5-54.9c10-10.9,26.6-12.7,39-4.8c10.4,6.6,16.3,18.8,15,31.1
					C279.3,322,266.3,334.5,250.4,334.8c-1.2,0-3.8,1.8-1.5,1.8c13.6-0.3,26.4-7.5,32.4-19.9c6.7-13.8,2.8-30.8-9-40.5
					c-23.5-19.3-61.3,0.4-57.5,31c2.2,17.2,17.1,29.1,34,29.5C250.1,336.6,252.8,334.9,250.4,334.8z"/>
			</g>
		</g>
	</g>
</g>
</svg>
