<?xml version="1.0" encoding="utf-8"?>
<!-- Generator: Adobe Illustrator 18.1.1, SVG Export Plug-In . SVG Version: 6.00 Build 0)  -->
<svg version="1.1" id="Layer_1" xmlns="http://www.w3.org/2000/svg" xmlns:xlink="http://www.w3.org/1999/xlink" x="0px" y="0px"
	 viewBox="0 0 500 500" enable-background="new 0 0 500 500" xml:space="preserve">
<circle fill="#FFFAC0" cx="250" cy="250" r="226.5"/>
<circle fill="#FFFAC0" cx="-203.4" cy="729.7" r="233.2"/>
<g>
	<g>
		<path fill="#5ACAED" d="M126.3,162.3c21.2,2.5,43.6,1.7,63.5-2.5c14.2-3,26.6-4.8,41.2-4.1c2.2,0.1,4.4,0.2,6.7,0.4
			c1.9,1.3,4.3,4,7.1,4.1c1.3,3.2,1.9,4.9,1.9,8.7v172.4c0,14.1-9.9,25.5-22.1,25.5h-77.3c-12.2,0-22.1-11.4-22.1-25.5V168.8
			C125.2,166.5,125.8,164.4,126.3,162.3z"/>
		<g>
			<path d="M125.2,163.1c21.4,2.4,43.2,1.8,64.3-2.5c11.3-2.3,22.7-4.2,34.2-4.2c3.1,0,6.4,0,9.5,0.3c3,0.3,4.1,1.4,6.6,2.9
				c1.4,0.9,2.7,1,3.8,2.5c1.3,1.9,1.3,5,1.3,7.2c0.3,11.4,0,22.8,0,34.2c0,42.7,0,85.4,0,128.2c0,3.3,0.1,6.7,0,10
				c-0.2,9.4-4.7,19.8-14.1,23.2c-3.2,1.2-6.2,1-9.5,1c-21,0-42,0-62.9,0c-8.9,0-17.4,0.8-24.3-6.3c-6-6.2-7.2-14.3-7.2-22.5
				c0-16.6,0-33.2,0-49.8c0-39.1-0.5-78.2,0-117.2c0-2.7,0.5-5.3,1.1-8c0.2-0.9-3.2-0.4-3.4,0.5c-1.2,5-1.1,9.5-1.1,14.6
				c0,8.2,0,16.4,0,24.6c0,24.2,0,48.3,0,72.5c0,19.7,0,39.5,0,59.2c0,4.6-0.3,9.5,0.6,14c2.5,12.2,12.1,20,24.3,20
				c21,0,42,0,62.9,0c6.7,0,14.4,0.9,20.8-1.6c10.9-4.1,16.2-15,16.3-26.1c0.3-39.6,0-79.3,0-118.9c0-16.7,0-33.4,0-50
				c0-1.4,0.1-2.8-0.1-4.2c-0.1-1.9-0.5-3.7-1.3-5.5c-1.4-3.2-0.5-0.6-4.6-3.2c-1.2-0.8-2.2-2.1-3.5-2.6c-2.1-0.9-6.5-0.4-8.7-0.5
				c-22.6-0.8-44,6.3-66.4,7.7c-12.2,0.7-24.3,0.3-36.4-1C126.5,161.4,123.4,162.9,125.2,163.1z"/>
		</g>
	</g>
	<g>
		<ellipse fill="#FFFFFF" cx="185.9" cy="162.1" rx="60.6" ry="15"/>
		<g>
			<path d="M124.6,162.3c0.3,5.2,8,7.7,12,9c10,3.3,20.8,4.7,31.2,5.4c22.1,1.7,46.9,1.6,68-5.9c3.6-1.3,10.2-3.6,11.2-7.9
				c1.1-4.8-5.5-7.6-8.9-9c-8.9-3.6-18.8-5-28.2-6c-13.4-1.4-27-1.6-40.4-0.6c-10.9,0.8-22.1,2.1-32.5,5.6
				C132.8,154.3,125,156.9,124.6,162.3c0,0.3,1.4,0.1,1.5-0.4c0.4-5.9,10.3-8.3,14.6-9.5c9.7-2.7,19.9-3.9,30-4.5
				c20.4-1.3,42.6-1,62.2,5.2c3.9,1.2,11.7,3.4,12.7,8.2c1.2,5.2-7.3,8.1-10.8,9.3c-20,6.9-43.4,7-64.3,5.6
				c-10.4-0.7-21.1-1.9-31.1-5c-4.2-1.3-13.1-3.7-13.4-9.3C126.1,161.5,124.6,161.8,124.6,162.3z"/>
		</g>
	</g>
	<g>
		<path fill="#FFFFFF" d="M160.3,155.7c0,5,4,9,9,9h33.1c5,0,9-4,9-9v-10.2c0-5-4-9-9-9h-33.1c-5,0-9,4-9,9V155.7z"/>
		<g>
			<path d="M159.6,155.9c0.9,12.2,15.9,9.4,24.3,9.4c5.4,0,10.8,0,16.2,0c4.2,0,8.2-0.7,10.6-4.6c2.5-3.9,1.7-10.4,1.5-14.8
				c-0.3-5.8-3.9-9.6-9.7-9.9c-9.6-0.6-19.4,0-28.9,0c-4.7,0-9.4,0-12.4,4.4c-2.7,4.1-1.6,10.7-1.6,15.4c0,0.8,1.5,0.5,1.5-0.1
				c0-3.3-0.3-6.7,0-10.1c0.5-6.4,5.5-8.6,11.1-8.6c8.6,0,17.2,0,25.8,0c4.7,0,9.6-0.1,11.9,5c1.7,3.7,1,9.1,0.9,13.1
				c-0.3,11.6-13.9,9.1-21.8,9.1c-5.1,0-10.3,0-15.4,0c-6,0-11.9-1.3-12.5-8.7C161,154.8,159.6,155.2,159.6,155.9z"/>
		</g>
	</g>
	<ellipse stroke="#000000" stroke-width="0.5335" stroke-miterlimit="10" cx="185.9" cy="140.7" rx="24.6" ry="7.3"/>
	<path stroke="#000000" stroke-width="0.5731" stroke-miterlimit="10" d="M246.7,310.2v2.5H328c11.4-28.2,39-48.1,71.3-48.1
		c4.6,0,9.1,0.4,13.5,1.2V193H246.7v2.8h5.7v8.8h-5.7v96.9h5.6v8.8H246.7z M401.3,195.8h9v8.8h-9V195.8z M389.1,195.8h9v8.8h-9
		V195.8z M377,195.8h9v8.8h-9V195.8z M364.8,195.8h9v8.8h-9V195.8z M352.6,195.8h9v8.8h-9V195.8z M340.5,195.8h9v8.8h-9V195.8z
		 M328.3,195.8h9v8.8h-9V195.8z M325.2,204.5h-9v-8.8h9V204.5z M316.1,301.5h9v8.8h-9V301.5z M313.1,204.5h-9v-8.8h9V204.5z
		 M304,301.5h9v8.8h-9V301.5z M300.9,204.5h-9v-8.8h9V204.5z M291.8,301.5h9v8.8h-9V301.5z M288.8,204.5h-9v-8.8h9V204.5z
		 M279.7,301.5h9v8.8h-9V301.5z M276.6,204.5h-9v-8.8h9V204.5z M267.5,301.5h9v8.8h-9V301.5z M264.5,204.5h-9v-8.8h9V204.5z
		 M255.4,301.5h9v8.8h-9V301.5z"/>
</g>
</svg>
