<?xml version="1.0" encoding="utf-8"?>
<!-- Generator: Adobe Illustrator 18.1.1, SVG Export Plug-In . SVG Version: 6.00 Build 0)  -->
<svg version="1.1" id="Layer_1" xmlns="http://www.w3.org/2000/svg" xmlns:xlink="http://www.w3.org/1999/xlink" x="0px" y="0px"
	 viewBox="0 0 500 500" enable-background="new 0 0 500 500" xml:space="preserve">
<circle fill="#FCE3EE" cx="250" cy="250" r="226.5"/>
<g>
	<g>
		<path fill="#F04F5E" d="M271.4,100.1c0-6.5-6.4-11.8-14.2-11.8l-13.6,0c-7.8,0-14.2,5.3-14.1,11.9c0,6.5,6.3,11.8,14.1,11.8
			c-0.7,1.4-1.1,3-1.1,4.7v9.1c0,5.2,3.6,9.5,7.9,9.5c4.4,0,7.9-4.3,7.9-9.5v-9.1c0-1.7-0.4-3.3-1.1-4.7
			C265.1,111.9,271.4,106.6,271.4,100.1z"/>
		<g>
			<path fill="#231F20" d="M272.9,100.6c-0.9-15-19.1-13.8-29.9-13.3c-7.4,0.3-15.9,5.2-14.9,13.8c0.9,7.7,8.8,11.8,15.8,12.2
				c-0.6-0.6-1.2-1.2-1.7-1.8c-1.7,4.2-1.4,9.5-1.1,14c0.2,5.1,3.2,10.2,8.6,11c11.9,1.9,12-16.9,9.1-24.2c-0.3,0.3-0.5,0.6-0.8,1
				C265.3,112.8,272.4,108.5,272.9,100.6c0.1-1.3-2.9-2.4-3-0.9c-0.4,7.1-6.7,10.9-13.3,11.2c-0.5,0-1,0.5-0.8,1
				c2.1,5.3,2.5,17.3-2.3,21c-7.1,5.6-9.5-4.5-9.5-9.2c0-3.7-0.4-7.4,1-10.9c0.4-0.9-0.9-1.8-1.7-1.8c-7.7-0.4-15.5-7-11-15.1
				c2.7-4.8,8.1-6.3,13.3-6.3c8.6-0.1,23.6-2,24.3,10.2C270,100.9,273,102,272.9,100.6z"/>
		</g>
	</g>
	<g>
		<path fill="#231F20" d="M197.5,120.7c-2.1-5.1-8.8-7.2-15-4.7l-10.7,4.4c-6.1,2.5-9.4,8.8-7.3,13.9c2.1,5.1,8.8,7.2,14.9,4.7
			c-0.1,1.3,0.1,2.7,0.7,4l2.9,7.2c1.7,4.1,5.9,6.3,9.3,4.9c3.4-1.4,4.9-5.9,3.2-10l-2.9-7.2c-0.6-1.4-1.4-2.5-2.4-3.4
			C196.4,132.1,199.6,125.9,197.5,120.7z"/>
		<g>
			<path fill="#231F20" d="M198.7,121c-5.8-11.5-19.2-5.2-27.8-1.3c-5.7,2.6-10.6,9.3-6.9,15.5c3.3,5.6,10.7,6.6,16.4,4.6
				c-0.7-0.4-1.4-0.8-2.1-1.2c0.1,4.4,2.7,11.3,5.7,14.5c3.6,3.8,10.5,4.9,12.9-0.8c1.9-4.4-1.2-10.2-3.1-14.1c-1.1-2.2-2-2.4,0-4.2
				c1.4-1.3,2.7-2.1,3.8-3.7C199.5,127.4,199.8,124.2,198.7,121c-0.2-0.7-2.7-1.6-2.4-0.5c2,6-2,11-7.2,13.4
				c-0.3,0.1-0.1,0.5,0.1,0.7c3.5,3.6,7.6,13.1,4.7,17.7c-2.6,4.1-7.9,1.9-9.6-1.8c-0.4-0.7-0.6-1.5-0.9-2.3
				c-1.2-2.9-2.6-5.6-2.6-8.7c0-0.7-1.6-1.4-2.1-1.2c-1.4,0.5-2.7,0.9-4.1,0.9c-2.9,0-7.5-1.7-8.7-4.6c-0.9-2.3-0.6-4.8,0.3-7
				c1.5-3.4,4.4-5.3,7.7-6.7c2.4-1,4.7-2,7.1-2.9c0.9-0.4,1.8-0.8,2.7-1.1c4.4-1.6,10.5-0.9,12.8,3.7
				C196.7,121.2,199.2,121.9,198.7,121z"/>
		</g>
	</g>
	<g>
		<path fill="#231F20" d="M338.3,138.2c2.4-5-0.6-11.4-6.6-14.2l-10.4-4.9c-6-2.8-12.8-1.1-15.2,4c-2.4,5,0.6,11.3,6.5,14.2
			c-1,0.8-1.9,1.9-2.5,3.2l-3.3,7c-1.9,4-0.7,8.6,2.6,10.2c3.4,1.6,7.6-0.4,9.6-4.4l3.3-7c0.6-1.3,0.9-2.7,0.9-4
			C329.1,145,335.9,143.2,338.3,138.2z"/>
		<g>
			<path fill="#231F20" d="M339.5,138.8c4.6-11.7-10.2-17.5-18.6-20.8c-5.7-2.3-13.7-1.6-16.3,4.9c-2.5,6.3,2.3,12.2,7.6,15
				c-0.2-0.5-0.5-1-0.7-1.5c-5,4.6-11.1,17.8-2.6,21.9c8.6,4.1,15-9,15.4-15.8c-0.5,0.1-1.1,0.2-1.6,0.4
				C328.8,145.4,335.9,145,339.5,138.8c0.6-1-1.8-2.2-2.4-1.2c-2.8,5-8.4,5.9-13.6,3.8c-0.4-0.2-1.6-0.5-1.6,0.4
				c-0.2,2.8-1.5,5.2-2.7,7.7c-0.5,1-0.9,2-1.4,2.9c-0.3,0.5-0.5,1-0.8,1.4c-1.9,2.6-3.4,3.1-6.4,2.1c-2.9-1-3.5-1.7-3.4-4.7
				c0-1.1,0.5-2.3,0.8-3.2c0.3-0.9,0.8-1.7,1.2-2.6c1.3-2.7,2.3-5.3,4.5-7.4c0.6-0.6-0.2-1.3-0.7-1.5c-5.5-3-9.3-10.7-3.6-15.6
				c4.2-3.5,9.4-2,13.8,0.1c6.7,3.2,17.6,7.1,13.9,16.7C336.6,138.6,339.1,139.8,339.5,138.8z"/>
		</g>
	</g>
	<g>
		<circle fill="#F04F5E" cx="250" cy="269.6" r="142.1"/>
		<g>
			<path fill="#231F20" d="M390.5,269.7c-0.3,58.3-36.8,112-91.7,132.4c-55.8,20.6-120,2.6-157.5-43.3
				c-37-45.3-42.1-110.8-12.3-161.2c30.4-51.5,91.7-78.6,150.2-66c56.2,12.1,100.4,58.9,109.5,115.6
				C389.9,254.7,390.5,262.2,390.5,269.7c0,1.5,3.2,0.8,3.2-0.3c-0.3-59.8-38.2-114.2-94.6-134.5c-56.2-20.2-121-2.7-159.3,43
				c-38.8,46.2-44.3,113.8-13.1,165.6c31,51.4,92.3,78,151,66.5c57.9-11.4,104.4-58.8,114.1-117.1c1.3-7.8,1.9-15.6,1.9-23.5
				C393.7,267.9,390.5,268.5,390.5,269.7z"/>
		</g>
	</g>
	<g>
		<circle fill="#231F20" cx="250" cy="271.1" r="117.1"/>
		<g>
			<path fill="#231F20" d="M364.1,272.6c-0.3,47.9-30.6,94.3-77.2,108.8c-45.7,14.3-96.9-2.2-126.3-39.8
				c-29.2-37.3-32.8-90.1-8.9-131c12-20.5,30.4-37.7,52.5-46.8c22.4-9.2,47.9-10.7,71.4-4.8c45.1,11.3,80,49.7,87.1,95.6
				C363.7,260.7,364.1,266.6,364.1,272.6c0-0.2,6-1.4,6-3.1c-0.3-50.5-33.4-96.3-81.7-111.7c-46.4-14.8-99,1.7-130.4,38.5
				c-33,38.6-37.2,95.9-10.1,138.8c27,42.8,79.9,63.6,128.8,51c46.4-11.9,83.9-49.6,91.8-97.3c1.1-6.4,1.5-12.8,1.6-19.3
				C370.1,269.8,364.1,271,364.1,272.6z"/>
		</g>
	</g>
	<path fill="#FFFFFF" d="M213.1,202.3c0.4,0,0.8-0.1,1.2-0.3c1.2-0.6,1.6-2.1,1-3.2l-9.6-18.1c-0.6-1.2-2.1-1.6-3.2-1
		c-1.2,0.6-1.6,2.1-1,3.2l9.6,18.1C211.5,201.8,212.2,202.2,213.1,202.3z M209.7,334.5c-1.1-0.7-2.6-0.3-3.3,0.8l-10.8,17.4
		c-0.7,1.1-0.3,2.6,0.8,3.3c0.4,0.2,0.8,0.3,1.2,0.4c0.8,0,1.7-0.4,2.1-1.1l10.8-17.4C211.2,336.7,210.8,335.2,209.7,334.5z
		 M164.3,219.2l17.4,10.8c0.4,0.2,0.8,0.3,1.2,0.4c0.8,0,1.7-0.4,2.1-1.1c0.7-1.1,0.3-2.6-0.8-3.3l-17.4-10.8
		c-1.1-0.7-2.6-0.3-3.3,0.8C162.9,217.1,163.2,218.5,164.3,219.2z M173.6,266.5c0.1-1.3-1-2.4-2.3-2.5l-20.5-0.8
		c-1.3-0.1-2.4,1-2.5,2.3c-0.1,1.3,1,2.4,2.3,2.5l20.5,0.8C172.5,268.8,173.6,267.8,173.6,266.5z M246.9,345.9
		c-1.3-0.1-2.4,1-2.5,2.3l-0.8,20.5c-0.1,1.3,1,2.4,2.3,2.5c1.3,0.1,2.4-1,2.5-2.3l0.8-20.5C249.3,347.1,248.2,346,246.9,345.9z
		 M179.2,304.3l-18.1,9.6c-1.2,0.6-1.6,2.1-1,3.2c0.4,0.8,1.2,1.2,2,1.3c0.4,0,0.8-0.1,1.2-0.3l18.1-9.6c1.2-0.6,1.6-2.1,1-3.2
		C181.8,304.1,180.4,303.7,179.2,304.3z M335.7,319.9l-17.4-10.8c-1.1-0.7-2.6-0.3-3.3,0.8c-0.7,1.1-0.3,2.6,0.8,3.3l17.4,10.8
		c0.4,0.2,0.8,0.3,1.2,0.4c0.8,0,1.7-0.4,2.1-1.1C337.1,322.1,336.8,320.6,335.7,319.9z M319.6,235.1c0.4,0,0.8-0.1,1.2-0.3
		l18.1-9.6c1.2-0.6,1.6-2.1,1-3.2c-0.6-1.2-2.1-1.6-3.2-1l-18.1,9.6c-1.2,0.6-1.6,2.1-1,3.2C318,234.6,318.8,235.1,319.6,235.1z
		 M349.4,271.2l-20.5-0.8c-1.3-0.1-2.4,1-2.5,2.3c-0.1,1.3,1,2.4,2.3,2.5l20.5,0.8c1.3,0.1,2.4-1,2.5-2.3
		C351.7,272.3,350.7,271.2,349.4,271.2z M254.1,167.9c-1.3-0.1-2.4,1-2.5,2.3l-0.8,20.5c-0.1,1.3,1,2.4,2.3,2.5
		c1.3,0.1,2.4-1,2.5-2.3l0.8-20.5C256.4,169.1,255.4,168,254.1,167.9z M288.9,338.1c-0.6-1.2-2.1-1.6-3.2-1c-1.2,0.6-1.6,2.1-1,3.2
		l9.6,18.1c0.4,0.8,1.2,1.2,2,1.3c0.4,0,0.8-0.1,1.2-0.3c1.2-0.6,1.6-2.1,1-3.2L288.9,338.1z M290.3,204.6c0.4,0.2,0.8,0.3,1.2,0.4
		c0.8,0,1.7-0.4,2.1-1.1l10.8-17.4c0.7-1.1,0.3-2.6-0.8-3.3c-1.1-0.7-2.6-0.3-3.3,0.8l-10.8,17.4
		C288.8,202.4,289.2,203.9,290.3,204.6z"/>
	
		<line fill="none" stroke="#FFFFFF" stroke-width="1.0047" stroke-linecap="round" stroke-miterlimit="10" x1="244.3" y1="170.8" x2="244.9" y2="188.7"/>
	
		<line fill="none" stroke="#FFFFFF" stroke-width="1.0047" stroke-linecap="round" stroke-miterlimit="10" x1="233.8" y1="172" x2="236.3" y2="189.7"/>
	
		<line fill="none" stroke="#FFFFFF" stroke-width="1.0047" stroke-linecap="round" stroke-miterlimit="10" x1="223.5" y1="174.2" x2="227.9" y2="191.5"/>
	
		<line fill="none" stroke="#FFFFFF" stroke-width="1.0047" stroke-linecap="round" stroke-miterlimit="10" x1="213.6" y1="177.5" x2="219.7" y2="194.3"/>
	
		<line fill="none" stroke="#FFFFFF" stroke-width="1.0047" stroke-linecap="round" stroke-miterlimit="10" x1="204" y1="181.8" x2="211.8" y2="197.9"/>
	
		<line fill="none" stroke="#FFFFFF" stroke-width="1.0047" stroke-linecap="round" stroke-miterlimit="10" x1="194.9" y1="187.1" x2="204.4" y2="202.3"/>
	
		<line fill="none" stroke="#FFFFFF" stroke-width="1.0047" stroke-linecap="round" stroke-miterlimit="10" x1="186.4" y1="193.3" x2="197.5" y2="207.4"/>
	
		<line fill="none" stroke="#FFFFFF" stroke-width="1.0047" stroke-linecap="round" stroke-miterlimit="10" x1="178.7" y1="200.4" x2="191.1" y2="213.3"/>
	
		<line fill="none" stroke="#FFFFFF" stroke-width="1.0047" stroke-linecap="round" stroke-miterlimit="10" x1="171.7" y1="208.2" x2="185.4" y2="219.7"/>
	
		<line fill="none" stroke="#FFFFFF" stroke-width="1.0047" stroke-linecap="round" stroke-miterlimit="10" x1="165.5" y1="216.8" x2="180.4" y2="226.8"/>
	
		<line fill="none" stroke="#FFFFFF" stroke-width="1.0047" stroke-linecap="round" stroke-miterlimit="10" x1="160.3" y1="225.9" x2="176.1" y2="234.3"/>
	
		<line fill="none" stroke="#FFFFFF" stroke-width="1.0047" stroke-linecap="round" stroke-miterlimit="10" x1="156.1" y1="235.5" x2="172.7" y2="242.2"/>
	
		<line fill="none" stroke="#FFFFFF" stroke-width="1.0047" stroke-linecap="round" stroke-miterlimit="10" x1="152.9" y1="245.5" x2="170.1" y2="250.4"/>
	
		<line fill="none" stroke="#FFFFFF" stroke-width="1.0047" stroke-linecap="round" stroke-miterlimit="10" x1="150.8" y1="255.8" x2="168.4" y2="258.9"/>
	
		<line fill="none" stroke="#FFFFFF" stroke-width="1.0047" stroke-linecap="round" stroke-miterlimit="10" x1="149.7" y1="266.3" x2="167.6" y2="267.5"/>
	
		<line fill="none" stroke="#FFFFFF" stroke-width="1.0047" stroke-linecap="round" stroke-miterlimit="10" x1="149.8" y1="276.8" x2="167.6" y2="276.1"/>
	
		<line fill="none" stroke="#FFFFFF" stroke-width="1.0047" stroke-linecap="round" stroke-miterlimit="10" x1="150.9" y1="287.2" x2="168.6" y2="284.7"/>
	
		<line fill="none" stroke="#FFFFFF" stroke-width="1.0047" stroke-linecap="round" stroke-miterlimit="10" x1="153.2" y1="297.5" x2="170.5" y2="293.1"/>
	
		<line fill="none" stroke="#FFFFFF" stroke-width="1.0047" stroke-linecap="round" stroke-miterlimit="10" x1="156.4" y1="307.5" x2="173.3" y2="301.3"/>
	
		<line fill="none" stroke="#FFFFFF" stroke-width="1.0047" stroke-linecap="round" stroke-miterlimit="10" x1="160.8" y1="317.1" x2="176.8" y2="309.2"/>
	
		<line fill="none" stroke="#FFFFFF" stroke-width="1.0047" stroke-linecap="round" stroke-miterlimit="10" x1="166.1" y1="326.1" x2="181.2" y2="316.6"/>
	
		<line fill="none" stroke="#FFFFFF" stroke-width="1.0047" stroke-linecap="round" stroke-miterlimit="10" x1="172.3" y1="334.6" x2="186.4" y2="323.6"/>
	
		<line fill="none" stroke="#FFFFFF" stroke-width="1.0047" stroke-linecap="round" stroke-miterlimit="10" x1="179.4" y1="342.4" x2="192.2" y2="329.9"/>
	
		<line fill="none" stroke="#FFFFFF" stroke-width="1.0047" stroke-linecap="round" stroke-miterlimit="10" x1="187.2" y1="349.4" x2="198.7" y2="335.7"/>
	
		<line fill="none" stroke="#FFFFFF" stroke-width="1.0047" stroke-linecap="round" stroke-miterlimit="10" x1="195.7" y1="355.5" x2="205.7" y2="340.7"/>
	
		<line fill="none" stroke="#FFFFFF" stroke-width="1.0047" stroke-linecap="round" stroke-miterlimit="10" x1="204.9" y1="360.7" x2="213.2" y2="344.9"/>
	
		<line fill="none" stroke="#FFFFFF" stroke-width="1.0047" stroke-linecap="round" stroke-miterlimit="10" x1="214.5" y1="364.9" x2="221.2" y2="348.3"/>
	
		<line fill="none" stroke="#FFFFFF" stroke-width="1.0047" stroke-linecap="round" stroke-miterlimit="10" x1="224.5" y1="368.1" x2="229.4" y2="350.9"/>
	
		<line fill="none" stroke="#FFFFFF" stroke-width="1.0047" stroke-linecap="round" stroke-miterlimit="10" x1="234.8" y1="370.3" x2="237.9" y2="352.7"/>
	
		<line fill="none" stroke="#FFFFFF" stroke-width="1.0047" stroke-linecap="round" stroke-miterlimit="10" x1="245.2" y1="371.3" x2="246.5" y2="353.5"/>
	
		<line fill="none" stroke="#FFFFFF" stroke-width="1.0047" stroke-linecap="round" stroke-miterlimit="10" x1="255.7" y1="371.3" x2="255.1" y2="353.4"/>
	
		<line fill="none" stroke="#FFFFFF" stroke-width="1.0047" stroke-linecap="round" stroke-miterlimit="10" x1="266.2" y1="370.1" x2="263.7" y2="352.4"/>
	
		<line fill="none" stroke="#FFFFFF" stroke-width="1.0047" stroke-linecap="round" stroke-miterlimit="10" x1="276.5" y1="367.9" x2="272.1" y2="350.5"/>
	
		<line fill="none" stroke="#FFFFFF" stroke-width="1.0047" stroke-linecap="round" stroke-miterlimit="10" x1="286.4" y1="364.6" x2="280.3" y2="347.8"/>
	
		<line fill="none" stroke="#FFFFFF" stroke-width="1.0047" stroke-linecap="round" stroke-miterlimit="10" x1="296" y1="360.3" x2="288.2" y2="344.2"/>
	
		<line fill="none" stroke="#FFFFFF" stroke-width="1.0047" stroke-linecap="round" stroke-miterlimit="10" x1="305.1" y1="355" x2="295.6" y2="339.8"/>
	
		<line fill="none" stroke="#FFFFFF" stroke-width="1.0047" stroke-linecap="round" stroke-miterlimit="10" x1="313.6" y1="348.8" x2="302.5" y2="334.7"/>
	
		<line fill="none" stroke="#FFFFFF" stroke-width="1.0047" stroke-linecap="round" stroke-miterlimit="10" x1="321.3" y1="341.7" x2="308.9" y2="328.8"/>
	
		<line fill="none" stroke="#FFFFFF" stroke-width="1.0047" stroke-linecap="round" stroke-miterlimit="10" x1="328.3" y1="333.8" x2="314.6" y2="322.4"/>
	
		<line fill="none" stroke="#FFFFFF" stroke-width="1.0047" stroke-linecap="round" stroke-miterlimit="10" x1="334.5" y1="325.3" x2="319.6" y2="315.3"/>
	
		<line fill="none" stroke="#FFFFFF" stroke-width="1.0047" stroke-linecap="round" stroke-miterlimit="10" x1="339.7" y1="316.2" x2="323.9" y2="307.8"/>
	
		<line fill="none" stroke="#FFFFFF" stroke-width="1.0047" stroke-linecap="round" stroke-miterlimit="10" x1="343.9" y1="306.6" x2="327.3" y2="299.9"/>
	
		<line fill="none" stroke="#FFFFFF" stroke-width="1.0047" stroke-linecap="round" stroke-miterlimit="10" x1="347.1" y1="296.5" x2="329.9" y2="291.6"/>
	
		<line fill="none" stroke="#FFFFFF" stroke-width="1.0047" stroke-linecap="round" stroke-miterlimit="10" x1="349.2" y1="286.3" x2="331.6" y2="283.2"/>
	
		<line fill="none" stroke="#FFFFFF" stroke-width="1.0047" stroke-linecap="round" stroke-miterlimit="10" x1="350.3" y1="275.8" x2="332.4" y2="274.6"/>
	
		<line fill="none" stroke="#FFFFFF" stroke-width="1.0047" stroke-linecap="round" stroke-miterlimit="10" x1="350.2" y1="265.3" x2="332.4" y2="265.9"/>
	
		<line fill="none" stroke="#FFFFFF" stroke-width="1.0047" stroke-linecap="round" stroke-miterlimit="10" x1="349.1" y1="254.8" x2="331.4" y2="257.4"/>
	
		<line fill="none" stroke="#FFFFFF" stroke-width="1.0047" stroke-linecap="round" stroke-miterlimit="10" x1="346.8" y1="244.6" x2="329.5" y2="248.9"/>
	
		<line fill="none" stroke="#FFFFFF" stroke-width="1.0047" stroke-linecap="round" stroke-miterlimit="10" x1="343.6" y1="234.6" x2="326.7" y2="240.7"/>
	
		<line fill="none" stroke="#FFFFFF" stroke-width="1.0047" stroke-linecap="round" stroke-miterlimit="10" x1="339.2" y1="225" x2="323.2" y2="232.9"/>
	
		<line fill="none" stroke="#FFFFFF" stroke-width="1.0047" stroke-linecap="round" stroke-miterlimit="10" x1="333.9" y1="215.9" x2="318.8" y2="225.4"/>
	
		<line fill="none" stroke="#FFFFFF" stroke-width="1.0047" stroke-linecap="round" stroke-miterlimit="10" x1="327.7" y1="207.5" x2="313.6" y2="218.5"/>
	
		<line fill="none" stroke="#FFFFFF" stroke-width="1.0047" stroke-linecap="round" stroke-miterlimit="10" x1="320.6" y1="199.7" x2="307.8" y2="212.1"/>
	
		<line fill="none" stroke="#FFFFFF" stroke-width="1.0047" stroke-linecap="round" stroke-miterlimit="10" x1="312.8" y1="192.7" x2="301.3" y2="206.4"/>
	
		<line fill="none" stroke="#FFFFFF" stroke-width="1.0047" stroke-linecap="round" stroke-miterlimit="10" x1="304.3" y1="186.6" x2="294.3" y2="201.4"/>
	
		<line fill="none" stroke="#FFFFFF" stroke-width="1.0047" stroke-linecap="round" stroke-miterlimit="10" x1="295.1" y1="181.4" x2="286.8" y2="197.2"/>
	
		<line fill="none" stroke="#FFFFFF" stroke-width="1.0047" stroke-linecap="round" stroke-miterlimit="10" x1="285.5" y1="177.1" x2="278.8" y2="193.7"/>
	
		<line fill="none" stroke="#FFFFFF" stroke-width="1.0047" stroke-linecap="round" stroke-miterlimit="10" x1="275.5" y1="173.9" x2="270.6" y2="191.1"/>
	
		<line fill="none" stroke="#FFFFFF" stroke-width="1.0047" stroke-linecap="round" stroke-miterlimit="10" x1="265.2" y1="171.8" x2="262.1" y2="189.4"/>
	
		<line fill="none" stroke="#FFFFFF" stroke-width="1.0047" stroke-linecap="round" stroke-miterlimit="10" x1="254.8" y1="170.8" x2="253.5" y2="188.6"/>
	<path fill="#FFFFFF" stroke="#FFFFFF" stroke-width="3.9911" stroke-miterlimit="10" d="M247.3,260.3"/>
	<path fill="#FFFFFF" stroke="#FFFFFF" stroke-width="3.9911" stroke-miterlimit="10" d="M228.5,194.6"/>
	<path fill="#FFFFFF" stroke="#FFFFFF" stroke-width="3.9911" stroke-miterlimit="10" d="M257.4,271.3"/>
	<path fill="#FFFFFF" stroke="#FFFFFF" stroke-width="3.9911" stroke-miterlimit="10" d="M294.8,294.3"/>
	
		<line fill="none" stroke="#EB2227" stroke-width="6.7415" stroke-linecap="round" stroke-miterlimit="10" x1="193.9" y1="317.2" x2="243.1" y2="273.1"/>
	
		<line fill="none" stroke="#FFFFFF" stroke-width="6.7415" stroke-linecap="round" stroke-miterlimit="10" x1="305.2" y1="197.9" x2="255.4" y2="260"/>
	<circle fill="#FFFFFF" cx="250.7" cy="266.7" r="11.9"/>
	<circle fill="#FFFFFF" stroke="#231F20" stroke-width="1.0775" stroke-miterlimit="10" cx="251.1" cy="266.7" r="6.4"/>
	<circle fill="#231F20" stroke="#FFFFFF" stroke-width="1.3468" stroke-miterlimit="10" cx="251.1" cy="266.7" r="2.5"/>
</g>
</svg>
