<?xml version="1.0" encoding="utf-8"?>
<!-- Generator: Adobe Illustrator 18.1.1, SVG Export Plug-In . SVG Version: 6.00 Build 0)  -->
<svg version="1.1" id="Layer_1" xmlns="http://www.w3.org/2000/svg" xmlns:xlink="http://www.w3.org/1999/xlink" x="0px" y="0px"
	 viewBox="0 0 500 500" enable-background="new 0 0 500 500" xml:space="preserve">
<g>
	<circle fill="#F9C3D2" cx="250" cy="250" r="226.5"/>
</g>
<g>
	<g>
		<ellipse fill="#A594C7" cx="251.1" cy="273.8" rx="125.3" ry="121.9"/>
		<g>
			<path d="M375,273.9c-0.3,50.6-33,96-80.4,113.3c-48.9,17.8-105.8,2.9-139.3-36.9c-32.5-38.6-37.2-94.9-11-138.2
				c27.1-44.8,81.4-67.4,132.4-56.7c48.7,10.2,88.4,49.6,96.7,99C374.5,260.8,375,267.3,375,273.9c0,1.3,2.8,0.7,2.8-0.3
				c-0.3-52.2-34.6-98.4-83.7-115.5c-49.2-17.1-106.3-2.4-140.4,37.2c-33.9,39.5-38.8,97.4-11.3,141.8c27.7,44.7,82,66.9,133.3,57
				c50.2-9.7,91.9-49.8,100.4-100.7c1.1-6.5,1.6-13.1,1.6-19.8C377.8,272.3,375,272.9,375,273.9z"/>
		</g>
	</g>
	<g>
		<ellipse fill="#82C670" cx="248.2" cy="103.9" rx="28.9" ry="57.2"/>
		<g>
			<path d="M275.2,104c-0.1,17-3,39.9-17,51.6c-14.1,11.8-26.7-5.8-31.3-18c-7.1-18.7-7.6-40.7-2.6-59.9
				c3.1-11.8,13.2-36.1,29.7-28.1c7.6,3.7,12.3,12.3,15.2,19.8C273.5,80.4,275.1,92.2,275.2,104c0,2.1,3.8,1.6,3.8-0.2
				c-0.1-12.2-1.7-24.6-6.3-36c-3-7.5-7.5-15.4-14.6-19.7c-14.6-8.9-27.7,4.9-33.4,17.5c-9.6,21.1-10,47.9-2.8,69.8
				c4.3,13.1,15.1,31.9,31.8,26.2c8.2-2.8,13.7-10.6,17.3-18.1c5.9-12.3,7.9-26.2,8-39.7C279.1,101.7,275.2,102.2,275.2,104z"/>
		</g>
	</g>
	<g>
		<path fill="#82C670" d="M153.8,179.3c-11.3-8-54.4-34.4-100.7-13c-4.2,1.9-3.4,8.2,1.1,9.1c18.1,3.6,50.8,14.3,82.6,44.2
			c2.5,2.4,6.7,1.3,7.8-2c3.2-9.5,8.7-25.9,11-32.9C156.3,182.7,155.6,180.5,153.8,179.3z"/>
		<g>
			<path d="M155.7,178.8c-28.4-19.9-64.4-27.1-97.4-15c-3.1,1.2-9,2.5-9.7,6.4c-0.8,4.7,3.8,5.5,7.2,6.3c7.8,1.8,15.4,4.2,22.8,7.2
				c9.8,3.9,19.2,8.7,28.1,14.4c5.3,3.4,10.5,7,15.5,10.9c2.4,1.9,4.8,3.9,7.1,5.9c2.2,1.9,5,5.6,7.8,6.3c1.8,0.5,4.1-0.2,5.8-0.9
				c4.3-1.7,4.8-6.8,6.1-10.7c1.9-5.6,3.7-11.2,5.6-16.8C156,188.6,159.7,182.4,155.7,178.8c-0.6-0.6-3.4,1.4-3.8,1
				c3.1,2.8,1.6,5.9,0.5,9.3c-1.3,3.9-2.6,7.8-3.9,11.7c-1.3,4-2.7,7.9-4,11.9c-0.5,1.6-0.9,4.1-1.8,5.5c-2.1,3.3-4.1,0.9-6.1-1
				c-14.4-13.2-30.8-24.2-48.7-32c-6.7-3-13.6-5.5-20.7-7.5c-4-1.2-13.7-1.5-14.8-6.4c-1.2-5.2,5.5-6.8,9.2-8.1
				c8.4-3,17.2-4.4,26.2-4.5c9.3-0.1,18.6,1.3,27.6,3.8c13,3.7,25.5,9.6,36.6,17.4C152.7,180.3,155.2,178.4,155.7,178.8z"/>
		</g>
	</g>
	<g>
		<path fill="#82C670" d="M179.8,332.2c-12.7,5.5-57.8,28.3-63.8,79c-0.5,4.6,5.2,7.2,8.3,3.8c12.6-13.5,38.8-35.8,80.9-47.1
			c3.3-0.9,4.6-5,2.4-7.7c-6.4-7.7-17.5-21-22.2-26.6C184,331.9,181.8,331.3,179.8,332.2z"/>
		<g>
			<path d="M178,332.7c-28.8,12.5-53.9,36.5-61.8,67.6c-1,3.9-4.1,12.2-0.6,15.4c2.1,2,4.9,1.3,7.3,0.5c2.6-0.8,3.9-2.5,5.8-4.4
				c2.8-2.8,5.7-5.5,8.7-8.1c17.6-15.2,38.5-26.6,60.6-33.6c3.6-1.1,13.6-2,12.5-8.2c-0.4-2.4-2.8-4.4-4.3-6.1
				c-2.2-2.6-4.4-5.2-6.6-7.9c-3.7-4.5-7.4-9-11.2-13.4c-3-3.5-5.2-3.3-9.2-2.2c-2.6,0.8-0.1,0.3,1.1-0.1c2.5-0.7,7.8,7.4,9,8.9
				c3.5,4.2,6.9,8.3,10.4,12.5c2.3,2.7,7.3,6.7,7.1,10.5c-0.3,4.9-7.9,5.5-11.5,6.6c-18.9,6.1-37,15.1-52.9,27
				c-6.1,4.6-11.9,9.5-17.2,14.9c-0.6,0.7-2,2.6-2.8,2.9c-1.9,0.7-3.6-0.9-4.3-2.5c-1.5-3.9,1.2-11.2,2.2-15.1
				c4.6-17.2,14.7-32.4,27.7-44.4c9.8-9,21.3-16.4,33.6-21.7C180.8,332.1,179,332.2,178,332.7z"/>
		</g>
	</g>
	<g>
		<path fill="#82C670" d="M322.6,339c12.7,5.5,57.8,28.3,63.8,79c0.5,4.6-5.2,7.2-8.3,3.8c-12.6-13.5-38.8-35.8-80.9-47.1
			c-3.3-0.9-4.6-5-2.4-7.7c6.4-7.7,17.5-21,22.2-26.6C318.4,338.7,320.7,338.2,322.6,339z"/>
		<g>
			<path d="M320.8,339.5c24.6,10.6,46.8,29.8,57.4,54.7c1.9,4.4,3.4,8.9,4.5,13.6c0.7,3,3.6,11.3,1.2,14c-2.3,2.5-5.8-2.6-7.5-4.3
				c-2.4-2.4-4.9-4.7-7.5-6.9c-14.6-12.6-31.4-22.5-49.2-29.6c-6.2-2.4-12.4-4.4-18.8-6.3c-2.6-0.8-5-1.7-5.2-4.8
				c-0.2-2.6,2-4.4,3.5-6.2c3.8-4.5,7.5-9,11.3-13.5C311.9,348.3,318,338.7,320.8,339.5c1.1,0.3,2.8-1.3,3.8-1
				c-7.1-2-11.3,4.7-15.2,9.3c-3.5,4.2-6.9,8.3-10.4,12.5c-2.7,3.2-10.1,9.2-5.7,13.6c1.9,1.9,5.6,2.2,8.1,2.9c3,0.9,6,1.9,9,3
				c6.5,2.4,12.9,5.1,19.2,8.2c9.7,4.8,19,10.5,27.6,17.1c6.4,4.9,12.3,10.3,18,16c2.5,2.5,4.2,3,7.5,2.1c2.6-0.7,5.1-1.6,5.6-4.6
				c0.8-4.9-1.8-12-3.2-16.6c-1.5-5.1-3.6-10-6-14.7c-4.4-8.6-10.3-16.3-17-23.2c-10.7-10.8-23.7-19.6-37.6-25.6
				C323.5,338.1,321.6,339.9,320.8,339.5z"/>
		</g>
	</g>
	<g>
		<path fill="#82C670" d="M342.2,179.3c11.3-8,54.4-34.4,100.7-13c4.2,1.9,3.4,8.2-1.1,9.1c-18.1,3.6-50.8,14.3-82.6,44.2
			c-2.5,2.4-6.7,1.3-7.8-2c-3.2-9.5-8.7-25.9-11-32.9C339.7,182.7,340.4,180.5,342.2,179.3z"/>
		<g>
			<path d="M344.1,178.8c12.7-8.9,27.5-15.8,42.7-18.6c10.6-2,21.6-2.1,32.3-0.3c4.8,0.8,9.6,2.1,14.2,3.8
				c3.4,1.2,10.1,2.6,10.4,7.1c0.2,3.3-1.7,4.4-4.4,5c-2.7,0.6-5.4,1.3-8.1,2.1c-5.7,1.6-11.3,3.5-16.8,5.6
				c-17.6,7-34,16.9-48.5,29.1c-2.4,2-4.6,4.3-7.1,6.3c-2.3,1.8-3.5,1.6-5.2-1.1c-2.3-3.8-3.3-9.5-4.7-13.7
				c-1.5-4.5-3.1-9.1-4.6-13.6C343,186.4,340.4,182.1,344.1,178.8c-0.8,0.7-2.9,0.2-3.8,1c-3.6,3.3-1,7.7,0.3,11.6
				c1.7,5,3.4,10,5.1,15.1c1.3,3.8,2.2,10.3,4.9,13.3c2,2.2,4.6,1.8,7.1,1c3.3-1,5.2-3.3,7.8-5.5c5.2-4.6,10.6-8.9,16.3-12.9
				c9.5-6.7,19.6-12.5,30.2-17.1c9.3-4.1,18.7-7,28.6-9.3c1.7-0.4,3.7-0.7,5.1-1.7c3.6-2.7,1.8-7-1.6-8.6c-19.1-9.4-41.7-9.5-62-4.4
				c-14.8,3.8-29.1,10-41.6,18.8C341.2,179.1,343,179.5,344.1,178.8z"/>
		</g>
	</g>
	<g>
		<ellipse fill="#A594C7" cx="252.4" cy="274.7" rx="152.2" ry="148"/>
		<g>
			<path d="M402.9,274.8c-0.3,61.7-40.4,117-98.2,137.8c-59.3,21.4-128,3.2-168.6-45c-39.5-47-45.2-115.4-13.3-168
				c33-54.3,98.7-81.6,160.6-68.8c59.2,12.3,107.5,60.3,117.5,120.3C402.3,259,402.9,266.9,402.9,274.8c0,1.5,3.4,0.9,3.4-0.4
				c-0.3-63.2-41.9-119.2-101.2-140.1c-59.7-21-129.2-3.3-170.7,44.7c-41.5,48.1-47.5,118.9-13.8,172.9
				c33.8,54.1,99.8,80.8,162,68.7c60.9-11.9,111.4-60.6,121.7-122.4c1.3-7.9,1.9-15.9,2-23.9C406.3,273,402.9,273.6,402.9,274.8z"/>
		</g>
	</g>
	<circle cx="252.4" cy="273.8" r="130.4"/>
	<g>
		<defs>
			<ellipse id="SVGID_3_" cx="252.4" cy="274.7" rx="129.2" ry="126.8"/>
		</defs>
		<clipPath id="SVGID_2_">
			<use xlink:href="#SVGID_3_"  overflow="visible"/>
		</clipPath>
		<g clip-path="url(#SVGID_2_)">
			<g>
				<polygon fill="#5ACAED" points="279,328.2 215,328.4 182.9,273 214.7,217.5 278.7,217.3 310.9,272.7 				"/>
				<g>
					<path d="M279.8,326.9c-13.3,0-26.6,0.1-39.9,0.1c-7.1,0-14.2,0-21.2,0.1c-0.7,0-1.6-0.1-2.3,0c-1.1,0.1,0.3,0.1,0.4,0.4
						c-0.9-1.4-1.7-2.9-2.6-4.4c-8.2-14.1-16.4-28.2-24.6-42.4c-1.3-2.3-2.5-4.7-4-6.8c-0.3-0.4-0.7-1-0.9-1.5
						c-0.1-0.2-0.3,1.3,0.2,0.4c2.9-4.9,5.7-9.9,8.5-14.9c7.7-13.4,15.4-26.8,23.1-40.2c-0.9,0.4-1.7,0.8-2.6,1.2
						c13.3,0,26.6-0.1,39.9-0.1c7.1,0,14.2,0,21.2-0.1c0.7,0,1.6,0.1,2.3,0c1.1-0.1-0.3-0.1-0.4-0.4c0.9,1.4,1.7,2.9,2.6,4.4
						c8.2,14.1,16.4,28.2,24.6,42.4c1.3,2.3,2.5,4.7,4,6.8c0.3,0.4,0.7,1,0.9,1.5c0.1,0.2,0.3-1.3-0.2-0.4
						c-2.9,4.9-5.7,9.9-8.5,14.9c-7.7,13.4-15.4,26.8-23.1,40.2c-1,1.8,3,1.7,3.8,0.3c9.5-16.5,18.9-32.9,28.4-49.4
						c0.9-1.6,3.3-4.3,3.5-6.1c0.2-1.5-1.3-3.2-2.1-4.6c-5.5-9.5-11-18.9-16.5-28.4c-4.5-7.8-9.1-15.6-13.6-23.4
						c-0.2-0.3-0.8-0.5-1.1-0.5c-19.2,0-38.4,0.1-57.6,0.1c-2.1,0-4.8-0.4-6.9,0c-2.2,0.5-2.9,2.5-3.9,4.3
						c-5.4,9.5-10.9,19-16.3,28.5c-2.9,5.1-5.9,10.3-8.8,15.4c-1.4,2.4-4,5.4-4.6,8.1c-0.4,1.6,0.3,2.2,1.2,3.8
						c2.1,3.7,4.3,7.3,6.4,11c6.1,10.5,12.2,21,18.3,31.5c2.1,3.5,4.1,10.9,8.8,11c20.8,0.4,41.7-0.1,62.5-0.2
						C280.1,329.5,282.4,326.9,279.8,326.9z"/>
				</g>
			</g>
			<g>
				<polygon fill="#5ACAED" points="378.2,272.7 312.2,274.9 284.5,220.8 313.9,162 378,161.8 410.1,217.2 				"/>
				<g>
					<path d="M379,271.6c-22,0.8-44,1.5-66,2.3c0.4,0.2,0.8,0.4,1.2,0.6c-8.3-16.2-16.6-32.5-24.9-48.7c-0.7-1.3-1.2-2.7-2-3.9
						c-0.3-0.4-0.8-2.1-0.8-1c0.1-1.8,2.3-4.6,3.1-6.2c5-9.9,9.9-19.9,14.9-29.8c3.8-7.6,7.6-15.2,11.4-22.8
						c-0.9,0.4-1.8,0.7-2.6,1.1c21.3-0.1,42.7-0.1,64-0.2c-0.4-0.2-0.8-0.4-1.2-0.6c9.3,16,18.6,32.1,27.9,48.1
						c1.2,2,3.6,4.8,4.1,7.1c0,0.1,0.2-0.7-0.2,0.4c-0.5,1.3-1.4,2.5-2.1,3.7c-5.4,9.5-10.9,18.9-16.3,28.4
						c-4.3,7.5-8.7,15.1-13,22.6c-0.9,1.6,3.1,1.2,3.7,0.1c9.4-16.4,18.8-32.8,28.2-49.1c0.9-1.7,3.4-4.4,3.6-6.4
						c0.2-1.5-1.4-3.3-2.2-4.6c-5.5-9.4-11-18.9-16.5-28.3c-4.5-7.7-8.9-15.3-13.4-23c-0.3-0.5-0.7-0.6-1.2-0.6
						c-21.3,0.1-42.7,0.1-64,0.2c-0.8,0-2.2,0.3-2.6,1.1c-8.4,16.7-16.7,33.4-25.1,50.2c-1.2,2.5-3.6,5.6-4.1,8.3
						c-0.3,1.5,0.2,2,0.9,3.5c4.7,9.2,9.4,18.4,14.1,27.6c4.1,8,8.2,16,12.3,24c0.2,0.5,0.7,0.6,1.2,0.6c22-0.8,44-1.5,66-2.3
						C378.9,273.7,381.7,271.5,379,271.6z"/>
				</g>
			</g>
			<g>
				<polygon fill="#5ACAED" points="374.8,383.7 310.8,383.9 278.6,328.5 310.5,273 374.5,272.8 406.7,328.2 				"/>
				<g>
					<path d="M375,382.2c-13.3,0-26.6,0.1-39.9,0.1c-7.1,0-14.2,0-21.2,0.1c-0.6,0-1.8-0.2-2.3,0c-1.3,0.5,1.2-0.1,1,0.5
						c0.2-0.7-2.2-3.8-2.6-4.4c-8.2-14.1-16.4-28.2-24.6-42.4c-1.3-2.3-2.5-4.7-4-6.8c-0.3-0.4-0.7-1-0.9-1.5c0-0.1-0.4,1.4,0.2,0.6
						c3.3-4.5,5.8-10,8.5-14.9c7.7-13.4,15.4-26.8,23.1-40.2c-0.7,0.4-1.4,0.8-2.1,1.2c13.3,0,26.6-0.1,39.9-0.1
						c7.1,0,14.2,0,21.2-0.1c0.6,0,1.8,0.2,2.3,0c1.3-0.5-1.2,0.1-1-0.5c-0.2,0.7,2.2,3.8,2.6,4.4c8.2,14.1,16.4,28.2,24.6,42.4
						c1.3,2.3,2.5,4.7,4,6.8c0.3,0.4,0.7,1,0.9,1.5c0,0.1,0.4-1.4-0.2-0.6c-3.3,4.5-5.8,10-8.5,14.9c-7.7,13.4-15.4,26.8-23.1,40.2
						c-1.1,2,2.9,2,3.8,0.5c9.5-16.5,18.9-32.9,28.4-49.4c0.9-1.6,3.3-4.3,3.5-6.1c0.2-1.6-1.4-3.4-2.1-4.7
						c-5.5-9.5-11-18.9-16.5-28.4c-4.5-7.8-9.1-15.6-13.6-23.4c-0.3-0.5-1.1-0.6-1.7-0.6c-21.3,0.1-42.7,0.1-64,0.2
						c-0.8,0-1.7,0.5-2.1,1.2c-9.5,16.5-18.9,32.9-28.4,49.4c-0.9,1.6-3.3,4.3-3.5,6.1c-0.2,1.6,1.4,3.4,2.1,4.7
						c5.5,9.5,11,18.9,16.5,28.4c4.5,7.8,9.1,15.6,13.6,23.4c0.3,0.5,1.1,0.6,1.7,0.6c21.3-0.1,42.7-0.1,64-0.2
						C376.9,385.2,377.7,382.2,375,382.2z"/>
				</g>
			</g>
			<g>
				<polygon fill="#5ACAED" points="276.3,439.2 212.3,439.4 180.1,384.1 212,328.5 276,328.4 308.1,383.7 				"/>
				<g>
					<path d="M277,437.9c-13.3,0-26.6,0.1-39.9,0.1c-7.1,0-14.2,0-21.2,0.1c-0.8,0-1.6-0.1-2.3,0c-1.1,0.1,0.3,0.1,0.4,0.4
						c-0.9-1.4-1.7-2.9-2.6-4.4c-8.2-14.1-16.4-28.2-24.6-42.4c-1.3-2.3-2.5-4.7-4-6.8c-0.3-0.4-0.7-1-0.9-1.5
						c-0.1-0.3-0.3,1.3,0.2,0.4c2.6-5.1,5.7-9.9,8.5-14.9c7.7-13.4,15.4-26.8,23.1-40.2c-0.9,0.4-1.7,0.8-2.6,1.2
						c13.3,0,26.6-0.1,39.9-0.1c7.1,0,14.2,0,21.2-0.1c0.8,0,1.6,0.1,2.3,0c1.1-0.1-0.3-0.1-0.4-0.4c0.9,1.4,1.7,2.9,2.6,4.4
						c8.2,14.1,16.4,28.2,24.6,42.4c1.3,2.3,2.5,4.7,4,6.8c0.3,0.4,0.7,1,0.9,1.5c0.1,0.3,0.3-1.3-0.2-0.4
						c-2.6,5.1-5.7,9.9-8.5,14.9c-7.7,13.4-15.4,26.8-23.1,40.2c-1,1.8,3,1.6,3.8,0.3c9.5-16.5,18.9-32.9,28.4-49.4
						c0.9-1.6,3.3-4.3,3.5-6.1c0.2-1.5-1.3-3.2-2.1-4.6c-5.5-9.5-11-18.9-16.5-28.4c-4.5-7.8-9.1-15.6-13.6-23.4
						c-0.2-0.3-0.8-0.5-1.1-0.5c-21.3,0.1-42.7,0.1-64,0.2c-0.9,0-2.1,0.3-2.6,1.2c-6.9,11.9-13.7,23.9-20.6,35.8
						c-3.5,6-7,12-10.4,18.1c-1.6,2.8-0.2,3.9,1.4,6.6c8.4,14.5,16.8,29,25.2,43.5c1.4,2.4,3.1,7.5,5.9,8.3c1.4,0.4,3.6,0,5,0
						c3.6,0,7.1,0,10.7,0c16,0,32.1-0.1,48.1-0.1C277.3,440.5,279.7,437.9,277,437.9z"/>
				</g>
			</g>
			<g>
				<polygon fill="#5ACAED" points="179.8,380.7 115.8,380.8 83.6,325.5 115.5,270 179.5,269.8 211.7,325.2 				"/>
				<g>
					<path d="M180,379.1c-13.3,0-26.6,0.1-39.9,0.1c-7.1,0-14.2,0-21.2,0.1c-0.6,0-1.8-0.2-2.3,0c-1.4,0.6,1.2-0.1,1,0.5
						c0.2-0.6-2.3-3.9-2.6-4.4c-8.2-14.1-16.4-28.2-24.6-42.4c-1.3-2.3-2.5-4.7-4-6.8c-0.3-0.4-0.7-1-0.9-1.5c0-0.1-0.4,1.4,0.3,0.6
						c3.4-4.4,5.8-10.1,8.5-14.9c7.7-13.4,15.4-26.8,23.1-40.2c-0.7,0.4-1.4,0.8-2.1,1.3c13.3,0,26.6-0.1,39.9-0.1
						c7.1,0,14.2,0,21.2-0.1c0.6,0,1.8,0.2,2.3,0c1.4-0.6-1.2,0.1-1-0.5c-0.2,0.6,2.3,3.9,2.6,4.4c8.2,14.1,16.4,28.2,24.6,42.4
						c1.3,2.3,2.5,4.7,4,6.8c0.3,0.4,0.7,1,0.9,1.5c0,0.1,0.4-1.4-0.3-0.6c-3.4,4.4-5.8,10.1-8.5,14.9
						c-7.7,13.4-15.4,26.8-23.1,40.2c-1.1,2,2.9,2.2,3.8,0.5c10.6-18.5,21.2-37,31.9-55.5c0.2-0.4,0.1-0.8-0.1-1.2
						c-9.5-16.4-19.1-32.8-28.6-49.3c-0.9-1.6-2.1-4.8-3.5-6.1c-1.4-1.2-4.1-0.6-5.8-0.6c-10.8,0-21.6,0.1-32.3,0.1
						c-9.2,0-18.4,0-27.6,0.1c-0.9,0-1.7,0.5-2.1,1.3c-10.6,18.5-21.2,37-31.9,55.5c-0.2,0.4-0.1,0.8,0.1,1.2
						c9.5,16.4,19.1,32.8,28.6,49.3c0.9,1.6,2.1,4.8,3.5,6.1c1.4,1.2,4.1,0.6,5.8,0.6c10.8,0,21.6-0.1,32.3-0.1
						c9.2,0,18.4,0,27.6-0.1C182,382.2,182.7,379.1,180,379.1z"/>
				</g>
			</g>
			<g>
				<polygon fill="#5ACAED" points="185.3,269.6 121.3,269.8 89.2,214.4 121,158.9 185,158.8 217.2,214.1 				"/>
				<g>
					<path d="M186.1,268.5c-21.3,0.1-42.7,0.1-64,0.2c0.4,0.2,0.8,0.4,1.2,0.6c-9.3-16-18.6-32.1-27.9-48.1c-1.2-2-3.6-4.8-4.1-7.1
						c0,0-0.2,0.7,0.2-0.4c0.5-1.3,1.4-2.5,2.1-3.7c5.4-9.5,10.9-18.9,16.3-28.4c4.3-7.5,8.7-15.1,13-22.6c-0.9,0.4-1.8,0.7-2.6,1.1
						c21.3-0.1,42.7-0.1,64-0.2c-0.4-0.2-0.8-0.4-1.2-0.6c9.3,16,18.6,32.1,27.9,48.1c1.2,2,3.6,4.8,4.1,7.1c0,0,0.2-0.7-0.2,0.4
						c-0.5,1.3-1.4,2.5-2.1,3.7c-5.4,9.5-10.9,18.9-16.3,28.4c-4.3,7.5-8.7,15.1-13,22.6c-0.9,1.6,3.1,1.2,3.7,0.1
						c9.4-16.4,18.8-32.8,28.2-49.1c1-1.7,3.4-4.4,3.6-6.4c0.2-1.5-1.4-3.3-2.2-4.6c-5.5-9.4-11-18.9-16.5-28.3
						c-4.5-7.7-8.9-15.3-13.4-23c-0.3-0.5-0.7-0.6-1.2-0.6c-19.2,0-38.4,0.1-57.6,0.1c-2.1,0-4.6-0.3-6.7,0c-2.5,0.4-3,2.2-4.2,4.2
						c-5.4,9.5-10.9,19-16.3,28.5c-4.6,8-9.1,15.9-13.7,23.9c-0.1,0.2-0.2,0.4-0.1,0.6c9.5,16.4,19.1,32.8,28.6,49.3
						c0.9,1.6,2.1,4.9,3.5,6.1c1.3,1.1,3.7,0.6,5.3,0.6c10.8,0,21.6-0.1,32.3-0.1c9.2,0,18.4,0,27.6-0.1
						C186,270.8,188.8,268.5,186.1,268.5z"/>
				</g>
			</g>
			<g>
				<polygon fill="#5ACAED" points="284.5,219.6 217.2,214.1 188.4,164.4 220.2,108.9 284.3,108.8 316.4,164.1 				"/>
				<g>
					<path d="M285.2,218.1c-12.7-1-25.4-2.1-38.1-3.1c-7.7-0.6-15.4-1.3-23.1-1.9c-1.8-0.1-3.9-0.6-5.7-0.5c-1,0.1,0.6,0.4,0.6,0.5
						c-0.3-0.6-0.7-1.1-1-1.7c-7.7-13.3-15.4-26.6-23.2-39.9c-1.3-2.2-2.4-4.7-3.9-6.7c-0.2-0.3-0.5-0.8-0.7-1.1
						c0.6,1.8-0.3,1,0.5,0.3c1.4-1.2,2.3-4,3.2-5.6c1.9-3.2,3.7-6.5,5.6-9.7c7.5-13.1,15.1-26.3,22.6-39.4c-0.7,0.4-1.4,0.9-2.1,1.3
						c13.3,0,26.6-0.1,39.9-0.1c7.1,0,14.2,0,21.2-0.1c0.6,0,1.8,0.2,2.3,0c1.3-0.6-1.2,0.1-1-0.5c-0.2,0.6,2.3,3.9,2.6,4.4
						c8.2,14.1,16.4,28.2,24.6,42.4c1.3,2.3,2.5,4.7,4,6.8c0.3,0.5,0.6,1,0.9,1.5c0,0,0.4-1.4-0.3-0.6c-3.4,4.4-5.8,10.1-8.5,14.9
						c-7.7,13.4-15.4,26.8-23.1,40.2c-1.1,2,2.9,2.2,3.8,0.6c9.5-16.5,18.9-32.9,28.4-49.4c0.9-1.6,3.3-4.3,3.5-6.1
						c0.2-1.6-1.4-3.4-2.2-4.8c-5.5-9.5-11-18.9-16.5-28.4c-4.5-7.8-9.1-15.6-13.6-23.4c-0.3-0.6-1.1-0.7-1.7-0.7
						c-21.3,0.1-42.7,0.1-64,0.2c-0.9,0-1.7,0.6-2.1,1.3c-6.7,11.7-13.4,23.3-20.1,35c-3.5,6.1-7,12.3-10.5,18.4
						c-1.8,3.1-0.9,3.8,0.9,6.8c8.1,13.9,16.2,27.9,24.2,41.8c1.6,2.8,2.1,4.9,5.4,5.2c6.5,0.7,13,1.1,19.4,1.6
						c15.4,1.3,30.9,2.5,46.3,3.8C285.9,221.3,287.9,218.3,285.2,218.1z"/>
				</g>
			</g>
		</g>
	</g>
	<ellipse cx="260.1" cy="63" rx="4.6" ry="4.4"/>
	<ellipse cx="235.6" cy="63" rx="4.6" ry="4.4"/>
</g>
</svg>
