<?xml version="1.0" encoding="utf-8"?>
<!-- Generator: Adobe Illustrator 18.1.1, SVG Export Plug-In . SVG Version: 6.00 Build 0)  -->
<svg version="1.1" id="Layer_1" xmlns="http://www.w3.org/2000/svg" xmlns:xlink="http://www.w3.org/1999/xlink" x="0px" y="0px"
	 viewBox="0 0 500 500" enable-background="new 0 0 500 500" xml:space="preserve">
<g>
	<circle fill="#D8D6EC" cx="250" cy="250" r="226.5"/>
</g>
<g>
	<g>
		<path fill="#F58457" d="M303.7,169.1h-104c-8.1,0-14.7-6.6-14.7-14.7v-43.8c0-8.1,6.6-14.7,14.7-14.7h104
			c8.1,0,14.7,6.6,14.7,14.7v43.8C318.4,162.5,311.8,169.1,303.7,169.1z"/>
		<g>
			<path d="M304.3,168.1c-23.5,0-47.1,0-70.6,0c-10.6,0-21.3,0.2-31.9,0c-7.7-0.1-14.3-4.7-15.1-12.8c-0.5-4.7-0.1-9.5-0.1-14.2
				c0-7.5,0-15.1,0-22.6c0-5.4-0.8-11.5,2.6-16.2c5.7-8,20.6-5.3,29.1-5.3c27.1,0,54.1,0,81.2,0c6.8,0,13.4,1.8,16.2,9
				c2,5.3,0.9,12.5,0.9,18c0,8.3,0,16.6,0,24.9c0,8.9-1.3,18.7-12.8,19.3c-1.7,0.1-2.7,2-0.4,1.9c8.9-0.4,16.2-6.9,16.5-16
				c0.2-5.7,0-11.5,0-17.2c0-7.7,0-15.4,0-23.1c0-6.6-1.4-12.8-7.6-16.5c-3.8-2.2-7.9-2.2-12.1-2.2c-5.6,0-11.3,0-16.9,0
				c-16.7,0-33.4,0-50.1,0c-10.8,0-21.6-0.2-32.5,0c-6.7,0.1-13,3.3-16,9.6c-2.3,5-1.4,11.8-1.4,17.2c0,8.3,0,16.6,0,24.9
				c0,5.3-0.7,11.1,2.1,15.8c5.8,9.8,19,7.6,28.7,7.6c28.9,0,57.9,0,86.8,0c0.7,0,1.4,0,2,0C304.4,170.1,306.6,168.1,304.3,168.1z"
				/>
		</g>
	</g>
	<g>
		<path fill="#7F2571" d="M398,388.3H105.4c-3.7,0-6.7-3-6.7-6.7v-9.5c0-3.7,3-6.7,6.7-6.7H398c3.7,0,6.7,3,6.7,6.7v9.5
			C404.7,385.3,401.7,388.3,398,388.3z"/>
		<g>
			<path d="M398.6,387.2c-35.4,0-70.8,0-106.3,0c-53.4,0-106.7,0-160.1,0c-6.9,0-13.8,0-20.6,0c-1.6,0-3.2,0.1-4.7,0
				c-5.5-0.4-6.5-4.4-6.5-9.1c0-1.5,0-3,0-4.5c0.1-2.6,0-2.9,2.3-5.1c4.2-4,0.9-1.6,2.8-2c1.3-0.3,3,0,4.3,0c6.7,0,13.3,0,20,0
				c53.1,0,106.2,0,159.4,0c25.2,0,50.5,0,75.7,0c7.7,0,15.4,0,23.2,0c3,0,6.3-0.4,9.3,0c5.4,0.7,5.6,4.9,5.6,9.1
				c0,3.9,1.2,11-4.8,11.6c-1.8,0.2-2.6,2.4-0.4,2.2c8.8-0.9,8.5-8.1,8.5-15c0-5.3-1.8-9.6-7.9-10.1c-3.7-0.3-7.5,0-11.2,0
				c-21.4,0-42.8,0-64.2,0c-58.3,0-116.5,0-174.8,0c-13.9,0-27.8-0.4-41.7,0c-3.8,0.1-7.5,1.6-8.9,5.3c-1,2.6-0.5,6-0.5,8.8
				c0,3.1-0.3,6.2,2.1,8.6c3.1,3.2,8.4,2.4,12.5,2.4c49.3,0,98.6,0,147.9,0c45.2,0,90.3,0,135.5,0c0.8,0,1.6,0,2.3,0
				C398.9,389.4,400.8,387.2,398.6,387.2z"/>
		</g>
	</g>
	<g>
		<path fill="#5ACAED" d="M169.1,404h-49c-2.3,0-4.2-1.9-4.2-4.2v-7.2c0-2.3,1.9-4.2,4.2-4.2h49c2.3,0,4.2,1.9,4.2,4.2v7.2
			C173.3,402.1,171.4,404,169.1,404z"/>
		<g>
			<path d="M169.7,402.9c-7.2,0-14.3,0-21.5,0c-5.3,0-10.5,0-15.8,0c-3.4,0-7.2,0.5-10.6,0c-4.6-0.7-5-5.9-4.2-9.9
				c0.9-4.5,3.6-3.6,7.2-3.6c10.3,0,20.5,0,30.8,0c3.8,0,8.2-0.6,11.9,0c2.3,0.4,3.7,1.5,4.2,3.9c0.4,2,0.7,9.1-2.4,9.6
				c-1.7,0.3-2.6,2.5-0.4,2.2c6.5-1.1,6.6-7,6.1-12.5c-0.5-4.7-3.9-5.3-7.7-5.3c-11.8,0-23.5,0-35.3,0c-3.7,0-7.5-0.2-11.1,0
				c-6.5,0.4-6.6,5.3-6.6,10.5c0,4.4,1.5,7.1,6.2,7.3c4.6,0.2,9.3,0,13.9,0c11.4,0,22.8,0,34.2,0C170,405.1,171.9,402.9,169.7,402.9
				z"/>
		</g>
	</g>
	<g>
		<path fill="#5ACAED" d="M387.5,404h-53c-1.2,0-2.2-1-2.2-2.2v-11.2c0-1.2,1-2.2,2.2-2.2h53c1.2,0,2.2,1,2.2,2.2v11.2
			C389.7,403,388.7,404,387.5,404z"/>
		<g>
			<path d="M387.7,402.8c-8.2,0-16.3,0-24.5,0c-5.8,0-11.6,0-17.4,0c-2.7,0-7.9,1-10.4,0c-1.5-0.6-1.3-2-1.3-3.5
				c0-2.3-0.8-6.4,0-8.5c0.6-1.5,0.2-1,1.5-1.3c1.5-0.4,3.5,0,5,0c11.4,0,22.7,0,34.1,0c2.6,0,5.2,0,7.8,0c1.1,0,3.4-0.5,4.4,0
				c1.7,0.7,2.4,12.8,0.4,13.4c-2,0.5-1.4,2.7,0.6,2.2c2.5-0.7,3.4-1.9,3.6-4.4c0.2-3.1,0.4-6.8,0-9.9c-0.5-3.9-3.4-3.7-6.4-3.7
				c-12.8,0-25.6,0-38.4,0c-3.8,0-8-0.5-11.8,0c-5.7,0.7-4.1,7.3-4.1,11.5c0,4,0.5,6.3,4.9,6.4c5.2,0.2,10.4,0,15.6,0
				c12.1,0,24.2,0,36.2,0C389.2,405.1,389.9,402.8,387.7,402.8z"/>
		</g>
	</g>
	<g>
		<path fill="#5ACAED" d="M387.5,355.8v-36.9c0-0.6,0.5-1,1-1h13.7c0.6,0,1,0.5,1,1v36.9c0,0.6-0.5,1-1,1h-13.7
			C388,356.8,387.5,356.3,387.5,355.8z"/>
		<g>
			<path d="M389.2,355.7c0-6.7,0-13.3,0-20c0-4.2,0-8.4,0-12.6c0-1.2,0.1-2.4,0-3.5c-0.1-1.1-1.2-0.6,0.5-0.5c2,0.2,4,0,6,0
				c1.3,0,4.6-0.6,5.8,0c0.4,0.2-0.1-0.3,0,0.9c0.1,1.3,0,2.7,0,4c0,8.8,0,17.7,0,26.5c0,1.5,0,3.1,0,4.6c0,1.1,1.2,0.7-0.5,0.5
				c-2.3-0.3-4.7,0-7,0c-1.2,0-2.5,0.1-3.7,0c-0.3,0-0.6,0.1-0.9,0c-1.2-0.4,0,0.4-0.3-0.2c-0.6-1.5-3.9-0.6-3.3,0.9
				c1.3,3.1,7.2,1.8,9.8,1.8c2.7,0,8.1,1.2,9.2-2.4c0.7-2.5,0-6.4,0-9c0-5.7,0-11.4,0-17.2c0-3.2,0.8-7.5,0-10.6
				c-0.8-3.1-4.3-2.3-7-2.3c-2.5,0-9.5-1.4-11.4,1c-1.4,1.7-0.6,5.9-0.6,7.9c0,10.1,0,20.3,0,30.4
				C385.9,357.7,389.2,357.2,389.2,355.7z"/>
		</g>
	</g>
	<g>
		<path fill="#F58457" d="M303.7,175.5h-104c-8.1,0-14.7-6.6-14.7-14.7v-43.8c0-8.1,6.6-14.7,14.7-14.7h104
			c8.1,0,14.7,6.6,14.7,14.7v43.8C318.4,168.9,311.8,175.5,303.7,175.5z"/>
		<g>
			<path d="M304.3,174.5c-23.5,0-47.1,0-70.6,0c-10.6,0-21.3,0.2-31.9,0c-7.7-0.1-14.3-4.7-15.1-12.8c-0.5-4.7-0.1-9.5-0.1-14.2
				c0-7.5,0-15.1,0-22.6c0-5.4-0.8-11.5,2.6-16.2c5.7-8,20.6-5.3,29.1-5.3c27.1,0,54.1,0,81.2,0c6.8,0,13.4,1.8,16.2,9
				c2,5.3,0.9,12.5,0.9,18c0,8.3,0,16.6,0,24.9c0,8.9-1.3,18.7-12.8,19.3c-1.7,0.1-2.7,2-0.4,1.9c8.9-0.4,16.2-6.9,16.5-16
				c0.2-5.7,0-11.5,0-17.2c0-7.7,0-15.4,0-23.1c0-6.6-1.4-12.8-7.6-16.5c-3.8-2.2-7.9-2.2-12.1-2.2c-5.6,0-11.3,0-16.9,0
				c-16.7,0-33.4,0-50.1,0c-10.8,0-21.6-0.2-32.5,0c-6.7,0.1-13,3.3-16,9.6c-2.3,5-1.4,11.8-1.4,17.2c0,8.3,0,16.6,0,24.9
				c0,5.3-0.7,11.1,2.1,15.8c5.8,9.8,19,7.6,28.7,7.6c28.9,0,57.9,0,86.8,0c0.7,0,1.4,0,2,0C304.4,176.5,306.6,174.5,304.3,174.5z"
				/>
		</g>
	</g>
	<g>
		<path fill="#5ACAED" d="M392.1,365.4V230c0-52.4-42.9-95.2-95.2-95.2h-90.4c-52.4,0-95.2,42.9-95.2,95.2v135.4H392.1z"/>
		<g>
			<path d="M393.8,365c0-38,0-75.9,0-113.9c0-18.4,0.7-36.5-5.8-54.2c-11.5-31.2-39.3-54.8-71.9-61.1c-8.5-1.6-17-1.7-25.5-1.7
				c-10.6,0-21.2,0-31.8,0c-18,0-36-0.5-54,0c-31.3,0.9-61.2,17-78.8,43c-9.3,13.7-14.9,29.8-16.1,46.3c-0.4,5.5-0.3,11-0.3,16.4
				c0,40.9,0,81.8,0,122.6c0,1.1,0,2.2,0,3.3c0,0.2,0.5,0.2,0.6,0.2c31.7,0,63.5,0,95.2,0c50.2,0,100.5,0,150.7,0
				c11.6,0,23.3,0,34.9,0c0.7,0,3.7-1.3,2.2-1.3c-17.1,0-34.1,0-51.2,0c-36,0-72.1,0-108.1,0c-32.3,0-64.6,0-96.9,0
				c-7.6,0-15.2-0.2-22.8,0c-0.3,0-1.4,0.2-1.7,0c0.4,0.3,0.4,0,0.4-0.8c0.1-3.9,0-7.8,0-11.7c0-34,0-68,0-102
				c0-10.1-0.5-20.4,0.5-30.5c2.7-26.2,16.6-50.5,37.7-66.3c17.4-13.1,37.6-18.2,59.1-18.2c16.1,0,32.2,0,48.3,0
				c12.4,0,24.8-0.1,37.2,0c25.5,0.2,50,10.6,67.8,28.8c17.3,17.7,26.8,41.6,27,66.3c0.1,9.7,0,19.3,0,29c0,33.1,0,66.3,0,99.4
				c0,2.3,0,4.6,0,7C390.5,366.3,393.8,365.9,393.8,365z"/>
		</g>
	</g>
	<g>
		<g>
			<circle fill="#A594C7" cx="251.7" cy="338.9" r="8"/>
			<g>
				<path d="M258.1,339.1c-0.2,3.7-2.8,7.7-7.1,6.7c-3.3-0.7-5.6-4-5.6-7.3c0-4,3.4-7.8,7.7-6.4c3.2,1,4.8,4,5,7.2
					c0.1,1,3.4,0.3,3.3-0.9c-0.6-11.8-19.3-10.5-19.3,0.8c0,11.9,18.7,10.6,19.3-0.5C261.4,337.4,258.1,338.1,258.1,339.1z"/>
			</g>
		</g>
		<g>
			<circle fill="#A594C7" cx="275.4" cy="338.9" r="8"/>
			<g>
				<path d="M281.8,339.1c-0.2,3.9-3.1,8.1-7.6,6.6c-3.1-1-5.1-4-5.1-7.2c0-4.1,3.5-8,7.9-6.4c3,1.1,4.6,4,4.8,7.1
					c0,0.9,3.4,0.3,3.3-0.9c-0.6-11.7-19.2-10.5-19.3,0.8c-0.1,11.9,18.7,10.5,19.3-0.6C285.1,337.5,281.8,338.2,281.8,339.1z"/>
			</g>
		</g>
		<g>
			<circle fill="#A594C7" cx="228" cy="338.9" r="8"/>
			<g>
				<path d="M234.4,339.1c-0.2,3.7-2.9,7.5-7.1,6.7c-3.3-0.7-5.6-3.9-5.6-7.2c0-4,3.4-7.7,7.7-6.3c3.2,1,4.8,3.9,5,7.1
					c0.1,1.2,3.4,0.5,3.3-0.9c-0.6-11.8-19.3-10.7-19.3,0.8c0,12,18.7,10.8,19.3-0.5C237.8,337.3,234.5,337.9,234.4,339.1z"/>
			</g>
		</g>
	</g>
	<g>
		<rect x="392.1" y="225.7" fill="#5ACAED" width="12.1" height="6.3"/>
		<g>
			<path d="M403,231c-4,0-8.1,0-12.1,0c0.9,0.7,1.8,1.3,2.7,2c0-1.7,0-3.3,0-5c0-1.7,0.1-1.4,1.8-1.4c3.4,0,6.8,0,10.2,0
				c-0.9-0.7-1.8-1.3-2.7-2C402.9,226.8,402.9,228.9,403,231c-0.1,0.8,2.7,1.6,2.7,2c0-2.1,0-4.2,0-6.3c0-0.5-2.2-2-2.7-2
				c-4,0-8.1,0-12.1,0c0,0-0.1,0-0.1,0c0,2.1,0,4.2,0,6.3c0,0.5,2.2,2,2.7,2c4,0,8.1,0,12.1,0C405.2,233,403.9,231,403,231z"/>
		</g>
	</g>
	<g>
		<path fill="#5ACAED" d="M428.2,237.3h-20.9c-1.7,0-3-1.3-3-3v-8.7c0-1.7,1.3-3,3-3h20.9c1.7,0,3,1.3,3,3v8.7
			C431.2,236,429.9,237.3,428.2,237.3z"/>
		<g>
			<path d="M426.9,236.3c-6.1,0-12.2,0-18.4,0c-3.1,0-2.9-0.5-2.9-3.6c0-3-1.1-7.9,2.4-9.1c2.3-0.8,5.7-0.1,8.1-0.1
				c3.7,0,7.4,0,11.1,0c2.9,0,2.5,0.8,2.5,3.6C429.8,230.4,431,235.5,426.9,236.3c0.4-0.1,1.8,2.1,2.7,2c4.2-0.8,3-6,3-9.2
				c0-2.5,0-4-2-5.7c-4.1-3.4-11.2-1.8-16.2-1.8c-2.7,0-5.7-0.4-8.4,0c-3.8,0.6-3.2,3.9-3.2,6.9c0,4.8,0.4,9.3,6.2,9.8
				c6.7,0.6,13.7,0,20.4,0C429.2,238.3,427.8,236.3,426.9,236.3z"/>
		</g>
	</g>
</g>
</svg>
