<?xml version="1.0" encoding="utf-8"?>
<!-- Generator: Adobe Illustrator 18.1.1, SVG Export Plug-In . SVG Version: 6.00 Build 0)  -->
<svg version="1.1" id="Layer_1" xmlns="http://www.w3.org/2000/svg" xmlns:xlink="http://www.w3.org/1999/xlink" x="0px" y="0px"
	 viewBox="0 0 500 500" enable-background="new 0 0 500 500" xml:space="preserve">
<circle fill="#F9C3D2" cx="250" cy="250" r="226.5"/>
<g>
	<path fill="#5ACAED" d="M195.3,290.2c0,4.5-3.7,8.2-8.2,8.2c-4.5,0-8.2-3.7-8.2-8.2c0-4.5,3.7-8.2,8.2-8.2
		C191.7,282,195.3,285.7,195.3,290.2z"/>
	<path stroke="#000000" stroke-width="0.8561" stroke-miterlimit="10" d="M273.8,151.7c0,5.3-4.3,9.5-9.5,9.5h-28.6
		c-5.3,0-9.5-4.3-9.5-9.5v-37.9c0-5.3,4.3-9.5,9.5-9.5h28.6c5.3,0,9.5,4.3,9.5,9.5V151.7z"/>
	<g>
		<circle fill="#D24D9C" cx="250" cy="278.4" r="139.4"/>
		<g>
			<path d="M387.7,278.9c-0.3,57.5-36.6,110.4-90.9,130.1c-54.9,19.9-117.9,1.2-154.2-44.3c-35.7-44.8-40.1-109.1-10.5-158.2
				c30.2-50.2,90.3-76.2,147.6-63.3c55.1,12.4,98.2,59.1,106.5,114.9C387.2,265,387.6,271.9,387.7,278.9c0,0.8,3.4,0.3,3.4-0.9
				c-0.3-59.5-38.9-113.5-95.4-132.5c-54.8-18.4-117.2-0.7-154.2,43.6c-38.4,45.9-43.2,113.2-11.3,163.9
				c31.2,49.7,91.4,74.7,148.8,62.6c56.6-11.9,101.7-58.7,110.5-116c1.1-7.2,1.6-14.4,1.6-21.6C391.1,277.1,387.7,277.7,387.7,278.9
				z"/>
		</g>
	</g>
	<g>
		<g>
			<path d="M247.9,103.2c-1.2-1.9-2.3-3.9-3.6-5.8c-1-1.3-2.3-2.3-3.2-3.6c-3-4.1-0.6-8.6,3.8-9.8c5.1-1.3,8.6,0.6,9.8,5.7
				c1.3,5.3-1,9-3.9,13.2c-1.3,1.9,2.1,2.3,3,1c3.7-5.2,6.4-10.1,4.1-16.6c-1.9-5.3-6.6-7-11.8-6c-4.4,0.8-9.1,2.8-9.7,7.8
				c-0.3,2.4,0.2,4.8,1.7,6.6c2.5,2.9,4.5,5.8,6.6,9.1C245.4,106.1,248.9,104.8,247.9,103.2L247.9,103.2z"/>
		</g>
	</g>
	<g>
		
			<path fill="none" stroke="#000000" stroke-width="5.0108" stroke-linecap="round" stroke-linejoin="round" stroke-miterlimit="10" d="
			M226.1,128.9c2,0,2.2,17,4.2,17c2,0,1.9-17.1,3.9-17.1c2,0,2.2,17,4.2,17c2,0,1.9-17.1,3.9-17.1c2,0,2.2,17,4.2,17
			s1.9-17.1,3.9-17.1c2,0,2.2,17,4.2,17c2,0,1.9-17.1,3.9-17.1c2,0,2.2,17,4.2,17c2,0,1.9-17.1,3.9-17.1c2,0,2.2,17,4.2,17
			c2,0,1.9-17.1,3.9-17.1"/>
	</g>
</g>
</svg>
