<?xml version="1.0" encoding="utf-8"?>
<!-- Generator: Adobe Illustrator 18.1.1, SVG Export Plug-In . SVG Version: 6.00 Build 0)  -->
<svg version="1.1" id="Layer_1" xmlns="http://www.w3.org/2000/svg" xmlns:xlink="http://www.w3.org/1999/xlink" x="0px" y="0px"
	 viewBox="0 0 500 500" enable-background="new 0 0 500 500" xml:space="preserve">
<circle fill="#FCE3EE" cx="250" cy="250" r="226.5"/>
<g>
	<g>
		<circle fill="#82C670" cx="250" cy="250" r="151.7"/>
	</g>
	<g>
		<circle fill="#F04D5D" cx="250" cy="250.5" r="144.3"/>
		<g>
			<path d="M392.7,250.7c-0.3,59-37.1,113.5-92.7,134.2c-56.6,21.1-121.9,3-160.1-43.6c-37.7-46-42.9-112.6-12.7-163.8
				c30.7-52.1,92.7-79.7,152-67.1c57.1,12.1,102.3,59.6,111.7,117.2C392,235.2,392.6,242.9,392.7,250.7c0,1.4,3.2,0.8,3.2-0.3
				c-0.3-60.7-38.9-116-96.2-136.6c-57.1-20.5-122.9-2.5-161.8,44c-39.2,46.9-44.6,115.3-13,167.7c31.5,52.2,93.8,79.3,153.4,67.5
				c58.8-11.6,106-59.9,115.6-119.2c1.3-7.7,1.9-15.6,1.9-23.4C395.9,248.9,392.7,249.5,392.7,250.7z"/>
		</g>
	</g>
	<g>
		
			<ellipse transform="matrix(0.9155 -0.4022 0.4022 0.9155 -44.5082 100.4827)" stroke="#000000" stroke-width="1.0936" stroke-miterlimit="10" cx="217" cy="156.2" rx="6.1" ry="10.5"/>
		
			<ellipse transform="matrix(0.9513 -0.3082 0.3082 0.9513 -47.288 83.0217)" stroke="#000000" stroke-width="1.0936" stroke-miterlimit="10" cx="239.2" cy="191.2" rx="6.1" ry="10.5"/>
		
			<ellipse transform="matrix(0.6919 -0.722 0.722 0.6919 -70.1562 187.273)" stroke="#000000" stroke-width="1.0936" stroke-miterlimit="10" cx="184.4" cy="175.8" rx="6.1" ry="10.5"/>
		
			<ellipse transform="matrix(0.363 -0.9318 0.9318 0.363 -89.3808 282.187)" stroke="#000000" stroke-width="1.0936" stroke-miterlimit="10" cx="161.7" cy="206.5" rx="6.1" ry="10.5"/>
		
			<ellipse transform="matrix(-2.122629e-002 -0.9998 0.9998 -2.122629e-002 -87.6684 401.0321)" stroke="#000000" stroke-width="1.0936" stroke-miterlimit="10" cx="152.5" cy="243.4" rx="6.1" ry="10.5"/>
		
			<ellipse transform="matrix(-0.4022 -0.9155 0.9155 -0.4022 -35.6913 538.9177)" stroke="#000000" stroke-width="1.0936" stroke-miterlimit="10" cx="158.1" cy="281.1" rx="6.1" ry="10.5"/>
		
			<ellipse transform="matrix(-0.722 -0.6919 0.6919 -0.722 88.8951 663.265)" stroke="#000000" stroke-width="1.0936" stroke-miterlimit="10" cx="177.7" cy="313.8" rx="6.1" ry="10.5"/>
		
			<ellipse transform="matrix(-0.9318 -0.363 0.363 -0.9318 280.3258 725.5547)" stroke="#000000" stroke-width="1.0936" stroke-miterlimit="10" cx="208.3" cy="336.4" rx="6.1" ry="10.5"/>
		
			<ellipse transform="matrix(-0.9998 2.122639e-002 -2.122639e-002 -0.9998 497.8703 686.0463)" stroke="#000000" stroke-width="1.0936" stroke-miterlimit="10" cx="245.3" cy="345.7" rx="6.1" ry="10.5"/>
		
			<ellipse transform="matrix(-0.9155 0.4022 -0.4022 -0.9155 678.821 537.5525)" stroke="#000000" stroke-width="1.0936" stroke-miterlimit="10" cx="283" cy="340" rx="6.1" ry="10.5"/>
		
			<ellipse transform="matrix(-0.6919 0.722 -0.722 -0.6919 765.3723 314.2668)" stroke="#000000" stroke-width="1.0936" stroke-miterlimit="10" cx="315.6" cy="320.4" rx="6.1" ry="10.5"/>
		
			<ellipse transform="matrix(-0.363 0.9318 -0.9318 -0.363 731.1453 79.7709)" stroke="#000000" stroke-width="1.0936" stroke-miterlimit="10" cx="338.3" cy="289.8" rx="6.1" ry="10.5"/>
		
			<ellipse transform="matrix(2.122632e-002 0.9998 -0.9998 2.122632e-002 592.9376 -99.9776)" stroke="#000000" stroke-width="1.0936" stroke-miterlimit="10" cx="347.5" cy="252.8" rx="6.1" ry="10.5"/>
		
			<ellipse transform="matrix(0.4022 0.9155 -0.9155 0.4022 401.3785 -184.4115)" stroke="#000000" stroke-width="1.0936" stroke-miterlimit="10" cx="341.9" cy="215.2" rx="6.1" ry="10.5"/>
		
			<ellipse transform="matrix(0.722 0.6919 -0.6919 0.722 215.8888 -172.2635)" stroke="#000000" stroke-width="1.0936" stroke-miterlimit="10" cx="322.3" cy="182.5" rx="6.1" ry="10.5"/>
		
			<ellipse transform="matrix(0.9318 0.363 -0.363 0.9318 77.9098 -94.9713)" stroke="#000000" stroke-width="1.0936" stroke-miterlimit="10" cx="291.7" cy="159.8" rx="6.1" ry="10.5"/>
		
			<ellipse transform="matrix(0.9998 -2.122634e-002 2.122634e-002 0.9998 -3.1394 5.4404)" stroke="#000000" stroke-width="1.0936" stroke-miterlimit="10" cx="254.7" cy="150.6" rx="6.1" ry="10.5"/>
		
			<ellipse transform="matrix(0.3522 -0.9359 0.9359 0.3522 -75.1881 329.3446)" stroke="#000000" stroke-width="1.0936" stroke-miterlimit="10" cx="200.3" cy="219" rx="6.1" ry="10.5"/>
		
			<ellipse transform="matrix(-0.5122 -0.8589 0.8589 -0.5122 70.0581 573.1641)" stroke="#000000" stroke-width="1.0936" stroke-miterlimit="10" cx="197.8" cy="266.7" rx="6.1" ry="10.5"/>
		
			<ellipse transform="matrix(-0.9908 -0.1351 0.1351 -0.9908 424.6171 625.5894)" stroke="#000000" stroke-width="1.0936" stroke-miterlimit="10" cx="233.5" cy="298.4" rx="6.1" ry="10.5"/>
		
			<ellipse transform="matrix(-0.7234 0.6904 -0.6904 -0.7234 683.9557 306.4294)" stroke="#000000" stroke-width="1.0936" stroke-miterlimit="10" cx="280.6" cy="290.2" rx="6.1" ry="10.5"/>
		
			<ellipse transform="matrix(8.878786e-002 0.9961 -0.9961 8.878786e-002 523.9551 -76.0686)" stroke="#000000" stroke-width="1.0936" stroke-miterlimit="10" cx="303.6" cy="248.3" rx="6.1" ry="10.5"/>
		
			<ellipse transform="matrix(0.8341 0.5516 -0.5516 0.8341 159.9774 -123.3863)" stroke="#000000" stroke-width="1.0936" stroke-miterlimit="10" cx="285.1" cy="204.3" rx="6.1" ry="10.5"/>
	</g>
</g>
</svg>
