<?xml version="1.0" encoding="utf-8"?>
<!-- Generator: Adobe Illustrator 18.1.1, SVG Export Plug-In . SVG Version: 6.00 Build 0)  -->
<svg version="1.1" id="Layer_1" xmlns="http://www.w3.org/2000/svg" xmlns:xlink="http://www.w3.org/1999/xlink" x="0px" y="0px"
	 viewBox="0 0 500 500" enable-background="new 0 0 500 500" xml:space="preserve">
<g>
	<circle fill="#FFFAC0" cx="250" cy="250" r="226.5"/>
	<g>
		<path fill="#FFFAC0" d="M475.1,250.1c-0.1,46.5-14.4,92.2-41.2,130.2c-26.1,36.9-63.2,65.6-105.6,81.3
			c-44.7,16.6-94.6,18.4-140.5,5.1c-43.6-12.6-82.8-38.6-111.6-73.6c-29-35.3-46.8-79.1-50.5-124.6c-3.8-46.6,7-94,31-134.2
			c23.3-39,58.4-70.6,99.7-89.5c43-19.7,92-25.2,138.4-15.7c44.9,9.1,86.6,32.4,118.2,65.6c31.2,32.9,52.1,75,59.3,119.8
			C474.1,226.2,475,238.2,475.1,250.1c0,1.5,2.9,1.1,2.9-0.2c-0.1-47.1-14.7-93.4-42-131.8c-26.7-37.5-64.8-66.5-108.1-82.2
			C283.2,19.8,233.7,18.1,188,31c-44.2,12.5-84.1,38.5-113.5,73.9c-29.8,35.9-48.1,80.6-51.8,127.1C19,279.2,30.1,327,54.6,367.6
			c23.8,39.4,59.6,71.1,101.5,90c43.2,19.5,92.3,24.8,138.8,15.5c45.2-9,87.2-32.1,119.2-65.3c32.2-33.3,53.7-76.3,61-122
			c1.9-11.9,2.8-23.9,2.8-35.9C478,248.4,475.1,248.8,475.1,250.1z"/>
	</g>
</g>
<g>
	<g>
		<g>
			<path fill="#D24D9C" d="M229.3,66.3c-1.3-0.4-2.6-0.7-4-0.7c-6.1,0-10.8,4.1-11.2,9.9c-0.2,3.2,0.8,6.2,2.9,8.5
				c2.3,2.4,5.7,3.9,9.1,3.9h0c6.1,0,10.5-4.2,10.9-10.3C237.4,72.1,234.6,68,229.3,66.3z"/>
			<g>
				<path d="M230.1,65.2c-6.3-1.7-13.8,0.1-16.6,6.6c-3.1,7.3,1.8,15,9.2,16.7C237.7,91.9,244.8,70.9,230.1,65.2
					c-1.3-0.5-3.4,1.4-1.7,2c4.5,1.7,7.5,5.3,7.1,10.3c-0.4,5.1-4,9.2-9.3,9.1c-14.9-0.2-13.1-23.7,2.3-19.4
					C229.7,67.6,231.9,65.7,230.1,65.2z"/>
			</g>
		</g>
		<g>
			<path fill="#D24D9C" d="M259.8,108c5.7,0,11.7-3.7,12.2-10.8c0.7-8.6-4.8-11.7-9.5-12.8c-1.1-0.3-2.2-0.4-3.2-0.4
				c-6.6,0-11.4,4.6-11.6,11.2c-0.2,3.6,0.9,6.7,3.2,9C253.1,106.7,256.3,108,259.8,108L259.8,108z"/>
			<g>
				<path d="M259.2,108.7c6.9-0.3,13.6-4.3,14.3-11.7c0.8-7.9-4.9-13-12.5-13.5c-6.3-0.4-12.9,3-14.5,9.5
					C244.5,101.5,250.7,108.7,259.2,108.7c0.9,0,3.1-1.3,1.2-1.3c-6.1,0-11-5-11.3-10.9c-0.4-7.6,5.7-13.5,13.6-11
					c11.1,3.5,10.5,21.4-2.3,21.9C259.6,107.4,257.3,108.8,259.2,108.7z"/>
			</g>
		</g>
		<g>
			<path fill="#D24D9C" d="M247.1,113.3c-2.4,0-4,1-4.8,1.8c-1.2,1.1-1.8,2.7-1.8,4.5c0,3.9,3.4,8.5,7.8,8.5h0c2.2,0,4-1.8,4-4
				C252.3,123,254.7,113.3,247.1,113.3z"/>
			<g>
				<path d="M247.6,112.6c-5.1,0.3-9.9,3.7-8.3,9.5c1.3,4.6,6.2,8.1,10.9,6.3c3.6-1.4,3.9-5.2,3.9-8.5
					C254.1,115.5,252.1,112.7,247.6,112.6c-1,0-3.1,1.4-1.2,1.5c5.2,0.2,4.8,5.9,4.4,9.7c-0.2,1.4-0.3,3.2-2,3.5
					c-1.8,0.4-4-1.6-5-2.9c-2.6-3.3-3.1-10,2.7-10.4C247.5,114,249.6,112.5,247.6,112.6z"/>
			</g>
		</g>
		<g>
			<path fill="#FFFFFF" d="M277.6,263.1V146.5h-10.2v132.4c24.1,7.4,41,29.8,41,56.3l-117.4,0c0-26.9,18-49.5,42.6-56.6V146.5h-11.1
				v116.6c-35,11.6-60.3,44.5-60.3,83.4c0,48.5,39.3,87.9,87.9,87.9s87.9-39.3,87.9-87.9C337.9,307.6,312.6,274.7,277.6,263.1z"/>
			<g>
				<path d="M278.6,263c0-34.1,0-68.1,0-102.2c0-4.8,0-9.6,0-14.5c0-0.4-0.3-0.6-0.7-0.6c-3.4,0-6.8,0-10.2,0
					c-0.4,0-1.5,0.2-1.5,0.8c0,38.6,0,77.2,0,115.8c0,5.5,0,11,0,16.6c0,0.3,0.2,0.5,0.4,0.6c24.4,7.8,40.2,30.4,40.5,55.8
					c0.5-0.3,1-0.5,1.5-0.8c-19.4,0-38.8,0-58.2,0c-13.4,0-26.9,0-40.3,0c-4.5,0-9,0-13.5,0c-0.7,0-4.9,0.6-5.4,0
					c0.5,0.6,0.8-3.7,0.8-3.8c0.1-1.4,0.3-2.9,0.5-4.3c0.5-3.2,1.2-6.5,2.2-9.6c1.8-5.6,4.5-10.9,7.9-15.7
					c7.6-10.6,18.5-18.2,30.9-22c0.3-0.1,0.9-0.4,0.9-0.8c0-38.5,0-77.1,0-115.6c0-5.5,0-11,0-16.5c0-0.4-0.3-0.6-0.7-0.6
					c-3.7,0-7.4,0-11.1,0c-0.4,0-1.5,0.2-1.5,0.8c0,26.5,0,52.9,0,79.4c0,7.6,0,15.2,0,22.8c0,4.1,0.8,9,0,13c-0.4,2.1,0,0.9-2.7,2
					c-5.5,2.1-10.8,4.7-15.7,7.8c-9.8,6.1-18.4,14.2-25.2,23.5c-29.4,40.6-18,99.1,24.1,126.1c40.3,25.8,95.5,14,122.2-25.5
					c28.3-42,14.2-101-29.7-126c-5.1-2.9-10.5-5.2-16-7.1c-0.8-0.3-2.5,0.9-1.3,1.3c30.9,10.5,54.1,37.6,58.9,70
					c4.7,31.8-8.8,64.4-34.8,83.4c-26.6,19.4-62.9,21.8-91.8,6.2c-27.4-14.8-45.2-43.7-45.9-74.8c-0.9-38,23.5-72.6,59.4-84.7
					c0.3-0.1,0.9-0.4,0.9-0.8c0-34.1,0-68.1,0-102.2c0-4.8,0-9.6,0-14.5c-0.5,0.3-1,0.5-1.5,0.8c3,0,7,0.7,9.9,0
					c1.3-0.3,0.7,0.1,0.5-0.5c0.1,0.2,0,0.8,0,1c-0.6,3.5,0,7.6,0,11.1c0,15.1,0,30.2,0,45.3c0,16.7,0,33.5,0,50.2
					c0,5.7,0,11.5,0,17.2c0,1.3,0.8,5.9,0,7.1c-0.1,0.1-6.3,1.9-7.2,2.2c-2.8,1.3-5.5,2.7-8.1,4.4c-5.4,3.5-10.2,7.9-14.3,12.9
					c-8.5,10.6-13,23.6-13.1,37.2c0,0.4,0.3,0.6,0.7,0.6c34.3,0,68.5,0,102.8,0c4.9,0,9.7,0,14.6,0c0.4,0,1.5-0.2,1.5-0.8
					c-0.3-22.2-12.1-43.1-32.2-53.2c-1.5-0.8-8.3-2.6-8.7-3.4c-0.3-0.5,0-2.2,0-2.8c0-4.3,0-8.5,0-12.8c0-30.3,0-60.6,0-91
					c0-8.5,0-17,0-25.5c-0.5,0.3-1,0.5-1.5,0.8c2,0,4,0,6,0c1.2,0,2.3,0,3.5,0c1.2,0-0.1-0.8,0-0.4c0.5,1.2,0,3.6,0,4.9
					c0,8.6,0,17.2,0,25.8c0,23,0,45.9,0,68.9c0,5.6,0,11.3,0,16.9C276.5,264.3,278.6,263.9,278.6,263z"/>
			</g>
		</g>
		<g>
			<path fill="#D24D9C" d="M250,393c-32.6,0-58.3-25.8-58.3-58.4l116-0.6C307.7,366.5,282.6,393,250,393z"/>
			<g>
				<path d="M250.6,391.8c-31.7-0.4-56.8-25.7-57.2-57.4c-0.6,0.4-1.3,0.9-1.9,1.4c33.9-0.2,67.8-0.4,101.7-0.5
					c4.8,0,9.6-0.1,14.4-0.1c-0.5-0.4-1-0.7-1.6-1.1c-0.3,31.3-24,57.3-55.8,57.7c-1.9,0-2.7,2.4-0.3,2.4
					c33.3-0.4,59.2-27.4,59.6-60.4c0-0.9-0.8-1.1-1.6-1.1c-33.9,0.2-67.8,0.4-101.7,0.5c-4.8,0-9.6,0.1-14.4,0.1
					c-0.6,0-1.9,0.6-1.9,1.4c0.4,33,26.5,59.1,59.5,59.5C251,394.2,252.9,391.8,250.6,391.8z"/>
			</g>
		</g>
		<g>
			<ellipse fill="#FFFFFF" cx="250" cy="147" rx="28.2" ry="5.9"/>
			<g>
				<path d="M276.5,147.2c-0.5,2.9-8.2,3.5-10.5,3.8c-5.7,0.8-11.5,1-17.3,1c-5.5-0.1-10.9-0.4-16.3-1.4c-1.7-0.3-8.8-1.2-8.9-3.9
					c-0.1-2.7,9.4-3.5,11.2-3.8c5.8-0.8,11.6-1,17.4-0.8c5.4,0.1,10.8,0.5,16,1.5c2,0.4,7.8,1.1,8.3,3.9c0.2,1,3.6,0.2,3.4-0.9
					c-0.5-3.2-6.4-4-8.9-4.6c-7.8-1.7-16.1-1.9-24.1-1.7c-6.8,0.2-13.9,0.6-20.4,2.7c-1.9,0.6-6.3,1.8-6.3,4.4
					c0,2.9,5.6,3.9,7.7,4.4c7.6,1.8,15.7,2.1,23.5,2c7.1-0.1,14.4-0.5,21.3-2.4c2.3-0.6,6.9-1.7,7.4-4.6
					C280.1,145.5,276.7,146.1,276.5,147.2z"/>
			</g>
		</g>
	</g>
	<path fill="#FFFFFF" d="M238,373.1c0.2,0.6,0.3,1.2,0.3,1.9c-0.1,2.6-2.4,4.6-5,4.4c-16.3-0.9-28.9-14.9-28-31.2
		c0.1-2.6,2.4-4.6,5-4.4c2.6,0.1,4.6,2.4,4.4,5c-0.6,11.1,7.9,20.7,19.1,21.3C235.8,370.1,237.4,371.3,238,373.1L238,373.1z
		 M238,373.1"/>
</g>
</svg>
