<?xml version="1.0" encoding="utf-8"?>
<!-- Generator: Adobe Illustrator 18.1.1, SVG Export Plug-In . SVG Version: 6.00 Build 0)  -->
<svg version="1.1" id="Layer_1" xmlns="http://www.w3.org/2000/svg" xmlns:xlink="http://www.w3.org/1999/xlink" x="0px" y="0px"
	 viewBox="0 0 500 500" enable-background="new 0 0 500 500" xml:space="preserve">
<g>
	<circle fill="#C8EAF5" cx="250" cy="250" r="226.5"/>
</g>
<g>
	<g>
		<path fill="#FFFFFF" d="M250,98.2c-86.2,0-156.1,68-156.1,151.8c0,83.8,69.9,151.8,156.1,151.8s156.1-68,156.1-151.8
			C406.1,166.2,336.2,98.2,250,98.2z M250,277.2c-15,0-27.2-12.2-27.2-27.2c0-15,12.2-27.2,27.2-27.2c15,0,27.2,12.2,27.2,27.2
			C277.2,265,265,277.2,250,277.2z"/>
		<g>
			<path d="M250.7,97.4c-63.6,0.3-123.9,38.1-147.8,97.7c-24.5,61.1-4.6,131.9,46.5,172.8c50.7,40.6,123.7,45.6,180.1,13.7
				c56.2-31.8,88.1-96.6,75.6-160.6c-12.4-63.7-66.5-112.5-130.2-121.9C266.9,98,258.8,97.4,250.7,97.4c-1.1,0-3.6,1.6-1.4,1.6
				c63.3,0.3,122.7,39.1,145.4,98.7c22.5,59,3.9,127-44.4,167.3c-50.4,42.1-124.3,47.4-180.6,13.6c-53.5-32.1-83.3-95-71.6-156.7
				c11.9-62.3,64-111.2,126.3-121c8.2-1.3,16.5-1.9,24.8-1.9C250.4,99,253,97.4,250.7,97.4z"/>
			<path d="M250.7,276.4c-13.4-0.3-24.7-10.7-26.1-24.1c-1.5-14.5,9.7-28.8,24.7-28.7c13.4,0,24.7,10.9,26.1,24.1
				C276.9,262.5,265.7,276,250.7,276.4c-1.1,0-3.6,1.7-1.4,1.6c11-0.3,21.5-5.9,26.6-15.9c5.8-11.4,2.8-25.6-7-33.7
				c-19.3-15.9-50.8,0.3-47.6,25.5c1.8,14.2,14.1,23.8,28,24.1C250.4,278.1,253,276.5,250.7,276.4z"/>
		</g>
	</g>
	<circle fill="none" stroke="#000000" stroke-width="10.0217" stroke-miterlimit="10" cx="250" cy="250" r="61.7"/>
	<polygon points="391.9,187.3 310.3,224.7 305.1,215.5 379.2,165.2 	"/>
	<polygon points="404.9,238 312.9,240.5 311.7,230.1 399.6,209.6 	"/>
	<polygon points="151.3,367.7 210.5,297.2 203,289.8 133.3,349.7 	"/>
	<polygon points="93.9,266 185.7,258.3 185.7,247.8 94,240.5 	"/>
</g>
</svg>
