<?xml version="1.0" encoding="utf-8"?>
<!-- Generator: Adobe Illustrator 18.1.1, SVG Export Plug-In . SVG Version: 6.00 Build 0)  -->
<svg version="1.1" id="Layer_1" xmlns="http://www.w3.org/2000/svg" xmlns:xlink="http://www.w3.org/1999/xlink" x="0px" y="0px"
	 viewBox="0 0 500 500" enable-background="new 0 0 500 500" xml:space="preserve">
<circle fill="#F9C3D2" cx="250" cy="250" r="226.5"/>
<g>
	<g>
		<g>
			
				<path fill="none" stroke="#000000" stroke-width="5.0108" stroke-linecap="round" stroke-linejoin="round" stroke-miterlimit="10" d="
				M171.4,171c6.1-10,12.3-6.3,18.4-16.3c6.1-10,0-13.8,6.1-23.8c6.1-10,12.3-6.3,18.4-16.3"/>
		</g>
		<g>
			
				<path fill="none" stroke="#000000" stroke-width="5.0108" stroke-linecap="round" stroke-linejoin="round" stroke-miterlimit="10" d="
				M228.5,167.2c6.1-10,12.3-6.3,18.4-16.3c6.1-10,0-13.8,6.1-23.8s12.3-6.3,18.4-16.3"/>
		</g>
		<g>
			
				<path fill="none" stroke="#000000" stroke-width="5.0108" stroke-linecap="round" stroke-linejoin="round" stroke-miterlimit="10" d="
				M285.7,167.2c6.1-10,12.3-6.3,18.4-16.3c6.1-10,0-13.8,6.1-23.8c6.1-10,12.3-6.3,18.4-16.3"/>
		</g>
	</g>
	<g>
		<path fill="#FFFFFF" d="M402.5,200.3c0,1.9-1.5,3.4-3.4,3.4H100.9c-1.9,0-3.4-1.5-3.4-3.4l0,0c0-1.9,1.5-3.4,3.4-3.4h298.2
			C401,196.9,402.5,198.4,402.5,200.3L402.5,200.3z"/>
		<g>
			<path d="M401.8,200.4c-0.9,4.4-7.5,2.9-10.4,2.9c-7.3,0-14.6,0-21.9,0c-23.7,0-47.3,0-71,0c-53.6,0-107.1,0-160.7,0
				c-8.2,0-16.4,0-24.6,0c-3.7,0-7.9,0.6-11.5,0c-2.4-0.4-2.5-0.6-1.7-3.5c1.6-5.6-0.2-2,1.3-2.6c1.1-0.4,3.1,0,4.3,0
				c6.3,0,12.5,0,18.8,0c51.2,0,102.5,0,153.7,0c25.7,0,51.4,0,77.2,0c13.9,0,27.9-0.7,41.8,0C399.3,197.4,401.1,197,401.8,200.4
				c0.1,0.5,1.5,0.2,1.4-0.3c-0.9-4.7-6.3-3.6-9.9-3.6c-7.1,0-14.3,0-21.4,0c-24.5,0-49,0-73.4,0c-55.1,0-110.2,0-165.4,0
				c-7.8,0-15.7,0-23.5,0c-2.8,0-5.8-0.3-8.5,0c-4.9,0.6-5.9,6.7-0.5,7.5c0.9,0.1,1.9,0,2.9,0c5.9,0,11.8,0,17.7,0
				c52.8,0,105.5,0,158.3,0c26.4,0,52.9,0,79.3,0c13.1,0,26.5,0.9,39.5,0c2.6-0.2,4.4-1.1,4.9-3.9
				C403.3,199.7,401.9,199.9,401.8,200.4z"/>
		</g>
	</g>
	
		<line fill="none" stroke="#000000" stroke-width="5.0108" stroke-linecap="round" stroke-miterlimit="10" x1="205.1" y1="323.7" x2="155" y2="391"/>
	
		<line fill="none" stroke="#000000" stroke-width="5.0108" stroke-linecap="round" stroke-miterlimit="10" x1="301.9" y1="323.7" x2="352.1" y2="391"/>
	<path stroke="#000000" stroke-width="5.7784" stroke-miterlimit="10" d="M119.6,219.3c0,2.9-3.1,5.3-7,5.3h-8.1c-3.9,0-7-2.4-7-5.3
		l0,0c0-2.9,3.1-5.3,7-5.3h8.1C116.5,214,119.6,216.3,119.6,219.3L119.6,219.3z"/>
	<path stroke="#000000" stroke-width="6.5201" stroke-miterlimit="10" d="M402.5,219.3c0,2.9-4,5.3-8.9,5.3h-10.3
		c-4.9,0-8.9-2.4-8.9-5.3l0,0c0-2.9,4-5.3,8.9-5.3h10.3C398.5,214,402.5,216.3,402.5,219.3L402.5,219.3z"/>
	<g>
		<path fill="#176C82" d="M111.3,207.6c7.2,70.3,66.5,125.1,138.7,125.1s131.5-54.8,138.7-125.1H111.3z"/>
		<g>
			<path d="M109.6,208c5.8,54.5,43.7,101.8,95.9,118.9c52.1,17.1,110.8,1.9,148.1-38.3c20.7-22.3,33.6-51,36.8-81.2
				c0.1-0.9-0.9-1.2-1.6-1.2c-31.3,0-62.7,0-94,0c-49.7,0-99.4,0-149.1,0c-11.4,0-22.8,0-34.2,0c-2,0-2.6,2.7-0.3,2.7
				c31.3,0,62.7,0,94,0c49.7,0,99.4,0,149.1,0c11.4,0,22.8,0,34.2,0c-0.5-0.4-1.1-0.8-1.6-1.2c-5.7,53.1-42.2,99.6-93.1,116.6
				c-51.4,17.1-109.5,1.8-145.7-38.4c-19.7-21.9-31.9-49.5-35-78.8C112.9,205.4,109.4,206.3,109.6,208z"/>
		</g>
	</g>
</g>
</svg>
