<?xml version="1.0" encoding="utf-8"?>
<!-- Generator: Adobe Illustrator 18.1.1, SVG Export Plug-In . SVG Version: 6.00 Build 0)  -->
<svg version="1.1" id="Layer_1" xmlns="http://www.w3.org/2000/svg" xmlns:xlink="http://www.w3.org/1999/xlink" x="0px" y="0px"
	 viewBox="0 0 500 500" enable-background="new 0 0 500 500" xml:space="preserve">
<g>
	<circle fill="#C8EAF5" cx="250" cy="250" r="226.5"/>
</g>
<g>
	<g>
		<path fill="#7D76B7" d="M371.6,264.3h-2.1v-10c-5.5,0-11.1-0.1-16.6-0.4v10.5h-6.2c-6.9,0-12.4,5.6-12.4,12.4v91.1
			c0,2.7,0.9,5.1,2.3,7.2c-0.4,2.5,0.3,5.1,2.2,7c1.6,1.6,3.8,2.5,5.9,2.5c2.1,0,4.2-0.8,5.9-2.5l1.7-1.7h19.4
			c24,0,43.5-22.3,43.5-49.7V314C415.1,286.6,395.6,264.3,371.6,264.3z"/>
		<g>
			<path d="M372,262.6c-0.8,0-2.3,0-1.8,0.7c-0.3-0.5,0-2.8,0-3.4c0-2.1,0-4.3,0-6.4c0-0.2,0-1-0.3-1c-5.5,0-11.1-0.2-16.6-0.4
				c-0.8,0-1.2,1.9-1.2,2.4c0,3.5,0,7,0,10.5c0.4-0.8,0.8-1.6,1.2-2.4c-5.3,0-10.7-0.5-14.9,3.4c-3.3,3-4.8,7.4-5,11.7
				c-0.2,6.4,0,12.9,0,19.4c0,21.7,0,43.3,0,65c0,2.1,0,4.2,0,6.3c0,1.9,0.3,3.6,0.9,5.4c1,2.9,1.2,6.7,3.2,9.2c1.9,2.4,5,3.5,8,3.1
				c3.1-0.5,4.1-3.1,6.4-4c1.4-0.6,4.2,0,5.7,0c2.8,0,5.6,0,8.4,0c12.9,0,24.4-2.9,33.9-12.4c10.5-10.5,15.7-25.2,15.8-39.9
				c0.1-12.8,0.8-26-4.1-38.1C405.1,275.2,390.2,262.9,372,262.6c-1.1,0-1.6,3.4-0.9,3.4c14.5,0.2,27.2,8.2,35,20.3
				c7.4,11.5,8.3,24,8.3,37.2c0,13.8-1.3,26.9-10,38.4c-8.2,10.6-20.1,16.7-33.4,16.7c-4.5,0-9.1,0-13.6,0c-1.2,0-3.2-0.4-4.4,0
				c-1.3,0.4-2.2,1.8-3.3,2.6c-3.5,2.5-8.8,1.9-11.2-2c-2.7-4.3-0.3-3.6-1.2-5.8c-0.9-2.2-2-3.8-2.1-6.4c-0.1-1.5,0-3,0-4.4
				c0-18.1,0-36.2,0-54.3c0-9.2,0-18.3,0-27.5c0-1.5-0.2-3.2,0-4.7c1.4-10,9.7-10,17.4-10c0.9,0,1.2-1.8,1.2-2.4c0-3.5,0-7,0-10.5
				c-0.4,0.8-0.8,1.6-1.2,2.4c3.7,0.2,7.4,0.3,11.1,0.4c-0.2,0,6-0.1,5.2-0.8c0.1,0.1,0,1.4,0,1.5c0.7,2.4,0,5.9,0,8.5
				c0,0.2,0,1,0.3,1c0.7,0,1.4,0,2.1,0C372.2,266,372.7,262.6,372,262.6z"/>
		</g>
	</g>
	<g>
		<path fill="#7D76B7" d="M128.4,262h2.1v-10c5.5,0,11.1-0.1,16.6-0.4V262h6.2c6.9,0,12.4,5.6,12.4,12.4v91.1c0,2.7-0.9,5.1-2.3,7.2
			c0.4,2.5-0.3,5.1-2.2,7c-1.6,1.6-3.8,2.5-5.9,2.5c-2.1,0-4.2-0.8-5.9-2.5l-1.7-1.7h-19.4c-24,0-43.5-22.3-43.5-49.7v-16.6
			C84.9,284.3,104.4,262,128.4,262z"/>
		<g>
			<path d="M128.2,263.7c0.7,0,1.4,0,2.1,0c1,0,1.3-1.7,1.3-2.4c0-3.3,0-6.7,0-10c-0.4,0.8-0.9,1.6-1.3,2.4c5.5,0,11.1-0.2,16.6-0.4
				c-0.3-0.4-0.6-0.7-0.9-1.1c0,3.5,0,7,0,10.5c0,0.6,0.3,1.1,0.9,1.1c5.7,0,11.7-0.5,15.5,4.7c1.9,2.6,2.2,5.5,2.2,8.6
				c0,6.7,0,13.5,0,20.2c0,19.4,0,38.7,0,58.1c0,2.8,0,5.6,0,8.4c0,3.2-0.7,5.4-2.1,8.5c-1.2,2.7-1.3,6.7-4.6,7.8
				c-2.3,0.7-4.6,0.4-6.6-1c-1.3-0.9-2-2.3-3.4-2.7c-3.4-1-8.4,0-11.9,0c-11.6,0-22-1.2-31.4-8.7C92.3,358,86.2,342.8,86,327.6
				c-0.1-12.1-0.8-24.6,3.8-36.1C96.2,275.6,110.8,264,128.2,263.7c1.3,0,2-3.5,0.3-3.4c-15.3,0.3-28.8,9.2-36.6,22.1
				c-7.1,11.8-8.2,24.4-8.2,37.7c0,13.8,0.9,26.9,8.6,38.9c8,12.4,21,20.5,35.9,20.8c4.6,0.1,9.2,0,13.8,0c1.3,0,4-0.5,5.2,0
				c1.6,0.7,3.4,3.6,6.3,4c2.9,0.5,5.9-0.6,8-2.7c2.4-2.4,2.3-5,3.1-8c0.9-3.3,2.1-6.1,2.1-9.5c0.2-19.8,0-39.6,0-59.4
				c0-9.5,0.1-18.9,0-28.4c0-4-0.6-7.8-3.4-11c-4.3-4.9-10.3-4.5-16.2-4.5c0.3,0.4,0.6,0.7,0.9,1.1c0-3.5,0-7,0-10.5
				c0-0.6-0.3-1.1-0.9-1.1c-5.5,0.3-11.1,0.4-16.6,0.4c-1,0-1.3,1.7-1.3,2.4c0,3.3,0,6.7,0,10c0.4-0.8,0.9-1.6,1.3-2.4
				c-0.7,0-1.4,0-2.1,0C127.3,260.3,126.6,263.7,128.2,263.7z"/>
		</g>
	</g>
	<path fill="#7D76B7" stroke="#000000" stroke-width="1.4018" stroke-miterlimit="10" d="M208.4,331.6v-23.4c0-3.2-2.6-5.9-5.9-5.9
		c-3.2,0-5.9,2.6-5.9,5.9v23.4c0,3.2,2.6,5.9,5.9,5.9C205.8,337.5,208.4,334.9,208.4,331.6z"/>
	<path fill="#D24D9C" stroke="#000000" stroke-width="1.4018" stroke-miterlimit="10" d="M227.3,356.1v-68.4c0-3.2-2.6-5.9-5.9-5.9
		c-3.2,0-5.9,2.6-5.9,5.9v68.4c0,3.2,2.6,5.9,5.9,5.9C224.7,361.9,227.3,359.3,227.3,356.1z"/>
	<path fill="#7D76B7" stroke="#000000" stroke-width="1.4018" stroke-miterlimit="10" d="M246.2,346v-37.8c0-3.2-2.6-5.9-5.9-5.9
		c-3.2,0-5.9,2.6-5.9,5.9V346c0,3.2,2.6,5.9,5.9,5.9C243.6,351.8,246.2,349.2,246.2,346z"/>
	<path fill="#D24D9C" stroke="#000000" stroke-width="1.4018" stroke-miterlimit="10" d="M297.7,314c-3.2,0-5.9,2.6-5.9,5.9v32.6
		c0,3.2,2.6,5.9,5.9,5.9c3.2,0,5.9-2.6,5.9-5.9v-32.6C303.5,316.7,300.9,314,297.7,314z"/>
	<path fill="#7D76B7" stroke="#000000" stroke-width="1.4018" stroke-miterlimit="10" d="M278.8,273c-3.2,0-5.9,2.6-5.9,5.9v88.9
		c0,3.2,2.6,5.9,5.9,5.9c3.2,0,5.9-2.6,5.9-5.9v-88.9C284.7,275.6,282,273,278.8,273z"/>
	<path fill="#D24D9C" stroke="#000000" stroke-width="1.4018" stroke-miterlimit="10" d="M259.9,358.3c3.2,0,5.9-2.6,5.9-5.9V296
		c0-3.2-2.6-5.9-5.9-5.9c-3.2,0-5.9,2.6-5.9,5.9v56.5C254,355.7,256.7,358.3,259.9,358.3z"/>
	<path fill="#010101" d="M145.8,252.5c-0.3-3.2-0.5-6.4-0.5-9.7c0-57.9,46.9-104.8,104.8-104.8c57.9,0,104.8,46.9,104.8,104.8
		c0,3.3-0.2,6.5-0.5,9.7h14.1c0.8-5.6,1.3-11.3,1.3-17.2c0-66.2-53.6-119.8-119.8-119.8c-66.2,0-119.8,53.6-119.8,119.8
		c0,5.8,0.5,11.5,1.3,17.2H145.8z"/>
</g>
</svg>
