<?xml version="1.0" encoding="utf-8"?>
<!-- Generator: Adobe Illustrator 18.1.1, SVG Export Plug-In . SVG Version: 6.00 Build 0)  -->
<svg version="1.1" id="Layer_1" xmlns="http://www.w3.org/2000/svg" xmlns:xlink="http://www.w3.org/1999/xlink" x="0px" y="0px"
	 viewBox="0 0 500 500" enable-background="new 0 0 500 500" xml:space="preserve">
<g>
	<circle fill="#C8EAF5" cx="250" cy="250" r="226.5"/>
</g>
<g>
	<g>
		<g>
			<path fill="#FFFFFF" d="M308.7,426.1H195.8c-3.9,0-7-2.4-7-5.4v-94c0-3,3.1-5.4,7-5.4h112.9c3.9,0,7,2.4,7,5.4v94
				C315.8,423.7,312.6,426.1,308.7,426.1z"/>
			<g>
				<path d="M309.9,425.3c-31,0-62,0-93,0c-5.9,0-11.7,0-17.6,0c-4.7,0-8.6-1.8-8.7-6.9c-0.3-16.1,0-32.2,0-48.2
					c0-9.4,0-18.8,0-28.2c0-5-0.5-10.3,0-15.3c0.5-5.6,6.1-4.6,10.1-4.6c7.2,0,14.5,0,21.7,0c19.7,0,39.4,0,59,0c7,0,13.9,0,20.9,0
					c4.5,0,10.9-0.7,11.5,5.4c0.5,4.7,0,9.8,0,14.5c0,9.3,0,18.6,0,27.9c0,16.4,0,32.7,0,49.1c0,2.9,0.3,6.2-4.4,6.5
					c-1,0.1-4,1.7-1.6,1.5c4.2-0.3,9.1-1.9,9.7-6.7c0.1-1.2,0-2.5,0-3.7c0-7.8,0-15.7,0-23.5c0-19.6,0-39.2,0-58.8
					c0-4.9,1.4-11.3-4.6-13.2c-3.7-1.2-8.6-0.5-12.4-0.5c-19.4,0-38.7,0-58.1,0c-15,0-30-0.3-44.9,0c-5.1,0.1-10.5,1.9-10.7,7.6
					c-0.2,6.1,0,12.3,0,18.4c0,20.3,0,40.7,0,61c0,4.4-0.6,9.2,0,13.6c0.8,6.2,7.7,5.7,12.4,5.7c35.1,0,70.1,0,105.2,0c1,0,2,0,3,0
					C308.4,426.9,311.8,425.3,309.9,425.3z"/>
			</g>
		</g>
		<g>
			<path fill="#D24D9C" d="M173,279.3h146.5c11.6,0,31.6-2.2,37.5-12.2c9.4-15.9,2.8-41.2-11.9-52.9c-9.1-7.2-15.6-14.8-14.1-26.3
				c2.5-19.8-5.9-31.5-15-38.1c-9.4-6.8-15.1-16.8-14.9-28.4c0.4-29.3-26.1-47.5-50.9-47.5c-7.5,0-13.1,0.9-17.3,2.2
				c-9.2,3-6.2,10-0.5,12.4c3,1.3,5.4,3.9,5.4,8.9c0,13-15.1,12.3-30.1,27.4c-2.6,2.6-3.7,10.4,11.8,16.3
				c14.4,5.4,27.1,15.3,42.6,17.3c11.6,1.5,12.3,3.2,0.6,3.4c-19.3,0.3-30.8-16-59.2-17.1c-4,0-23.9-3.7-30.2,26.1
				c-2.4,11.4,7.5,21.9,18.6,25.6c22.5,7.5,39.9,20.5,69.9,22.1c11.6,0.6,12,2.7,0.3,2.9c-51.2,0.3-106.7-53.4-123.2,5.8
				c-3.2,11.2-4.2,29.5,0.5,38.5C144.4,274.7,161.4,279.3,173,279.3"/>
			<g>
				<path d="M173.8,281.2c38.7,0,77.4,0,116.1,0c15.1,0,31.2,1.3,46.1-1.3c7-1.2,15.1-3.3,20.2-8.6c5-5.3,6.5-13.7,6.5-20.7
					c0-8-2.1-16.1-5.8-23.2c-3.9-7.5-9.4-12.3-15.6-17.9c-3.9-3.5-7.4-7.7-8.6-13c-1.2-5.3,0.3-10.9,0.2-16.3
					c-0.3-7.7-2.5-15.3-6.8-21.6c-4.6-6.8-11.9-10.5-17-16.9c-3.5-4.3-5.7-9.6-6.3-15.1c-0.6-4.8-0.2-9.5-1.1-14.2
					c-3-15.1-13.7-27.6-27.3-34.4c-6.6-3.3-13.9-5.3-21.2-5.9c-7-0.5-20.2-1-25.7,4.6c-3.5,3.6-1,8.7,2.3,11.5
					c1.2,1,2.8,1.3,3.9,2.3c2.6,2.2,3.4,5.8,2.5,8.9c-1.1,4.2-4.7,6.6-8.2,8.8c-3.8,2.3-7.8,4.4-11.5,6.8c-3.4,2.3-8.2,5.2-10.4,8.8
					c-2,3.2-1,7.1,1.1,10c4.8,6.9,13.9,8.9,21.1,12.4c9.3,4.4,18.2,9.8,28.2,12.5c2.7,0.7,5.5,1.1,8.3,1.6c1.5,0.2,3.9,1.3,5.3,1
					c0.3,0.1,0.5,0.2,0.8,0.2c0.2-2.1-0.4-2.8-1.7-2.2c-0.5-0.1-1.7,0.2-2.1,0.3c-2.3,0.2-4.7,0.3-7.1,0.2c-7.9-0.4-15.1-4-22.2-7.3
					c-19.5-9.3-51.2-19.3-62.3,6.7c-3.3,7.7-5,15.9-1,23.7c3.5,6.8,9.9,11.9,17,14.6c17,6.6,33.8,15.4,51.6,19.7
					c4.7,1.2,9.6,2,14.4,2.5c2.5,0.3,4.9,0.4,7.4,0.5c0.9,0.1,2.8,0.4,3.9,0.4c0.7,0,2.2,1.1,1.4-0.2c-0.1-0.7-0.3-1.4-0.4-2.1
					c-0.7,1.8-9.6,1-11.2,0.9c-4.8-0.2-9.5-0.8-14.3-1.7c-8.1-1.6-16.1-3.9-23.9-6.5c-14.6-4.8-29.2-11.3-44.6-13.3
					c-11.8-1.5-23,1-30.3,11c-9.4,12.9-12.2,32.5-9.6,47.9c1.3,7.6,4.7,13.5,11.4,17.5C155.1,279.1,164.8,281,173.8,281.2
					c1.5,0-0.2-3.6-1.7-3.6c-9.8-0.1-25.3-2.4-31-11.5c-2.8-4.4-3.1-10.7-3.2-15.8c-0.1-6.1,0.5-12.3,1.8-18.2
					c2-9.1,5.7-19.1,13.1-25.1c5.5-4.5,12.3-5.9,19.3-5.7c18.2,0.6,35.9,9.4,53,14.9c9.5,3,19.1,5.6,29.1,6.6
					c2.8,0.3,19.2,2.5,18.1-2.5c-0.5-2.1-2.9-2.6-4.6-2.9c-6.4-1.2-13.1-1-19.6-2.1c-11.5-2.1-22.3-6.3-32.9-10.9
					c-4.3-1.9-8.6-3.8-13-5.7c-5.5-2.3-11.7-3.8-16.8-6.9c-6.2-3.9-11.5-10.4-10.6-18.2c0.6-5.5,2.8-11.2,5.7-15.9
					c7.5-12,20.8-12.2,33.4-10c17.6,3,32.7,16.5,50.9,16.1c1.6,0,7.2,0.5,8-1.6c0.7-1.8-1.7-3.3-3-3.9c-4.8-2.1-10.9-1.8-16-3.3
					c-6.7-2-13-5.3-19.2-8.5c-5.1-2.6-10.1-4.9-15.4-7.1c-3.9-1.6-12.2-4.9-11.3-10.4c0.7-4.1,6.4-7.3,9.5-9.4
					c4.4-3.1,9.3-5.5,13.8-8.4c6.3-4,10.4-10.5,7.2-18c-1.5-3.5-3.9-4.8-6.9-6.6c-8.6-5.3,4.1-9.2,8.3-9.9
					c21.4-3.5,45.9,4.8,55.9,25.2c2.3,4.8,3.6,10,3.9,15.3c0.3,5.3,0.3,10.4,2,15.5c3.3,9.6,10.2,14.8,17.4,21.3
					c9.6,8.7,11.6,20.5,10.5,32.9c-0.8,9.4,2.8,17.1,9.4,23.7c3.4,3.4,7.5,6.1,10.6,9.8c3.9,4.6,6.7,10.1,8.4,15.8
					c2.9,9.7,3.3,22.9-3.6,31.2c-8.3,10.1-26.1,10.2-38.1,10.2c-46.7,0-93.4,0-140.2,0c-1.4,0-2.7,0-4.1,0
					C170.7,277.5,172.4,281.2,173.8,281.2L173.8,281.2z"/>
			</g>
		</g>
		<g>
			<path fill="#FFFFFF" d="M329,332.4H175.5c-1.9,0-3.7-1-4.7-2.7l-29.1-52.5c-2-3.5,0.6-7.9,4.7-7.9h211.8c4.1,0,6.6,4.4,4.7,7.9
				l-29.1,52.5C332.7,331.4,331,332.4,329,332.4z"/>
			<g>
				<path d="M329.9,331.5c-34.9,0-69.7,0-104.6,0c-15.6,0-31.5,0.9-47.1,0c-5.4-0.3-6.9-5.2-9.3-9.5c-5.3-9.6-10.7-19.3-16-28.9
					c-2.3-4.1-4.5-8.1-6.8-12.2c-1.2-2.1-3.5-5.2-3-7.7c0.9-4.4,6.4-3.1,9.6-3.1c16.2,0,32.4,0,48.7,0c43.9,0,87.8,0,131.7,0
					c6.2,0,12.4,0,18.6,0c4.6,0,12.2-0.4,9.2,7.3c-2.6,6.5-7.1,12.8-10.5,19c-5.2,9.4-10.4,18.8-15.6,28.2c-1.1,1.9-2.7,6.6-5.3,6.9
					c-1.7,0.2-3.4,2.1-0.7,1.7c7.6-1,10.2-9.8,13.5-15.8c5.7-10.3,11.5-20.6,17.2-30.9c2.9-5.2,11.5-17.1-0.2-18.2
					c-2.7-0.3-5.6,0-8.4,0c-42.8,0-85.5,0-128.3,0c-20.1,0-40.1,0-60.2,0c-6.2,0-28.6-2.5-22.1,10.2c8.7,17,18.3,34,28,50.5
					c2.5,4.3,6,4.3,10.4,4.3c7.3,0,14.5,0,21.8,0c41.6,0,83.2,0,124.9,0c1,0,2,0,2.9,0C329.4,333.3,332.5,331.5,329.9,331.5z"/>
			</g>
		</g>
	</g>
	<path fill="#FFFFFF" d="M276.2,115.4c-1.7-0.6-3.1-2.1-3.2-4.1c-0.9-11.1-10.7-19.4-21.8-18.5c-2.6,0.2-4.9-1.7-5.1-4.3
		c-0.2-2.6,1.7-4.9,4.3-5.1c16.3-1.4,30.7,10.8,32,27.1c0.2,2.6-1.7,4.9-4.3,5.1C277.4,115.7,276.8,115.6,276.2,115.4L276.2,115.4z
		 M276.2,115.4"/>
</g>
</svg>
