<?xml version="1.0" encoding="utf-8"?>
<!-- Generator: Adobe Illustrator 18.1.1, SVG Export Plug-In . SVG Version: 6.00 Build 0)  -->
<svg version="1.1" id="Layer_1" xmlns="http://www.w3.org/2000/svg" xmlns:xlink="http://www.w3.org/1999/xlink" x="0px" y="0px"
	 viewBox="0 0 500 500" enable-background="new 0 0 500 500" xml:space="preserve">
<g>
	<circle fill="#D8D6EC" cx="250" cy="250" r="226.5"/>
</g>
<g>
	<path d="M115,255.6"/>
	<rect x="203.1" y="222.9" width="55.1" height="26.4"/>
	<g>
		<path d="M310.7,206.5c-2.2,0-4.4,0.2-6.6,0.3h-147c-2.2-0.2-4.3-0.3-6.6-0.3c-2.2,0-4.4,0.2-6.6,0.3h-2.6c-0.6,0-1.2,0.2-1.7,0.4
			C97.8,212.3,65.4,246,65.4,287c0,44.4,38.1,80.5,85.1,80.5c26.6,0,50.3-11.5,65.9-29.5h28.4c15.6,18,39.3,29.5,65.9,29.5
			c47,0,85.1-36,85.1-80.5S357.7,206.5,310.7,206.5z"/>
		<g>
			<path fill="#FFFFFF" d="M311.4,205.7c-48.2,0.8-96.5,0.3-144.7,0.3c-9.4,0-18.9-0.9-28.1,0.6c-20.3,3.5-39,11.9-53.2,27.1
				c-29.3,31.1-28,80.2,2.5,109.9c36,35.1,97.2,31.7,130.2-5.7c-0.8,0.3-1.5,0.6-2.3,0.9c7.2,0,14.5,0,21.7,0c1.6,0,3.3-0.2,4.9,0
				c2.1,0.2,1.4,0.1,2.8,2c4.2,5.6,11.1,10.3,17,14c23.1,14.4,52.2,17.3,77.9,8.6c23-7.8,42.6-25,51.8-47.7
				c9.6-23.6,6.7-50.8-7.3-71.9C368.3,219.4,340.3,205.9,311.4,205.7c-1.1,0-3.7,1.7-1.4,1.7c33.7,0.3,66,19.9,78.7,51.7
				c12.4,31.1,2.5,66.8-23,88c-29.2,24.4-72.9,25.7-104,3.9c-3.6-2.5-7-5.4-10.2-8.4c-1.8-1.7-3.6-4.8-6-5.5c-3.2-1-8.3,0-11.7,0
				c-5,0-10.1-0.1-15.2,0c-4.9,0.1-7.2,4.8-10.7,8c-28.6,25.8-72.8,28.4-104.7,7.1c-27.4-18.3-41.9-52-33.7-84.3
				c8.5-33.1,39.4-57.9,73.4-60.1c14-0.9,28.5,0,42.6,0c38.8,0,77.5,0.3,116.3,0c2.8,0,5.5-0.3,8.3-0.3
				C311.1,207.4,313.7,205.6,311.4,205.7z"/>
		</g>
	</g>
	<g>
		<g>
			<path fill="#FFFFFF" d="M147,314c0,8.2-6.6,14.8-14.8,14.8l0,0c-8.2,0-14.8-6.6-14.8-14.8v-54c0-8.2,6.6-14.8,14.8-14.8l0,0
				c8.2,0,14.8,6.6,14.8,14.8V314z"/>
			<g>
				<path d="M144.9,314.2c-0.3,5.7-3.3,11.1-9.2,12.8c-6.4,1.8-13.1-2.3-15.4-8.3c-1.3-3.5-0.9-7.5-0.9-11.1c0-12.4,0-24.9,0-37.3
					c0-3.4-0.1-6.8,0-10.2c0.4-11.6,14-18.2,22.2-8.6c3.4,4,3.3,8.7,3.3,13.6c0,5.5,0,10.9,0,16.4
					C144.9,292.2,144.9,303.2,144.9,314.2c0,2.1,4.2,1.5,4.2-0.3c0-12.1,0-24.2,0-36.2c0-12,3-29.7-12.4-33.4
					c-8.8-2.2-18.4,3-20.9,11.9c-1.2,4.3-0.6,9.3-0.6,13.7c0,14.1,0,28.3,0,42.4c0,8,3.6,15.2,11.8,17.5c10.7,3,21.6-4.8,22.1-15.9
					C149.2,311.7,145,312.3,144.9,314.2z"/>
			</g>
		</g>
		<g>
			<path fill="#FFFFFF" d="M105.2,304.1c-8.2,0-14.8-6.6-14.8-14.8l0,0c0-8.2,6.6-14.8,14.8-14.8h54c8.2,0,14.8,6.6,14.8,14.8l0,0
				c0,8.2-6.6,14.8-14.8,14.8H105.2z"/>
			<g>
				<path d="M106.5,303.3c-11.7-0.5-18.5-14.4-10.8-23.7c3.9-4.7,9.1-4.3,14.4-4.3c12.4,0,24.9,0,37.3,0c3.4,0,6.8-0.1,10.2,0
					c9.8,0.3,16.9,10.1,13.4,19.5c-2.6,7.1-8.7,8.4-15.3,8.4c-5.5,0-10.9,0-16.4,0C128.4,303.3,117.5,303.3,106.5,303.3
					c-0.9,0-4.7,1.7-2.7,1.7c12.1,0,24.2,0,36.2,0c10.8,0,26.8,2.7,33.7-8c5.6-8.8,0.6-20.6-9.5-22.9c-4.2-1-9-0.4-13.2-0.4
					c-14.1,0-28.3,0-42.4,0c-6.7,0-13.5,1.7-17.5,7.5c-7.4,10.5,1,23.4,12.8,23.9C104.7,305,108.6,303.4,106.5,303.3z"/>
			</g>
		</g>
	</g>
	<g>
		<g>
			<circle fill="#FFFFFF" cx="352.8" cy="286.4" r="14"/>
			<g>
				<path d="M364.7,286.7c-0.3,6.9-5.5,13.7-13.2,12.3c-6.1-1.1-10.4-6.9-10.4-13c0-7.4,6.5-14,14.2-11.8c5.9,1.6,9.2,7,9.5,12.8
					c0.1,1.4,4.4,0.5,4.4-1.2c-1-20.1-32.5-18.5-32.4,1c0.1,20.2,31.5,18.6,32.4-0.7C369.1,284.3,364.7,285.2,364.7,286.7z"/>
			</g>
		</g>
		<g>
			<circle fill="#FFFFFF" cx="295.8" cy="286.4" r="14"/>
			<g>
				<path d="M307.6,286.6c-0.3,6.6-5.2,12.8-12.4,12.2c-6.3-0.6-11.1-6.2-11.2-12.4c-0.1-6.7,5.5-12.7,12.4-12.2
					C302.9,274.7,307.4,280.4,307.6,286.6c0.1,2.4,4.5,1.8,4.4-0.3c-0.4-8.7-7.1-15.7-16.1-15.6c-8.6,0.1-16.3,7-16.4,15.8
					c-0.1,8.8,7.5,15.7,16.1,15.6c8.9-0.1,16-7,16.4-15.8C312.2,283.9,307.7,284.5,307.6,286.6z"/>
			</g>
		</g>
	</g>
	<g>
		<g>
			<circle fill="#F04D5D" cx="324.3" cy="263.5" r="14"/>
			<g>
				<path d="M336.6,263.6c-0.3,7-5.5,13.4-13,12.7c-6.6-0.6-11.5-6.6-11.5-13.1c0-7.4,6.4-13.8,14.1-12.3
					c6.4,1.2,10.2,6.9,10.5,13.1c0.1,1.4,3.5,0.6,3.4-0.9c-0.9-19.7-31.6-18.6-31.5,0.8c0.1,19.9,30.6,18.7,31.5-0.5
					C340.2,261.7,336.7,262.3,336.6,263.6z"/>
			</g>
		</g>
		<g>
			<circle fill="#F04D5D" cx="324.3" cy="315.1" r="14"/>
			<g>
				<path d="M336.6,315.3c-0.3,7-5.4,13.5-13,12.7c-6.7-0.7-11.5-6.7-11.5-13.2c0-7.4,6.4-13.9,14-12.4c6.4,1.3,10.2,6.9,10.5,13.1
					c0.1,1.2,3.5,0.5,3.4-0.9c-0.9-19.7-31.6-18.5-31.5,0.8c0.1,19.9,30.6,18.6,31.5-0.5C340.1,313.4,336.7,314,336.6,315.3z"/>
			</g>
		</g>
	</g>
	<g>
		<path fill="#FFFFFF" d="M213.2,306.2c-0.6,0-1.1-1.1-1.1-2.5l0,0c0-1.4,0.5-2.5,1.1-2.5l14.3,0.2c0.6,0,1.1,1.1,1.1,2.5l0,0
			c0,1.4-0.5,2.5-1.1,2.5L213.2,306.2z"/>
		<path fill="#FFFFFF" d="M233.7,306.5c-0.6,0-1.1-1.1-1.1-2.5l0,0c0-1.4,0.5-2.5,1.1-2.5l14.3,0.2c0.6,0,1.1,1.1,1.1,2.5l0,0
			c0,1.4-0.5,2.5-1.1,2.5L233.7,306.5z"/>
	</g>
	<path fill="#FFFFFF" d="M244.7,255.3H205c-4.3,0-7.7-3.4-7.7-7.7v-11c0-4.3,3.4-7.7,7.7-7.7h39.7c4.3,0,7.7,3.4,7.7,7.7v11
		C252.5,251.9,249,255.3,244.7,255.3z"/>
	<path d="M238.2,207.2c0,5.1-3.4,9.2-7.6,9.2l0,0c-4.2,0-7.6-4.1-7.6-9.2v-12.9c0-5.1,3.4-9.2,7.6-9.2l0,0c4.2,0,7.6,4.1,7.6,9.2
		V207.2z"/>
	<g>
		<g>
			<path d="M234.5,190.9c-2.8-4.6-6-12.7-5-18.2c1.3-7.1,9.3-11.4,15.4-13.7c16.6-6.3,35.5-4,52.8-3.9c17.7,0.1,34.6,2.7,52,6
				c12,2.3,17.4-8.1,25.5-14.9c8-6.7,18.6-9.5,28.8-10.7c4.6-0.5,9.1-0.2,13.7-0.4c5.4-0.2,10.7-1.9,16.2-1.3
				c1.5,0.2,3.6-1.9,1.3-2.2c-4.1-0.5-8,0.3-12,0.8c-5.1,0.7-10.3,0.2-15.5,0.6c-8.4,0.6-17.1,2.4-24.8,5.8
				c-6.6,2.9-11.9,7.4-16.7,12.6c-2.7,2.9-5.7,7-9.8,7.9c-3.5,0.8-7.3-0.8-10.7-1.6c-18.9-4.4-38.3-4.4-57.6-4.8
				c-16.2-0.3-34-1.1-48.9,6.5c-5.5,2.8-11.9,7.3-13.1,13.8c-1.1,6,2.2,14.2,5.3,19.2C232,193.5,235.3,192.3,234.5,190.9
				L234.5,190.9z"/>
		</g>
	</g>
</g>
</svg>
