<?xml version="1.0" encoding="utf-8"?>
<!-- Generator: Adobe Illustrator 18.1.1, SVG Export Plug-In . SVG Version: 6.00 Build 0)  -->
<svg version="1.1" id="Layer_1" xmlns="http://www.w3.org/2000/svg" xmlns:xlink="http://www.w3.org/1999/xlink" x="0px" y="0px"
	 viewBox="0 0 500 500" enable-background="new 0 0 500 500" xml:space="preserve">
<circle fill="#F9C3D2" cx="250" cy="250" r="226.5"/>
<g>
	<g>
		<path fill="#7D76B7" d="M353.5,407.6H114.8c-2.3,0-4.4-1.1-5.7-3L88.6,375c-3.2-4.6,0.1-10.9,5.7-10.9h275.3
			c5.3,0,8.6,5.7,6.1,10.3L359.6,404C358.4,406.2,356.1,407.6,353.5,407.6z"/>
		<g>
			<path d="M353.6,406.3c-38,0-75.9,0-113.9,0c-26.9,0-53.9,0-80.8,0c-14.3,0-29,0.9-43.3,0c-3.2-0.2-4.9-2.2-6.6-4.7
				c-3.7-5.3-7.3-10.6-11-15.9c-2.6-3.7-5.6-7.4-7.9-11.4c-2.7-4.8,0.1-8.6,5-9c13.5-1,27.5,0,41,0c53.9,0,107.7,0,161.6,0
				c20,0,40.1,0,60.1,0c3.6,0,7.6-0.5,11.3,0c6.8,0.9,6,6.8,3.6,11.2c-3.1,5.7-6.2,11.4-9.3,17.1
				C361.5,397.3,358.7,405.8,353.6,406.3c-2,0.2-2.6,2.8-0.3,2.6c5.7-0.5,7.7-4.4,10.2-8.9c3.4-6.2,6.7-12.3,10.1-18.5
				c2.1-3.9,6-8.7,4.2-13.4c-1.4-3.8-4.9-5.2-8.6-5.3c-13.8-0.4-27.7,0-41.5,0c-56.8,0-113.5,0-170.3,0c-19,0-37.9,0-56.9,0
				c-4.5,0-9.6-0.7-12.9,3.1c-4,4.6-1.2,9,1.6,13.1c4,5.7,8,11.5,11.9,17.2c2.4,3.5,4.9,8.9,8.5,11.3c2,1.3,4.2,1.4,6.5,1.4
				c5.8,0.1,11.6,0,17.3,0c25.1,0,50.1,0,75.2,0c47.4,0,94.7,0,142.1,0c0.9,0,1.7,0,2.6,0C355.3,408.9,356,406.3,353.6,406.3z"/>
		</g>
	</g>
	<g>
		<path fill="#FFFFFF" d="M137.3,320.9c9.9,2.5,19.9,4.8,30,6.8c-14.5-14.1-23.6-33.8-23.6-55.6v-76.1c0-42.8,34.6-77.4,77.2-77.4
			h21.9c42.7,0,77.2,34.7,77.2,77.4v76.1c0,13-3.2,25.3-8.9,36c12.1-2.2,23.6-1.5,32.6,7.1c4.6-10.7,7.2-22.4,7.2-34.6v-93.3
			c0-52.4-46.7-94.9-104.3-94.9h-29.5c-57.6,0-104.3,42.5-104.3,94.9v93.3c0,14.5,3.6,28.2,9.9,40.4
			C127.1,319.8,132,319.5,137.3,320.9z"/>
		<g>
			<path d="M136.4,321.9c9.9,2.5,19.9,4.7,30,6.8c0.6,0.1,3.6-0.6,2.5-1.6c-15.4-15.2-23.4-35.2-23.5-56.7c0-12.3,0-24.6,0-36.9
				c0-12.1,0-24.2,0-36.2c0-18.7,6-36.9,18.3-51.2c14.4-16.7,35.2-26.2,57.2-26.3c15.6-0.1,31.5-1,46.4,4.2c20.9,7.3,38,24,46,44.6
				c4.9,12.7,5.2,25.7,5.2,39.1c0,16.5,0,33.1,0,49.6c0,4.9,0,9.7,0,14.6c-0.1,12.8-3,25-8.8,36.4c-0.4,0.9,0.7,1.2,1.3,1.1
				c11.3-1.9,22.4-1.3,31.3,6.8c0.7,0.7,2.6,0.4,3-0.6c4.8-11.5,7.2-23.5,7.3-35.9c0-5.5,0-11.1,0-16.6c0-18.9,0-37.8,0-56.7
				c0-14.5,0.7-29-3.4-43.2c-7.1-24.8-25-45.4-47.4-57.7c-11.5-6.3-24.2-10.5-37.1-12.5c-9.2-1.4-18.4-1.3-27.7-1.3
				c-21.3,0-41.8,0.1-62,8.1c-23.7,9.4-44.3,27.3-55.2,50.5c-7.3,15.5-8.4,31.5-8.4,48.2c0,18.5,0,37,0,55.4
				c0,14.2-1.1,29.3,1.5,43.4c1.6,8.6,4.5,16.7,8.5,24.5c0.3,0.7,1.2,0.7,1.9,0.5C127.6,320.8,131.8,320.9,136.4,321.9
				c1.2,0.3,3.8-1.5,1.9-2c-5.3-1.2-10.4-1.2-15.7,0.2c0.6,0.2,1.3,0.3,1.9,0.5c-6.4-12.7-9.9-26.4-9.9-40.7c0-4.6,0-9.1,0-13.7
				c0-17.9,0-35.8,0-53.7c0-12.5-0.9-25.5,0.9-37.9c3.8-25.9,19.4-48.7,41-63.1c20.4-13.7,43.3-18,67.4-18c20.8,0,41.1-0.5,60.9,6.8
				c24.6,9,46,27.4,56.8,51.4c6.8,15.1,7.8,30.6,7.8,46.8c0,17.4,0,34.9,0,52.3c0,12.6,0.8,25.6-0.4,38.1c-0.9,9-3.2,17.8-6.7,26.1
				c1-0.2,2-0.4,3-0.6c-9.5-8.7-21.7-9.6-33.9-7.5c0.4,0.4,0.9,0.8,1.3,1.1c5.8-11.4,8.9-23.6,9-36.4c0-3.7,0-7.5,0-11.2
				c0-15.7,0-31.4,0-47.1c0-12.4,0.7-24.9-2.4-37c-5.3-20.9-19.4-39.1-38.3-49.4c-9.4-5.2-19.9-8.3-30.6-9.3
				c-7.2-0.6-14.6-0.3-21.8-0.3c-18.8,0-36.4,3.1-52.3,13.9c-17.8,12.2-30.1,31.6-33.4,52.9c-1.7,11.5-0.9,23.7-0.9,35.3
				c0,15.2,0,30.4,0,45.6c0,17.2,2.5,33.5,11.8,48.4c3.4,5.4,7.4,10.3,11.9,14.7c0.8-0.5,1.6-1.1,2.5-1.6c-10.1-2-20.1-4.2-30-6.8
				C137.1,319.6,134.5,321.4,136.4,321.9z"/>
		</g>
	</g>
	<g>
		<path fill="#FFFFFF" d="M257.8,198.6c0,13.2-10.7,23.9-23.9,23.9l0,0c-13.2,0-23.9-10.7-23.9-23.9v-9.3
			c0-13.2,10.7-23.9,23.9-23.9l0,0c13.2,0,23.9,10.7,23.9,23.9V198.6z"/>
		<g>
			<path d="M256.2,199c-0.5,17.9-20.3,29.5-35.3,18c-9.2-7.1-9.6-17.6-9.3-28.1c0.5-17.9,20.3-29.5,35.3-18
				C256.3,178.1,256.2,188.4,256.2,199c0,0.7,3.2,0.2,3.2-0.9c0-11.2-0.2-22.2-10.5-29.2c-9.6-6.6-23.2-5.4-31.9,2.1
				c-8.6,7.4-8.9,17.5-8.7,28c0.3,13.5,11.3,24.3,24.9,24.3c14.1-0.1,25.8-10.9,26.2-25.1C259.5,197.5,256.2,197.9,256.2,199z"/>
		</g>
	</g>
	<g>
		<path fill="#F04D5D" d="M341.7,316.7l-13.3-26.3c-2.8-5.6-0.1-12.6,6-15.7l61.2-31c6.1-3.1,13.4-1.1,16.2,4.4l13.3,26.3
			c2.8,5.6,0.1,12.6-6,15.7l-61.2,31C351.8,324.2,344.5,322.2,341.7,316.7z"/>
		<g>
			<path d="M343.3,315.9c-3.5-7-7.1-14-10.6-21c-1.7-3.4-4.1-6.9-3.5-10.9c0.7-4.6,4.2-7.3,8-9.2c16-8.1,32.1-16.3,48.1-24.4
				c5.5-2.8,13.6-8.7,19.9-6.1c4.1,1.6,5.6,5.6,7.4,9.2c2.2,4.4,4.5,8.8,6.7,13.3c1.4,2.8,3,5.5,4.3,8.4c2.5,6-0.7,11.4-6,14.2
				c-6.2,3.3-12.6,6.4-18.9,9.6c-10.1,5.1-20.3,10.3-30.4,15.4C360.7,318.2,349.4,326.3,343.3,315.9c-0.8-1.4-4.1-0.1-3.1,1.6
				c5.5,9.3,15.2,6.4,23,2.5c9.3-4.7,18.6-9.4,27.9-14.1c8.7-4.4,17.4-8.8,26.1-13.2c7.6-3.9,13.4-10.6,9.2-19.5
				c-4-8.4-8.3-16.8-12.7-25c-4.5-8.5-13.6-8.2-21.2-4.3c-18.1,9.1-36.1,18.3-54.2,27.4c-8,4.1-16.1,10.3-11.2,20.4
				c4.2,8.7,8.7,17.2,13.1,25.8C340.9,318.9,344.1,317.6,343.3,315.9z"/>
		</g>
	</g>
	<g>
		<path fill="#F04D5D" d="M373.8,371.9c4.9,0,9.1-3.2,10.6-7.9c3.7-11.5,5.6-23.6,5.6-36.1c0-72.9-76.1-132.1-157.7-132.1
			s-158.5,61.1-158.5,134c0,12.5,2,24.6,5.6,36c1.5,4.7,5.8,7.9,10.8,7.9L373.8,371.9z"/>
		<g>
			<path d="M373.1,372.6c8.7-0.6,12.3-6.1,14.4-14c2.9-11,4.4-22.4,4.1-33.7c-0.5-18-5.7-35.7-14.5-51.3
				c-18.2-32.4-50.1-55.7-84.7-68.1c-70.6-25.2-157.8-1.8-200.3,61.9c-9.9,14.9-16.8,31.9-19.1,49.7c-1.3,10.2-1.1,20.6,0.5,30.8
				c1.2,8.3,2.2,22.6,11.5,25.9c3.1,1.1,7,0.7,10.2,0.7c6.2,0,12.5-0.1,18.7-0.1c48.5-0.3,97.1-0.6,145.6-0.9
				c37.2-0.2,74.5-0.1,111.7-0.7C371.9,372.6,372.5,372.6,373.1,372.6c0.9,0,3.5-1.4,1.4-1.4c-28.6,0.2-57.2,0.4-85.8,0.6
				c-48.9,0.3-97.7,0.6-146.6,0.9c-15,0.1-29.9,0.2-44.9,0.3c-3,0-6.7,0.5-9.6-0.6c-5.4-2-6.8-7.2-8.1-12.2
				c-1.6-5.9-2.7-11.8-3.4-17.9c-1.1-10.3-0.9-20.8,0.9-31.1C90.6,234.9,176.7,190,249,197.5c70.3,7.3,145.3,63,139.1,140.2
				c-0.5,6-1.4,12-2.8,17.9c-1.5,6.1-2.7,15.1-10.7,15.6C373.6,371.3,371,372.8,373.1,372.6z"/>
		</g>
	</g>
	<g>
		<line fill="#F04D5D" x1="143.7" y1="220.1" x2="320.1" y2="220.1"/>
		<g>
			<path d="M142.6,220.8c19.9,0,39.8,0,59.7,0c31.6,0,63.1,0,94.7,0c7.3,0,14.7,0,22,0c0.7,0,3.9-1.4,2.2-1.4c-19.9,0-39.8,0-59.7,0
				c-31.6,0-63.1,0-94.7,0c-7.3,0-14.7,0-22,0C144.1,219.4,141,220.8,142.6,220.8L142.6,220.8z"/>
		</g>
	</g>
</g>
</svg>
