<?xml version="1.0" encoding="utf-8"?>
<!-- Generator: Adobe Illustrator 18.1.1, SVG Export Plug-In . SVG Version: 6.00 Build 0)  -->
<svg version="1.1" id="Layer_1" xmlns="http://www.w3.org/2000/svg" xmlns:xlink="http://www.w3.org/1999/xlink" x="0px" y="0px"
	 viewBox="0 0 500 500" enable-background="new 0 0 500 500" xml:space="preserve">
<circle fill="#FFFAC0" cx="250" cy="250" r="226.5"/>
<g>
	<g>
		<ellipse fill="#F58457" cx="261.6" cy="250" rx="138.1" ry="134.3"/>
		<g>
			<path d="M398,250.2c-0.3,55.7-36.2,105.6-88.3,124.7c-53.8,19.8-116.6,3.2-153.5-40.7c-35.7-42.5-40.9-104.5-12.1-152.1
				c29.8-49.3,89.5-74.2,145.7-62.4c53.6,11.2,97.3,54.6,106.4,109C397.4,235.8,398,243,398,250.2c0,1.6,3.5,0.9,3.4-0.4
				c-0.3-57.6-38.3-108.7-92.6-127.4c-54.1-18.7-116.8-2.6-154.4,40.8c-37.8,43.7-43.3,108.1-12.6,157.1
				c30.7,49.2,90.7,73.3,147.1,62.3c55.3-10.8,101.2-55,110.6-111.1c1.2-7.2,1.8-14.5,1.8-21.8C401.5,248.3,398,248.9,398,250.2z"/>
		</g>
	</g>
	<g>
		<ellipse fill="#82C670" cx="238.4" cy="250" rx="138.1" ry="134.3"/>
		<g>
			<path d="M374.8,250.2c-0.3,55.7-36.2,105.6-88.3,124.7c-53.8,19.8-116.6,3.2-153.5-40.7C97.2,291.7,92,229.7,120.8,182.1
				c29.8-49.3,89.5-74.2,145.7-62.4c53.6,11.2,97.3,54.6,106.4,109C374.2,235.8,374.7,243,374.8,250.2c0,1.6,3.5,0.9,3.4-0.4
				c-0.3-57.6-38.3-108.7-92.6-127.4c-54.1-18.7-116.8-2.6-154.4,40.8C93.5,206.9,88,271.3,118.7,320.4
				c30.7,49.2,90.7,73.3,147.1,62.3c55.3-10.8,101.2-55,110.6-111.1c1.2-7.2,1.8-14.5,1.8-21.8C378.2,248.3,374.8,248.9,374.8,250.2
				z"/>
		</g>
	</g>
	<g>
		<path fill="#FFFFFF" d="M233.6,215l11.8-17.3c1.6-2.3,5.2-1.1,5.1,1.7l-0.6,20.9c-0.1,2,1.9,3.4,3.7,2.7l19.7-7
			c2.6-0.9,4.9,2.1,3.2,4.4L263.8,237c-1.2,1.6-0.5,3.8,1.4,4.4l20.1,5.9c2.7,0.8,2.7,4.6,0,5.4l-20.1,5.9c-1.9,0.6-2.6,2.8-1.4,4.4
			l12.8,16.6c1.7,2.2-0.5,5.3-3.2,4.4l-19.7-7c-1.9-0.7-3.8,0.8-3.7,2.7l0.6,20.9c0.1,2.8-3.5,4-5.1,1.7L233.6,285
			c-1.1-1.6-3.5-1.6-4.6,0l-11.8,17.3c-1.6,2.3-5.2,1.1-5.1-1.7l0.6-20.9c0.1-2-1.9-3.4-3.7-2.7l-19.7,7c-2.6,0.9-4.9-2.1-3.2-4.4
			l12.8-16.6c1.2-1.6,0.5-3.8-1.4-4.4l-20.1-5.9c-2.7-0.8-2.7-4.6,0-5.4l20.1-5.9c1.9-0.6,2.6-2.8,1.4-4.4l-12.8-16.6
			c-1.7-2.2,0.5-5.3,3.2-4.4l19.7,7c1.9,0.7,3.8-0.8,3.7-2.7l-0.6-20.9c-0.1-2.8,3.5-4,5.1-1.7l11.8,17.3
			C230,216.7,232.4,216.7,233.6,215z"/>
		<g>
			<path d="M234.9,215c2.5-3.7,5-7.4,7.6-11c1.1-1.5,2.3-4.3,3.8-5.5c1.7-1.3,2.6,0.4,2.7,2.3c0.2,5.3-0.3,10.7-0.4,16
				c-0.1,3.7-0.2,8,4.9,7c3.9-0.7,7.9-2.7,11.6-4.1c2.3-0.8,4.7-2,7.1-2.5c0.4-0.1,1.2-0.7,1.6-0.6c2,0.4,1.8,2.8,1.2,4.2
				c-0.7,1.6-2.5,3.2-3.5,4.6c-1.9,2.5-3.9,5-5.8,7.5c-1.7,2.2-5.9,6.1-2.6,8.7c1.1,0.8,2.9,1.1,4.1,1.4c2.9,0.9,5.8,1.7,8.8,2.6
				c2,0.6,14.1,3.1,8.4,6.8c-1.6,1.1-4.5,1.3-6.4,1.9c-3,0.9-6,1.8-9,2.6c-2.6,0.8-8.1,1.6-7.2,5.5c0.3,1.1,1.5,2.3,2.2,3.2
				c1.8,2.3,3.6,4.7,5.4,7c1.2,1.5,8.9,9.8,4.6,10.4c-1.4,0.2-4.7-1.7-6-2.1c-2.9-1-5.9-2.1-8.8-3.1c-2.8-1-5.9-2.7-8.7-0.9
				c-3.2,2-1.8,7.6-1.7,10.7c0.1,2.8,0.2,5.7,0.2,8.5c0,0.8,0.7,5.1,0,5.8c-2.8,2.3-12.1-18.2-16.4-18.8c-3.9-0.5-5.7,3.2-7.6,5.9
				c-1.6,2.3-3.2,4.7-4.8,7c-0.9,1.3-2.4,4.8-3.9,5.6c-3.8,2.1-2.4-7.7-2.4-9.6c0.1-4,1-8.9,0.4-12.9c-0.8-4.6-5.2-3-8.2-1.9
				c-5.1,1.8-10.3,4.3-15.5,5.5c-2.3,0.6-4.4,0.2-2.9-3.5c0.7-1.8,2.7-3.6,3.9-5.1c2.8-3.6,6.5-7.3,8.7-11.3
				c2.3-4.4-2.3-5.3-5.4-6.2c-4.9-1.4-10.4-2.4-15.1-4.5c-2.2-1-3.9-3.2-1.3-4.7c1.8-1.1,4.8-1.4,6.8-2c4.1-1.2,8.4-2.1,12.4-3.6
				c4.4-1.7,3.4-4.6,1.1-7.6c-3.3-4.3-6.8-8.6-10-13c-0.9-1.2-3.2-4.1-0.2-4.5c1.7-0.2,5.1,1.8,6.6,2.4c4.1,1.4,8.4,3.6,12.6,4.5
				c3.6,0.7,6.4-1,6.5-4.7c0.1-5.2-0.3-10.4-0.4-15.6c0-0.6-0.6-4.8,0-5.4c1.7-1.3,3.5,2.4,4.1,3.2c3,4.4,5.8,8.9,9,13.1
				C229,217.5,232.2,217.7,234.9,215c0.8-0.7-2.2-0.5-2.8,0.1c-1.4,1.3-8.8-10.8-9.4-11.6c-2-2.9-4-8.1-8.1-7.6
				c-4.6,0.5-4.2,4.5-4.1,8c0.1,5.1,1.3,11.2,0.4,16.2c-0.5,2.9-1.3,2.3-3.4,1.5c-2.8-1-5.6-2-8.4-3c-3.2-1.2-7.8-3.9-11.4-3.3
				c-5,0.8-4.1,4.7-1.8,7.7c3.4,4.5,7.1,8.8,10.4,13.5c1.2,1.6,1.9,3.3-0.2,4.6c-2.1,1.2-5.5,1.6-7.8,2.3c-3.9,1.1-8.5,1.8-12.2,3.7
				c-1.9,0.9-3.5,2.8-2.2,5c0.9,1.4,2.8,1.7,4.3,2.1c5.3,1.5,11.3,2.5,16.3,4.8c2.2,1,3.7,2.1,2.2,4.8c-1.2,2.2-3.2,4.2-4.8,6.2
				c-2.4,3.1-6.6,6.8-7.9,10.5c-1.8,4.9,3.8,4.6,6.8,3.6c5.4-1.8,10.7-3.8,16-5.7c2.3-0.8,3.6-1,4.1,2c0.3,2-0.1,4.4-0.2,6.4
				c-0.1,4.5-1.1,9.9-0.4,14.3c0.7,4.5,6,3.6,8.2,0.9c3.3-3.9,6-8.7,8.9-12.9c0.4-0.6,2-3.8,2.7-4c1.8-0.5,3.4,2.9,4.1,3.9
				c3,4.4,5.7,9.5,9.3,13.5c2.5,2.9,7.7,2.1,8.3-2c0.7-4.2-0.2-9.3-0.4-13.5c-0.1-2.1-0.5-4.6-0.2-6.7c0.5-3,1.4-2.4,3.7-1.6
				c5.2,1.9,10.4,3.9,15.7,5.6c2.6,0.8,7.5,1,7.8-3c0.1-1.6-1.2-2.8-2-3.9c-1.9-2.4-3.7-4.9-5.6-7.3c-1.5-2-3.1-4-4.6-6
				c-1.5-2-2.2-3.8,0.3-5.2c4.6-2.4,11-3.2,16-4.7c2.6-0.8,8.1-2.2,5.7-6.1c-0.9-1.4-2.9-1.7-4.3-2.1c-2.8-0.8-5.7-1.7-8.5-2.5
				c-3.4-1-12.9-2-9.8-7.2c2.8-4.7,6.9-9,10.2-13.3c1.9-2.5,4.9-7.3-0.7-7.8c-3.5-0.3-8.3,2.5-11.4,3.6c-2.8,1-5.6,2-8.4,3
				c-2.3,0.8-3.5,1.3-4.1-2c-0.9-4.8,0.3-10.9,0.4-15.8c0.1-3.5,0.8-8.8-4.5-8c-3.6,0.6-5.5,5.1-7.4,7.7c-2.6,3.8-5.2,7.6-7.8,11.4
				C231.5,216,234.5,215.7,234.9,215z"/>
		</g>
	</g>
	
		<ellipse transform="matrix(0.7043 -0.7099 0.7099 0.7043 -94.8003 188.4247)" stroke="#000000" stroke-width="1.1832" stroke-miterlimit="10" cx="178.8" cy="208" rx="3.5" ry="7.1"/>
	
		<ellipse transform="matrix(0.1525 -0.9883 0.9883 0.1525 -103.2283 372.4217)" stroke="#000000" stroke-width="1.1832" stroke-miterlimit="10" cx="165.5" cy="246.4" rx="3.5" ry="7.1"/>
	
		<ellipse transform="matrix(-0.4575 -0.8892 0.8892 -0.4575 4.916 573.4884)" stroke="#000000" stroke-width="1.1832" stroke-miterlimit="10" cx="177.4" cy="285.2" rx="3.5" ry="7.1"/>
	
		<ellipse transform="matrix(-0.8928 -0.4504 0.4504 -0.8928 260.6259 686.967)" stroke="#000000" stroke-width="1.1832" stroke-miterlimit="10" cx="212.1" cy="312.5" rx="3.5" ry="7.1"/>
	
		<ellipse transform="matrix(-0.9871 0.1604 -0.1604 -0.9871 552.1608 580.3822)" stroke="#000000" stroke-width="1.1832" stroke-miterlimit="10" cx="252.7" cy="312.5" rx="3.5" ry="7.1"/>
	
		<ellipse transform="matrix(-0.7043 0.7099 -0.7099 -0.7043 687.3603 287.9769)" stroke="#000000" stroke-width="1.1832" stroke-miterlimit="10" cx="283.7" cy="287.1" rx="3.5" ry="7.1"/>
	
		<ellipse transform="matrix(-0.1525 0.9883 -0.9883 -0.1525 588.0683 -6.7813)" stroke="#000000" stroke-width="1.1832" stroke-miterlimit="10" cx="296.9" cy="248.8" rx="3.5" ry="7.1"/>
	
		<ellipse transform="matrix(0.4575 0.8892 -0.8892 0.4575 341.2966 -139.6273)" stroke="#000000" stroke-width="1.1832" stroke-miterlimit="10" cx="285.1" cy="209.9" rx="3.5" ry="7.1"/>
	
		<ellipse transform="matrix(0.8928 0.4504 -0.4504 0.8928 110.6174 -93.9286)" stroke="#000000" stroke-width="1.1832" stroke-miterlimit="10" cx="252.7" cy="185.5" rx="3.5" ry="7.1"/>
	
		<ellipse transform="matrix(0.9871 -0.1604 0.1604 0.9871 -26.8794 36.3973)" stroke="#000000" stroke-width="1.1832" stroke-miterlimit="10" cx="212.1" cy="184.7" rx="3.5" ry="7.1"/>
</g>
</svg>
