<?xml version="1.0" encoding="utf-8"?>
<!-- Generator: Adobe Illustrator 18.1.1, SVG Export Plug-In . SVG Version: 6.00 Build 0)  -->
<svg version="1.1" id="Layer_1" xmlns="http://www.w3.org/2000/svg" xmlns:xlink="http://www.w3.org/1999/xlink" x="0px" y="0px"
	 viewBox="0 0 500 500" enable-background="new 0 0 500 500" xml:space="preserve">
<g>
	<circle fill="#C8EAF5" cx="250" cy="250" r="226.5"/>
</g>
<g>
	<g>
		<path fill="#35645B" d="M76.8,237c0,0,13.5,13.1,36.3,1.4c0.3,0.4,63.9-22.6,57.4-55.3c0-1.6-9-16.7-14.3-18c0,0,1.4-5.9,5.4-6.7
			H182l146.8,0.7c0,0,6.2,6,7.6,12.6c0.5,0.2-10.9,23.5-6.4,32c-0.2-0.2,25.1,35.9,74,30.2c0-0.5,32,3.1,30-38.9
			c0-0.2-7.5-44.4-32.6-54.6c0,0.2-110.4-33.4-167.6-26.6c0,0-120.5,8.4-149,32.6c0,0.3-23.2,5.7-18,69.1
			C66.7,215.5,68.4,226.6,76.8,237z"/>
		<g>
			<path d="M75.6,238c11.8,11.3,28.7,4.8,41.6-0.3c15.7-6.2,31.7-14.9,43.5-27.1c6-6.2,11.1-14,11.4-22.8c0.1-4-0.8-6.8-2.8-10.2
				c-2.6-4.4-5.8-9.6-10.2-12.4c-1.7-1.1-2.3-1-1-3.3c1.4-2.5,2.4-2.5,4.8-2.5c4.7,0,9.4,0,14,0c2.7,0,5.4,0,8,0
				c34.3,0.2,68.6,0.3,102.8,0.5c12.5,0.1,25.5-0.8,38,0.2c4.7,0.4,9.7,9.4,8.8,13.6c-0.9,4.3-3.4,8.6-4.7,12.8
				c-1.5,4.9-3.3,10.7-2.1,15.8c0.8,3.7,4.3,6.7,6.9,9.3c6.6,6.6,14.4,12.1,22.9,16.1c11.6,5.5,24.4,8.1,37.3,7.7
				c2.4-0.1,6.1,0.3,8.3-0.8c0.5-0.2,0.8-0.7,1.2-0.9c1.4-0.7-2,0-1.5,1c0.2,0.4,4.3-0.3,4.7-0.3c15-1.9,24.9-13.7,26.9-28.4
				c2.3-16.5-4.5-34.7-13-48.6c-4.6-7.5-11.1-15.2-19.6-18.1c-4-1.4-8.3-2.4-12.5-3.5c-20.7-5.7-41.5-10.7-62.5-14.9
				c-25.1-5-50.8-9.2-76.5-9.1c-11.7,0.1-23.7,1.4-35.3,2.6c-20.3,2-40.5,4.6-60.5,8.2c-20,3.6-41,7.6-59.4,16.6
				c-3,1.5-5.9,3.1-8.6,5.1c-0.9,0.7-2.4,1.4-3,2.4c0.3-0.4,2.5-1.3,1-1c-2.6,0.7-5.4,3.3-7.2,5.2c-12.4,12.9-13.2,34.8-12.9,51.4
				c0.1,5.4-0.1,11.1,1.3,16.4C67.8,225.8,71.2,232.3,75.6,238c0.3,0.4,2.7-1.4,2.4-1.9c-4.5-5.8-7.9-12.3-9.7-19.5
				c-1.5-6.3-1.2-13.3-1.2-19.8c0-11.4,0.9-23.2,4.9-34c1.9-5.1,4.7-11,9.4-14.2c0.7-0.5,1.5-0.8,2.3-1.3c1.6-0.9,1.8-1.2,2.7-1.9
				c15.8-11.3,37.4-15.2,56.1-19c21.2-4.2,42.7-7.2,64.2-9.4c10.8-1.2,21.7-2.3,32.6-3c24.8-1.6,50.1,2.2,74.4,6.6
				c22.5,4.1,44.8,9.3,66.8,15.1c13,3.5,24.7,5.4,33.8,16.3c6.8,8.1,11.2,18.1,14.4,28.1c1.9,5.9,4,12.3,4.1,18.6
				c0.1,10.8-2.3,24.2-12.4,30.2c-4.8,2.9-9.5,2.7-14.7,3.7c-1.2,0.2-1.9,0.5-2.8,1.5c0.7-0.5,1.4-1,2.1-1.4
				c-18.1,2-36.2-1.4-51.9-10.9c-7.7-4.6-16.2-10.9-21.3-18.4c-6-8.9,2.8-22.3,5.2-31.1c0.5-1.9,0.5-2.4-0.3-4.5
				c-1-2.6-3.9-8.5-6.7-9.8c-0.8-0.4-2.1-0.1-3-0.2c-43.8-0.2-87.6-0.4-131.3-0.6c-4.9,0-9.8-0.1-14.7-0.1c-9.4,0-23.1-3.5-26.2,8.5
				c0,0.1,0,0.2,0.1,0.2c4.9,1.7,8.6,7.9,11.2,12c2.4,3.9,3.7,7,3.5,11.6c-0.5,11-8.4,20.1-16.6,26.7c-12.4,10.1-26.8,15.6-41,22
				c-10.4,4.7-25,6.3-34.1-2.3C77.5,235.6,75.3,237.7,75.6,238z"/>
		</g>
	</g>
	<g>
		<path fill="#35645B" d="M358.1,373c0,6.9-5.6,12.4-12.4,12.4h-22.5c-6.9,0-12.4-5.6-12.4-12.4v-4.8c0-6.9,5.6-12.4,12.4-12.4h22.5
			c6.9,0,12.4,5.6,12.4,12.4V373z"/>
		<g>
			<path d="M337.6,374.9c0,0.9-0.1,1.8-0.3,2.7c0.6-1.5,0.6-1.5-0.2,0c2.9-3.7,7.3-5.5,12.1-5.9c7.2-0.6,3.3,0,1.4,0
				c-4.5,0-9.1,0-13.6,0c-1.9,0-3.7,0-5.6,0c-0.3,0-0.5,0-0.8,0c-3.6,0.2,1.2,0.5,2.2,0.9c-1.4-1-1.4-0.9-0.1,0.1
				c-0.6-0.6-1.1-1.3-1.5-2.1c1.5,3.2-0.6-4.3,0.1-0.8c0.4,2.3,0-0.6,0-1.2c0-0.8,0-1.6,0-2.4c0-0.9,0.1-1.8,0.3-2.7
				c-0.6,1.5-0.6,1.5,0.2,0c-1.4,1.8-3,3-5,4c-3.5,1.6-7.1,2.2-10.9,1.8c0.1,0,0.3,0,0.4,0c0.7,0,1.3,0,2,0c4.5,0,9.1,0,13.6,0
				c1.7,0,3.4,0,5.1,0c0.4,0,0.8,0,1.3,0c3.6-0.2-1.2-0.5-2.2-0.9c1.2,0.8,1.4,0.9,0.6,0.3c-0.8-0.7-0.7-0.5,0.3,0.6
				c0.9,1.3,0.9,1.4,0.1,0.3c0.3,0.8,0.5,1.7,0.6,2.6c-0.1-2.2-0.1-2.6-0.1-1.4c0,0.6,0,1.1,0,1.7
				C337.6,373.3,337.6,374.1,337.6,374.9c0,9.6,10.1,12.7,18.4,11.7c5.4-0.6,11-2.2,15.4-5.5c3-2.3,7.4-5.9,7.4-10.1
				c0-7,0.1-13.5-4.6-19.4c-5.2-6.6-14.2-9.5-22.4-9.6c-10.3-0.1-21.7-1-31.8,0.8c-12.8,2.3-26.7,10.9-29.5,24.5
				c-1.3,6.3-0.4,13.9,2.6,19.4c7.4,13.2,23,12.3,35.9,12.3c5.6,0,11.6,0.4,17.1-0.3c14.2-1.8,31.7-11.6,32.5-27.7
				c0.5-9.6-10.5-12.6-18.4-11.7C352.8,360.2,338.1,365.1,337.6,374.9z"/>
		</g>
	</g>
	<g>
		<path fill="#35645B" d="M187.8,374.7c0,6.9-5.6,12.4-12.4,12.4h-22.5c-6.9,0-12.4-5.6-12.4-12.4v-4.8c0-6.9,5.6-12.4,12.4-12.4
			h22.5c6.9,0,12.4,5.6,12.4,12.4V374.7z"/>
		<g>
			<path d="M167.3,380.2c-0.1,1.7-0.8,2.9-1.4,4.4c0.6,0,0.3,0.3-0.7,0.9c23.7-4.5,31.4-6.7,23.2-6.7c-1.2,0-2.4,0-3.7,0
				c-4.6,0-9.3,0-13.9,0c-1.5,0-3,0.1-4.5,0c-0.7-0.1,0.7,0.1,0.6,0.1c-0.9-0.3-2.3-1.1-3.2-2c-3.1-3.1-3.3-8.4-2.9-12.6
				c0.2-1.7,0.9-2.8,1.4-4.4c-0.6,0-0.3-0.3,0.7-0.9c-7.8,2.2-15.6,4.4-23.3,6.7c1.3,0.1,2.6,0,3.8,0c4.6,0,9.3,0,13.9,0
				c1.4,0,2.8-0.1,4.2,0c0.7,0.1,0.6,0.2-0.4-0.1c0.9,0.3,2.3,1.1,3.2,2C167.8,370.9,167.3,375.8,167.3,380.2c0,2.4,6.3,2.8,7.2,2.8
				c4.8,0.2,10.3-0.7,14.9-2c5-1.4,18.7-4.7,18.7-11.7c0-5.9-0.3-10.7-4.8-15.1c-4.5-4.4-11.2-5-17.2-5c-12.8,0-25.8-0.9-38.2,2.5
				c-10.3,2.8-25.5,8.3-27.5,20.5c-0.9,5-0.9,11.1,2,15.4c7,10.1,21.6,7.9,32.3,7.9c8.5,0,16.6-0.2,24.9-2.3
				c12.2-3.1,27.7-9.5,28.5-23.9C208.5,363.4,168,368.1,167.3,380.2z"/>
		</g>
	</g>
	<g>
		<path fill="#35645B" d="M139.7,371.9c0,0-13.5-3.5-13.1-13.7c0.3-10.2,4.7-109.2,19.2-124.1c0-0.5,7.3-9.2,18.1-11.4
			c0-0.5,7.9-3.8,7.9-3.8l9.5-59.2c0,0,3.5-10,14-9c-0.5,0.2,12.5-4,10.4,22.8c0.5,0,83.5,1,83.5,1s-1.2-25.7,9.3-26.1
			c0.5-0.3,15.2-2.1,17.3,7.8c0,0.3,11.1,62.7,11.1,62.7s27.1,7.1,32.7,35.1c-0.2,0.5,19.4,74.5,16.6,106.6
			c0.2-0.2,1.4,12.3-51,18.1c-0.5,0-126.5,5.4-144.5,0C180.5,379.5,145.6,374.4,139.7,371.9z"/>
		<g>
			<path d="M141.1,371.2c-7.5-2-13-7.1-12.7-15.1c0.2-6.6,0.6-13.2,1-19.8c1.3-21.4,3.1-42.8,6.4-64c2.3-14.5,4.1-33.6,16.7-43.2
				c5-3.8,11.2-5.6,16.9-8.1c1.8-0.8,3.5-1.1,4.2-2.8c0.9-2.1,0.9-5.3,1.2-7.5c0.7-4.2,1.4-8.5,2-12.7c1.7-10.4,3.3-20.8,5-31.2
				c1.2-7.4,2.5-15.6,12.7-15c0-0.5,0-1,0.1-1.4c0,0,0,0,0,0c-1.9,0.7-0.7,1.6,0.8,1.3c-0.6,0.1,0.6,0,1,0c1.5,0.2,2.7,0.9,3.8,2
				c4.8,4.9,4.1,14.2,3.7,20.3c0,0.6,0.6,0.6,1,0.6c27.8,0.2,55.6,0.7,83.5,1c0.7,0,2.5-0.4,2.4-1.3c-0.3-6.7-0.1-14.8,3-20.9
				c3.8-7.5,18.1-4.8,20.2,3.6c3.5,14.6,5.3,30,7.9,44.8c1.1,5.9,2.1,11.9,3.2,17.8c0.1,0.2,0.2,0.3,0.3,0.3
				c6.5,1.8,12.8,5.5,17.9,9.9c8.2,7.1,12.4,16.2,14.8,26.6c4.8,20.7,9.6,41.3,13,62.3c2.2,13.9,4.4,28.3,3.3,42.4
				c-0.1,0.7,1,0.6,1.4,0.6c-3,0.3-0.4-0.7-1.8,1.1c-1.1,1.3-1.8,2.5-3.2,3.5c-7.6,5.7-18.5,7.7-27.6,9.4
				c-13.8,2.5-27.2,2.9-41.2,3.4c-20.5,0.7-41.1,1.2-61.6,1.4c-17.5,0.2-35.5,0.8-53-1.3c-2.3-0.3-4.6-1-6.9-0.9
				c-2.7,0.1,0.9,0.1,0.5-0.1c-0.3-0.2-1.4-0.1-1.8-0.1c-2.1-0.4-4.2-0.5-6.3-0.8C162.7,375.8,150.8,375,141.1,371.2
				c-0.9-0.4-4,1-2.8,1.5c7.9,3.1,17.2,3.9,25.6,5.1c4.3,0.7,8.6,1.3,12.9,1.7c1.7,0.2,3.7,0.5,5.2-0.5c-0.9,0.2-1.8,0.4-2.7,0.6
				c11.2,3.2,24.3,2.3,35.9,2.4c18.9,0.2,37.8-0.1,56.8-0.6c29.1-0.7,60.1,0.6,88.2-8.6c5.4-1.8,11.7-4,15.7-8.4
				c0.7-0.8,2.8-3.1,2-4.4c-0.2-0.3-1-0.2-1.3-0.2c0,0,0,0,0,0c0.5,0.2,1,0.4,1.4,0.6c1-12-0.5-24.2-2.2-36.1
				c-2-13.8-4.6-27.5-7.6-41.2c-1.9-9-4.1-18-6.2-26.9c-2.3-9.6-5.5-18.2-12.6-25.4c-3.6-3.6-7.7-6.6-12.2-9c-2.5-1.3-6-2-8.2-3.5
				c-0.9-0.6,0.1,0.5-0.3-0.3c-0.4-0.8-0.4-2.2-0.5-3c-0.7-3.9-1.4-7.8-2.1-11.7c-1.9-10.9-3.8-21.7-5.8-32.6
				c-0.7-3.9-1.4-7.8-2-11.7c-0.4-2.4-0.6-4.7-2.1-6.7c-4.2-6-17.3-7.1-22.7-2.5c-6.3,5.4-6.2,17.6-5.9,25.2
				c0.8-0.4,1.6-0.9,2.4-1.3c-27.8-0.3-55.6-0.8-83.5-1c0.3,0.2,0.7,0.4,1,0.6c0.5-8,0.5-26.1-12.3-23.3c0.3,0.4,0.6,0.9,0.8,1.3
				c0,0,0,0,0,0c1.1-0.4,1.5-1.4,0.1-1.4c-6.9-0.4-14.5,3.3-16.5,10.4c-1.9,6.8-2.3,14.5-3.4,21.5c-1.6,10-3.2,20-4.8,30
				c-0.4,2.4-1,4.9-1.2,7.3c0,0.4,1.5-0.9,0.5-0.4c-1,0.5-2,0.9-3,1.3c-1.7,0.7-3.3,1.9-5,2.5c-5.4,2.1-10.7,4-15.3,8.2
				c-2,1.8-3.9,4-5.3,6.4c-4.2,6.9-5.9,15.5-7.4,23.2c-4.7,22.8-6.6,46.3-8.2,69.5c-0.6,8.6-1.1,17.3-1.5,25.9
				c-0.2,4,0.1,7.5,2.8,10.7c2.6,3,6.7,5.2,10.5,6.2C139.3,372.9,142.3,371.5,141.1,371.2z"/>
		</g>
	</g>
	<g>
		<ellipse fill="#FFFFFF" cx="248.9" cy="239.7" rx="64.9" ry="62.3"/>
		<g>
			<path d="M312.2,240.5c-0.3,27.7-19.5,52.6-46.7,58.9c-24.6,5.7-51.4-3.2-67-23.2c-15.2-19.5-17.1-46.8-4.4-68.1
				c14.6-24.4,44.1-34.8,71.2-27.4C292.3,188.1,311.8,212.4,312.2,240.5c0-0.1,3.3-0.8,3.3-1.7c-0.3-28.2-20-52.5-47.1-59.9
				c-24.8-6.8-52.8,1.5-70.1,20.7c-18.7,20.7-21.1,52-5.3,75.1c15.9,23.2,45.9,33.1,72.8,25.7c27.9-7.8,49.4-31.9,49.7-61.5
				C315.4,238.9,312.2,239.6,312.2,240.5z"/>
		</g>
	</g>
	<g>
		<circle fill="#FFFFFF" cx="248.2" cy="237" r="32.5"/>
		<g>
			<path d="M279.8,237.4c-0.3,15.4-11,29.3-26.8,31.3c-12.1,1.5-24.2-4-31-14.2c-6.6-9.8-7.2-22.8-1.7-33.2
				c7.3-13.7,23.7-19.7,38.2-14.4C271.4,211.6,279.6,223.9,279.8,237.4c0,0,1.7-0.4,1.7-0.9c-0.3-15.2-10.7-28.7-25.8-31.8
				c-11.8-2.5-24.5,2-32.5,11c-9.9,11.1-11,28-2.5,40.2c8.3,11.9,23.8,16.8,37.5,12.2c13.7-4.7,23-17,23.3-31.6
				C281.5,236.7,279.8,237,279.8,237.4z"/>
		</g>
	</g>
	<g>
		<circle fill="#FFFFFF" cx="248.9" cy="237" r="27.1"/>
		<g>
			<path d="M275.3,237.4c-0.4,16.7-15.6,29.8-32.5,25.5c-11.8-3-20.3-14.1-20.3-26.2c0-16.8,15.9-29.8,32.5-25.5
				C267,214.3,274.9,225.2,275.3,237.4c0,0,1.4-0.3,1.4-0.7c-0.3-13-9.3-24.3-22.3-26.7c-9.5-1.7-19.6,1.9-26.1,9.1
				c-8.6,9.5-9.4,24.2-1.7,34.5c7.2,9.6,20.1,13.3,31.3,9.2c11.1-4.1,18.5-14.2,18.8-26.1C276.6,236.7,275.3,237,275.3,237.4z"/>
		</g>
	</g>
	<path d="M289,291.2c1,2.2-0.8,5-3.8,6.4l0,0c-3.1,1.4-6.3,0.7-7.3-1.4l-5.6-12.6c-1-2.2,0.8-5,3.8-6.4l0,0c3.1-1.4,6.3-0.7,7.3,1.4
		L289,291.2z"/>
	<g>
		<circle fill="#5ACAED" cx="282.9" cy="204.6" r="9.6"/>
		<g>
			<path d="M289.7,199.3c2.3,3.5,2.4,7.9-0.2,11.3c-3.5,4.5-10.1,3.6-13.3-0.8c-2.4-3.3-2.3-8,0.2-11.3
				C280.1,193.9,286.4,195.1,289.7,199.3c0.4,0.5,2.5-0.2,2.1-0.8c-8-10.1-25.7,1.1-17.6,12.1c3.3,4.5,9.7,5.2,14.4,2.5
				c5.2-3.1,6.5-9.6,3.2-14.6C291.4,198,289.2,198.7,289.7,199.3z"/>
		</g>
	</g>
	<g>
		<circle fill="#5ACAED" cx="254.5" cy="191.7" r="9.6"/>
		<g>
			<path d="M256.6,183c3.5,1.3,6.1,4.3,6.4,8.1c0.5,5.8-4.8,11-10.7,9.1c-10.3-3.3-6.8-20.2,4.5-17.1c0.7,0.2,2.6-0.8,1.4-1.1
				c-4.9-1.3-10.5,0.5-13.1,5.1c-3,5.4-0.2,12.4,5.7,14.3c4.8,1.5,10.6-0.5,13.1-4.9c3.2-5.6,0.3-12.2-5.5-14.4
				C257.7,181.8,255.7,182.7,256.6,183z"/>
		</g>
	</g>
	<g>
		<circle fill="#5ACAED" cx="223.9" cy="197.9" r="9.6"/>
		<g>
			<path d="M221,189.1c4.7-1.3,9.5,1.6,10.9,6.1c0.6,1.8,0.6,3.7,0.1,5.5c-0.3,0.9-0.6,1.8-1.1,2.5c-1.3,2.1-2.2,2.1-4.8,2.8
				c-3.2,0.9-4.9,0.9-7.5-1.3c-1.4-1.2-2.4-2.9-2.9-4.7c-1.2-4.6,1.1-9.4,5.6-11.1c1.5-0.6,0.1-0.8-0.8-0.5
				c-5.5,2.1-9.1,7.8-6.5,13.6c2.2,5.1,8.1,6.9,13.1,5.3c5.3-1.7,8.8-7.2,7-12.7c-1.9-5.8-7.9-7.7-13.3-6.2
				C219.6,188.8,219.7,189.5,221,189.1z"/>
		</g>
	</g>
	<g>
		<circle fill="#5ACAED" cx="202.9" cy="221" r="9.6"/>
		<g>
			<path d="M196.1,215.3c7.3-9.2,19.7,2.6,13.5,11.3c-3.3,4.6-9.9,4.2-13.2-0.1C193.7,223.2,193.8,218.8,196.1,215.3
				c0.5-0.8-1.7-0.6-2,0c-3.4,5.1-2,12.1,3.8,14.8c4.7,2.2,10.8,0.7,13.8-3.5c3.6-5,1.8-12.2-3.8-14.8c-4.8-2.3-10.6-0.5-13.8,3.5
				C193.5,216.1,195.7,215.9,196.1,215.3z"/>
		</g>
	</g>
	<g>
		<circle fill="#5ACAED" cx="199.4" cy="252" r="9.6"/>
		<g>
			<path d="M190.9,251.7c0.1-2,0.6-3.8,1.8-5.5c1.4-1.9,1.6-1.5,4.5-2.3c2.8-0.7,3.6-1.2,6,0.2c2.9,1.7,4.7,4.9,4.7,8.2
				c0,1.6-0.5,3.3-1.3,4.7c-1.4,2.5-2.1,2.2-5.1,3c-3,0.8-3,1.2-5.1,0.2C192.9,258.7,191.1,255.5,190.9,251.7c0-0.4-2.2,0-2.2,0.6
				c0.7,13.3,21.5,12.3,21.4-0.6c0-13.5-20.7-12.2-21.4,0.6C188.6,252.6,190.8,252.4,190.9,251.7z"/>
		</g>
	</g>
	<g>
		<circle fill="#5ACAED" cx="215.7" cy="276.4" r="9.6"/>
		<g>
			<path d="M209,281.6c-2.4-3.6-2.4-8.4,0.7-11.6c3.7-3.8,9.8-3,12.8,1.2c2.5,3.5,2.3,8.5-0.7,11.6C218,286.8,212.1,285.6,209,281.6
				c-0.5-0.7-2.7,0.1-2,0.9c3.5,4.4,9.6,5.5,14.4,2.6c5.1-3.1,6.7-9.9,3.2-14.8c-3.3-4.5-9.8-5.4-14.4-2.6
				c-5.2,3.2-6.5,9.8-3.2,14.8C207.4,283.3,209.5,282.5,209,281.6z"/>
		</g>
	</g>
	<g>
		<circle fill="#5ACAED" cx="247.5" cy="287.4" r="9.6"/>
		<g>
			<path d="M245.5,296c-3.5-1.3-6.1-4.3-6.4-8.1c-0.5-5.6,4.7-11.1,10.6-9.2C259.6,282,256.9,299.1,245.5,296
				c-0.6-0.2-2.6,0.8-1.8,1c4.9,1.3,10.6-0.3,13.2-4.9c3.1-5.4,0.4-12.4-5.5-14.4c-4.8-1.6-10.7,0.5-13.2,4.9
				c-3.2,5.6-0.3,12.1,5.5,14.4C244.3,297.2,246.3,296.3,245.5,296z"/>
		</g>
	</g>
</g>
</svg>
