<?xml version="1.0" encoding="utf-8"?>
<!-- Generator: Adobe Illustrator 18.1.1, SVG Export Plug-In . SVG Version: 6.00 Build 0)  -->
<svg version="1.1" id="Layer_1" xmlns="http://www.w3.org/2000/svg" xmlns:xlink="http://www.w3.org/1999/xlink" x="0px" y="0px"
	 viewBox="0 0 500 500" enable-background="new 0 0 500 500" xml:space="preserve">
<circle fill="#FFFAC0" cx="250" cy="250" r="226.5"/>
<g>
	<g>
		<path fill="#FFFFFF" d="M334.2,148.6l65-17.8c0,0,18.8,77-28.8,100.2S334.2,148.6,334.2,148.6z"/>
		<g>
			<path d="M334.4,149.3c21.7-5.9,43.3-11.9,65-17.8c-0.6-0.1-1.3-0.1-1.9-0.2c2.5,10.4,3.5,21.3,3.6,31.9
				c0.2,19.6-3.2,41.1-16.7,56.2c-6.2,6.9-16,14.2-25.7,14.2c-6.4,0-11.5-4.1-14.8-9.3c-7.7-12.3-8.7-28.8-9.2-42.9
				c-0.4-11-0.1-22.1,1.1-33c0.1-1.1-3.3-0.4-3.4,0.5c-1.1,9.9-1.3,19.9-1.2,29.8c0.3,15.3,1,33.7,9.6,47c8.7,13.4,24,10.2,35.8,2.7
				c18.6-11.8,26-33.5,27.5-54.5c1.1-14.4,0.1-29.5-3.3-43.6c-0.1-0.6-1.6-0.3-1.9-0.2c-21.7,5.9-43.3,11.9-65,17.8
				C332,148.5,332.3,149.9,334.4,149.3z"/>
		</g>
	</g>
	<g>
		<path fill="#FFFFFF" d="M165.8,151.9l-65-17.8c0,0-18.8,77,28.8,100.2S165.8,151.9,165.8,151.9z"/>
		<g>
			<path d="M167.2,151.3c-21.7-5.9-43.3-11.9-65-17.8c-0.7-0.2-2.9,0.1-3.1,1c-2.8,11.6-3.8,23.9-3.7,35.8
				c0.3,20.7,5.2,43.3,21.5,57.4c10.6,9.2,28.2,16.3,39.4,4.2c10.1-11,11.4-29.4,12.1-43.5c0.6-12.2,0.4-24.6-0.9-36.8
				c-0.1-0.7-3.5-0.1-3.4,0.9c0.9,8.8,1.2,17.7,1.2,26.5c-0.1,15-0.8,31.5-7.1,45.3c-2.5,5.4-6.6,11.5-12.9,12.6
				c-8.6,1.5-18.1-4.4-24.4-9.6c-15.7-13-21-34-21.9-53.5c-0.6-13.2,0.4-26.9,3.5-39.8c-1,0.3-2.1,0.7-3.1,1
				c21.7,5.9,43.3,11.9,65,17.8C165.2,152.9,168.3,151.5,167.2,151.3z"/>
		</g>
	</g>
	<g>
		<circle fill="#FFFFFF" cx="252.8" cy="250" r="139.4"/>
		<g>
			<path d="M390.4,250.2c-0.3,57.1-35.9,109.6-89.7,129.6c-54.7,20.4-117.9,2.6-154.6-42.6c-36.1-44.4-41-108.4-11.9-157.8
				c29.7-50.3,89.7-76.9,146.9-64.6c55.2,11.9,98.7,57.8,107.5,113.6C389.9,235.6,390.4,242.9,390.4,250.2c0,1.7,3.5,1.1,3.5-0.3
				c-0.3-58.8-37.7-112.4-93.3-132.3c-55.2-19.7-118.6-2.3-156.2,42.6c-38,45.4-43.3,111.7-12.7,162.4
				c30.5,50.6,90.9,76.7,148.8,65.2c56.7-11.3,102.2-58,111.6-115.2c1.2-7.5,1.8-15.1,1.8-22.7C393.9,248.2,390.4,248.8,390.4,250.2
				z"/>
		</g>
	</g>
	
		<ellipse transform="matrix(0.9736 0.2281 -0.2281 0.9736 59.0312 -41.9284)" stroke="#000000" stroke-width="0.3879" stroke-miterlimit="10" cx="210.9" cy="234.4" rx="9.5" ry="11.4"/>
	
		<ellipse transform="matrix(0.9669 -0.2552 0.2552 0.9669 -50.1911 81.9008)" stroke="#000000" stroke-width="0.3709" stroke-miterlimit="10" cx="290.5" cy="234.4" rx="8.6" ry="11.4"/>
	<g>
		<path fill="#FFFFFF" d="M281.7,279.7c0,8-10.8,18.5-24.2,18.5c-13.4,0-24.2-10.5-24.2-18.5c0-8,10.8-14.4,24.2-14.4
			C270.8,265.3,281.7,271.8,281.7,279.7z"/>
		<g>
			<path d="M279.9,279.9c-0.5,9.9-11.8,16.6-20.8,17.2c-9.3,0.6-21.7-5.6-23.9-15.5c-4.3-19.4,43.6-21.4,44.7-1.4
				c0.1,1.3,3.5,0.5,3.4-0.9c-0.7-12.8-19.3-15.7-29-14.9c-8.7,0.7-24.4,5.7-22.7,17.2c1.7,11.7,16.6,18.3,27.1,17.6
				c10.2-0.7,24-8.1,24.6-19.7C283.5,278,280,278.6,279.9,279.9z"/>
		</g>
	</g>
	<ellipse cx="248" cy="280.7" rx="4.7" ry="4.7"/>
	<ellipse cx="265.6" cy="280.7" rx="4.7" ry="4.7"/>
	<g>
		<path fill="#FFFFFF" d="M228.7,306.8c14.3-0.2,14.4,9.9,28.8,9.7c14.3-0.2,14.2-10.2,28.5-10.3"/>
		<path fill="none" stroke="#000000" stroke-width="5.0108" stroke-linecap="round" stroke-miterlimit="10" d="M228.7,306.8
			c14.3-0.2,14.4,9.9,28.8,9.7c14.3-0.2,14.2-10.2,28.5-10.3"/>
	</g>
</g>
</svg>
