<?xml version="1.0" encoding="utf-8"?>
<!-- Generator: Adobe Illustrator 18.1.1, SVG Export Plug-In . SVG Version: 6.00 Build 0)  -->
<svg version="1.1" id="Layer_1" xmlns="http://www.w3.org/2000/svg" xmlns:xlink="http://www.w3.org/1999/xlink" x="0px" y="0px"
	 viewBox="0 0 500 500" enable-background="new 0 0 500 500" xml:space="preserve">
<g>
	<circle fill="#F9C3D2" cx="252.4" cy="250" r="226.5"/>
</g>
<g>
	<g>
		<g>
			<path fill="#5ACAED" d="M124.5,269.9l-1.5-4.1c-9.9-27.8,4.7-58.6,32.5-68.5l156.3-55.7c27.8-9.9,58.6,4.7,68.5,32.5l1.5,4.1
				c9.9,27.8-4.7,58.6-32.5,68.5L193,302.4C165.2,312.3,134.4,297.7,124.5,269.9z"/>
			<g>
				<path d="M126,269.4c-5.2-14.6-6.4-29.5,0.3-43.9c5.9-12.9,16.7-22.6,30-27.5c12.6-4.6,25.3-9,37.9-13.5
					c37.9-13.5,75.9-27,113.8-40.6c7.1-2.5,14.3-4.6,22-4.5c17,0.2,33.2,9,42.7,23c8.5,12.4,12.5,28.9,9.7,43.7
					c-3.3,17.3-15.4,32.3-31.8,38.9c-10.8,4.3-21.9,7.8-32.8,11.7c-21.7,7.7-43.4,15.5-65.1,23.2c-17.5,6.2-35,12.5-52.4,18.7
					c-3.8,1.4-7.6,2.9-11.5,3.9c-17.1,4.6-35.8-0.2-48.8-12.2C133.6,284.6,129,277.5,126,269.4c-0.5-1.3-3.6-0.4-3.2,0.8
					c10.6,28.6,42.2,42.8,70.8,32.9c14-4.8,27.8-9.9,41.7-14.9c37.8-13.5,75.6-26.8,113.4-40.4c27.3-9.8,43.9-39.1,35.4-67.5
					c-4.3-14.3-12.1-26.8-25.1-34.8c-13.6-8.3-30.5-10.5-45.6-5.7c-12.3,3.8-24.3,8.6-36.4,12.9c-23.1,8.2-46.2,16.4-69.2,24.7
					c-16.6,5.9-33.2,11.8-49.8,17.8c-8,2.9-15.5,6.6-21.8,12.4c-12.1,11-18.8,27.3-17.9,43.6c0.4,6.7,2.3,12.9,4.5,19.1
					C123.4,271.6,126.5,270.7,126,269.4z"/>
			</g>
		</g>
		<g>
			<path fill="#FFFFFF" d="M275.1,271.3l76.9-27.3c26-9.3,39.1-39.8,29.1-67.9l-0.5-1.3c-10-28.1-39.5-43.5-65.6-34.2l-77.5,27.6
				L275.1,271.3z"/>
			<g>
				<path d="M275.4,272.7c17-6,33.9-12.1,50.9-18.1c18.9-6.7,39.8-11.4,51.4-29.4c17.7-27.6,6.8-67-21.8-82.4
					c-12.7-6.9-27.6-8.3-41.3-3.6c-6.2,2.1-12.3,4.4-18.5,6.6c-19.6,7-39.3,14-58.9,21c-0.7,0.2-2,0.9-1.6,1.9
					c10.9,30.1,21.9,60.2,32.8,90.3c1.6,4.3,3.1,8.6,4.7,12.9c0.7,1.8,4.6,0.7,4-1.1c-10.9-30.1-21.9-60.2-32.8-90.3
					c-1.6-4.3-3.1-8.6-4.7-12.9c-0.5,0.6-1.1,1.3-1.6,1.9c15.6-5.5,31.1-11.1,46.7-16.6c8.8-3.1,17.6-6.3,26.4-9.4
					c9-3.2,18-5.2,27.6-3.4c33.4,6.2,52.5,45.4,39.8,76.2c-5.2,12.6-15.1,22.1-27.9,26.7c-7.1,2.6-14.3,5.1-21.4,7.6
					c-18.1,6.5-36.3,12.9-54.4,19.4C272.3,270.8,273,273.6,275.4,272.7z"/>
			</g>
		</g>
		<g>
			<path fill="#FFFFFF" d="M146.9,251.6c2.7,0.3,5,2.1,5.8,4.8c4.7,15.5,21.1,24.4,36.6,19.7c3.6-1.1,7.4,1,8.5,4.6
				c1.1,3.6-1,7.4-4.6,8.5c-22.7,6.8-46.8-6.1-53.6-28.9c-1.1-3.6,1-7.4,4.6-8.5C145.1,251.6,146,251.5,146.9,251.6L146.9,251.6z
				 M146.9,251.6"/>
			<g>
				<path d="M145.8,251.9c6.7,1.4,7.1,9.8,10.9,14.6c3.6,4.5,8.5,8,14,9.7c4.9,1.6,10.1,1.8,15.1,0.8c3-0.6,6.1-1.5,8.7,0.6
					c2.3,1.9,3.1,5.2,1.9,7.9c-3,7.1-17.4,5.5-23.7,4.1c-5.8-1.3-11.4-3.8-16.2-7.3c-4.9-3.6-9-8.1-12-13.4
					C142.3,265.1,136.2,251.8,145.8,251.9c0.7,0,1.7-0.6,2.2-0.6c-2.4,0-5.4,0.6-7.3,2.1c-4.9,4.1-1.2,11.2,1.3,15.6
					c5.9,10.8,16.5,18.7,28.5,21.3c7.6,1.7,17.2,1.7,24.5-1.6c5.5-2.5,5.7-10.9-0.5-12.8c-1.6-0.5-2.9-0.2-4.5,0.1
					c-3.6,0.6-6.8,1.4-10.5,1.1c-7.1-0.6-13.8-3.9-18.8-9c-2.5-2.6-4.5-5.8-5.9-9.1c-1.5-3.7-2.4-6.6-6.8-7.5
					C147.3,251.1,146.4,252,145.8,251.9z"/>
				<path d="M145.8,251.9c0.7,0,1.7-0.6,2.2-0.6C147.3,251.3,146.3,251.9,145.8,251.9L145.8,251.9z"/>
			</g>
		</g>
	</g>
	<g>
		<circle fill="#FFFFFF" cx="275.2" cy="301.6" r="60.6"/>
		<g>
			<path d="M334.1,301.7c-0.3,24.5-15.1,46.9-38.3,55.6c-23.5,8.7-50.5,1-66.2-18.4c-15.3-18.9-17.5-46-5.4-67.1
				c12.5-21.8,38.1-33.4,62.7-28.3C314.3,249.2,333.8,274,334.1,301.7c0,1.8,3.5,1.3,3.5-0.2c-0.3-26.1-16.7-49.7-41.5-58.3
				c-24.3-8.4-52.1-0.8-68.7,18.9c-16.8,19.9-19.2,49.1-5.8,71.5c13.4,22.3,40,33.7,65.4,28.8c29-5.6,50.1-31.5,50.5-60.8
				C337.6,299.7,334.1,300.1,334.1,301.7z"/>
		</g>
	</g>
	<g>
		<circle fill="#FFFFFF" cx="273.2" cy="298.3" r="57.3"/>
		<g>
			<path d="M328.7,298.7c-0.3,23.8-15.4,46-38.4,53.3c-22.3,7.1-47.1-1.3-61.1-19.8c-13.8-18.1-15.3-43.7-3.6-63.3
				c12.3-20.6,36.7-31.2,60.1-25.5C311,249.6,328.4,272.9,328.7,298.7c0,1,3.4,0.4,3.4-0.9c-0.3-25.4-17.1-48.1-41.5-55.3
				c-22.4-6.6-47.4,0.8-62.6,18.6c-16.2,19-18.3,47.1-5,68.2c13.1,20.9,38.6,31,62.5,25.7c26.9-5.9,46.2-29.7,46.5-57.2
				C332.1,296.8,328.7,297.4,328.7,298.7z"/>
		</g>
	</g>
	<g>
		<g>
			<path d="M286.5,352.6c-6.4-32-12.7-64.1-19.1-96.1c-0.9-4.5-1.8-9.1-2.7-13.6c-0.1-0.7-3.6,0.1-3.4,0.9
				c6.4,32,12.7,64.1,19.1,96.1c0.9,4.5,1.8,9.1,2.7,13.6C283.2,354.1,286.7,353.3,286.5,352.6L286.5,352.6z"/>
		</g>
	</g>
</g>
</svg>
