<?xml version="1.0" encoding="utf-8"?>
<!-- Generator: Adobe Illustrator 18.1.1, SVG Export Plug-In . SVG Version: 6.00 Build 0)  -->
<svg version="1.1" id="Layer_1" xmlns="http://www.w3.org/2000/svg" xmlns:xlink="http://www.w3.org/1999/xlink" x="0px" y="0px"
	 viewBox="0 0 500 500" enable-background="new 0 0 500 500" xml:space="preserve">
<circle fill="#FCE3EE" cx="250" cy="250" r="226.5"/>
<g>
	<path fill="#F04D5D" d="M313.6,182.8l109.6,12.7c7.7,0.9,11.1,10.3,5.7,15.8l-76.8,79.3c-2.1,2.2-3.1,5.4-2.5,8.4l21.8,108.2
		c1.5,7.6-6.3,13.7-13.3,10.3L259,369c-2.8-1.4-6-1.3-8.7,0.3l-96.2,54.2c-6.8,3.8-15-1.8-13.9-9.5l15.5-109.3
		c0.4-3.1-0.7-6.1-2.9-8.2l-81.2-74.7c-5.7-5.3-2.9-14.8,4.7-16.1l108.7-19c3-0.5,5.6-2.5,6.9-5.3l46-100.3
		c3.2-7.1,13.2-7.4,16.8-0.5l51.7,97.5C307.8,180.6,310.5,182.5,313.6,182.8z"/>
	<g>
		<path d="M313,184c19.3,2.2,38.5,4.5,57.8,6.7c12.6,1.5,25.3,2.9,37.9,4.4c6.3,0.7,18.4-0.1,20.7,7.6c2.1,7.1-7.4,13.9-11.7,18.3
			c-8.9,9.1-17.7,18.3-26.6,27.4c-9.2,9.5-18.5,19.1-27.7,28.6c-4.2,4.4-8.8,8.6-12.8,13.2c-5.1,6-1.8,14.2-0.4,21
			c2.4,12.2,4.9,24.3,7.3,36.5c2.6,13.1,5.3,26.2,7.9,39.2c1.4,6.8,3.2,13.7,4.1,20.6c1,7.1-5.2,11.4-11.5,8.4
			c-2.8-1.3-5.6-2.7-8.4-4.1c-10.9-5.3-21.9-10.7-32.8-16c-18.8-9.2-37.4-19-56.4-27.6c-6.9-3.1-12.1,0.7-17.9,4
			c-10,5.6-20,11.3-30.1,16.9c-19.4,10.9-38.5,22.6-58.3,32.8c-6.4,3.3-13-0.7-12.4-8.2c0.2-2.1,0.6-4.1,0.9-6.1
			c1.6-10.9,3.1-21.9,4.7-32.8c3.2-22.7,6.5-45.5,9.7-68.2c0.6-4.1,0.2-7.7-2.8-10.9c-1.2-1.2-2.5-2.3-3.7-3.4
			c-7.7-7.1-15.4-14.2-23.2-21.3c-17.4-16-34.8-32-52.2-48c-2.8-2.6-5.4-5.1-4.9-9.4c0.6-5,4.5-6.6,8.6-7.3c9.5-1.7,19.1-3.3,28.6-5
			c24.2-4.2,48.3-8.5,72.5-12.7c6-1,11.1-2.1,14-8.2c3.7-7.6,7.1-15.4,10.6-23.1c10.5-23,21.1-46.1,31.6-69.1c1-2.2,1.9-4.6,3.1-6.7
			c3.4-6.3,10.4-6,14,0c3.8,6.4,7,13.2,10.5,19.8c12,22.6,24,45.3,36,67.9C303,175.3,305.3,182.5,313,184c1.6,0.3,3.5-1.9,1.2-2.3
			c-7.1-1.3-11-13.5-14-19.1c-6.3-12-12.7-24-19-35.9c-6.1-11.5-12.2-23.1-18.3-34.6c-2.7-5-5.6-14-11.1-16.7
			c-5.8-2.9-12.6-0.1-15.5,5.4c-0.9,1.7-1.6,3.5-2.4,5.2c-4.7,10.2-9.3,20.4-14,30.6c-9.6,21.1-18.8,42.4-29,63.2
			c-3.1,6.4-9.4,6.2-15.6,7.3c-12.2,2.1-24.4,4.3-36.6,6.4C118,197.1,97,200,76.5,204.4c-5.7,1.2-10.4,5.7-9.7,11.9
			c0.4,3.5,2.6,5.7,5,7.9c7.2,6.6,14.4,13.3,21.6,19.9c18.3,16.8,36.5,33.6,54.8,50.4c2.4,2.2,5.1,4.2,5.7,7.6
			c0.4,2.4-0.3,5.2-0.6,7.5c-1.5,10.8-3.1,21.6-4.6,32.3c-3.3,23.4-6.8,46.8-10,70.2c-0.5,3.8-0.4,7.5,2.5,10.4
			c3.8,3.9,9.4,3.9,13.9,1.5c7.1-3.7,14-7.9,20.9-11.8c22.7-12.8,45.4-25.6,68.1-38.3c2.1-1.2,4.3-2.7,6.5-3.7
			c4.3-1.8,6.3-0.7,9.5,0.9c9,4.4,17.9,8.8,26.9,13.2c22.1,10.8,44.3,21.7,66.4,32.5c2.1,1,4.2,2.3,6.4,2.6
			c6.8,1.2,13.8-4.3,13.3-11.4c-0.4-6.4-2.5-13.1-3.8-19.3c-5.2-25.9-10.4-51.8-15.7-77.8c-1.3-6.3-4.7-14.8,0-20.2
			c5.3-6.1,11.3-11.7,16.9-17.5c18-18.6,36-37.2,54.1-55.8c5.1-5.3,12.5-12.1,5.8-19.6c-4.2-4.7-13.7-4.2-19.4-4.9
			c-26.3-3-52.5-6.1-78.8-9.1c-6.1-0.7-12.2-1.4-18.3-2.1C312.6,181.4,310.6,183.7,313,184z"/>
	</g>
</g>
</svg>
