<?xml version="1.0" encoding="utf-8"?>
<!-- Generator: Adobe Illustrator 18.1.1, SVG Export Plug-In . SVG Version: 6.00 Build 0)  -->
<svg version="1.1" id="Layer_1" xmlns="http://www.w3.org/2000/svg" xmlns:xlink="http://www.w3.org/1999/xlink" x="0px" y="0px"
	 viewBox="0 0 500 500" enable-background="new 0 0 500 500" xml:space="preserve">
<g>
	<circle fill="#D8D6EC" cx="250" cy="250" r="226.5"/>
</g>
<g>
	<path d="M349.6,395.7c0.3-0.3,0.5-0.5,0.8-0.8c1.8-34-42.9-62-98.4-62s-100.2,27.9-98.4,62c0.3,0.3,0.5,0.5,0.8,0.8H349.6z"/>
	<g>
		<ellipse fill="#FFFFFF" cx="250" cy="217.3" rx="122.5" ry="119.1"/>
		<g>
			<path fill="#176C82" d="M365.5,218.1c-0.3,47.6-30.1,91.1-75.1,107.4c-45.6,16.5-98.2,1-129-35.8c-31-37-35.5-90.8-10.5-132.2
				c24.8-41,73.7-62.2,120.6-52.4c46.8,9.7,84.6,47.8,92.4,95.2C364.9,206.1,365.4,212.1,365.5,218.1c0,6.4,14.1,3.7,14-1.5
				c-0.3-52.5-34.6-98.3-83.9-115.5c-50.4-17.6-110.1-2.3-145.1,38.2c-34.4,39.7-39.8,97.6-12,142.4c28.3,45.7,84.2,66.7,136.2,56.6
				c50.9-9.9,94.2-50,103.1-101.9c1.1-6.5,1.6-13.1,1.7-19.7C379.5,210.2,365.5,212.9,365.5,218.1z"/>
		</g>
	</g>
	<g>
		<g>
			<path d="M359.5,217.6c-0.3,44.9-28.6,86.3-71.3,101.2c-43,15-92.1,0.3-120.9-34.6c-28.8-34.9-32.7-85.5-9-124.2
				c23.6-38.5,69.8-58,113.8-48.5C321.7,122.3,359.2,166.6,359.5,217.6c0,6,13.2,3.5,13.2-1.4c-0.3-49.4-32.5-92.4-78.9-108.5
				c-47.3-16.5-103.3-2.1-136.2,35.9c-32.3,37.3-37.3,91.7-11.2,133.8c26.7,42.9,79.1,62.6,128,53.1c47.8-9.3,88.5-47.1,96.8-95.8
				c1-6.1,1.5-12.2,1.6-18.4C372.8,210.3,359.6,212.8,359.5,217.6z"/>
		</g>
	</g>
	<path stroke="#000000" stroke-width="1.137" stroke-miterlimit="10" d="M274.3,295.2c0-7.4-3.1-28-9-43.7
		c12.3-5.7,21.1-17.6,22.3-31.7c15.7-0.4,35.2-7.7,41.2-13.7c8.9-8.9,9.9-43.6-2.1-55.6c-12-12-21.8-7.4-30.6,1.5
		c-4.9,4.9-16.1,19.8-23.1,34.3c-6.6-5.1-14.7-8.3-23.6-8.3c-8.4,0-16.1,2.8-22.4,7.3c-7.1-10.9-17-20.7-23.1-23.2
		c-11.6-4.8-44.1,7.4-50.6,23c-6.5,15.6,1.5,22.9,13.1,27.8c7,2.9,28,8.2,45,8.5c1.4,10.9,7.2,20.4,15.7,26.5
		c-8.1,11.1-14,25.3-14,32.3c0,12.5,23.8,37.9,40.8,37.9C270.7,317.9,274.3,307.8,274.3,295.2L274.3,295.2z M249.3,194.8
		c12,0,21.7,9.7,21.7,21.7c0,12-9.7,21.7-21.7,21.7c-12,0-21.7-9.7-21.7-21.7C227.6,204.5,237.3,194.8,249.3,194.8L249.3,194.8z
		 M249.3,194.8"/>
	<path fill="#5ACAED" stroke="#000000" stroke-width="0.928" stroke-miterlimit="10" d="M348.3,401.8H155.8c-1.2,0-2.3-1-2.3-2.3
		l0,0c0-1.2,1-2.3,2.3-2.3h192.4c1.2,0,2.3,1,2.3,2.3l0,0C350.5,400.8,349.5,401.8,348.3,401.8z"/>
	<circle fill="none" stroke="#176C82" stroke-width="1.102" stroke-miterlimit="10" cx="252.9" cy="216.2" r="103.7"/>
	<circle fill="none" stroke="#176C82" stroke-width="1.102" stroke-miterlimit="10" cx="252.9" cy="216.2" r="93.3"/>
	<circle fill="none" stroke="#176C82" stroke-width="1.102" stroke-miterlimit="10" cx="252.9" cy="216.2" r="84"/>
	<line stroke="#176C82" stroke-width="1.137" stroke-miterlimit="10" x1="249.1" y1="209.6" x2="249.1" y2="98.6"/>
	<line stroke="#176C82" stroke-width="1.137" stroke-miterlimit="10" x1="246.9" y1="206.4" x2="212.6" y2="100.7"/>
	<line stroke="#176C82" stroke-width="1.137" stroke-miterlimit="10" x1="245.3" y1="208.6" x2="180" y2="118.7"/>
	<line stroke="#176C82" stroke-width="1.137" stroke-miterlimit="10" x1="244.4" y1="211.1" x2="154.5" y2="145.8"/>
	<line stroke="#176C82" stroke-width="1.137" stroke-miterlimit="10" x1="241.8" y1="213" x2="138.7" y2="179.5"/>
	<line stroke="#176C82" stroke-width="1.1175" stroke-miterlimit="10" x1="241.4" y1="216.4" x2="134.1" y2="216.4"/>
	<line stroke="#176C82" stroke-width="1.102" stroke-miterlimit="10" x1="240.3" y1="220.7" x2="141.1" y2="252.9"/>
	<line stroke="#176C82" stroke-width="1.1176" stroke-miterlimit="10" x1="245.8" y1="222.5" x2="159" y2="285.5"/>
	<line stroke="#176C82" stroke-width="1.137" stroke-miterlimit="10" x1="250.8" y1="223" x2="186.2" y2="311"/>
	<line stroke="#176C82" stroke-width="1.137" stroke-miterlimit="10" x1="254.2" y1="221.2" x2="219.8" y2="326.8"/>
	<line stroke="#176C82" stroke-width="1.137" stroke-miterlimit="10" x1="256.7" y1="220.4" x2="256.7" y2="331.4"/>
	<line stroke="#176C82" stroke-width="1.137" stroke-miterlimit="10" x1="259" y1="218.8" x2="293.3" y2="324.4"/>
	<line stroke="#176C82" stroke-width="1.137" stroke-miterlimit="10" x1="259" y1="216.6" x2="325.9" y2="306.5"/>
	<line stroke="#176C82" stroke-width="1.137" stroke-miterlimit="10" x1="259.6" y1="214.1" x2="351.3" y2="279.4"/>
	<line stroke="#176C82" stroke-width="1.137" stroke-miterlimit="10" x1="258.5" y1="212.6" x2="367.1" y2="245.7"/>
	<line stroke="#176C82" stroke-width="1.137" stroke-miterlimit="10" x1="258.7" y1="211.4" x2="372.4" y2="209.7"/>
	<line stroke="#176C82" stroke-width="1.137" stroke-miterlimit="10" x1="256.4" y1="210.5" x2="364.8" y2="172.2"/>
	<line stroke="#176C82" stroke-width="1.137" stroke-miterlimit="10" x1="255.1" y1="208.8" x2="346.8" y2="139.6"/>
	<line stroke="#176C82" stroke-width="1.137" stroke-miterlimit="10" x1="252" y1="208.6" x2="319.7" y2="114.2"/>
	<line stroke="#176C82" stroke-width="1.137" stroke-miterlimit="10" x1="252" y1="208.6" x2="286" y2="103.2"/>
	<path d="M249.1,204.8c-6.3,0-11.4,5.1-11.4,11.4s5.1,11.4,11.4,11.4c6.3,0,11.4-5.1,11.4-11.4S255.4,204.8,249.1,204.8z
		 M249.1,221.6c-3,0-5.4-2.4-5.4-5.4s2.4-5.4,5.4-5.4c3,0,5.4,2.4,5.4,5.4S252.1,221.6,249.1,221.6z"/>
	<g>
		<path fill="#5ACAED" stroke="#000000" stroke-width="0.5529" stroke-miterlimit="10" d="M236.8,386h-9.9c-0.8,0-1.5-0.7-1.5-1.5
			v-5.4c0-0.8,0.7-1.5,1.5-1.5h9.9c0.8,0,1.5,0.7,1.5,1.5v5.4C238.3,385.3,237.6,386,236.8,386z"/>
		<path fill="#5ACAED" stroke="#000000" stroke-width="0.5529" stroke-miterlimit="10" d="M277.2,386h-9.9c-0.8,0-1.5-0.7-1.5-1.5
			v-5.4c0-0.8,0.7-1.5,1.5-1.5h9.9c0.8,0,1.5,0.7,1.5,1.5v5.4C278.7,385.3,278,386,277.2,386z"/>
		<path fill="#5ACAED" stroke="#000000" stroke-width="0.928" stroke-miterlimit="10" d="M260.3,388.8h-16.6c-1.4,0-2.6-1.2-2.6-2.6
			v-9c0-1.4,1.2-2.6,2.6-2.6h16.6c1.4,0,2.6,1.2,2.6,2.6v9C262.9,387.7,261.7,388.8,260.3,388.8z"/>
	</g>
</g>
</svg>
