<?xml version="1.0" encoding="utf-8"?>
<!-- Generator: Adobe Illustrator 18.1.1, SVG Export Plug-In . SVG Version: 6.00 Build 0)  -->
<svg version="1.1" id="Layer_1" xmlns="http://www.w3.org/2000/svg" xmlns:xlink="http://www.w3.org/1999/xlink" x="0px" y="0px"
	 viewBox="0 0 500 500" enable-background="new 0 0 500 500" xml:space="preserve">
<circle fill="#FCE3EE" cx="250" cy="250" r="226.5"/>
<g>
	<path stroke="#000000" stroke-width="0.6002" stroke-miterlimit="10" d="M180.4,374.9h-22.6c-3.5,0-6.3-2.8-6.3-6.3v-10.4
		c0-3.5,2.8-6.3,6.3-6.3h22.6c3.5,0,6.3,2.8,6.3,6.3v10.4C186.6,372,183.8,374.9,180.4,374.9z"/>
	<path stroke="#000000" stroke-width="0.6002" stroke-miterlimit="10" d="M343.9,374.9h-22.6c-3.5,0-6.3-2.8-6.3-6.3v-10.4
		c0-3.5,2.8-6.3,6.3-6.3h22.6c3.5,0,6.3,2.8,6.3,6.3v10.4C350.2,372,347.4,374.9,343.9,374.9z"/>
	<g>
		<path fill="#FFFFFF" d="M261.1,194.3h-22.6c-3.5,0-6.3-5.6-6.3-12.5v-20.7c0-6.9,2.8-12.5,6.3-12.5h22.6c3.5,0,6.3,5.6,6.3,12.5
			v20.7C267.4,188.6,264.6,194.3,261.1,194.3z"/>
		<g>
			<path d="M261.6,193.6c-3.3,0-6.5,0-9.8,0c-3.9,0-8.4,0.7-12.3,0c-8.5-1.4-6.1-20-6.1-26.3c0-4.4-0.4-9.1,1.1-13.4
				c2.2-6.1,6.7-4.7,11.9-4.7c4.3,0,8.9-0.4,13.2,0c5.8,0.6,6.6,7.9,6.7,12.7c0.1,4.5,0,9.1,0,13.6c0,4.6,1.2,17.3-5,18.1
				c-1.1,0.1-1.9,1.5-0.3,1.3c10.5-1.4,7.6-21.1,7.6-28.5c0-5.3,0.7-11.8-2.9-16.2c-2.6-3.3-6.8-2.4-10.6-2.4
				c-5.2,0-10.7-0.4-15.9,0c-5.8,0.5-7.7,6.6-8,11.6c-0.3,4.5-0.1,9.1-0.1,13.6c0,5.3-0.7,11.5,1.3,16.5c2.3,5.7,6,5.2,11.2,5.2
				c5.7,0,11.3,0,17,0C261.6,194.9,263.1,193.6,261.6,193.6z"/>
		</g>
	</g>
	<g>
		<path fill="#176C82" d="M340,360.3H159.7c-11.3,0-20.4-9.2-20.4-20.4v-136c0-11.3,9.2-20.4,20.4-20.4H340
			c11.3,0,20.4,9.2,20.4,20.4v136C360.5,351.1,351.3,360.3,340,360.3z"/>
		<g>
			<path d="M340.2,359c-49.9,0-99.8,0-149.7,0c-9.2,0-18.4,0-27.6,0c-3.5,0-6.8-0.1-10.2-1.5c-7.8-3.3-11.6-10.8-11.7-18.9
				c-0.4-25.1,0-50.2,0-75.3c0-14.5,0-29,0-43.5c0-7.6-1.5-17.9,2.1-24.9c5.5-10.8,16-10.2,26.1-10.2c11.7,0,23.4,0,35.1,0
				c31.8,0,63.5,0,95.3,0c11,0,22,0,33,0c2.3,0,4.6-0.1,6.9,0c9.6,0.3,17.9,7.1,19.2,16.9c0.9,7.2,0.2,14.8,0.2,22c0,15,0,30,0,44.9
				c0,23.7,0.5,47.5,0,71.1C358.5,350.3,351.1,358.7,340.2,359c-1.9,0.1-2.6,2.6-0.3,2.5c9.9-0.3,18.9-6.6,21.6-16.4
				c0.9-3.3,0.7-6.6,0.7-10c0-12.1,0-24.2,0-36.3c0-29.8,0-59.6,0-89.4c0-2.2,0.1-4.3,0-6.5c-0.4-10.3-7.9-18.9-18.1-20.6
				c-6.3-1-13.1-0.3-19.4-0.3c-30.8,0-61.7,0-92.5,0c-23.7,0-47.4-0.2-71.1,0c-13,0.1-23.4,9.3-23.5,22.7c-0.1,9.6,0,19.3,0,28.9
				c0,31.2,0,62.4,0,93.6c0,9.7-1.3,20.1,6.2,27.7c6.9,7,15.7,6.5,24.6,6.5c29,0,58,0,87,0c26.7,0,53.5,0,80.2,0c1.5,0,3,0,4.5,0
				C341.9,361.6,342.5,359,340.2,359z"/>
		</g>
	</g>
	<g>
		<ellipse fill="#FFFFFF" cx="249.9" cy="271.8" rx="69.6" ry="68.3"/>
		<g>
			<path d="M317.7,272.8c-0.3,29.6-20,57-49.2,64.4c-26.7,6.7-55.8-3.3-72.6-25.2c-16.4-21.4-18.4-51.4-4.8-74.8
				c15.4-26.4,46.9-38.2,76.2-30C296.7,215.4,317.4,242.3,317.7,272.8c0-0.1,3.5-0.9,3.5-1.8c-0.3-30.6-21.1-57.5-50.5-65.7
				c-26.7-7.5-56.6,1.8-74.9,22.4c-20.4,22.9-22.9,57.5-5.6,82.9c16.9,24.9,48.8,35.9,77.6,27.9c30.5-8.5,53.2-35.4,53.5-67.5
				C321.2,271.1,317.7,271.8,317.7,272.8z"/>
		</g>
	</g>
	<g>
		<path fill="#176C82" d="M359,160.2l-215.9-0.8c-0.8,0-1.6-0.5-2-1.2l-16.6-29.6c-0.9-1.6,0.3-3.5,2-3.5h247c1.7,0,2.9,1.8,2.1,3.3
			l-14.5,30.4C360.7,159.7,359.9,160.2,359,160.2z"/>
		<g>
			<path d="M359.6,159.1c-33.8-0.1-67.6-0.3-101.5-0.4c-24.3-0.1-48.6-0.2-72.9-0.3c-8.9,0-17.8-0.1-26.6-0.1
				c-4.4,0-9.4,0.6-13.8-0.1c-1.5-0.2-1.9-0.6-2.8-1.9c-2.8-4.1-5-8.9-7.4-13.2c-2.6-4.6-5.7-9.2-7.9-14.1c-0.8-1.8-1.3-2.2,0.2-2.8
				c1.2-0.4,3.4,0,4.7,0c2.7,0,5.3,0,8,0c8.1,0,16.2,0,24.4,0c48.2,0,96.4,0,144.6,0c17.8,0,35.6,0,53.4,0c2.4,0,4.8,0,7.2,0
				c0.8,0,2.6-0.3,3.4,0c2.9,1.3,0.1,4.9-0.7,6.7c-2.6,5.4-5.2,10.9-7.8,16.3c-0.9,1.9-3,9.3-5.3,10c-2.1,0.6-1.6,2.6,0.5,2
				c3.9-1.1,4.7-4.8,6.3-8.2c2.8-5.8,5.5-11.5,8.3-17.3c1.9-4,6.8-11.2-0.7-11.7c-13.1-0.8-26.5,0-39.6,0c-50.5,0-101,0-151.6,0
				c-16.5,0-33.1,0-49.6,0c-2.7,0-7.9-0.8-9.5,2.1c-1.5,2.8,2.4,7.4,3.7,9.7c3.2,5.6,6.3,11.2,9.5,16.9c1.6,2.8,2.9,7.2,6.4,7.8
				c0.7,0.1,1.6,0,2.4,0c5.9,0,11.8,0,17.7,0.1c22.7,0.1,45.3,0.2,68,0.3c41.8,0.2,83.7,0.3,125.5,0.5c0.8,0,1.6,0,2.4,0
				C359.8,161.3,362,159.1,359.6,159.1z"/>
		</g>
	</g>
	<circle fill="#176C82" stroke="#000000" stroke-width="1.1826" stroke-miterlimit="10" cx="249.9" cy="271.8" r="3.3"/>
	<g>
		<g>
			<path d="M252.4,269.9c10.7-14.7,21.4-29.4,32.2-44.1c0.2-0.2-2.8-0.2-3.4,0.6c-10.7,14.7-21.4,29.4-32.2,44.1
				C248.9,270.8,251.8,270.7,252.4,269.9L252.4,269.9z"/>
		</g>
	</g>
</g>
</svg>
