<?xml version="1.0" encoding="utf-8"?>
<!-- Generator: Adobe Illustrator 18.1.1, SVG Export Plug-In . SVG Version: 6.00 Build 0)  -->
<svg version="1.1" id="Layer_1" xmlns="http://www.w3.org/2000/svg" xmlns:xlink="http://www.w3.org/1999/xlink" x="0px" y="0px"
	 viewBox="0 0 500 500" enable-background="new 0 0 500 500" xml:space="preserve">
<g>
	<circle fill="#C8EAF5" cx="250" cy="250" r="226.5"/>
</g>
<g>
	<g>
		<circle fill="#D24D9C" cx="250" cy="114.3" r="36.9"/>
		<g>
			<path d="M285.3,114.5c-0.3,14.4-8.5,27.9-22.2,33.3c-14.2,5.7-30.7,0.8-40.3-10.9c-9.2-11.3-10.7-27.6-3.6-40.4
				c7.5-13.6,23.4-20.8,38.5-17.1C273.9,83.3,285,98.1,285.3,114.5c0,1.5,3.3,0.8,3.3-0.4c-0.3-16.1-10.2-30.5-25.7-35.7
				c-14.8-5-31.9-0.4-42.1,11.4c-10.7,12.2-12.4,30.3-4,44.3c8.3,13.7,24.6,20.5,40.2,17.5c18-3.5,31.2-19.1,31.6-37.4
				C288.6,112.7,285.3,113.3,285.3,114.5z"/>
		</g>
	</g>
	
		<line fill="none" stroke="#000000" stroke-width="9.6359" stroke-linecap="round" stroke-miterlimit="10" x1="155.4" y1="332.6" x2="154.8" y2="390.8"/>
	
		<line fill="none" stroke="#000000" stroke-width="9.6359" stroke-linecap="round" stroke-miterlimit="10" x1="339.1" y1="333.8" x2="338.5" y2="392"/>
	<g>
		<path fill="#D24D9C" d="M317.1,269.3H178.6c-13.4,0-24.4-11-24.4-24.4v0c0-13.4,11-24.4,24.4-24.4h138.5c13.4,0,24.4,11,24.4,24.4
			v0C341.5,258.3,330.6,269.3,317.1,269.3z"/>
		<g>
			<path d="M317.8,268.5c-45.9,0-91.9,0.8-137.8,0c-8.9-0.2-17-4.6-21.3-12.5c-5.7-10.5-2.6-24.3,7.4-31.1
				c7.6-5.2,18.9-3.6,27.7-3.6c30.1,0,60.3,0,90.4,0c10.5,0,20.9-0.2,31.4,0c10.3,0.2,19.4,6.3,22.9,16.1
				C343.6,251.8,333.5,268.1,317.8,268.5c-1,0-3.6,1.6-1.4,1.5c9.8-0.3,19-5.1,23.8-13.9c5.4-9.9,3-22.5-5.3-30
				c-8.4-7.5-19-6.5-29.3-6.5c-32.5,0-65.1,0-97.6,0c-9.4,0-18.9-0.2-28.3,0c-18.9,0.3-34.2,19.8-23.9,37.7
				c4.6,8.1,13.1,12.5,22.3,12.6c2.7,0.1,5.4,0,8.2,0c14.2,0,28.4,0,42.7,0c28.6,0,57.2,0.3,85.9,0c0.6,0,1.1,0,1.7,0
				C317.5,270.1,320,268.5,317.8,268.5z"/>
		</g>
	</g>
	<g>
		<path fill="#5ACAED" d="M159.3,264.3c0-19.5,15.9-35.4,35.4-35.4h105.9c19.5,0,35.4,15.9,35.4,35.4v71.9c0,2.4,3,3.4,4.4,1.5
			c21.9-28.2,32.5-66.9,28.3-108.4c-7.2-69.7-68.2-122.8-137.7-113.9c-63.8,8.2-100.7,63.6-100.7,131.8c0,32.8,8.5,63.1,24.5,86.6
			c1.4,2,4.5,1.1,4.5-1.4V264.3z"/>
		<g>
			<path d="M161,264.1c0.4-19.1,15.3-33.9,34.4-34c8.9-0.1,17.7,0,26.6,0c24.9,0,49.8,0,74.7,0c14.7,0,28.3,6.2,34.6,20.3
				c4.3,9.5,3,20.8,3,30.9c0,13.8,0,27.6,0,41.4c0,4.2-0.2,8.4,0,12.6c0.2,3.7,3.4,6,6.8,3.5c3.3-2.4,5.7-7.4,7.9-10.8
				c3.3-5.2,6.2-10.6,8.8-16.2c4.7-10.2,8.1-21,10.3-32c4.5-22.4,4.6-46.5-0.8-68.8c-9.1-37.2-34.8-69.7-69.5-86.1
				c-34-16.1-76-15.6-108.8,3.4c-32.2,18.6-51.3,52.5-57.6,88.4c-3.9,22.2-3.6,45.4,1,67.4c2.5,11.7,6.2,23.2,11.4,34.1
				c2.2,4.6,4.7,9.1,7.4,13.4c1.7,2.6,3.5,6,7.1,4.5c3.2-1.3,2.7-4.6,2.7-7.4c0-5.4,0-10.8,0-16.2c0-13.4,0-26.7,0-40.1
				C161,269.5,161,266.8,161,264.1c0-1.7-3.3-1.3-3.3,0.2c0,20.9,0,41.8,0,62.7c0,3.8,0.5,9.2-3.9,2.1c-6.1-9.9-10.9-20.6-14.3-31.7
				c-6.9-22.2-8.8-45.9-6.5-69c3.7-36.5,19.7-72.8,50.6-94.2c32.1-22.2,75.4-24.3,110.5-8.3c35.4,16.1,61.4,49.3,70.2,87
				c5.2,22.2,4.9,46.1,0.1,68.4c-2.4,11.3-6.1,22.3-11.1,32.6c-2.2,4.6-4.7,9.1-7.5,13.4c-0.8,1.3-6.5,11.1-8.2,8
				c-0.4-0.7,0-2.6,0-3.3c0-2.2,0-4.5,0-6.7c0-6.2,0-12.3,0-18.5c0-12.3,0-24.7,0-37c0-12-1.9-23.1-11-31.9
				c-8.2-8-18.6-10.4-29.6-10.4c-23.7,0-47.4,0-71.1,0c-20.1,0-44.6-4-59.3,13c-5.7,6.6-8.7,15-8.9,23.7
				C157.6,266.1,161,265.6,161,264.1z"/>
		</g>
	</g>
	<g>
		<circle fill="#D24D9C" cx="155.1" cy="400.6" r="18.4"/>
		<g>
			<path d="M172.7,400.6c-0.4,10-8.3,18.4-18.7,17.7c-9.2-0.6-16.4-8.6-16.5-17.8c0-10,8.6-18.4,18.7-17.7
				C165.6,383.5,172.3,391.5,172.7,400.6c0,0.9,1.7,0.7,1.7-0.1c-0.4-10.5-8.5-19-19.2-19c-10.4,0-19.3,8.6-19.3,19.1
				c0,10.4,8.7,19,19.2,19c10.7-0.1,18.9-8.6,19.3-19.1C174.4,399.7,172.7,399.9,172.7,400.6z"/>
		</g>
	</g>
	<g>
		<circle fill="#D24D9C" cx="338.5" cy="404.2" r="18.4"/>
		<g>
			<path d="M356,404.3c-0.4,10-8.3,18.4-18.7,17.7c-9.2-0.6-16.4-8.6-16.5-17.8c0-10,8.6-18.4,18.7-17.7
				C349,387.1,355.7,395.1,356,404.3c0,0.9,1.7,0.7,1.7-0.1c-0.4-10.5-8.5-19-19.2-19c-10.4,0-19.3,8.6-19.3,19.1
				c0,10.4,8.7,19,19.2,19c10.7-0.1,18.9-8.6,19.3-19.1C357.7,403.3,356.1,403.5,356,404.3z"/>
		</g>
	</g>
	<path fill="#FFFFFF" d="M238.1,92.9c-0.5-0.2-1-0.5-1.4-0.8c-1.8-1.4-2-3.5-0.6-4.6c9-7,25.3-5.4,36.3,3.5c1.8,1.4,2,3.5,0.6,4.6
		c-1.4,1.1-4,0.9-5.8-0.6c-7.5-6.1-18.6-7.2-24.8-2.4C241.4,93.5,239.7,93.5,238.1,92.9L238.1,92.9z M238.1,92.9"/>
</g>
</svg>
